<?xml version="1.0" encoding="utf-8"?>
<!-- Generator: Adobe Illustrator 16.0.0, SVG Export Plug-In . SVG Version: 6.00 Build 0)  -->
<!DOCTYPE svg PUBLIC "-//W3C//DTD SVG 1.1//EN" "http://www.w3.org/Graphics/SVG/1.1/DTD/svg11.dtd">
<svg version="1.1" id="圖層_1" xmlns="http://www.w3.org/2000/svg" xmlns:xlink="http://www.w3.org/1999/xlink" x="0px" y="0px"
	 width="727px" height="375px" viewBox="0 0 727 375" enable-background="new 0 0 727 375" xml:space="preserve">
<g id="主標">
	<g enable-background="new    ">
		<path fill="#00CCFF" d="M118.888,254.768l14.161-2.478v110.155l-14.161,2.479V254.768z M155.249,282.482l9.48-1.658v10.08
			l-28.921,5.061v-10.08l8.64-1.512v-5.039l-7.92,1.387V271l7.92-1.386v-4.8l-8.52,1.49v-9.959l28.68-5.021v9.961l-9.36,1.638v4.801
			l8.76-1.533v9.72l-8.76,1.532L155.249,282.482L155.249,282.482z M200.369,284.667l-30.72,5.376v-10.08l9.72-1.701v-5.039l-9,1.575
			v-9.72l9-1.574v-4.801l-9.6,1.681v-9.96l30.361-5.313v9.96l-9.84,1.723v4.799l9.239-1.616v9.721l-9.239,1.617v5.039l10.079-1.766
			V284.667z M217.89,237.443v93.715c0,7.801-1.68,11.814-6.36,14.793c-4.68,3.1-11.88,4.719-22.081,6.504
			c-0.719-3.714-2.999-9.434-4.919-12.818c6.72-0.936,13.8-2.176,15.96-2.553c2.281-0.398,3.12-1.266,3.12-3.426v-93.717
			L217.89,237.443z"/>
		<path fill="#00CCFF" d="M344.37,309.505l-29.521,5.167v15.959l-13.921,2.436v-15.959l-30.001,5.25v-12.479l30.001-5.25v-8.04
			l-24.121,4.222v-44.998l24.121-4.222v-7.92l-26.28,4.599v-10.68c-3.121,10.626-6.841,23.396-10.081,32.725
			c7.319,8.078,8.761,15.865,8.761,23.064c0,7.68-1.681,13.014-5.4,16.425c-1.92,1.656-4.32,2.916-6.961,3.738
			c-2.159,0.618-5.04,1.241-7.919,1.626c0-3.48-1.201-8.79-3.121-12.054c2.04-0.117,3.72-0.291,5.28-0.686
			c1.2-0.329,2.4-0.778,3.36-1.548c1.321-1.313,1.92-3.814,1.92-7.295c0-5.521-1.559-12.688-8.399-19.41
			c2.519-8.121,5.04-19.359,7.08-27.998l-9.48,1.659v94.196l-12.361,2.162V237.281l26.161-4.578l2.161-0.979l9.6,3.84v0.119
			l25.68-4.494v-10.078l13.921-2.437v10.078l27.841-4.871v12.479l-27.841,4.873v7.92l25.32-4.432v44.997l-25.32,4.433v8.039
			l29.521-5.166L344.37,309.505L344.37,309.505z M289.769,271.063l12.12-2.121v-7.08l-12.12,2.121V271.063z M289.769,287.98
			l12.12-2.121v-7.079l-12.12,2.12V287.98z M326.609,257.535l-12.721,2.227v7.08l12.721-2.227V257.535z M326.609,274.454
			l-12.721,2.226v7.08l12.721-2.226V274.454z"/>
		<path fill="#00CCFF" d="M400.528,295.477c8.881-25.673,10.32-60.604,10.681-85.145l14.4-1.801
			c-1.319,32.029-3.96,78.811-20.04,107.063c-2.28-2-7.561-5.637-10.682-7.011c1.92-3.575,3.602-7.349,5.161-11.462
			c-15.961,7.592-32.882,15.475-45.603,21.539l-3.239-12.872l5.28-2.123v-39.599l11.16-1.953v36.719l5.04-2.203v-44.158
			l-15.722,2.752v-39.479l41.521-7.268v39.479l-13.8,2.415v12.84l13.319-2.331v12.359l-13.319,2.331v15.839
			c4.8-2.159,9.479-4.3,14.279-6.459L400.528,295.477z M368.729,241.165l17.28-3.024v-15.479l-17.28,3.023V241.165z
			 M449.489,200.152c0.96,39.431,3.601,77.486,16.682,94.998c-3.961,2.852-10.321,8.523-13.681,12.231
			c-12.721-19.612-15.48-53.809-16.562-91.178l-5.88,1.028v-13.68L449.489,200.152z"/>
		<path fill="#00CCFF" d="M520.529,274.477c8.88-25.673,10.318-60.604,10.68-85.145l14.4-1.801
			c-1.32,32.029-3.96,78.811-20.041,107.063c-2.279-2-7.561-5.637-10.681-7.01c1.92-3.576,3.602-7.35,5.159-11.462
			c-15.959,7.591-32.88,15.473-45.6,21.538l-3.241-12.872l5.28-2.123v-39.599l11.16-1.953v36.719l5.041-2.203v-44.158l-15.722,2.752
			v-39.479l41.521-7.267v39.479l-13.803,2.415v12.84l13.321-2.331v12.358l-13.321,2.332v15.839c4.802-2.159,9.481-4.3,14.281-6.459
			L520.529,274.477z M488.729,220.165l17.28-3.024v-15.479l-17.28,3.023V220.165z M569.49,179.153
			c0.96,39.429,3.6,77.486,16.68,94.998c-3.96,2.852-10.32,8.523-13.681,12.231c-12.72-19.612-15.479-53.809-16.561-91.178
			l-5.88,1.028v-13.679L569.49,179.153z"/>
		<path fill="#00CCFF" d="M635.369,255.46c-13.921,7.716-28.682,15.579-40.321,21.815l-3-12.193l3-1.365v-41.639l10.562-1.848
			v38.397l4.68-2.379v-46.438l-14.4,2.521v-38.398l36.962-6.468v38.399l-11.041,1.932v15.359l10.44-1.827v12l-10.44,1.827v15.118
			l11.16-5.793L635.369,255.46z M606.568,198.941l15.001-2.625v-15.358l-15.001,2.625V198.941z M659.61,244.498
			c-5.28,9.324-13.081,20.288-19.441,27.4c-2.159-1.901-6.96-5.621-9.84-7.037c6.24-6.133,12.72-14.705,16.921-22.4L659.61,244.498z
			 M674.85,235.352v32.278l-12.96,2.269V237.62l-27.479,4.81v-11.761l27.479-4.81v-6.358l-25.921,4.536v-27.84l30.602-5.354v26.158
			l3.239-0.567v-26.158l31.201-5.459v27.839l-26.161,4.577v6.359l27.481-4.809v11.76L674.85,235.352z M690.811,182.521
			l-44.641,7.813v-26.519l44.641-7.813V182.521z M655.409,202.635l-9.119,1.596v8.16l9.119-1.596V202.635z M677.25,168.214
			l-18.36,3.213v6.96l18.36-3.213V168.214z M686.851,234.932c6.36,5.008,14.279,12.142,17.761,17.291l-10.2,9.465
			c-3.24-5.313-10.8-12.989-17.16-18.355L686.851,234.932z M680.13,206.469l9.721-1.701v-8.16l-9.721,1.701V206.469z"/>
	</g>
	<g>
		<g>
			<path fill="#323232" d="M106.463,244.973l14.161-2.478V352.65l-14.161,2.478V244.973z M142.824,272.689l9.48-1.659v10.079
				l-28.921,5.061v-10.079l8.64-1.512v-5.04l-7.92,1.386v-9.72l7.92-1.387v-4.799l-8.52,1.489v-9.96l28.681-5.019v9.96l-9.36,1.638
				v4.802l8.76-1.533v9.719l-8.76,1.533V272.689z M187.945,274.873l-30.721,5.376v-10.08l9.72-1.7v-5.041l-9,1.575v-9.719l9-1.575
				v-4.8l-9.6,1.68v-9.96l30.361-5.313v9.959l-9.84,1.723v4.8l9.24-1.616v9.719l-9.24,1.617v5.039l10.08-1.764V274.873z
				 M205.466,227.648v93.717c0,7.8-1.68,11.813-6.36,14.792c-4.68,3.099-11.88,4.718-22.081,6.503c-0.719-3.715-3-9.436-4.92-12.818
				c6.72-0.936,13.801-2.175,15.96-2.553c2.28-0.398,3.121-1.266,3.121-3.426v-93.717L205.466,227.648z"/>
			<path fill="#323232" d="M98.963,364.055V238.671l29.161-5.103v4.561l55.562-9.723v-4.559l29.28-5.125v102.643
				c0,7.332-1.164,15.566-9.773,21.082c-5.645,3.718-13.104,5.541-24.875,7.602l-7.256,1.27l-1.4-7.229
				c-0.525-2.712-2.432-7.639-4.08-10.542l-5.452-9.605l10.94-1.522c3.616-0.504,7.849-1.168,12.616-1.979v-37.203l-33.961,5.943
				l0,0l-21.601,3.78v65.998L98.963,364.055z"/>
		</g>
		<g>
			<path fill="#323232" d="M331.947,299.715l-29.521,5.165v15.959l-13.92,2.437v-15.959l-30.001,5.25v-12.479l30.001-5.25v-8.04
				l-24.121,4.222v-45l24.121-4.221v-7.92l-26.28,4.598v-10.679c-3.121,10.625-6.84,23.396-10.08,32.722
				c7.319,8.08,8.76,15.866,8.76,23.066c0,7.68-1.681,13.014-5.4,16.425c-1.92,1.656-4.32,2.916-6.96,3.738
				c-2.16,0.618-5.04,1.242-7.92,1.625c0-3.479-1.2-8.79-3.121-12.054c2.041-0.117,3.72-0.291,5.28-0.686
				c1.201-0.328,2.4-0.779,3.36-1.548c1.321-1.312,1.92-3.815,1.92-7.296c0-5.521-1.56-12.688-8.4-19.409
				c2.52-8.12,5.04-19.36,7.08-27.998l-9.48,1.659v94.197l-12.361,2.16V227.488l26.161-4.578l2.161-0.979l9.6,3.84v0.121
				l25.68-4.494V211.32l13.92-2.438v10.079l27.841-4.871v12.479l-27.841,4.871v7.92l25.32-4.43v44.998l-25.32,4.43v8.041
				l29.521-5.166V299.715z M277.345,261.271l12.121-2.121v-7.08l-12.121,2.121V261.271z M277.345,278.189l12.121-2.121v-7.08
				l-12.121,2.121V278.189z M314.185,247.744l-12.72,2.226v7.08l12.72-2.226V247.744z M314.185,264.664l-12.72,2.227v7.079
				l12.72-2.226V264.664z"/>
			<path fill="#323232" d="M269.725,217.07l11.28-1.973v-10.08l28.92-5.062v10.079l27.841-4.871v27.707l-2.521,0.439v45.73
				l4.201-0.734v27.707l-29.521,5.166v15.959l-28.92,5.062v-15.959l-30.001,5.25v-10.655c-0.077,0.023-0.153,0.048-0.23,0.072
				l-0.167,0.051c-1.781,0.509-3.808,0.977-5.842,1.35v26.233l-27.361,4.787V221.188l31.433-5.5l4.207-1.903l4.905,1.962
				L269.725,217.07z"/>
		</g>
		<g>
			<path fill="#323232" d="M388.105,285.688c8.88-25.672,10.317-60.603,10.68-85.145l14.397-1.8
				c-1.317,32.028-3.959,78.81-20.04,107.062c-2.277-2-7.56-5.637-10.681-7.011c1.921-3.576,3.603-7.351,5.16-11.462
				c-15.96,7.593-32.88,15.473-45.6,21.539l-3.241-12.873l5.278-2.124v-39.599l11.16-1.952v36.719l5.041-2.202v-44.158l-15.721,2.75
				v-39.479l41.521-7.266v39.479l-13.801,2.415v12.839l13.321-2.33v12.359l-13.321,2.331v15.839c4.8-2.16,9.481-4.301,14.281-6.458
				L388.105,285.688z M356.304,231.375l17.281-3.023v-15.479l-17.281,3.023V231.375z M437.066,190.364
				c0.96,39.43,3.6,77.487,16.68,94.997c-3.96,2.854-10.32,8.524-13.681,12.232c-12.722-19.611-15.479-53.809-16.562-91.178
				l-5.881,1.027v-13.678L437.066,190.364z"/>
			<path fill="#323232" d="M383.868,308.247c-1.657-1.101-3.343-2.111-4.426-2.588l-6.749-2.972
				c-2.035,0.957-4.057,1.906-6.047,2.846c-7.745,3.645-15.089,7.1-21.396,10.107l-8.266,3.94l-7.074-28.101l6.65-2.676v-40.832
				l0.479-0.084V199.65l56.521-9.891v3.875l16.562-2.07v-4.102l34.228-5.989l0.214,8.706c0.919,37.772,3.396,74.902,15.188,90.692
				l4.566,6.112l-6.191,4.461c-3.574,2.574-9.535,7.904-12.508,11.184l-6.546,7.223l-5.304-8.179
				c-9.225-14.221-13.671-34.596-15.918-60.336c-2.576,23.718-7.604,49.574-18.191,68.177l-4.552,7.994l-6.914-6.068
				c-0.235-0.207-0.517-0.438-0.827-0.684L383.868,308.247z M433.673,248.707c1.628,14.006,4.197,26.656,8.373,36.54
				c0.598-0.531,1.199-1.054,1.796-1.565C439.033,274.713,435.828,262.938,433.673,248.707z M363.804,222.197v0.252l2.281-0.4
				v-0.251L363.804,222.197z"/>
		</g>
		<g>
			<path fill="#323232" d="M508.104,264.689c8.883-25.672,10.32-60.604,10.683-85.146l14.399-1.8
				c-1.319,32.029-3.962,78.811-20.041,107.063c-2.278-2-7.561-5.638-10.682-7.011c1.921-3.576,3.603-7.351,5.161-11.463
				c-15.96,7.593-32.881,15.474-45.602,21.54L458.782,275l5.28-2.124v-39.599l11.158-1.952v36.718l5.04-2.201v-44.156l-15.721,2.75
				v-39.479l41.521-7.266v39.479l-13.801,2.415v12.839l13.32-2.331v12.36l-13.32,2.331v15.839c4.801-2.16,9.48-4.298,14.28-6.458
				L508.104,264.689z M476.304,210.377l17.281-3.023v-15.479l-17.281,3.023V210.377z M557.065,169.367
				c0.96,39.43,3.601,77.486,16.681,94.997c-3.96,2.853-10.32,8.526-13.682,12.233c-12.721-19.613-15.479-53.811-16.561-91.181
				l-5.881,1.029v-13.68L557.065,169.367z"/>
			<path fill="#323232" d="M507.961,290.236l-4.097-2.989c-1.655-1.099-3.339-2.108-4.422-2.585l-6.75-2.971
				c-2.046,0.963-4.075,1.918-6.078,2.858c-7.733,3.64-15.063,7.089-21.362,10.093l-8.267,3.94l-7.073-28.101l6.65-2.676v-40.832
				l0.479-0.084v-48.24l56.521-9.89v3.875l16.561-2.07v-4.103l34.227-5.988l0.212,8.706c0.921,37.771,3.396,74.901,15.191,90.691
				l4.566,6.112l-6.191,4.461c-3.573,2.574-9.535,7.904-12.508,11.185l-6.546,7.222l-5.306-8.178
				c-9.223-14.222-13.67-34.597-15.918-60.334c-2.577,23.719-7.604,49.572-18.189,68.174l-4.552,7.995l-6.914-6.069
				c-0.236-0.207-0.518-0.438-0.829-0.685 M553.673,227.71c1.628,14.008,4.195,26.654,8.373,36.539
				c0.599-0.53,1.198-1.056,1.795-1.565C559.033,253.715,555.827,241.941,553.673,227.71z M483.804,201.2v0.251l2.281-0.399v-0.251
				L483.804,201.2z"/>
		</g>
		<g>
			<path fill="#323232" d="M622.944,245.677c-13.92,7.716-28.683,15.578-40.321,21.814l-3-12.194l3-1.365v-41.639l10.561-1.848
				v38.396l4.682-2.378v-46.438l-14.4,2.521v-38.398l36.962-6.468v38.398l-11.041,1.932v15.359l10.441-1.827v11.999l-10.441,1.827
				v15.118l11.16-5.793L622.944,245.677z M594.144,189.158l15.001-2.625v-15.359l-15.001,2.625V189.158z M647.186,234.715
				c-5.278,9.323-13.08,20.288-19.439,27.401c-2.159-1.902-6.959-5.622-9.84-7.038c6.238-6.131,12.721-14.705,16.921-22.4
				L647.186,234.715z M662.426,225.568v32.279l-12.961,2.268v-32.279l-27.479,4.809v-11.76l27.479-4.808v-6.36l-25.92,4.536v-27.839
				l30.603-5.354v26.159l3.237-0.566v-26.158l31.202-5.459v27.838l-26.161,4.578v6.359l27.48-4.81v11.76L662.426,225.568z
				 M678.387,172.738l-44.642,7.811V154.03l44.642-7.813V172.738L678.387,172.738z M642.984,192.852l-9.119,1.597v8.159l9.119-1.597
				V192.852z M664.826,158.432l-18.361,3.212v6.96l18.361-3.212V158.432z M674.426,225.148c6.36,5.007,14.28,12.142,17.763,17.291
				l-10.2,9.466c-3.24-5.313-10.8-12.99-17.16-18.356L674.426,225.148z M667.706,196.686l9.72-1.699v-8.159l-9.72,1.7V196.686z"/>
			<path fill="#323232" d="M577.648,278.665l-6.795-27.618l4.27-1.943v-43.111l0.84-0.146v-47.999l50.282-8.798v-1.32l59.642-10.436
				v30.599l10.2-1.785v34.2l1.319-0.23v26.986l-7.735,1.354c3.288,3.133,6.563,6.617,8.729,9.825l3.599,5.323l-21.638,20.078
				l-4.778-7.834c-1.139-1.867-3.16-4.363-5.657-7.058v15.397l-27.961,4.892v-12.67c-2.932,3.981-5.899,7.694-8.63,10.745
				l-4.962,5.549l-5.586-4.92c-2.222-1.957-6.37-5.04-8.191-5.936l-2.896-1.425c-7.265,3.938-14.391,7.751-20.993,11.286
				L577.648,278.665z"/>
		</g>
	</g>
	<g enable-background="new    ">
		<path fill="#46FFC2" d="M106.429,244.961l14.161-2.479v110.156l-14.161,2.478V244.961z M142.79,272.676l9.48-1.658v10.08
			l-28.921,5.062v-10.08l8.641-1.513v-5.039l-7.92,1.387v-9.721l7.92-1.385v-4.801l-8.52,1.49v-9.959l28.68-5.02v9.959l-9.36,1.639
			v4.801l8.76-1.533v9.719l-8.76,1.533V272.676z M187.91,274.859l-30.72,5.377v-10.08l9.72-1.701v-5.039l-9,1.575v-9.72l9-1.575
			v-4.8l-9.6,1.68v-9.959l30.361-5.313v9.959l-9.84,1.723v4.8l9.239-1.617v9.722l-9.239,1.615v5.039l10.079-1.764V274.859
			L187.91,274.859z M205.431,227.636v93.716c0,7.801-1.68,11.813-6.36,14.793c-4.68,3.101-11.88,4.719-22.081,6.504
			c-0.72-3.715-3-9.435-4.92-12.817c6.721-0.937,13.801-2.177,15.96-2.554c2.281-0.399,3.121-1.266,3.121-3.426v-93.717
			L205.431,227.636z"/>
		<path fill="#46FFC2" d="M331.911,299.698l-29.521,5.166v15.959l-13.92,2.437v-15.959l-30.001,5.25v-12.479l30.001-5.251v-8.039
			l-24.121,4.221v-44.998l24.121-4.221v-7.92l-26.28,4.599v-10.68c-3.121,10.626-6.84,23.396-10.08,32.724
			c7.319,8.078,8.76,15.865,8.76,23.066c0,7.68-1.68,13.012-5.4,16.423c-1.92,1.656-4.32,2.917-6.96,3.738
			c-2.16,0.617-5.04,1.24-7.919,1.625c0-3.479-1.201-8.788-3.121-12.053c2.04-0.117,3.72-0.291,5.28-0.685
			c1.201-0.329,2.4-0.78,3.36-1.548c1.321-1.311,1.92-3.816,1.92-7.295c0-5.521-1.559-12.688-8.4-19.41
			c2.52-8.121,5.04-19.36,7.08-27.998l-9.48,1.659v94.196l-12.361,2.162V227.475l26.161-4.578l2.16-0.979l9.601,3.84v0.119
			l25.68-4.494v-10.078l13.92-2.437v10.079l27.841-4.872v12.479l-27.841,4.871v7.92l25.32-4.431v44.998l-25.32,4.431v8.04
			l29.521-5.166L331.911,299.698L331.911,299.698z M277.31,261.256l12.12-2.121v-7.08l-12.12,2.121V261.256z M277.31,278.174
			l12.12-2.121v-7.078l-12.12,2.121V278.174z M314.15,247.729l-12.722,2.227v7.08l12.722-2.227V247.729z M314.15,264.648
			l-12.722,2.226v7.079l12.722-2.227V264.648z"/>
		<path fill="#46FFC2" d="M388.069,285.67c8.881-25.673,10.32-60.604,10.681-85.145l14.4-1.801
			c-1.32,32.028-3.96,78.811-20.04,107.063c-2.28-2-7.562-5.637-10.682-7.01c1.92-3.576,3.602-7.352,5.161-11.465
			c-15.961,7.595-32.882,15.475-45.603,21.541l-3.239-12.873l5.28-2.123V254.26l11.159-1.953v36.719l5.039-2.202v-44.158
			l-15.72,2.752v-39.479l41.521-7.267v39.479l-13.801,2.414v12.84l13.319-2.33v12.359l-13.319,2.33v15.84
			c4.801-2.16,9.479-4.3,14.279-6.459L388.069,285.67z M356.27,231.357l17.28-3.024v-15.479l-17.28,3.024V231.357z M437.03,190.346
			c0.96,39.43,3.601,77.486,16.682,94.996c-3.961,2.854-10.321,8.527-13.681,12.234c-12.721-19.613-15.48-53.809-16.562-91.178
			l-5.88,1.027v-13.68L437.03,190.346z"/>
		<path fill="#46FFC2" d="M508.07,264.67c8.88-25.673,10.318-60.604,10.68-85.145l14.4-1.8c-1.32,32.029-3.96,78.811-20.041,107.063
			c-2.279-2-7.561-5.636-10.681-7.011c1.92-3.575,3.602-7.351,5.159-11.463c-15.959,7.595-32.88,15.474-45.6,21.539l-3.241-12.873
			l5.28-2.123V233.26l11.16-1.953v36.719l5.041-2.202v-44.158l-15.722,2.752v-39.479l41.521-7.266v39.479l-13.803,2.416v12.84
			l13.321-2.331v12.358l-13.321,2.332v15.838c4.802-2.158,9.481-4.299,14.281-6.459L508.07,264.67z M476.27,210.357l17.28-3.024
			v-15.479l-17.28,3.024V210.357z M557.031,169.345c0.96,39.431,3.6,77.487,16.68,94.997c-3.96,2.854-10.32,8.527-13.681,12.234
			c-12.72-19.613-15.479-53.809-16.561-91.178l-5.881,1.029v-13.68L557.031,169.345z"/>
		<path fill="#46FFC2" d="M622.91,245.652c-13.921,7.717-28.682,15.58-40.321,21.815l-3-12.194l3-1.363v-41.639l10.562-1.85v38.398
			l4.68-2.379v-46.438l-14.4,2.521v-38.397l36.962-6.468v38.398l-11.041,1.933v15.358l10.44-1.826v12l-10.44,1.826v15.119
			l11.16-5.793L622.91,245.652z M594.109,189.136l15-2.625v-15.359l-15,2.625V189.136z M647.15,234.691
			c-5.279,9.322-13.08,20.287-19.44,27.4c-2.159-1.902-6.96-5.622-9.84-7.038c6.24-6.132,12.72-14.704,16.921-22.399L647.15,234.691
			z M662.391,225.545v32.278l-12.96,2.269v-32.279l-27.479,4.811v-11.76l27.479-4.811v-6.359l-25.921,4.537v-27.838l30.602-5.355
			v26.158l3.239-0.567V180.47l31.201-5.46v27.84l-26.161,4.577v6.359l27.481-4.81v11.76L662.391,225.545z M678.352,172.714
			l-44.641,7.812v-26.52l44.641-7.812V172.714z M642.95,192.828l-9.119,1.596v8.16l9.119-1.596V192.828z M664.791,158.407
			l-18.36,3.213v6.96l18.36-3.213V158.407z M674.392,225.125c6.36,5.006,14.279,12.141,17.761,17.291l-10.2,9.465
			c-3.24-5.313-10.8-12.99-17.16-18.355L674.392,225.125z M667.671,196.662l9.721-1.701v-8.16l-9.721,1.701V196.662z"/>
	</g>
	<g enable-background="new    ">
		<path fill="#00CCFF" d="M104.863,213.238l44.4-7.771v12.72L47.141,236.059V223.34l42.841-7.498v-14.518l-31.081,5.438v-12.359
			l31.081-5.439v-13.678l-25.201,4.41v-10.319c-5.16,4.382-10.319,8.286-15.24,11.666c-2.041-3.123-5.521-7.433-8.761-9.986
			c13.321-7.73,28.201-20.294,39.481-32.948l-15.96,2.792v-13.199l41.042-7.182c10.32,13.313,29.52,25.073,49.921,28.942
			c-3,3.645-7.44,10.301-9.6,14.759c-5.16-1.497-10.201-3.494-15.121-5.874v9.84l-25.68,4.494v13.679l31.44-5.502v12.36
			l-31.44,5.502V213.238L104.863,213.238z M126.463,156.301c-11.041-5.868-21.001-13.364-28.801-21.239
			c-7.921,10.626-18.601,21.855-29.521,31.446L126.463,156.301z"/>
		<path fill="#00CCFF" d="M236.143,165.186c5.28,13.955,13.08,22.91,19.68,21.754c3-0.525,4.2-5.774,4.919-17.78
			c3.241,2.313,8.401,4.05,12.361,4.557c-2.041,20.276-7.2,25.619-18.001,27.51c-15,2.625-27.6-11.729-34.2-33.374l-31.321,5.481
			v22.438l28.56-10.997c0.12,4.059,0.841,10.172,1.561,13.286c-35.28,14.334-41.161,16.563-44.881,19.256
			c-0.96-3.435-4.2-9.105-6.36-11.487c2.64-2.144,6.12-6.11,6.12-11.392v-84.356l87.362-15.289v38.999l-31.321,5.481
			c0.36,4.617,1.08,8.93,1.92,13.223l37.921-6.636v13.32L236.143,165.186z M189.582,120.656v12.599l57.841-10.122v-12.599
			L189.582,120.656z M217.782,155.079c-0.839-4.293-1.44-8.627-1.8-13.244l-26.4,4.62v13.559L217.782,155.079z"/>
		<path fill="#00CCFF" d="M311.141,129.022c0,19.318-2.64,47.5-17.878,67.085c-1.92-2.424-7.2-6.659-9.961-7.735
			c7.921-10.266,11.521-22.055,13.321-33.53c-4.32,3.396-8.521,6.651-12.721,9.786l-4.08-12.125
			c4.8-2.88,11.279-7.134,18.121-11.811c0.119-3.261,0.119-6.38,0.119-9.38v-3.96l-10.561,6.527c-0.72-6.114-3.48-15.71-6.6-22.844
			l10.32-6.006c3,6.075,5.64,14.013,6.839,20.042V92.793l37.682-6.594c-1.08-1.851-2.4-3.66-3.722-5.229l11.882-7.599
			c2.76,2.876,5.64,6.693,7.439,10.098l41.28-7.225v11.999l-81.482,14.26v26.519H311.141z M382.423,96.628
			c-0.479,43.883-0.84,70.344,3.84,69.525c1.44-0.252,2.041-7.316,2.161-15.497c1.92,2.424,4.8,5.639,7.08,7.04
			c-1.081,13.39-3.121,19.146-10.201,20.385c-14.159,2.478-14.76-21.656-14.76-68.935l-42.241,7.392v15
			c0,16.68-2.04,41.515-13.561,59.61c-1.8-1.965-6.48-5.226-8.879-6.005c10.198-16.305,11.278-36.892,11.278-51.772v-25.319
			L382.423,96.628z M365.383,156.969c3.24,6.032,6.721,14.303,8.159,19.451l-8.52,4.491c-0.36-1.737-0.96-3.792-1.681-5.947
			c-12.601,3.646-25.439,7.332-35.399,10.155l-1.441-10.787c4.921-1.221,10.801-2.729,17.401-4.485v-9.96l-12.36,2.163v-26.879
			l12.36-2.163v-5.879l-12.001,2.1v-9.24l35.642-6.237v9.24l-13.201,2.31v5.879l12.961-2.268v26.879l-12.961,2.268v9l5.4-1.544
			c-0.72-1.674-1.44-3.229-2.159-4.782L365.383,156.969z M339.702,151.863l5.64-0.987v-9.36l-5.64,0.987V151.863z M358.663,139.185
			l-5.881,1.029v9.36l5.881-1.029V139.185z"/>
		<path fill="#00CCFF" d="M507.583,61.167c-3.72,13.25-9.359,24.916-16.68,35.197c6.961,4.301,15.239,7.652,24.84,8.972
			c-2.88,3.264-6.959,9.497-8.879,13.554l-0.241-0.078v39.238l-13.68,2.394v-3.72l-22.562,3.948v4.079l-13.2,2.31v-38.998
			l-2.76,1.684c-0.96-1.752-2.64-4.099-4.439-6.063v3.479l-13.2,2.31v15.96l14.16-5.718l1.318,12.369
			c-16.799,7.139-35.039,14.531-48.6,20.024l-2.521-13.238l5.4-1.905v-40.318l11.641-2.037v37.919l5.999-2.25V105.16l-16.8,2.94
			V68.381l41.4-7.245v29.759c8.761-9.933,15.96-23.912,19.92-37.684l13.561,0.986c-0.96,2.809-1.92,5.736-3,8.565l16.802-2.94
			l2.52-0.921L507.583,61.167z M419.861,93.677l15.841-2.771V75.666l-15.961,2.793L419.861,93.677z M449.982,118.404
			c8.279-5.049,16.2-11.594,22.921-19.01c-2.88-2.976-5.281-6.156-7.44-9.257c-2.28,3.399-4.68,6.579-7.08,9.518
			c-2.04-1.802-6.359-4.886-9.601-6.479v7.68l-12,2.1v14.039l13.2-2.31V118.404z M496.904,115.832
			c-5.521-2.273-10.441-5.012-15.001-8.294c-4.562,4.999-9.48,9.339-14.761,13.502L496.904,115.832z M492.943,144.484v-15.959
			l-22.562,3.948v15.959L492.943,144.484z M473.503,75.889l-0.96,1.968c2.399,3.66,5.4,7.335,8.76,10.827
			c3.48-5.05,6.36-10.233,8.762-15.693L473.503,75.889z"/>
		<path fill="#00CCFF" d="M615.343,126.305c5.881-1.029,6.722-3.457,7.562-14.402c2.88,1.296,8.16,2.532,11.641,2.643
			c-1.681,15.773-5.4,21.104-18.24,23.352l-24.48,4.284c-15.359,2.688-19.681-0.516-19.681-14.675V76.748
			c-1.2-1.471-3.359-3.732-5.521-5.754v9.12l-12.24,2.142v12.84l11.28-1.974v12.359l-11.28,1.974v16.919l12.48-5.424l1.8,11.685
			c-15.36,7.368-32.041,15.087-44.762,20.792l-3.359-12.731l5.28-2.003v-40.68l11.398-1.995v37.798l4.682-2.019V84.439l-15.36,2.688
			V47.648l40.081-7.014v23.759c6.36-8.673,11.52-19.775,14.521-30.62l12.602,1.154c-1.081,3.309-2.28,6.639-3.48,9.968l37.682-6.594
			v5.88c-0.12,39.86-0.24,53.92-3.12,58.744c-2.28,3.999-4.921,5.661-8.641,7.032c-3.479,1.208-8.521,1.97-14.04,2.816
			c-0.119-2.739-0.96-6.191-2.28-9.201l-15.119,2.646v18.96c0,5.521,1.079,6.291,8.159,5.051L615.343,126.305z M538.662,73.007
			l14.999-2.625v-15.48l-14.999,2.625V73.007z M584.143,58.327c-1.92,3.696-3.96,7.173-6.001,10.53l29.401-5.145V99.71l1.8-0.315
			c1.682-0.294,2.521-0.8,3.48-2.409c1.681-2.813,1.8-13.875,1.8-43.994L584.143,58.327z M595.663,77.191l-10.92,1.911v15.719
			l10.92-1.911V77.191z"/>
	</g>
	<g>
		<g>
			<path fill="#323232" d="M92.438,203.443l44.401-7.77v12.721L34.716,226.264v-12.719l42.841-7.496v-14.52l-31.081,5.438v-12.359
				l31.081-5.438v-13.68l-25.201,4.41v-10.32c-5.16,4.383-10.32,8.286-15.24,11.667c-2.04-3.123-5.52-7.434-8.76-9.987
				c13.321-7.729,28.201-20.294,39.481-32.947l-15.961,2.793v-13.199l41.042-7.182c10.32,13.313,29.521,25.073,49.921,28.943
				c-3,3.645-7.441,10.302-9.6,14.76c-5.161-1.498-10.201-3.495-15.121-5.874v9.84l-25.68,4.493v13.679l31.44-5.501v12.359
				l-31.44,5.502V203.443L92.438,203.443z M114.039,146.507c-11.04-5.868-21.001-13.365-28.801-21.24
				c-7.92,10.626-18.601,21.854-29.521,31.445L114.039,146.507z"/>
			<path fill="#323232" d="M27.216,235.189v-27.947l11.76-2.059v-26.119l-3.94,2.708l-4.199-6.427
				c-1.676-2.566-4.621-6.226-7.124-8.197l-8.674-6.835l9.551-5.543c6.548-3.799,13.706-9,20.62-14.887l-0.835,0.146v-28.427
				l51.701-9.046l2.769,3.571c9.693,12.506,27.511,22.777,45.392,26.17l12.439,2.359l-8.047,9.775
				c-2.547,3.095-6.723,9.302-8.641,13.262l-2.76,5.698l-6.08-1.764c-1.828-0.53-3.674-1.129-5.532-1.793v3.309l5.76-1.007v26.881
				l12.96-2.27v27.945L27.216,235.189z M44.856,174.969c-1.159,0.835-2.324,1.655-3.493,2.458l-0.9,0.619l4.394-0.769
				L44.856,174.969L44.856,174.969z M118.967,140.633l2.415,1.168c2.799,1.353,5.585,2.544,8.332,3.563
				c0.235-0.383,0.476-0.771,0.718-1.152c-15.725-5.073-30.569-14.311-40.484-25.354l-0.428,0.075l1.046,1.057
				c7.592,7.665,16.925,14.544,26.992,19.896L118.967,140.633z M86.076,136.33c-2.411,2.918-4.996,5.866-7.719,8.806l15.313-2.679
				C91.04,140.497,88.503,138.45,86.076,136.33z"/>
		</g>
		<g>
			<path fill="#323232" d="M223.718,155.394c5.28,13.956,13.081,22.911,19.681,21.756c3-0.525,4.201-5.775,4.92-17.78
				c3.24,2.313,8.399,4.05,12.36,4.557c-2.04,20.276-7.2,25.619-18,27.509c-15,2.625-27.601-11.729-34.201-33.374l-31.321,5.48
				v22.439l28.561-10.997c0.12,4.059,0.84,10.173,1.56,13.288c-35.281,14.332-41.161,16.563-44.881,19.252
				c-0.96-3.433-4.2-9.104-6.36-11.485c2.641-2.144,6.121-6.11,6.121-11.391V100.29l87.362-15.286V124l-31.321,5.48
				c0.36,4.617,1.08,8.931,1.92,13.224l37.921-6.635v13.319L223.718,155.394z M177.157,110.863v12.6l57.842-10.121v-12.6
				L177.157,110.863z M205.358,145.287c-0.84-4.293-1.44-8.627-1.8-13.245l-26.401,4.62v13.56L205.358,145.287z"/>
			<path fill="#323232" d="M158.072,219.906l-2.898-10.364c-0.644-2.299-3.305-6.938-4.693-8.468l-5.325-5.871l6.156-4.993
				c1.005-0.815,3.345-2.991,3.345-5.565V93.986l102.362-17.911v52.558l8.52-1.491v28.548l-4.267,0.746
				c0.121,0.018,0.241,0.035,0.359,0.05l7.241,0.927l-0.73,7.264c-1.892,18.801-6.595,31.07-24.17,34.146
				c-1.596,0.278-3.212,0.421-4.804,0.421c-9.167,0-17.663-4.63-24.667-13.044c0.028,0.133,0.056,0.259,0.084,0.38l1.441,6.23
				l-17.17,6.972c-23.263,9.437-29.515,11.974-32.064,13.817L158.072,219.906z M165.626,196.707
				c0.089,0.152,0.179,0.307,0.267,0.459c1.086-0.484,2.328-1.023,3.764-1.633v-10.889
				C169.657,188.857,168.233,193.033,165.626,196.707z M214.701,152.757l0.95,3.116c5.156,16.91,13.742,27.629,22.587,28.333
				c-8.306-2.263-15.996-11.518-21.535-26.159L214.701,152.757z M184.657,169.843v5.213l19.226-7.403
				c-0.144-0.363-0.286-0.731-0.426-1.1L184.657,169.843z M234.589,161.104c2.003,3.544,3.907,5.833,5.359,7.161
				c0.271-1.752,0.561-4.361,0.815-8.241L234.589,161.104z M169.657,106.59v50.649V106.59z"/>
		</g>
		<g>
			<path fill="#323232" d="M298.717,119.231c0,19.319-2.641,47.5-17.881,67.087c-1.92-2.425-7.2-6.661-9.96-7.737
				c7.92-10.266,11.52-22.055,13.32-33.529c-4.32,3.396-8.52,6.65-12.721,9.785l-4.08-12.125c4.8-2.879,11.28-7.134,18.12-11.81
				c0.121-3.261,0.121-6.381,0.121-9.381v-3.96l-10.561,6.528c-0.72-6.114-3.48-15.71-6.601-22.844l10.321-6.006
				c3,6.075,5.64,14.013,6.84,20.042V83.002l37.682-6.593c-1.08-1.851-2.4-3.66-3.722-5.229l11.88-7.599
				c2.763,2.877,5.643,6.693,7.441,10.098l41.281-7.223v11.999l-81.482,14.257v26.519H298.717L298.717,119.231z M369.998,86.84
				c-0.479,43.882-0.84,70.344,3.841,69.525c1.439-0.252,2.04-7.316,2.159-15.498c1.92,2.424,4.8,5.64,7.081,7.042
				c-1.08,13.388-3.121,19.145-10.2,20.383c-14.161,2.478-14.761-21.657-14.761-68.934l-42.241,7.392v14.999
				c0,16.679-2.041,41.515-13.561,59.61c-1.802-1.965-6.48-5.226-8.881-6.005c10.201-16.305,11.281-36.893,11.281-51.771v-25.32
				L369.998,86.84z M352.958,147.179c3.241,6.033,6.72,14.304,8.162,19.452l-8.521,4.491c-0.358-1.737-0.96-3.792-1.68-5.946
				c-12.601,3.645-25.44,7.332-35.401,10.154l-1.438-10.788c4.919-1.221,10.8-2.729,17.398-4.484v-9.96l-12.359,2.163v-26.879
				l12.359-2.163v-5.88l-12,2.1v-9.24l35.642-6.236v9.24l-13.2,2.31v5.88l12.959-2.268v26.879l-12.959,2.267v9l5.399-1.544
				c-0.721-1.674-1.44-3.228-2.159-4.782L352.958,147.179z M327.277,142.073l5.64-0.987v-9.359l-5.64,0.987V142.073z
				 M346.237,129.396l-5.879,1.029v9.359l5.879-1.029V129.396z"/>
			<path fill="#323232" d="M280.889,198.463l-5.932-7.488c-1.281-1.617-5.449-4.841-6.818-5.412l-9.33-3.64l6.128-7.924
				c2.174-2.818,4.051-5.846,5.657-9.148l-2.928,2.185l-9.304-27.652l5.174-3.104c1.491-0.896,3.184-1.947,5.053-3.141l-0.963-8.173
				c-0.638-5.419-3.228-14.325-6.023-20.716l-2.679-6.125l19.212-11.18V76.701l31.646-5.538l-1.427-1.696l24.269-15.523l4.265,4.444
				c2.043,2.129,4.032,4.577,5.734,7.029l45.076-7.887v27.227l-10.197,1.784l-0.023,2.319c-0.167,15.251-0.329,30.07-0.178,41.573
				l4.576,5.777c2.442,3.083,4.404,4.863,5.128,5.307l3.92,2.409l-0.37,4.585c-0.792,9.816-1.986,24.649-16.383,27.168
				c-1.083,0.189-2.156,0.286-3.188,0.286c-3.054,0-5.591-0.749-7.707-1.994l-16,8.432l-1.638-7.897
				c-10.593,3.055-20.368,5.854-28.076,8.039l-8.334,2.362l-0.052-0.374c-0.176,0.286-0.354,0.571-0.532,0.853l-5.252,8.249
				l-6.605-7.211c-0.792-0.864-3.121-2.543-4.673-3.436c-1.644,2.811-3.43,5.458-5.357,7.935L280.889,198.463z"/>
		</g>
		<g>
			<path fill="#323232" d="M495.158,51.38c-3.721,13.25-9.359,24.917-16.68,35.197c6.959,4.302,15.238,7.653,24.84,8.973
				c-2.881,3.264-6.96,9.497-8.881,13.553l-0.239-0.077v39.238l-13.682,2.394v-3.721l-22.561,3.948v4.08l-13.201,2.31v-38.999
				l-2.76,1.683c-0.96-1.752-2.642-4.098-4.44-6.063v3.479l-13.197,2.31v15.959l14.157-5.717l1.32,12.368
				c-16.8,7.14-35.04,14.531-48.601,20.024l-2.521-13.239l5.4-1.905v-40.318l11.641-2.037v37.918l6-2.249V95.373l-16.801,2.939
				V58.594l41.4-7.244v29.759c8.762-9.933,15.959-23.912,19.92-37.684l13.562,0.986c-0.96,2.808-1.92,5.736-3,8.564l16.8-2.939
				l2.521-0.921L495.158,51.38z M407.438,83.889l15.841-2.771v-15.24l-15.96,2.792L407.438,83.889z M437.557,108.617
				c8.28-5.049,16.201-11.594,22.922-19.01c-2.88-2.977-5.279-6.156-7.439-9.258c-2.279,3.399-4.68,6.579-7.079,9.519
				c-2.041-1.803-6.36-4.887-9.601-6.48v7.68l-12,2.1v14.039l13.197-2.31V108.617z M484.479,106.047
				c-5.521-2.274-10.438-5.013-15-8.295c-4.561,4.998-9.479,9.339-14.761,13.502L484.479,106.047z M480.52,134.699v-15.96
				l-22.562,3.947v15.96L480.52,134.699z M461.077,66.104l-0.96,1.968c2.398,3.66,5.398,7.335,8.761,10.826
				c3.48-5.049,6.36-10.232,8.761-15.692L461.077,66.104z"/>
			<path fill="#323232" d="M385.578,172.705l-5.438-28.551l6.476-2.284v-41.313l0.84-0.147V52.292l56.401-9.869v12.924
				c2.076-4.529,3.851-9.262,5.212-13.996l1.682-5.849l29.329,2.134l-1.967,5.752l3.576-0.625l4.062-1.484l18.711,4.709
				l-2.083,7.419c-3.058,10.894-7.457,21.088-13.114,30.413c4.809,2.141,9.854,3.582,15.075,4.3l13.855,1.906l-9.253,10.487
				c-1.229,1.393-2.787,3.534-4.235,5.754l6.566,2.705l-9.164,1.604c-0.146,0.264-0.281,0.521-0.411,0.771v43.22l-28.682,5.018
				v-3.72l-7.561,1.323v4.08l-28.201,4.934V151.53c-15.347,6.457-31.247,12.896-43.205,17.741L385.578,172.705z M465.458,128.989
				v0.729l7.562-1.324v-0.73L465.458,128.989z"/>
		</g>
		<g>
			<path fill="#323232" d="M602.919,116.521c5.88-1.029,6.72-3.456,7.56-14.402c2.882,1.296,8.16,2.532,11.643,2.643
				c-1.681,15.773-5.4,21.104-18.24,23.351l-24.479,4.283c-15.36,2.688-19.683-0.516-19.683-14.676V66.963
				c-1.2-1.47-3.358-3.732-5.521-5.754v9.12l-12.24,2.142V85.31l11.28-1.974v12.36l-11.28,1.974v16.919l12.479-5.423l1.801,11.685
				c-15.36,7.367-32.041,15.086-44.763,20.792l-3.358-12.731l5.279-2.004v-40.68l11.398-1.995v37.798l4.682-2.021V74.654
				l-15.359,2.688V37.863l40.081-7.013v23.759c6.359-8.673,11.52-19.775,14.521-30.62l12.603,1.155
				c-1.08,3.309-2.28,6.639-3.48,9.969l37.684-6.593v5.879c-0.121,39.86-0.241,53.92-3.121,58.744
				c-2.279,3.999-4.92,5.66-8.642,7.031c-3.479,1.209-8.521,1.971-14.041,2.817c-0.117-2.739-0.96-6.192-2.278-9.201l-15.119,2.646
				v18.959c0,5.521,1.079,6.291,8.159,5.053L602.919,116.521z M526.237,63.222l14.999-2.625v-15.48l-14.999,2.625V63.222z
				 M571.718,48.544c-1.92,3.695-3.96,7.173-6.001,10.529l29.401-5.146v35.999l1.8-0.315c1.681-0.294,2.521-0.801,3.48-2.409
				c1.681-2.814,1.8-13.875,1.8-43.993L571.718,48.544z M583.238,67.407l-10.92,1.911v15.719l10.92-1.911V67.407z"/>
			<path fill="#323232" d="M506.479,152.102l-7.338-27.807l6.754-2.564V79.926l0.723-0.126V31.562l54.882-9.603l1.663-6.01
				l28.204,2.586l-2.284,6.998l33.938-5.938v14.806c-0.136,44.823-0.313,55.928-4.084,62.424c1.272,0.247,2.497,0.413,3.426,0.443
				l8.071,0.258l-0.854,8.032c-1.768,16.569-6.325,26.78-24.405,29.944l-24.479,4.283c-3.767,0.659-6.89,0.979-9.549,0.979
				c-6.849,0-11.929-2.264-15.101-6.729c-0.809-1.139-1.479-2.398-2.021-3.815c-13.097,6.229-27.479,12.883-39.478,18.265
				L506.479,152.102z M579.818,102.738v10.211l21.808-3.816c0.183-0.032,0.338-0.063,0.471-0.091c0.05-0.194,0.1-0.415,0.146-0.655
				c-3.339,0.784-7.167,1.371-11.151,1.981l-8.501,1.302l-0.363-8.353c-0.014-0.311-0.043-0.641-0.087-0.986L579.818,102.738z"/>
		</g>
	</g>
	<g enable-background="new    ">
		<path fill="#46FFC2" d="M92.403,203.434l44.401-7.771v12.719L34.682,226.252v-12.719l42.841-7.496v-14.52l-31.081,5.438v-12.359
			l31.081-5.439v-13.68l-25.2,4.41v-10.32c-5.16,4.384-10.321,8.287-15.241,11.667c-2.04-3.122-5.52-7.433-8.76-9.986
			c13.32-7.73,28.2-20.294,39.48-32.948l-15.96,2.793v-13.199l41.041-7.182c10.32,13.313,29.521,25.072,49.921,28.942
			c-3,3.645-7.439,10.301-9.6,14.759c-5.16-1.496-10.2-3.494-15.12-5.873v9.84l-25.681,4.494v13.68l31.441-5.502v12.359
			l-31.441,5.502V203.434L92.403,203.434z M114.003,146.494c-11.04-5.868-21-13.364-28.8-21.239
			c-7.92,10.626-18.6,21.854-29.52,31.445L114.003,146.494z"/>
		<path fill="#46FFC2" d="M223.683,155.379c5.28,13.955,13.081,22.909,19.68,21.754c3-0.525,4.201-5.774,4.92-17.78
			c3.24,2.313,8.4,4.049,12.36,4.557c-2.04,20.276-7.2,25.619-18,27.51c-15.001,2.625-27.601-11.73-34.201-33.374l-31.321,5.481
			v22.438l28.561-10.998c0.119,4.059,0.84,10.173,1.56,13.286c-35.281,14.335-41.162,16.563-44.881,19.254
			c-0.96-3.432-4.2-9.104-6.36-11.485c2.641-2.144,6.121-6.11,6.121-11.392v-84.356l87.362-15.288v38.999l-31.321,5.481
			c0.359,4.617,1.079,8.93,1.92,13.224l37.921-6.636v13.319L223.683,155.379z M177.122,110.849v12.6l57.842-10.122v-12.6
			L177.122,110.849z M205.323,145.273c-0.841-4.293-1.441-8.628-1.801-13.245l-26.4,4.62v13.56L205.323,145.273z"/>
		<path fill="#46FFC2" d="M298.682,119.215c0,19.319-2.639,47.5-17.878,67.086c-1.92-2.424-7.2-6.66-9.961-7.736
			c7.92-10.266,11.52-22.055,13.321-33.53c-4.32,3.396-8.521,6.651-12.721,9.787l-4.08-12.126c4.8-2.88,11.28-7.134,18.12-11.811
			c0.121-3.261,0.121-6.381,0.121-9.38v-3.96l-10.561,6.528c-0.72-6.114-3.48-15.71-6.6-22.844l10.319-6.006
			c3,6.075,5.64,14.013,6.841,20.042V82.986l37.68-6.594c-1.079-1.851-2.399-3.66-3.72-5.229l11.88-7.598
			c2.76,2.876,5.641,6.692,7.44,10.097l41.28-7.224v11.999l-81.482,14.259L298.682,119.215L298.682,119.215z M369.964,86.821
			c-0.479,43.883-0.84,70.344,3.84,69.525c1.44-0.252,2.04-7.317,2.161-15.497c1.92,2.424,4.8,5.64,7.079,7.041
			c-1.08,13.389-3.12,19.146-10.2,20.385c-14.159,2.478-14.76-21.656-14.76-68.934l-42.241,7.392v14.999
			c0,16.679-2.04,41.516-13.561,59.611c-1.8-1.964-6.48-5.226-8.879-6.006c10.2-16.304,11.28-36.893,11.28-51.772v-25.32
			L369.964,86.821z M352.924,147.162c3.24,6.033,6.721,14.302,8.159,19.451l-8.52,4.491c-0.36-1.737-0.96-3.792-1.681-5.946
			c-12.601,3.646-25.439,7.332-35.399,10.155l-1.441-10.787c4.921-1.222,10.801-2.731,17.4-4.485v-9.959l-12.359,2.163v-26.879
			l12.359-2.163v-5.88l-12,2.1v-9.24l35.642-6.237v9.24l-13.201,2.31v5.88l12.961-2.269v26.879l-12.961,2.269v8.999l5.4-1.545
			c-0.72-1.674-1.44-3.229-2.159-4.782L352.924,147.162z M327.243,142.056l5.64-0.987v-9.36l-5.64,0.987V142.056z M346.204,129.377
			l-5.881,1.029v9.36l5.881-1.029V129.377z"/>
		<path fill="#46FFC2" d="M495.123,51.358c-3.72,13.251-9.359,24.917-16.68,35.199c6.96,4.301,15.239,7.652,24.84,8.972
			c-2.88,3.264-6.959,9.497-8.88,13.553l-0.24-0.077v39.238l-13.68,2.395v-3.72l-22.562,3.948v4.079l-13.2,2.31v-38.998l-2.76,1.683
			c-0.96-1.751-2.641-4.097-4.44-6.063v3.479l-13.199,2.31v15.96l14.16-5.718l1.319,12.368
			c-16.801,7.141-35.042,14.532-48.602,20.025l-2.521-13.239l5.4-1.905V106.84l11.64-2.037v37.919l6-2.25V95.354l-16.8,2.94V58.575
			l41.4-7.245v29.759c8.76-9.933,15.961-23.913,19.92-37.685l13.561,0.986c-0.96,2.809-1.92,5.737-3,8.565l16.801-2.94l2.521-0.921
			L495.123,51.358z M407.401,83.87l15.841-2.772v-15.24l-15.961,2.793L407.401,83.87z M437.521,108.597
			c8.28-5.049,16.2-11.595,22.921-19.01c-2.88-2.976-5.279-6.156-7.439-9.258c-2.28,3.399-4.68,6.579-7.08,9.519
			c-2.04-1.802-6.359-4.886-9.601-6.479v7.68l-12,2.1v14.039l13.2-2.31L437.521,108.597L437.521,108.597z M484.442,106.026
			c-5.521-2.274-10.439-5.013-14.999-8.295c-4.562,4.998-9.48,9.339-14.762,13.503L484.442,106.026z M480.483,134.678v-15.959
			l-22.562,3.948v15.959L480.483,134.678z M461.043,66.083l-0.96,1.969c2.399,3.659,5.4,7.334,8.76,10.826
			c3.48-5.049,6.36-10.233,8.761-15.693L461.043,66.083z"/>
		<path fill="#46FFC2" d="M602.884,116.498c5.881-1.029,6.722-3.457,7.562-14.402c2.88,1.295,8.159,2.531,11.641,2.643
			c-1.681,15.773-5.4,21.104-18.241,23.351l-24.479,4.284c-15.36,2.688-19.681-0.516-19.681-14.675v-50.76
			c-1.2-1.47-3.359-3.731-5.521-5.752v9.119l-12.24,2.142v12.84l11.279-1.974v12.359l-11.279,1.974v16.919l12.48-5.424l1.8,11.685
			c-15.36,7.368-32.041,15.086-44.763,20.793l-3.358-12.732l5.279-2.004V86.206l11.399-1.995v37.799l4.682-2.02V74.632l-15.36,2.688
			V37.842l40.081-7.014v23.759c6.36-8.673,11.52-19.775,14.521-30.619l12.601,1.154c-1.08,3.31-2.279,6.64-3.479,9.969l37.682-6.594
			v5.88c-0.12,39.86-0.24,53.92-3.12,58.745c-2.28,3.998-4.921,5.661-8.642,7.031c-3.479,1.209-8.52,1.971-14.04,2.817
			c-0.118-2.74-0.96-6.192-2.279-9.201l-15.119,2.646v18.959c0,5.52,1.079,6.291,8.159,5.052L602.884,116.498z M526.203,63.199
			l14.999-2.625V45.096l-14.999,2.625V63.199z M571.684,48.521c-1.92,3.696-3.96,7.173-6.001,10.53l29.401-5.145v35.998l1.8-0.315
			c1.682-0.294,2.521-0.802,3.48-2.409c1.68-2.813,1.8-13.875,1.8-43.993L571.684,48.521z M583.204,67.384l-10.92,1.911v15.719
			l10.92-1.911V67.384z"/>
	</g>
</g>
</svg>
