<?xml version="1.0" encoding="utf-8"?>
<!-- Generator: Adobe Illustrator 16.0.0, SVG Export Plug-In . SVG Version: 6.00 Build 0)  -->
<!DOCTYPE svg PUBLIC "-//W3C//DTD SVG 1.1//EN" "http://www.w3.org/Graphics/SVG/1.1/DTD/svg11.dtd">
<svg version="1.1" id="圖層_1" xmlns="http://www.w3.org/2000/svg" xmlns:xlink="http://www.w3.org/1999/xlink" x="0px" y="0px"
	 width="759px" height="737px" viewBox="0 0 759 737" enable-background="new 0 0 759 737" xml:space="preserve">
<linearGradient id="SVGID_1_" gradientUnits="userSpaceOnUse" x1="123.3203" y1="124.9199" x2="199.3203" y2="124.9199" gradientTransform="matrix(1 0 0 1 204.6797 -103.9199)">
	<stop  offset="0" style="stop-color:#00CCFF"/>
	<stop  offset="0.1521" style="stop-color:#03CDFF;stop-opacity:0.8376"/>
	<stop  offset="0.2743" style="stop-color:#0DCFFF;stop-opacity:0.7072"/>
	<stop  offset="0.3862" style="stop-color:#1ED2FF;stop-opacity:0.5878"/>
	<stop  offset="0.4918" style="stop-color:#36D7FF;stop-opacity:0.475"/>
	<stop  offset="0.5932" style="stop-color:#55DDFF;stop-opacity:0.3668"/>
	<stop  offset="0.6913" style="stop-color:#7BE5FF;stop-opacity:0.2621"/>
	<stop  offset="0.7868" style="stop-color:#A7EDFF;stop-opacity:0.1601"/>
	<stop  offset="0.878" style="stop-color:#DAF8FF;stop-opacity:0.0629"/>
	<stop  offset="0.9368" style="stop-color:#FFFFFF;stop-opacity:0"/>
</linearGradient>
<rect x="328" y="14" fill="url(#SVGID_1_)" width="76" height="14"/>
<linearGradient id="SVGID_2_" gradientUnits="userSpaceOnUse" x1="145.3203" y1="162.9199" x2="221.3203" y2="162.9199" gradientTransform="matrix(1 0 0 1 204.6797 -103.9199)">
	<stop  offset="0" style="stop-color:#00CCFF"/>
	<stop  offset="0.1521" style="stop-color:#03CDFF;stop-opacity:0.8376"/>
	<stop  offset="0.2743" style="stop-color:#0DCFFF;stop-opacity:0.7072"/>
	<stop  offset="0.3862" style="stop-color:#1ED2FF;stop-opacity:0.5878"/>
	<stop  offset="0.4918" style="stop-color:#36D7FF;stop-opacity:0.475"/>
	<stop  offset="0.5932" style="stop-color:#55DDFF;stop-opacity:0.3668"/>
	<stop  offset="0.6913" style="stop-color:#7BE5FF;stop-opacity:0.2621"/>
	<stop  offset="0.7868" style="stop-color:#A7EDFF;stop-opacity:0.1601"/>
	<stop  offset="0.878" style="stop-color:#DAF8FF;stop-opacity:0.0629"/>
	<stop  offset="0.9368" style="stop-color:#FFFFFF;stop-opacity:0"/>
</linearGradient>
<rect x="350" y="52" fill="url(#SVGID_2_)" width="76" height="14"/>
<linearGradient id="SVGID_3_" gradientUnits="userSpaceOnUse" x1="194.3203" y1="241.9199" x2="270.3203" y2="241.9199" gradientTransform="matrix(1 0 0 1 204.6797 -103.9199)">
	<stop  offset="0" style="stop-color:#00CCFF"/>
	<stop  offset="0.1521" style="stop-color:#03CDFF;stop-opacity:0.8376"/>
	<stop  offset="0.2743" style="stop-color:#0DCFFF;stop-opacity:0.7072"/>
	<stop  offset="0.3862" style="stop-color:#1ED2FF;stop-opacity:0.5878"/>
	<stop  offset="0.4918" style="stop-color:#36D7FF;stop-opacity:0.475"/>
	<stop  offset="0.5932" style="stop-color:#55DDFF;stop-opacity:0.3668"/>
	<stop  offset="0.6913" style="stop-color:#7BE5FF;stop-opacity:0.2621"/>
	<stop  offset="0.7868" style="stop-color:#A7EDFF;stop-opacity:0.1601"/>
	<stop  offset="0.878" style="stop-color:#DAF8FF;stop-opacity:0.0629"/>
	<stop  offset="0.9368" style="stop-color:#FFFFFF;stop-opacity:0"/>
</linearGradient>
<rect x="399" y="131" fill="url(#SVGID_3_)" width="76" height="14"/>
<linearGradient id="SVGID_4_" gradientUnits="userSpaceOnUse" x1="196.3203" y1="280.9199" x2="272.3203" y2="280.9199" gradientTransform="matrix(1 0 0 1 204.6797 -103.9199)">
	<stop  offset="0" style="stop-color:#00CCFF"/>
	<stop  offset="0.1521" style="stop-color:#03CDFF;stop-opacity:0.8376"/>
	<stop  offset="0.2743" style="stop-color:#0DCFFF;stop-opacity:0.7072"/>
	<stop  offset="0.3862" style="stop-color:#1ED2FF;stop-opacity:0.5878"/>
	<stop  offset="0.4918" style="stop-color:#36D7FF;stop-opacity:0.475"/>
	<stop  offset="0.5932" style="stop-color:#55DDFF;stop-opacity:0.3668"/>
	<stop  offset="0.6913" style="stop-color:#7BE5FF;stop-opacity:0.2621"/>
	<stop  offset="0.7868" style="stop-color:#A7EDFF;stop-opacity:0.1601"/>
	<stop  offset="0.878" style="stop-color:#DAF8FF;stop-opacity:0.0629"/>
	<stop  offset="0.9368" style="stop-color:#FFFFFF;stop-opacity:0"/>
</linearGradient>
<rect x="401" y="170" fill="url(#SVGID_4_)" width="76" height="14"/>
<linearGradient id="SVGID_5_" gradientUnits="userSpaceOnUse" x1="216.3203" y1="319.9199" x2="292.3203" y2="319.9199" gradientTransform="matrix(1 0 0 1 204.6797 -103.9199)">
	<stop  offset="0" style="stop-color:#00CCFF"/>
	<stop  offset="0.1521" style="stop-color:#03CDFF;stop-opacity:0.8376"/>
	<stop  offset="0.2743" style="stop-color:#0DCFFF;stop-opacity:0.7072"/>
	<stop  offset="0.3862" style="stop-color:#1ED2FF;stop-opacity:0.5878"/>
	<stop  offset="0.4918" style="stop-color:#36D7FF;stop-opacity:0.475"/>
	<stop  offset="0.5932" style="stop-color:#55DDFF;stop-opacity:0.3668"/>
	<stop  offset="0.6913" style="stop-color:#7BE5FF;stop-opacity:0.2621"/>
	<stop  offset="0.7868" style="stop-color:#A7EDFF;stop-opacity:0.1601"/>
	<stop  offset="0.878" style="stop-color:#DAF8FF;stop-opacity:0.0629"/>
	<stop  offset="0.9368" style="stop-color:#FFFFFF;stop-opacity:0"/>
</linearGradient>
<rect x="421" y="209" fill="url(#SVGID_5_)" width="76" height="14"/>
<linearGradient id="SVGID_6_" gradientUnits="userSpaceOnUse" x1="232.3203" y1="358.9199" x2="308.3203" y2="358.9199" gradientTransform="matrix(1 0 0 1 204.6797 -103.9199)">
	<stop  offset="0" style="stop-color:#00CCFF"/>
	<stop  offset="0.1521" style="stop-color:#03CDFF;stop-opacity:0.8376"/>
	<stop  offset="0.2743" style="stop-color:#0DCFFF;stop-opacity:0.7072"/>
	<stop  offset="0.3862" style="stop-color:#1ED2FF;stop-opacity:0.5878"/>
	<stop  offset="0.4918" style="stop-color:#36D7FF;stop-opacity:0.475"/>
	<stop  offset="0.5932" style="stop-color:#55DDFF;stop-opacity:0.3668"/>
	<stop  offset="0.6913" style="stop-color:#7BE5FF;stop-opacity:0.2621"/>
	<stop  offset="0.7868" style="stop-color:#A7EDFF;stop-opacity:0.1601"/>
	<stop  offset="0.878" style="stop-color:#DAF8FF;stop-opacity:0.0629"/>
	<stop  offset="0.9368" style="stop-color:#FFFFFF;stop-opacity:0"/>
</linearGradient>
<rect x="437" y="248" fill="url(#SVGID_6_)" width="76" height="14"/>
<linearGradient id="SVGID_7_" gradientUnits="userSpaceOnUse" x1="258.3203" y1="398.9199" x2="334.3203" y2="398.9199" gradientTransform="matrix(1 0 0 1 204.6797 -103.9199)">
	<stop  offset="0" style="stop-color:#00CCFF"/>
	<stop  offset="0.1521" style="stop-color:#03CDFF;stop-opacity:0.8376"/>
	<stop  offset="0.2743" style="stop-color:#0DCFFF;stop-opacity:0.7072"/>
	<stop  offset="0.3862" style="stop-color:#1ED2FF;stop-opacity:0.5878"/>
	<stop  offset="0.4918" style="stop-color:#36D7FF;stop-opacity:0.475"/>
	<stop  offset="0.5932" style="stop-color:#55DDFF;stop-opacity:0.3668"/>
	<stop  offset="0.6913" style="stop-color:#7BE5FF;stop-opacity:0.2621"/>
	<stop  offset="0.7868" style="stop-color:#A7EDFF;stop-opacity:0.1601"/>
	<stop  offset="0.878" style="stop-color:#DAF8FF;stop-opacity:0.0629"/>
	<stop  offset="0.9368" style="stop-color:#FFFFFF;stop-opacity:0"/>
</linearGradient>
<rect x="463" y="288" fill="url(#SVGID_7_)" width="76" height="14"/>
<linearGradient id="SVGID_8_" gradientUnits="userSpaceOnUse" x1="352.3203" y1="437.9199" x2="428.3203" y2="437.9199" gradientTransform="matrix(1 0 0 1 204.6797 -103.9199)">
	<stop  offset="0" style="stop-color:#00CCFF"/>
	<stop  offset="0.1521" style="stop-color:#03CDFF;stop-opacity:0.8376"/>
	<stop  offset="0.2743" style="stop-color:#0DCFFF;stop-opacity:0.7072"/>
	<stop  offset="0.3862" style="stop-color:#1ED2FF;stop-opacity:0.5878"/>
	<stop  offset="0.4918" style="stop-color:#36D7FF;stop-opacity:0.475"/>
	<stop  offset="0.5932" style="stop-color:#55DDFF;stop-opacity:0.3668"/>
	<stop  offset="0.6913" style="stop-color:#7BE5FF;stop-opacity:0.2621"/>
	<stop  offset="0.7868" style="stop-color:#A7EDFF;stop-opacity:0.1601"/>
	<stop  offset="0.878" style="stop-color:#DAF8FF;stop-opacity:0.0629"/>
	<stop  offset="0.9368" style="stop-color:#FFFFFF;stop-opacity:0"/>
</linearGradient>
<rect x="557" y="327" fill="url(#SVGID_8_)" width="76" height="14"/>
<linearGradient id="SVGID_9_" gradientUnits="userSpaceOnUse" x1="401.3203" y1="476.9199" x2="477.3203" y2="476.9199" gradientTransform="matrix(1 0 0 1 204.6797 -103.9199)">
	<stop  offset="0" style="stop-color:#00CCFF"/>
	<stop  offset="0.1521" style="stop-color:#03CDFF;stop-opacity:0.8376"/>
	<stop  offset="0.2743" style="stop-color:#0DCFFF;stop-opacity:0.7072"/>
	<stop  offset="0.3862" style="stop-color:#1ED2FF;stop-opacity:0.5878"/>
	<stop  offset="0.4918" style="stop-color:#36D7FF;stop-opacity:0.475"/>
	<stop  offset="0.5932" style="stop-color:#55DDFF;stop-opacity:0.3668"/>
	<stop  offset="0.6913" style="stop-color:#7BE5FF;stop-opacity:0.2621"/>
	<stop  offset="0.7868" style="stop-color:#A7EDFF;stop-opacity:0.1601"/>
	<stop  offset="0.878" style="stop-color:#DAF8FF;stop-opacity:0.0629"/>
	<stop  offset="0.9368" style="stop-color:#FFFFFF;stop-opacity:0"/>
</linearGradient>
<rect x="606" y="366" fill="url(#SVGID_9_)" width="76" height="14"/>
<linearGradient id="SVGID_10_" gradientUnits="userSpaceOnUse" x1="439.3203" y1="515.9199" x2="515.3203" y2="515.9199" gradientTransform="matrix(1 0 0 1 204.6797 -103.9199)">
	<stop  offset="0" style="stop-color:#00CCFF"/>
	<stop  offset="0.1521" style="stop-color:#03CDFF;stop-opacity:0.8376"/>
	<stop  offset="0.2743" style="stop-color:#0DCFFF;stop-opacity:0.7072"/>
	<stop  offset="0.3862" style="stop-color:#1ED2FF;stop-opacity:0.5878"/>
	<stop  offset="0.4918" style="stop-color:#36D7FF;stop-opacity:0.475"/>
	<stop  offset="0.5932" style="stop-color:#55DDFF;stop-opacity:0.3668"/>
	<stop  offset="0.6913" style="stop-color:#7BE5FF;stop-opacity:0.2621"/>
	<stop  offset="0.7868" style="stop-color:#A7EDFF;stop-opacity:0.1601"/>
	<stop  offset="0.878" style="stop-color:#DAF8FF;stop-opacity:0.0629"/>
	<stop  offset="0.9368" style="stop-color:#FFFFFF;stop-opacity:0"/>
</linearGradient>
<rect x="644" y="405" fill="url(#SVGID_10_)" width="76" height="14"/>
<linearGradient id="SVGID_11_" gradientUnits="userSpaceOnUse" x1="467.3203" y1="555.9199" x2="543.3203" y2="555.9199" gradientTransform="matrix(1 0 0 1 204.6797 -103.9199)">
	<stop  offset="0" style="stop-color:#00CCFF"/>
	<stop  offset="0.1521" style="stop-color:#03CDFF;stop-opacity:0.8376"/>
	<stop  offset="0.2743" style="stop-color:#0DCFFF;stop-opacity:0.7072"/>
	<stop  offset="0.3862" style="stop-color:#1ED2FF;stop-opacity:0.5878"/>
	<stop  offset="0.4918" style="stop-color:#36D7FF;stop-opacity:0.475"/>
	<stop  offset="0.5932" style="stop-color:#55DDFF;stop-opacity:0.3668"/>
	<stop  offset="0.6913" style="stop-color:#7BE5FF;stop-opacity:0.2621"/>
	<stop  offset="0.7868" style="stop-color:#A7EDFF;stop-opacity:0.1601"/>
	<stop  offset="0.878" style="stop-color:#DAF8FF;stop-opacity:0.0629"/>
	<stop  offset="0.9368" style="stop-color:#FFFFFF;stop-opacity:0"/>
</linearGradient>
<rect x="672" y="445" fill="url(#SVGID_11_)" width="76" height="14"/>
<linearGradient id="SVGID_12_" gradientUnits="userSpaceOnUse" x1="458.3203" y1="594.9199" x2="534.3203" y2="594.9199" gradientTransform="matrix(1 0 0 1 204.6797 -103.9199)">
	<stop  offset="0" style="stop-color:#00CCFF"/>
	<stop  offset="0.1521" style="stop-color:#03CDFF;stop-opacity:0.8376"/>
	<stop  offset="0.2743" style="stop-color:#0DCFFF;stop-opacity:0.7072"/>
	<stop  offset="0.3862" style="stop-color:#1ED2FF;stop-opacity:0.5878"/>
	<stop  offset="0.4918" style="stop-color:#36D7FF;stop-opacity:0.475"/>
	<stop  offset="0.5932" style="stop-color:#55DDFF;stop-opacity:0.3668"/>
	<stop  offset="0.6913" style="stop-color:#7BE5FF;stop-opacity:0.2621"/>
	<stop  offset="0.7868" style="stop-color:#A7EDFF;stop-opacity:0.1601"/>
	<stop  offset="0.878" style="stop-color:#DAF8FF;stop-opacity:0.0629"/>
	<stop  offset="0.9368" style="stop-color:#FFFFFF;stop-opacity:0"/>
</linearGradient>
<rect x="663" y="484" fill="url(#SVGID_12_)" width="76" height="14"/>
<linearGradient id="SVGID_13_" gradientUnits="userSpaceOnUse" x1="439.3203" y1="633.9199" x2="515.3203" y2="633.9199" gradientTransform="matrix(1 0 0 1 204.6797 -103.9199)">
	<stop  offset="0" style="stop-color:#00CCFF"/>
	<stop  offset="0.1521" style="stop-color:#03CDFF;stop-opacity:0.8376"/>
	<stop  offset="0.2743" style="stop-color:#0DCFFF;stop-opacity:0.7072"/>
	<stop  offset="0.3862" style="stop-color:#1ED2FF;stop-opacity:0.5878"/>
	<stop  offset="0.4918" style="stop-color:#36D7FF;stop-opacity:0.475"/>
	<stop  offset="0.5932" style="stop-color:#55DDFF;stop-opacity:0.3668"/>
	<stop  offset="0.6913" style="stop-color:#7BE5FF;stop-opacity:0.2621"/>
	<stop  offset="0.7868" style="stop-color:#A7EDFF;stop-opacity:0.1601"/>
	<stop  offset="0.878" style="stop-color:#DAF8FF;stop-opacity:0.0629"/>
	<stop  offset="0.9368" style="stop-color:#FFFFFF;stop-opacity:0"/>
</linearGradient>
<rect x="644" y="523" fill="url(#SVGID_13_)" width="76" height="14"/>
<linearGradient id="SVGID_14_" gradientUnits="userSpaceOnUse" x1="406.3203" y1="672.9199" x2="482.3203" y2="672.9199" gradientTransform="matrix(1 0 0 1 204.6797 -103.9199)">
	<stop  offset="0" style="stop-color:#00CCFF"/>
	<stop  offset="0.1521" style="stop-color:#03CDFF;stop-opacity:0.8376"/>
	<stop  offset="0.2743" style="stop-color:#0DCFFF;stop-opacity:0.7072"/>
	<stop  offset="0.3862" style="stop-color:#1ED2FF;stop-opacity:0.5878"/>
	<stop  offset="0.4918" style="stop-color:#36D7FF;stop-opacity:0.475"/>
	<stop  offset="0.5932" style="stop-color:#55DDFF;stop-opacity:0.3668"/>
	<stop  offset="0.6913" style="stop-color:#7BE5FF;stop-opacity:0.2621"/>
	<stop  offset="0.7868" style="stop-color:#A7EDFF;stop-opacity:0.1601"/>
	<stop  offset="0.878" style="stop-color:#DAF8FF;stop-opacity:0.0629"/>
	<stop  offset="0.9368" style="stop-color:#FFFFFF;stop-opacity:0"/>
</linearGradient>
<rect x="611" y="562" fill="url(#SVGID_14_)" width="76" height="14"/>
<linearGradient id="SVGID_15_" gradientUnits="userSpaceOnUse" x1="331.3203" y1="712.9199" x2="407.3203" y2="712.9199" gradientTransform="matrix(1 0 0 1 204.6797 -103.9199)">
	<stop  offset="0" style="stop-color:#00CCFF"/>
	<stop  offset="0.1521" style="stop-color:#03CDFF;stop-opacity:0.8376"/>
	<stop  offset="0.2743" style="stop-color:#0DCFFF;stop-opacity:0.7072"/>
	<stop  offset="0.3862" style="stop-color:#1ED2FF;stop-opacity:0.5878"/>
	<stop  offset="0.4918" style="stop-color:#36D7FF;stop-opacity:0.475"/>
	<stop  offset="0.5932" style="stop-color:#55DDFF;stop-opacity:0.3668"/>
	<stop  offset="0.6913" style="stop-color:#7BE5FF;stop-opacity:0.2621"/>
	<stop  offset="0.7868" style="stop-color:#A7EDFF;stop-opacity:0.1601"/>
	<stop  offset="0.878" style="stop-color:#DAF8FF;stop-opacity:0.0629"/>
	<stop  offset="0.9368" style="stop-color:#FFFFFF;stop-opacity:0"/>
</linearGradient>
<rect x="536" y="602" fill="url(#SVGID_15_)" width="76" height="14"/>
<linearGradient id="SVGID_16_" gradientUnits="userSpaceOnUse" x1="352.3203" y1="751.9199" x2="428.3203" y2="751.9199" gradientTransform="matrix(1 0 0 1 204.6797 -103.9199)">
	<stop  offset="0" style="stop-color:#00CCFF"/>
	<stop  offset="0.1521" style="stop-color:#03CDFF;stop-opacity:0.8376"/>
	<stop  offset="0.2743" style="stop-color:#0DCFFF;stop-opacity:0.7072"/>
	<stop  offset="0.3862" style="stop-color:#1ED2FF;stop-opacity:0.5878"/>
	<stop  offset="0.4918" style="stop-color:#36D7FF;stop-opacity:0.475"/>
	<stop  offset="0.5932" style="stop-color:#55DDFF;stop-opacity:0.3668"/>
	<stop  offset="0.6913" style="stop-color:#7BE5FF;stop-opacity:0.2621"/>
	<stop  offset="0.7868" style="stop-color:#A7EDFF;stop-opacity:0.1601"/>
	<stop  offset="0.878" style="stop-color:#DAF8FF;stop-opacity:0.0629"/>
	<stop  offset="0.9368" style="stop-color:#FFFFFF;stop-opacity:0"/>
</linearGradient>
<rect x="557" y="641" fill="url(#SVGID_16_)" width="76" height="14"/>
<linearGradient id="SVGID_17_" gradientUnits="userSpaceOnUse" x1="321.3203" y1="790.9199" x2="397.3203" y2="790.9199" gradientTransform="matrix(1 0 0 1 204.6797 -103.9199)">
	<stop  offset="0" style="stop-color:#00CCFF"/>
	<stop  offset="0.1521" style="stop-color:#03CDFF;stop-opacity:0.8376"/>
	<stop  offset="0.2743" style="stop-color:#0DCFFF;stop-opacity:0.7072"/>
	<stop  offset="0.3862" style="stop-color:#1ED2FF;stop-opacity:0.5878"/>
	<stop  offset="0.4918" style="stop-color:#36D7FF;stop-opacity:0.475"/>
	<stop  offset="0.5932" style="stop-color:#55DDFF;stop-opacity:0.3668"/>
	<stop  offset="0.6913" style="stop-color:#7BE5FF;stop-opacity:0.2621"/>
	<stop  offset="0.7868" style="stop-color:#A7EDFF;stop-opacity:0.1601"/>
	<stop  offset="0.878" style="stop-color:#DAF8FF;stop-opacity:0.0629"/>
	<stop  offset="0.9368" style="stop-color:#FFFFFF;stop-opacity:0"/>
</linearGradient>
<rect x="526" y="680" fill="url(#SVGID_17_)" width="76" height="14"/>
<linearGradient id="SVGID_18_" gradientUnits="userSpaceOnUse" x1="178.3203" y1="201.9199" x2="254.3203" y2="201.9199" gradientTransform="matrix(1 0 0 1 204.6797 -103.9199)">
	<stop  offset="0" style="stop-color:#00CCFF"/>
	<stop  offset="0.1521" style="stop-color:#03CDFF;stop-opacity:0.8376"/>
	<stop  offset="0.2743" style="stop-color:#0DCFFF;stop-opacity:0.7072"/>
	<stop  offset="0.3862" style="stop-color:#1ED2FF;stop-opacity:0.5878"/>
	<stop  offset="0.4918" style="stop-color:#36D7FF;stop-opacity:0.475"/>
	<stop  offset="0.5932" style="stop-color:#55DDFF;stop-opacity:0.3668"/>
	<stop  offset="0.6913" style="stop-color:#7BE5FF;stop-opacity:0.2621"/>
	<stop  offset="0.7868" style="stop-color:#A7EDFF;stop-opacity:0.1601"/>
	<stop  offset="0.878" style="stop-color:#DAF8FF;stop-opacity:0.0629"/>
	<stop  offset="0.9368" style="stop-color:#FFFFFF;stop-opacity:0"/>
</linearGradient>
<rect x="383" y="91" fill="url(#SVGID_18_)" width="76" height="14"/>
<g>
	<g>
		<path fill="#00CCFF" d="M692.438,434.194c-11.563-17.871-27.296-32.413-42.575-47.024c-13.87-13.263-29.315-23.586-44.604-34.892
			c-14.598-10.793-30.887-19.673-47.499-26.256c-16.27-6.445-35.179-13.183-52.964-10.863c-2.306,0.301-4.348,0.892-6.188,1.706
			c8.675,2.192,17.158,5.366,25.023,8.481c16.586,6.568,32.85,15.431,47.42,26.201c15.266,11.283,30.686,21.585,44.531,34.82
			c15.256,14.58,30.961,29.092,42.506,46.926c12.045,18.605-4.896,45.19-14.256,62.688c-8.734,16.332-60.512,90.647-60.555,90.71
			c-6.695,9.497-33.014,5.711-42.904,6.564c-5.238,0.453-10.939,0.812-14.291,5.5c-5.832,8.162-1.02,18.903,2.512,26.95
			c4.227,9.628,8.543,17.409,6.5,28.296c0,0.001-47.883,74.462-57.719,74.493c-37.313,0.116-74.623,0.215-111.936,0.285
			c-50.901,0.098-102.466,2.234-153.548,0.865c0.924,0.089,1.848,0.177,2.786,0.23c61.173,3.625,123.381,0.537,184.627,0.419
			c37.374-0.069,74.749-0.168,112.122-0.285c9.854-0.03,57.813-74.646,57.813-74.646c2.047-10.909-2.278-18.707-6.511-28.355
			c-3.535-8.063-8.357-18.826-2.518-27.005c3.357-4.701,9.068-5.058,14.315-5.512c9.906-0.857,36.268,2.937,42.975-6.58
			c0.044-0.063,51.906-74.533,60.656-90.899C687.529,479.479,704.502,452.839,692.438,434.194z"/>
	</g>
	<g>
		<path fill="#00CCFF" d="M294.102,0.23c0,0,22.73,24.802,42.789,49.755C356.951,74.938,375,121.334,375,121.334
			s11.5,29.299,14.621,41.69s18.275,57.178,24.365,69.309c6.088,12.13,45.383,87.118,45.385,87.121
			c3.018-2.515,6.654-4.334,11.381-4.95c6.596-0.86,13.347-0.469,20.061,0.687c-8.853-16.909-37.729-72.107-42.88-82.375
			c-6.099-12.155-21.278-57.035-24.403-69.452c-3.127-12.417-14.646-41.778-14.646-41.778s-18.08-46.493-38.174-71.497
			C350.617,25.084,327.85,0.231,327.85,0.231L294.102,0.23z"/>
	</g>
	<g>
		<path fill="#00CCFF" d="M356.121,401.198l-12.429-14.423c-1.255,1.026-2.31,2.31-3.142,3.83c2.933,2.043,5.737,4.535,8.722,7.582
			C352.273,401.254,354.348,401.861,356.121,401.198z"/>
	</g>
</g>
<g>
	<g>
		<path fill="#F5F5F5" d="M199.385,219.334l156.736,181.864c-1.773,0.663-3.848,0.056-6.852-3.011
			c-8.375-8.559-15.342-12.795-27.665-14.735c-10.55-1.661-16.315,4.58-17.157,14.862c-2.168,26.476,3.705,53.078,2.637,79.467
			c-1.072,26.556-2.641,60.523-13.158,85.274c-7.93,18.661-31.793,32.761-49.971,40.083c-42.033,16.938-89.598,12.47-133.832,11.354
			c-13.223-0.334-27.283-1.401-35.23,10.977c-9.873,15.375-5.301,32.457,8.189,43.518c29.891,24.503,56.904,56.938,98.033,59.376
			c61.072,3.617,123.178,0.536,184.322,0.419c37.313-0.07,74.625-0.169,111.937-0.285c9.836-0.031,57.719-74.492,57.719-74.493
			c2.043-10.887-2.273-18.668-6.5-28.296c-3.527-8.047-8.344-18.788-2.512-26.95c3.352-4.688,9.053-5.047,14.291-5.5
			c9.893-0.854,36.209,2.934,42.904-6.564c0.043-0.063,51.818-74.378,60.555-90.71c9.356-17.497,26.301-44.082,14.256-62.688
			c-11.545-17.834-27.25-32.346-42.506-46.926c-13.848-13.234-29.269-23.537-44.531-34.82
			c-14.572-10.771-30.834-19.633-47.42-26.201c-16.242-6.433-35.121-13.156-52.877-10.841c-4.727,0.616-8.363,2.436-11.381,4.95
			c-0.002-0.003-39.297-74.991-45.385-87.121c-6.091-12.131-21.244-56.917-24.365-69.309C386.5,150.635,375,121.334,375,121.334
			s-18.049-46.396-38.109-71.349C316.832,25.032,294.102,0.23,294.102,0.23L10.355,0L199.385,219.334z"/>
	</g>
</g>
<path fill="#F5F5F5" d="M375,121.334c0,0,11.501,29.299,14.622,41.69s18.275,57.178,24.364,69.309
	c6.089,12.13,45.385,87.121,45.385,87.121l-11.862,15.879c0,0-23.471,28.291-30.323,31.813
	c-6.852,3.522-33.271,18.648-41.191,21.411c-7.922,2.764-12.328,5.444-12.328,5.444l-7.539,7.202l-156.74-181.869
	c0,0,86.949-23.857,111.615-42.596C335.667,157.999,347.667,164.001,375,121.334z"/>
<g>
	<path fill="#C8C8C8" d="M304.447,398.314c-2.168,26.476,3.705,53.077,2.638,79.467c-1.073,26.556-2.642,60.523-13.159,85.274
		c-7.929,18.661-31.792,32.761-49.971,40.083c-42.033,16.938-89.598,12.47-133.831,11.354c-13.223-0.334-27.284-1.401-35.231,10.977
		c-9.872,15.375-5.301,32.457,8.189,43.518c29.891,24.503,56.905,56.938,98.034,59.376c61.071,3.617,123.177,0.535,184.321,0.419
		c37.313-0.07,74.625-0.169,111.937-0.286c9.836-0.03,57.719-74.492,57.719-74.492c2.042-10.887-2.274-18.668-6.5-28.297
		c-3.53-8.046-8.344-18.787-2.512-26.949c3.352-4.688,9.052-5.047,14.29-5.5c9.893-0.854,36.209,2.934,42.904-6.564
		c0.043-0.063,51.819-74.378,60.556-90.711c9.354-17.496,26.3-44.081,14.256-62.688c-11.545-17.834-27.25-32.346-42.506-46.926
		c-13.849-13.235-29.27-23.537-44.532-34.82c-14.572-10.771-30.834-19.633-47.42-26.202c-16.242-6.432-35.121-13.156-52.877-10.84
		c-15.881,2.071-19.53,17.661-28.349,27.958c-11.539,13.473-23.861,24.971-38.979,34.418c-11.7,6.825-22.919,9.98-35.354,14.439
		c-9.133,3.272-9.818,16.041-18.8,6.866c-8.376-8.557-15.343-12.793-27.667-14.733C311.057,381.791,305.289,388.032,304.447,398.314
		z"/>
</g>
<path fill="#C8C8C8" d="M506.104,317.622l-21.714-3.288c0,0-9.176-10.58-9.025-18.834c0.147-8.254,1.971-12.166,1.971-12.166
	s1.833,14.832,10,20.249S506.104,317.622,506.104,317.622z"/>
<path fill="#C8C8C8" d="M477.105,281.152c0,0,7.645-6.417,15.112-3.141c7.47,3.276,11.765,6.899,11.046,15.405
	c-0.717,8.506-1.584,12.9-0.776,16.44c0.806,3.54,5.067,9.598,5.067,9.598L525.252,326c0,0-8.248-1.821-9.968-22.02
	c-1.72-20.199,0.212-35.992-15.286-36.986S481.713,274.805,477.105,281.152z"/>
<path fill="#F5F5F5" d="M643.775,414.667c0,0,25.236,23.333,18.479,41.333s-21.896,47.334-31.326,60.667
	C621.5,530,593,573.5,593,573.5s-9.936,16.5-19.468,18.5S538,592,533,594s-12.166,8.763-9.333,17.381
	C526.5,620,535.907,643.998,535.5,649s-6,12.5-6,12.5s-29.664,44.783-34.332,49.642C490.5,716.001,479.5,728.5,479.5,728.5
	L201,730.115c0,0-31,0.385-48.5-8.115s-40-26.5-40-26.5L81,666c0,0,44,30.5,62.5,33.5s68,3,77,3s178,1,178,1
	s63.102,1.361,69.551-2.819c6.449-4.18,32.066-30.422,37.758-46.552c5.691-16.129,9.467-27.463,7.078-38.796
	c-2.387-11.333-5.586-19.751,15.016-33.542c20.6-13.791,29.951-28.816,35.774-41.054c5.823-12.238,28.946-65.364,32.386-74.553
	C599.501,456.999,617.551,419.834,643.775,414.667z"/>
<path fill="#46FFC2" d="M621.667,392.176l22.108,22.491c0,0-27.321,12.701-37.52,32.11C596.06,466.186,569.472,528,569.472,528
	s-11.175,30.428-26.373,42.109C527.901,581.79,508.892,592.477,511,604.5c2.108,12.024,10.117,23.76-5.191,49.63
	c-15.308,25.87-31.07,42.9-34.881,44.94c-3.809,2.04-30.822,4.691-63.875,4.562s-243.58-0.699-243.58-0.699S132.02,696.964,120,690
	c0,0-31.428-17.944-34.173-19.479C83.082,668.986,74.5,657.5,74.5,657.5S99.5,672,114,677s34,10.447,44,10.474
	c10,0.027,227.625-7.022,227.625-7.022s64.385-1.617,69.38-7.783S470.5,655,491,607s63.5-130.5,63.5-130.5
	s34.627-50.666,46.313-61.833C612.499,403.5,618.5,397,618.5,397S620.834,397.352,621.667,392.176z"/>
<path fill="#46FFC2" d="M391,170l14,43.5c0,0-13.938,30.578-41.471,45.244s-62.273,30.153-75.371,32.581
	c-13.098,2.428-21.824,3.341-21.824,3.341l-35.334-40c0,0,22.667-4.181,35.334-7.423C279,244,311,232.453,327,222.56
	s40.406-27.58,45.203-32.402C377,185.334,391,170,391,170z"/>
<path fill="#00CCFF" d="M423.5,251.5l16,32.5c0,0-3.555,34.334-56.25,60.934S327,366,327,366l-27.334-30.667
	c0,0,22.001-2.756,50.334-17.711s58.334-34.288,63.667-44.955S423.5,251.5,423.5,251.5z"/>
<path fill="#646464" d="M523.667,326c0,0,10,37.999-6,71.332c-16,33.334-22.331,43.334-22.499,61.334s10.936,55.353,10.936,55.353
	l15.007,30.648c0,0,27.238-56.14,37.23-73.737c9.992-17.597,41.11-58.766,46.659-62.264s16.667-16.49,16.667-16.49
	s-37.835-34.277-63.251-49.227C533,327.999,523.667,326,523.667,326z"/>
<g>
	<g>
		<path fill="#323232" d="M302.947,398.314c-1.208,16.201,0.333,32.35,1.605,48.494c1.185,14.995,1.172,29.779,0.414,44.789
			c-0.714,14.145-1.881,28.278-4.342,42.234c-2.209,12.525-5.308,26.065-12.646,36.661c-7.312,10.559-18.704,18.17-29.778,24.272
			c-12.023,6.628-25.033,11.173-38.382,14.262c-29.497,6.822-60.278,5.626-90.307,4.584c-12.172-0.423-25.354-2.173-37.45-0.183
			c-11.05,1.819-18.139,8.342-22.129,18.719c-9.636,25.058,16.476,41.402,32.271,55.433c17.731,15.748,36.268,31.514,59.278,38.755
			c13.231,4.164,27.386,4.032,41.111,4.534c16.336,0.598,32.686,0.759,49.031,0.741c32.73-0.034,65.453-0.938,98.181-1.244
			c33.191-0.313,66.393-0.194,99.584-0.29c7.995-0.022,15.99-0.047,23.985-0.071c2.802-0.009,4.892,0.27,7.248-1.2
			c4.255-2.647,7.653-6.976,10.847-10.747c10.386-12.266,19.569-25.601,28.643-38.849c5.525-8.074,10.972-16.212,16.269-24.439
			c2.217-3.441,0.544-10.57-0.32-14.276c-1.472-6.313-4.755-12.261-7.313-18.169c-2.908-6.712-5.68-14.484-2.202-21.502
			c2.984-6.023,11.26-6.104,17.071-6.2c9.423-0.157,18.788,0.693,28.158-0.753c5.246-0.812,10.223-2.719,13.322-7.177
			c6.842-9.834,13.639-19.698,20.406-29.583c19.099-27.896,40.34-56.05,53.35-87.485c4.145-10.011,6.773-21.38,3.11-31.923
			c-1.952-5.619-6.173-10.57-9.752-15.218c-4.379-5.688-9.191-11.021-14.143-16.212c-10.229-10.729-21.026-21.227-32.434-30.693
			c-11.299-9.382-23.449-17.729-35.293-26.398c-12.2-8.93-25.521-16.295-39.343-22.382c-13.003-5.726-26.654-10.795-40.691-13.208
			c-10.725-1.843-22.937-2.314-31.896,4.71c-7.979,6.253-11.662,16.834-18.188,24.398c-9.433,10.937-19.997,20.84-31.839,29.126
			c-12.39,8.672-26.615,13.033-40.713,18.048c-3.757,1.336-6.352,4.215-8.888,7.147c-1.593,1.84-3.138,3.643-5.742,2.344
			c-3.005-1.496-5.494-5.039-8.04-7.229c-7.53-6.468-18.408-11.078-28.465-10.354C307.686,382.419,303.767,390.469,302.947,398.314
			c-0.201,1.924,2.801,1.902,3,0c0.604-5.789,2.83-11.275,8.778-13.172c6.009-1.914,14.243,1.075,19.716,3.604
			c5.298,2.447,9.695,6.4,13.771,10.5c2.156,2.169,5.412,4.766,8.653,3.259c3.144-1.462,5.084-4.772,7.507-7.129
			c2.493-2.423,5.93-3.271,9.121-4.376c3.784-1.313,7.575-2.604,11.34-3.977c12.854-4.682,24.137-11.351,34.779-19.915
			c9.885-7.955,19.646-17.342,27.013-27.717c6.262-8.822,10.457-19.765,21.847-22.943c14.368-4.009,31.603,1.827,45.061,6.639
			c14.515,5.189,28.47,11.676,41.677,19.63c12.948,7.799,25.054,17.218,37.156,26.253c12.476,9.314,23.738,19.811,34.876,30.66
			c10.858,10.58,21.204,21.71,29.553,34.415c7.449,11.337,3.052,25.783-1.848,37.184c-13.382,31.133-34.76,59.157-53.798,86.939
			c-6.287,9.175-12.604,18.331-18.957,27.459c-4.515,6.484-15.948,6.074-22.889,6.172c-9.021,0.127-18.327-1.1-27.183,1.168
			c-11.361,2.908-11.237,15.904-8.326,24.87c1.947,6,4.979,11.635,7.368,17.46c1.353,3.296,2.334,6.705,2.799,10.241
			c0.246,1.878,0.712,6.345-0.291,7.901c-5.791,8.979-11.748,17.854-17.801,26.66c-9.133,13.283-18.393,26.712-29.087,38.804
			c-1.983,2.242-6.029,7.891-9.408,8.087c-16.54,0.96-33.4,0.101-49.972,0.145c-33.05,0.088-66.1,0.008-99.145,0.496
			c-32.743,0.484-65.485,1.242-98.234,0.873c-16.313-0.185-32.622-0.701-48.909-1.646c-13.159-0.766-25.633-5.021-37.146-11.292
			c-22.05-12.018-39.563-30.789-58.694-46.71c-10.949-9.112-17.141-21.751-12.449-35.911c4.878-14.724,18.074-17.323,31.796-17.1
			c29.187,0.479,58.351,2.787,87.515,0.363c23.568-1.959,46.671-7.615,67.578-18.854c9.21-4.951,17.901-11.069,25.218-18.564
			c7.069-7.239,11.068-15.856,14.096-25.395c7.084-22.313,8.285-46.382,9.305-69.604c1.254-28.565-4.515-56.968-2.388-85.481
			C306.091,396.384,303.09,396.396,302.947,398.314z"/>
	</g>
</g>
<g>
	<g>
		<path fill="#323232" d="M9.296,1.061C27.509,22.194,45.722,43.327,63.935,64.46c39.958,46.365,79.917,92.729,119.876,139.095
			c39.684,46.045,79.367,92.091,119.05,138.137c17.399,20.191,34.802,40.382,52.203,60.572c1.265,1.469,3.377-0.664,2.119-2.121
			c-18.213-21.133-36.426-42.266-54.639-63.397c-39.958-46.365-79.917-92.729-119.876-139.095
			c-39.684-46.045-79.367-92.091-119.05-138.137C46.219,39.321,28.818,19.13,11.417-1.061C10.152-2.528,8.04-0.396,9.296,1.061
			L9.296,1.061z"/>
	</g>
</g>
<g>
	<g>
		<path fill="#323232" d="M459.176,318.697c-15.052-28.586-29.176-57.661-43.62-86.556c-13.782-27.575-20.274-58.192-30.31-87.188
			c-8.842-25.553-18.557-50.88-32.426-74.187c-7.023-11.801-15.367-22.54-23.939-33.231C319.646,26.021,310.392,14.5,300.058,3.94
			c-1.594-1.628-3.238-3.205-4.894-4.77c-1.404-1.328-3.529,0.79-2.121,2.121c10.705,10.121,20.11,21.476,29.346,32.924
			c9.212,11.419,18.351,22.782,26.126,35.251c14.79,23.714,24.706,49.994,33.839,76.285c9.783,28.17,16.433,57.482,29.029,84.621
			c13.538,29.163,28.502,57.91,43.396,86.403c0.601,1.146,1.201,2.292,1.807,3.437C457.487,321.923,460.076,320.407,459.176,318.697
			L459.176,318.697z"/>
	</g>
</g>
<g>
	<g>
		<path fill="#323232" d="M76.439,662.311c10.367,9.724,21.926,17.347,34.459,23.987c12.21,6.472,24.262,12.88,37.814,16.038
			c12.84,2.992,25.855,2.101,38.895,2.166c21.98,0.11,43.96,0.341,65.941,0.492c62.422,0.431,124.954,1.336,187.361-0.472
			c7.616-0.222,15.313-0.344,22.888-1.251c14.552-1.746,23.624-19.456,31.334-30.051c7.604-10.444,14.821-21.336,18.416-33.872
			c1.65-5.755,2.103-11.792,1.725-17.742c-0.43-6.792-2.74-13.27-2.367-20.138c0.443-8.215,8.551-13.448,14.652-17.642
			c5.33-3.66,10.559-7.276,15.412-11.563c9.365-8.27,16.726-18.604,21.694-30.042c10.655-24.514,20.771-49.32,31.914-73.615
			c9.234-20.144,22.778-46.432,46.153-52.493c1.871-0.485,1.076-3.379-0.798-2.893c-24.884,6.453-38.908,34.162-48.706,55.522
			c-6.36,13.875-12.012,28.075-18.22,42.021c-6.062,13.613-10.927,28.253-18.663,41.022c-7.176,11.845-17.565,20.893-28.947,28.535
			c-5.071,3.404-10.128,6.963-14.029,11.721c-3.537,4.31-3.822,10.146-3.308,15.435c0.628,6.421,2.38,12.538,2.358,19.049
			c-0.024,7.591-2.298,15.02-5.392,21.878c-5.396,11.961-13.88,22.375-21.443,32.996c-4.647,6.524-11.544,16.803-20.025,18.592
			c-2.291,0.48-4.683,0.59-7.012,0.754c-9.501,0.671-19.044,0.849-28.563,1.046c-30.729,0.636-61.472,0.621-92.202,0.582
			c-51.416-0.066-102.833-0.906-154.249-0.884c-15.283,0.007-29.58,0.021-44.255-4.986c-11.118-3.796-21.558-9.864-31.843-15.469
			c-10.51-5.729-20.144-12.657-28.875-20.847C77.151,658.867,75.025,660.984,76.439,662.311L76.439,662.311z"/>
	</g>
</g>
<g>
	<g>
		<path fill="#323232" d="M73.243,659.295c10.509,7.67,22.283,12.246,34.533,16.342c13.795,4.613,28.056,9.97,42.367,12.683
			c7.126,1.351,14.919,0.554,22.134,0.408c26.357-0.524,52.71-1.215,79.062-1.959c61.11-1.726,122.612-2.522,183.542-7.858
			c5.552-0.486,11.869-0.54,17.192-2.396c6.739-2.346,12.141-11.621,15.575-17.369c6.555-10.972,11.187-23.125,17.024-34.485
			c6.707-13.048,13.521-26.029,18.744-39.765c5.383-14.153,13.319-26.995,19.576-40.771c12.834-28.257,26.629-56.234,43.231-82.493
			c8.23-13.017,17.467-25.385,27.555-37.019c5.035-5.808,10.314-11.468,15.916-16.733c4.649-4.377,9.832-7.568,13.265-13.119
			c1.021-1.648-1.575-3.154-2.59-1.514c-3.53,5.706-9.177,9.105-13.97,13.613c-5.642,5.308-10.849,11.14-15.916,16.982
			c-9.475,10.924-18.029,22.634-25.885,34.767c-16.855,26.032-30.539,54.139-43.423,82.299
			c-5.881,12.854-13.614,24.985-18.813,38.116c-5.781,14.603-12.239,28.545-19.448,42.505c-5.93,11.479-10.834,23.521-17.115,34.811
			c-3.132,5.629-9.054,15.807-15.313,17.526c-6.23,1.714-13.106,1.854-19.506,2.372c-12.104,0.979-24.231,1.645-36.356,2.268
			c-33.023,1.698-66.078,2.862-99.128,3.934c-31.729,1.024-63.461,1.907-95.197,2.669c-10.48,0.251-20.961,0.488-31.442,0.688
			c-3.038,0.061-6.075,0.113-9.113,0.154c-8.214,0.107-15.852-2.077-23.63-4.553c-20.912-6.658-43.344-11.545-61.36-24.69
			C73.191,655.563,71.697,658.167,73.243,659.295L73.243,659.295z"/>
	</g>
</g>
<g>
	<g>
		<path fill="#323232" d="M522.887,327.066c4.28,20.418,4.978,40.349-1.969,60.274c-6.518,18.701-19.721,34.46-25.064,53.624
			c-4.648,16.675-1.848,36.021,2.123,52.57c4.363,18.2,12.217,35.824,21.729,51.89c0.984,1.663,3.578,0.154,2.59-1.514
			c-9.445-15.951-16.885-33.183-21.427-51.174c-4.667-18.488-6.701-39.594,0.088-57.748c6.988-18.69,19.546-34.533,25.099-53.914
			c5.16-18.014,3.519-36.718-0.273-54.806C525.383,324.375,522.491,325.178,522.887,327.066L522.887,327.066z"/>
	</g>
</g>
<g>
	<g>
		<path fill="#323232" d="M354.834,402c-0.215,31.155,0.298,62.332,0.57,93.486c0.175,20.092,2.03,40.938-2.598,60.614
			c-6.192,26.342-28.584,45.571-53.818,53.016c-10.147,2.993-20.87,4.012-31.397,4.501c-4.869,0.226-9.822,0.429-14.682,0.015
			c-4.009-0.341-16.505-0.262-13.488-6.75c0.81-1.742-1.775-3.267-2.591-1.514c-5.3,11.396,10.548,10.793,17.787,11.409
			c14.171,1.207,30.033-0.812,43.752-4.375c22.654-5.891,42.04-21.161,52.544-42.104c9.992-19.919,7.792-43.623,7.579-65.215
			c-0.173-17.604-0.299-35.211-0.418-52.815c-0.114-16.754-0.354-33.517-0.239-50.271C357.847,400.064,354.847,400.066,354.834,402
			L354.834,402z"/>
	</g>
</g>
<g>
	<g>
		<path fill="#323232" d="M68.888,640.398c1.674,5.935,7.848,8.949,13.102,11.128c8.514,3.525,17.888,5.128,26.958,6.457
			c22.985,3.363,46.226,2.766,69.291,0.433c60.236-6.095,119.793-23.469,180.773-21.111c34.909,1.352,70.199,11.374,95.595,36.422
			c1.378,1.359,3.5-0.761,2.121-2.12c-36.974-36.469-91.057-40.396-140.067-35.729c-31.773,3.025-63.201,7.936-94.651,13.275
			c-30.35,5.151-61.352,9.665-92.226,7.947c-10.513-0.584-21.028-1.865-31.344-3.975c-7.813-1.597-24.053-4.284-26.661-13.524
			C71.256,637.742,68.361,638.533,68.888,640.398L68.888,640.398z"/>
	</g>
</g>
<g>
	<g>
		<path fill="#323232" d="M524.729,324.939c-1.385-1.772-3.216-3.054-4.561-4.866c-1.322-1.784-1.787-4.482-2.285-6.605
			c-1.209-5.159-1.083-10.631-1.69-15.883c-0.675-5.812-0.62-11.656-1.707-17.425c-2.307-12.233-12.215-16.937-23.785-13.417
			c-5.223,1.588-9.898,4.892-12.982,9.385c-3.664,5.338-2.042,11.28,0.425,16.69c3.64,7.979,9.842,14.088,16.853,19.131
			c6.829,4.912,14.608,11.413,23.342,11.885c1.936,0.104,1.924-2.896,0-3c-8.016-0.434-15.482-7.053-21.828-11.476
			c-6.806-4.745-12.036-10.634-15.772-18.054c-3.372-6.692-2.58-12.577,3.107-17.548c4.299-3.757,10.538-5.556,16.158-5.262
			c12.283,0.643,12.292,16.117,12.867,25.087c0.398,6.251,0.879,12.586,1.761,18.786c0.372,2.612,1.045,5.567,2.274,7.922
			c1.447,2.776,3.814,4.352,5.706,6.771C523.797,328.584,525.903,326.445,524.729,324.939L524.729,324.939z"/>
	</g>
</g>
<g>
	<g>
		<path fill="#323232" d="M478.628,282.577c0.068,0.125,5.582-2.285,6.146-2.468c2.266-0.736,4.675-0.797,7.026-0.652
			c7.853,0.483,10.137,7.26,9.968,13.966c-0.229,9.149-3.563,19.794,4.505,26.638c1.466,1.244,3.599-0.868,2.12-2.121
			c-11.659-9.892,3.462-28.701-8.771-38.66c-4.208-3.426-10.669-3.466-15.646-2.063c-2.515,0.709-10.021,3.028-7.938,6.875
			C476.959,285.793,479.549,284.278,478.628,282.577L478.628,282.577z"/>
	</g>
</g>
<g>
	<g>
		<path fill="#323232" d="M478.939,275.606c-9.665,11.957-4.834,31.874,7.637,40.023c1.625,1.062,3.126-1.537,1.514-2.591
			c-10.709-6.998-15.432-24.916-7.029-35.311C482.265,276.238,480.156,274.101,478.939,275.606L478.939,275.606z"/>
	</g>
</g>
<g>
	<g>
		<path fill="#323232" d="M484.834,354c1.064,16.77-10.694,28.377-18.984,41.604c-8.664,13.818-14.001,31.137-16.419,47.193
			c-4.268,28.331,0.543,61.146,15.274,85.959c0.986,1.662,3.58,0.153,2.59-1.514c-15.046-25.344-19.42-58.953-14.301-87.735
			c2.938-16.522,9.168-33.399,18.641-47.258c8.152-11.926,17.17-22.962,16.199-38.25C487.712,352.08,484.711,352.068,484.834,354
			L484.834,354z"/>
	</g>
</g>
<g>
	<path fill="#F5F5F5" d="M379.564,588.19c-10.938,7.498-89.727-12.325-91.185-22.81c-1.078-7.748,1.748-22.079,8.351-26.983
		c4.766-3.537,57.367,9.483,76.263,18.935c9.188,4.596,18.109,20.728,8.468,29.365C380.846,587.25,380.213,587.746,379.564,588.19z"
		/>
	<g>
		<path fill="#323232" d="M378.808,586.896c-3.972,2.517-10.509,1.504-14.899,1.156c-8.316-0.652-16.569-2.229-24.71-3.999
			c-15.007-3.262-31.409-7.073-44.828-14.833c-1.558-0.899-3.326-1.973-4.303-3.534c-2.074-3.312,0.208-11.108,1.058-14.462
			c0.838-3.303,3.127-10.811,7.038-11.779c2.396-0.598,5.367,0.015,7.763,0.307c18.76,2.284,37.753,7.919,55.471,14.346
			c5.702,2.069,11.648,4.14,16.05,8.464C384.097,569.1,387.4,580.583,378.808,586.896c-1.542,1.134-0.048,3.737,1.516,2.592
			c7.825-5.748,8.104-14.392,3.94-22.628c-4.007-7.936-11.282-11.482-19.139-14.554c-17.688-6.909-36.664-11.976-55.403-15.015
			c-3.729-0.604-10.225-2.387-13.747-0.188c-7.427,4.637-9.267,17.223-9.315,25.1c-0.067,10.912,16.21,14.513,24.397,17.28
			c13.496,4.562,27.497,7.917,41.561,10.169c5.766,0.923,11.603,1.635,17.448,1.692c3.317,0.035,7.349-0.018,10.255-1.856
			C381.951,588.454,380.447,585.857,378.808,586.896z"/>
	</g>
</g>
<g>
	<path fill="#F5F5F5" d="M325.195,467.541c-6.895-2.453-20.791-2.168-24.033,5.907c-4.723,11.763-3.322,30.382,12.344,32.313
		c6.38,0.786,54.632,10.905,63.161,10.905c8,0,14.667-5,16.667-13c4.885-19.54-17.619-21.142-30.583-25.433
		C351.707,474.579,326.567,468.029,325.195,467.541z"/>
	<g>
		<path fill="#323232" d="M325.594,466.095c-7.419-2.425-16.984-2.189-23.188,2.994c-5.771,4.82-5.716,16.396-4.53,23.03
			c1.459,8.161,7.418,14.063,15.632,15.143c6.132,0.807,12.227,2.224,18.294,3.39c9.144,1.756,18.284,3.512,27.453,5.113
			c6.121,1.07,12.563,2.581,18.813,2.353c10.025-0.369,16.357-8.828,17.393-18.123c0.885-7.969-4.631-13.555-11.319-16.706
			c-9.032-4.257-19.664-6.216-29.235-9.036C345.192,471.391,335.216,469.224,325.594,466.095c-1.845-0.601-2.629,2.297-0.798,2.895
			c7.202,2.343,14.674,4.007,21.965,6.053c8.783,2.463,17.462,5.229,26.271,7.606c8.518,2.301,19.338,5.69,19.482,16.221
			c0.099,7.04-4.318,13.227-10.861,15.549c-3.468,1.23-7.212,0.682-10.753,0.197c-16.84-2.299-33.498-6.001-50.196-9.125
			c-7.442-1.395-14.606-1.832-18.462-9.492c-4.257-8.457-2.81-24.092,7.196-27.376c4.823-1.583,10.594-1.19,15.359,0.367
			C326.641,469.59,327.424,466.692,325.594,466.095z"/>
	</g>
</g>
<g>
	<g>
		<path fill="#323232" d="M201.424,220.781c35.087-6.354,69.184-20.915,100.968-36.748c27.618-13.756,60.806-30.684,73.906-60.449
			c0.76-1.726-1.785-3.231-2.551-1.491c-12.933,29.381-45.644,45.7-72.845,59.388c-31.457,15.828-65.474,30.151-100.263,36.45
			C198.766,218.271,199.561,221.118,201.424,220.781L201.424,220.781z"/>
	</g>
</g>
<g>
	<g>
		<path fill="#323232" d="M231,256.167c15.378-0.215,30.381-5.692,44.888-10.323c15.196-4.851,30.081-10.646,44.301-17.894
			c14.052-7.161,27.226-15.972,39.681-25.619c11.729-9.084,24.215-19.047,32.426-31.574c1.064-1.623-1.534-3.125-2.59-1.514
			c-8.069,12.31-20.495,21.971-31.957,30.967c-12.199,9.574-25.32,17.994-39.074,25.15c-13.924,7.244-28.672,12.765-43.584,17.591
			c-14.18,4.589-29.052,10.005-44.09,10.216C229.067,253.193,229.064,256.193,231,256.167L231,256.167z"/>
	</g>
</g>
<g>
	<g>
		<path fill="#323232" d="M266.334,296.167c29.351-2.281,56.058-14.049,82.026-27.144c12.343-6.224,23.694-13.773,34.194-22.756
			c5.452-4.665,10.486-9.806,14.903-15.463c1.699-2.176,3.215-4.473,4.634-6.839c1.843-3.071,2.434-6.617,4.201-9.707
			c0.964-1.681-1.629-3.192-2.59-1.514c-1.101,1.918-1.78,3.853-2.457,5.95c-1.063,3.287-3.205,6.221-5.188,9.007
			c-4.061,5.713-9.174,10.689-14.376,15.35c-10.06,9.013-21.302,16.357-33.261,22.575c-25.729,13.376-52.854,25.27-82.091,27.542
			C264.418,293.315,264.404,296.316,266.334,296.167L266.334,296.167z"/>
	</g>
</g>
<g>
	<g>
		<path fill="#323232" d="M299.666,336.833c14.596-0.955,28.201-7.231,41.584-12.676c13.509-5.495,26.022-12.749,38.065-20.922
			c18.502-12.556,40.521-28.114,45.631-51.336c0.415-1.885-2.479-2.687-2.895-0.798c-5.03,22.869-27.172,37.952-45.337,50.28
			c-11.476,7.788-23.455,14.531-36.264,19.883c-12.979,5.423-26.591,11.64-40.786,12.569
			C297.746,333.958,297.733,336.959,299.666,336.833L299.666,336.833z"/>
	</g>
</g>
<g>
	<g>
		<path fill="#323232" d="M327,367.5c12.247,0.066,23.365-4.881,34.424-9.597c11.951-5.096,23.251-11.637,33.883-19.081
			c10.2-7.141,19.786-15.317,28.438-24.271c8.166-8.451,14.934-18.468,17.202-30.152c0.365-1.89-2.524-2.696-2.895-0.798
			c-4.425,22.788-26.377,39.879-44.26,52.63c-9.191,6.554-19.021,12.18-29.227,16.991c-11.679,5.504-24.432,11.348-37.567,11.277
			C325.065,364.49,325.066,367.49,327,367.5L327,367.5z"/>
	</g>
</g>
</svg>
