<?xml version="1.0" encoding="utf-8"?>
<!-- Generator: Adobe Illustrator 16.0.0, SVG Export Plug-In . SVG Version: 6.00 Build 0)  -->
<!DOCTYPE svg PUBLIC "-//W3C//DTD SVG 1.1//EN" "http://www.w3.org/Graphics/SVG/1.1/DTD/svg11.dtd">
<svg version="1.1" id="圖層_1" xmlns="http://www.w3.org/2000/svg" xmlns:xlink="http://www.w3.org/1999/xlink" x="0px" y="0px"
	 width="66.667px" height="98.667px" viewBox="0 0 66.667 98.667" enable-background="new 0 0 66.667 98.667" xml:space="preserve">
<path fill="#00CCFF" d="M57.503,29.863c0,13.165-23.837,60.836-23.837,60.836S9.829,43.028,9.829,29.863
	c0-13.165,10.673-23.837,23.838-23.837C46.832,6.026,57.503,16.698,57.503,29.863z"/>
<path fill="#323232" d="M56.003,29.863c-0.107,4.984-2.043,10.013-3.67,14.661c-2.49,7.11-5.453,14.06-8.49,20.951
	c-3.631,8.239-7.448,16.411-11.472,24.467c0.863,0,1.727,0,2.589,0C27.3,74.603,19.915,58.887,14.353,42.655
	c-1.296-3.782-2.601-7.74-2.98-11.741c-0.706-7.461,3.387-14.749,9.186-19.147C35.25,0.625,55.501,12.479,56.003,29.863
	c0.057,1.93,3.057,1.936,3,0C58.578,15.076,45.708,2.527,30.488,4.74C16.599,6.76,6.311,19.684,8.764,33.771
	c2.057,11.806,7.762,23.354,12.582,34.225c3.5,7.896,7.166,15.732,11.026,23.461c0.488,0.979,2.102,0.979,2.59,0
	c4.354-8.72,8.455-17.574,12.365-26.502c2.83-6.461,5.526-12.988,7.898-19.632c1.75-4.902,3.664-10.194,3.777-15.458
	C59.046,27.928,56.046,27.932,56.003,29.863z"/>
<circle fill="#F5F5F5" cx="33.667" cy="29.863" r="9.055"/>
<path fill="#323232" d="M41.221,29.863c-0.524,9.737-14.585,9.737-15.109,0C25.587,20.121,40.701,20.172,41.221,29.863
	c0.104,1.924,3.104,1.934,3,0C43.9,23.891,39.639,19.63,33.667,19.309c-5.96-0.321-10.259,5.065-10.555,10.555
	c-0.321,5.96,5.066,10.259,10.555,10.555c5.959,0.321,10.258-5.066,10.555-10.555C44.326,27.929,41.326,27.939,41.221,29.863z"/>
</svg>
