<?xml version="1.0" encoding="utf-8"?>
<!-- Generator: Adobe Illustrator 16.0.0, SVG Export Plug-In . SVG Version: 6.00 Build 0)  -->
<!DOCTYPE svg PUBLIC "-//W3C//DTD SVG 1.1//EN" "http://www.w3.org/Graphics/SVG/1.1/DTD/svg11.dtd">
<svg version="1.1" id="圖層_1" xmlns="http://www.w3.org/2000/svg" xmlns:xlink="http://www.w3.org/1999/xlink" x="0px" y="0px"
	 width="480px" height="480px" viewBox="0 0 480 480" enable-background="new 0 0 480 480" xml:space="preserve">
<g id="棒球場">
	<circle fill="#00A4FF" cx="240.46" cy="240.879" r="231.92"/>
	<path fill="#5FD25F" d="M13.841,191.431c-3.461,15.935-5.301,32.475-5.301,49.448c0,128.084,103.834,231.92,231.92,231.92
		c128.084,0,231.92-103.836,231.92-231.92c0-16.971-1.842-33.513-5.301-49.448c-72.377-18.904-148.32-28.981-226.62-28.981
		C162.162,162.45,86.217,172.527,13.841,191.431z"/>
	<path fill="#F5F5F5" d="M146.801,82.99c0.245-0.047,0.491-0.103,0.738-0.167c6.217-1.615,13.901-8.231,20.256-0.267
		c4.533,5.684,0.374,11.793-4.73,14.83c-13.248,7.882-32.335,1.979-46.779,2.701c-4.463,0.223-19.732,0.626-19.329-5.547
		c0.383-5.693,7.983-3.767,11.644-4.275c6.98-0.969,11.275-7.6,17.956-9.343C133.439,79.126,139.895,84.313,146.801,82.99z"/>
	<path fill="#F5F5F5" d="M257.044,112.692c0.999-0.747,2.067-1.441,3.32-1.965c5.454-2.281,12.896-0.874,18.622,0.529
		c7.898,1.935,14.896,10.046,9.32,17.833c-7.351,10.264-18.593,5.678-28.305,3.833c-9.184-1.744-38.053,7.656-43.953-2.133
		c-4.542-7.534,16.302-13.897,20.729-14.411c3.871-0.448,7.262,1.553,10.847,1.287C251.945,117.344,254.218,114.805,257.044,112.692
		z"/>
	<path fill="#F5F5F5" d="M408.818,117.885c6.838-0.771,12.557-3.081,11.633-8.715c-0.788-4.808-6.198-6.765-10.064-8.567
		c-8.094-3.772-24.806-10.672-33.213-6.332c-5.652,2.918-8.065,6.085-14.856,7.19c-5.702,0.927-16.205,0.375-11.628,9.591
		c2.672,5.381,13.775,5.668,19.335,6.21c8.046,0.785,12.715-1.095,19.924,0.036C393.189,117.807,401.623,118.696,408.818,117.885z"
		/>
	<path fill="#F5F5F5" d="M73.808,151.255c-2.436,1.216-6.834,2.863-7.921,5.818c-2.025,5.505,0.903,3.456,5.971,4.228
		c11.765,1.792,20.607,2.104,31.722-2.127c8.632-3.286,13.627-2.529,22.181-1.719c6.421,0.608,12.579-0.481,15.308-7.086
		c3.912-9.473-5.704-12.174-13.186-12.653c-7.918-0.507-20.11-0.46-27.349,2.747C91.946,144.267,82.173,147.078,73.808,151.255z"/>
	<g>
		
			<linearGradient id="SVGID_1_" gradientUnits="userSpaceOnUse" x1="74.8867" y1="310.6582" x2="316.2334" y2="69.3114" gradientTransform="matrix(1 0 0 -1 102.3398 460.04)">
			<stop  offset="0" style="stop-color:#00D48A"/>
			<stop  offset="1" style="stop-color:#1FA900"/>
		</linearGradient>
		<path fill="url(#SVGID_1_)" d="M160.609,165.999l241.329,241.328c11.295-10.959,21.479-23.052,30.365-36.103L223.696,162.618
			C202.476,163.009,181.442,164.153,160.609,165.999z"/>
		
			<linearGradient id="SVGID_2_" gradientUnits="userSpaceOnUse" x1="-97.0796" y1="260.0264" x2="180.4087" y2="-17.462" gradientTransform="matrix(1 0 0 -1 102.3398 460.04)">
			<stop  offset="0" style="stop-color:#00D48A"/>
			<stop  offset="1" style="stop-color:#1FA900"/>
		</linearGradient>
		<path fill="url(#SVGID_2_)" d="M13.841,191.431c-2.404,11.069-4.006,22.437-4.772,34.032l246.814,246.814
			c12.877-0.848,25.469-2.732,37.686-5.596L17.415,190.528C16.225,190.833,15.028,191.121,13.841,191.431z"/>
		
			<linearGradient id="SVGID_3_" gradientUnits="userSpaceOnUse" x1="-26.0503" y1="294.498" x2="255.0178" y2="13.4301" gradientTransform="matrix(1 0 0 -1 102.3398 460.04)">
			<stop  offset="0" style="stop-color:#00D48A"/>
			<stop  offset="1" style="stop-color:#1FA900"/>
		</linearGradient>
		<path fill="url(#SVGID_3_)" d="M61.412,180.419l272.684,272.684c13.433-5.936,26.191-13.105,38.14-21.371L112.113,171.609
			C95.051,174.064,78.15,177.017,61.412,180.419z"/>
		
			<linearGradient id="SVGID_4_" gradientUnits="userSpaceOnUse" x1="322.9629" y1="290.4404" x2="379.9548" y2="233.4486" gradientTransform="matrix(1 0 0 -1 102.3398 460.04)">
			<stop  offset="0" style="stop-color:#00D48A"/>
			<stop  offset="1" style="stop-color:#1FA900"/>
		</linearGradient>
		<path fill="url(#SVGID_4_)" d="M467.08,191.431c-17.055-4.455-34.313-8.4-51.75-11.858l56.992,56.991
			C472.037,221.104,470.246,206.011,467.08,191.431z"/>
		
			<linearGradient id="SVGID_5_" gradientUnits="userSpaceOnUse" x1="-104.4766" y1="162.7314" x2="81.6914" y2="-23.4365" gradientTransform="matrix(1 0 0 -1 102.3398 460.04)">
			<stop  offset="0" style="stop-color:#00D48A"/>
			<stop  offset="1" style="stop-color:#1FA900"/>
		</linearGradient>
		<path fill="url(#SVGID_5_)" d="M198.504,469.005L12.335,282.836C29.595,377.283,104.056,451.745,198.504,469.005z"/>
		
			<linearGradient id="SVGID_6_" gradientUnits="userSpaceOnUse" x1="192.7324" y1="313.3867" x2="366.0475" y2="140.0717" gradientTransform="matrix(1 0 0 -1 102.3398 460.04)">
			<stop  offset="0" style="stop-color:#00D48A"/>
			<stop  offset="1" style="stop-color:#1FA900"/>
		</linearGradient>
		<path fill="url(#SVGID_6_)" d="M350.885,169.233c-23.865-2.942-48.02-4.941-72.43-5.962L451.77,336.586
			c7.211-15.893,12.671-32.747,16.156-50.311L350.885,169.233z"/>
	</g>
	<g>
		<g>
			<ellipse fill="#FFDC90" cx="240.716" cy="400.332" rx="49.845" ry="33.05"/>
			<g>
				<path fill="#FFFFFF" d="M289.061,400.332c-0.562,23.003-29.783,31.351-48.344,31.55c-18.556,0.199-47.791-8.829-48.345-31.55
					c-0.241-9.864,7.205-17.797,14.955-22.781c9.816-6.313,21.885-8.645,33.39-8.768
					C259.273,368.584,288.506,377.609,289.061,400.332c0.047,1.932,3.047,1.936,3,0c-0.51-20.861-23.713-31.789-41.688-33.93
					c-20.498-2.44-47.681,2.726-58.255,22.726c-9.651,18.255,6.825,34.521,22.601,41.015c20.898,8.604,48.67,6.132,66.361-8.42
					c6.471-5.322,10.775-12.953,10.98-21.391C292.107,398.396,289.107,398.4,289.061,400.332z"/>
			</g>
		</g>
		<g>
			<path fill="#FFDC90" d="M445.84,260.337c-120.027-79.583-291.394-78.92-411.421,0.661c0,0,129.055,136.191,206.388,136.111
				C317.643,397.027,445.84,260.337,445.84,260.337z"/>
			<g>
				<path fill="#FFFFFF" d="M446.597,259.042c-84.71-55.883-192.271-71.765-290.768-50.371
					c-43.361,9.418-85.11,26.584-122.167,51.032c-0.818,0.539-0.995,1.627-0.304,2.355c12.945,13.65,26.695,26.594,40.624,39.229
					c27.729,25.148,57.03,49.061,88.951,68.721c26.45,16.291,58.06,32.492,90.073,27.561c16.066-2.478,31.417-9.176,45.741-16.625
					c16.979-8.83,32.966-19.536,48.37-30.856c35.718-26.249,69.432-56.35,99.782-88.688c1.321-1.408-0.796-3.533-2.121-2.12
					c-12.854,13.696-26.516,26.692-40.355,39.379c-27.897,25.573-57.405,49.911-89.707,69.753
					c-27.588,16.943-59.426,32.419-92.47,24.915c-16.961-3.853-32.94-11.604-48.002-20.115
					c-16.919-9.562-32.923-20.717-48.391-32.455c-32.081-24.344-62.645-51.573-90.375-80.815c-0.101,0.785-0.202,1.57-0.304,2.355
					c86.569-57.111,197.128-72.97,297.419-49.051c39.926,9.521,78.214,25.78,112.488,48.391
					C446.703,262.701,448.204,260.102,446.597,259.042z"/>
			</g>
		</g>
		<path fill="#5ED160" d="M257.559,393.99c-9.57,6.345-25.083,6.345-34.654,0l-83.171-55.147c-9.568-6.345-9.568-16.634,0-22.979
			l83.171-55.146c9.571-6.342,25.084-6.342,34.654,0l83.173,55.146c9.569,6.346,9.569,16.635,0,22.979L257.559,393.99z"/>
		<ellipse fill="#FFDC90" cx="240.233" cy="327.354" rx="21.664" ry="14.364"/>
		<ellipse fill="#5ED160" cx="240.13" cy="255.96" rx="14.962" ry="8.771"/>
		<path fill="#5ED160" d="M273.551,400.882c0,10.821-14.961,19.593-33.42,19.593c-18.458,0-33.422-8.771-33.422-19.593
			c0-10.825,14.964-19.596,33.422-19.596C258.59,381.286,273.551,390.057,273.551,400.882z"/>
		<ellipse fill="#5ED160" cx="132.309" cy="327.841" rx="14.962" ry="8.771"/>
		<ellipse fill="#5ED160" cx="344.473" cy="327.841" rx="14.962" ry="8.771"/>
	</g>
	<g>
		<path fill="#EAB05C" stroke="#00FFBD" stroke-width="4" stroke-miterlimit="10" d="M234.418,450.232L358.942,80.59
			c7.025-26.227-5.51-34.467-22.479-39.013c-16.97-4.547-31.947-3.68-38.975,22.545l-76.98,382.386
			c-8.25-0.897-14.796,0.825-15.821,4.652c-1.307,4.877,6.835,11.293,18.187,14.337c11.353,3.043,21.614,1.55,22.918-3.322
			C246.818,458.349,242.014,453.581,234.418,450.232z"/>
		<g>
			<g>
				<path fill="#FFFFFF" d="M299.722,94c-1.139,5.651-2.276,11.302-3.415,16.952c-0.382,1.889,2.511,2.693,2.893,0.798
					c1.139-5.651,2.276-11.302,3.416-16.952C302.995,92.909,300.104,92.105,299.722,94L299.722,94z"/>
			</g>
		</g>
		
			<ellipse transform="matrix(0.2588 -0.9659 0.9659 0.2588 192.1281 362.7653)" fill="#FFFFD1" cx="332.445" cy="56.19" rx="13.137" ry="25.88"/>
		<g>
			<g>
				<path fill="#FFFFFF" d="M303.98,64.897c6.409,6.634,14.184,11.204,23.093,13.593c7.793,2.089,18.521,3.506,26.146,0.358
					c1.764-0.728,0.991-3.631-0.797-2.893c-6.885,2.842-15.922,1.398-23.034-0.006c-8.975-1.772-16.984-6.652-23.287-13.174
					C304.755,61.383,302.636,63.507,303.98,64.897L303.98,64.897z"/>
			</g>
		</g>
		<path fill="#326332" stroke="#00FFBD" stroke-width="4" stroke-miterlimit="10" d="M246.492,317.438l-18.951,94.133
			c2.992,0.945,6.011,1.838,9.07,2.658c3.06,0.819,6.122,1.556,9.184,2.233l30.654-90.998c-5.043-0.969-10.088-2.118-15.126-3.468
			C256.286,320.646,251.343,319.118,246.492,317.438z"/>
		
			<line fill="none" stroke="#00FFBD" stroke-width="4" stroke-miterlimit="10" x1="242.961" y1="336.313" x2="271.707" y2="344.016"/>
		
			<line fill="none" stroke="#00FFBD" stroke-width="4" stroke-miterlimit="10" x1="238.468" y1="353.082" x2="267.215" y2="360.784"/>
		
			<line fill="none" stroke="#00FFBD" stroke-width="4" stroke-miterlimit="10" x1="233.653" y1="371.048" x2="258.809" y2="377.788"/>
		
			<line fill="none" stroke="#00FFBD" stroke-width="4" stroke-miterlimit="10" x1="231.876" y1="387.262" x2="253.438" y2="393.039"/>
		<g>
			<path fill="#C78338" d="M317.85,97.939c0,0,0.011,0.617,0.027,1.773c0.001,1.156,0.08,2.853,0.035,5.011
				c-0.059,1.082-0.124,2.279-0.195,3.582c-0.069,1.306-0.126,2.724-0.319,4.219c-0.164,1.502-0.339,3.101-0.521,4.786
				c-0.279,1.672-0.574,3.43-0.882,5.265c-0.696,3.653-1.533,7.607-2.729,11.706c-0.528,2.07-1.219,4.152-1.909,6.286
				c-0.645,2.151-1.492,4.281-2.313,6.462c-0.807,2.198-1.709,4.352-2.59,6.565c-0.895,2.204-1.799,4.435-2.711,6.684
				c-1.76,4.508-3.406,9.115-5.115,13.712c-1.555,4.658-3.218,9.282-4.669,13.895c-0.714,2.312-1.423,4.604-2.122,6.868
				c-0.716,2.26-1.418,4.495-2.013,6.721c-0.626,2.218-1.241,4.399-1.843,6.534c-0.309,1.066-0.611,2.121-0.912,3.163
				c-0.271,1.05-0.538,2.086-0.803,3.11c-0.529,2.046-1.045,4.038-1.543,5.963c-0.506,1.924-1.022,3.778-1.428,5.579
				c-0.841,3.595-1.656,6.882-2.382,9.797c-0.709,2.919-1.238,5.483-1.72,7.586c-0.459,2.106-0.869,3.755-1.127,4.882
				c-0.266,1.127-0.406,1.729-0.406,1.729s0.085-0.61,0.246-1.756c0.166-1.146,0.379-2.828,0.714-4.961
				c0.336-2.134,0.688-4.733,1.198-7.7c0.518-2.963,1.104-6.308,1.793-9.948c0.672-3.645,1.576-7.556,2.479-11.707
				c0.229-1.037,0.463-2.088,0.696-3.152c0.265-1.057,0.53-2.127,0.802-3.209c0.553-2.161,1.115-4.37,1.688-6.615
				c0.552-2.252,1.209-4.516,1.88-6.806c0.672-2.29,1.353-4.607,2.038-6.944c1.43-4.655,3.064-9.327,4.605-14.029
				c1.76-4.632,3.467-9.3,5.27-13.819c1.842-4.48,3.817-8.861,5.525-13.115c0.858-2.125,1.715-4.209,2.436-6.295
				c0.755-2.074,1.507-4.1,2.099-6.118c0.626-2.007,1.267-3.953,1.747-5.873c0.259-0.956,0.514-1.895,0.765-2.817
				c0.262-0.92,0.493-1.829,0.677-2.729c0.397-1.795,0.779-3.516,1.144-5.151c0.294-1.651,0.573-3.218,0.836-4.689
				c0.294-1.472,0.443-2.859,0.602-4.144c0.158-1.286,0.305-2.467,0.436-3.535C317.661,100.399,317.85,97.939,317.85,97.939z"/>
		</g>
		<g>
			<path fill="#C78338" d="M329.443,113.011c0,0-0.088,0.39-0.252,1.122c-0.191,0.726-0.363,1.816-0.601,3.177
				c-0.207,1.375-0.404,3.052-0.617,4.981c-0.206,1.933-0.416,4.123-0.777,6.519c-0.104,0.599-0.208,1.211-0.314,1.834l-0.082,0.47
				c-0.019,0.093-0.017,0.125-0.053,0.27l-0.055,0.231c-0.072,0.309-0.146,0.62-0.222,0.934c-0.311,1.257-0.593,2.549-0.984,3.883
				c-0.42,1.335-0.853,2.706-1.292,4.107c-0.483,1.362-0.979,2.754-1.479,4.169c-0.496,1.402-1.002,2.828-1.513,4.271
				c-0.543,1.493-1.069,2.922-1.636,4.399c-1.115,2.935-2.248,5.916-3.383,8.897c-1.156,2.975-2.354,5.906-3.47,8.868
				c-1.123,2.962-2.369,5.807-3.506,8.566c-1.142,2.761-2.255,5.412-3.242,7.95c-0.993,2.537-1.835,4.96-2.576,7.213
				c-0.682,2.266-1.295,4.355-1.688,6.24c-0.104,0.471-0.204,0.927-0.301,1.367c-0.076,0.444-0.15,0.872-0.222,1.283
				c-0.15,0.822-0.281,1.581-0.346,2.271c-0.081,0.691-0.153,1.309-0.216,1.845c-0.035,0.541-0.063,1-0.088,1.373
				c-0.047,0.749-0.072,1.148-0.072,1.148s-0.031-0.398-0.09-1.146c-0.03-0.375-0.066-0.838-0.108-1.382
				c-0.027-0.545-0.019-1.172-0.021-1.876c-0.019-0.706,0.022-1.484,0.078-2.333c0.025-0.425,0.055-0.867,0.083-1.326
				c0.055-0.456,0.11-0.928,0.17-1.416c0.208-1.959,0.62-4.143,1.157-6.504c0.57-2.35,1.242-4.89,2.128-7.508
				c0.858-2.626,1.819-5.377,2.896-8.173c1.053-2.791,2.141-5.674,3.247-8.604c1.067-2.93,2.245-5.924,3.376-8.907
				c2.341-5.942,4.682-11.883,6.876-17.454c0.554-1.384,1.098-2.746,1.63-4.078c0.497-1.321,0.983-2.614,1.457-3.872
				c0.461-1.271,0.801-2.579,1.205-3.8c0.099-0.308,0.195-0.613,0.291-0.915l0.072-0.227c0.008-0.008,0.035-0.131,0.051-0.191
				l0.114-0.447c0.147-0.595,0.295-1.179,0.438-1.751c0.514-2.311,0.938-4.464,1.334-6.374c0.386-1.914,0.798-3.573,1.166-4.931
				c0.392-1.362,0.742-2.402,1.024-3.097C329.302,113.385,329.443,113.011,329.443,113.011z"/>
		</g>
		<g>
			<path fill="#C78338" d="M302.393,125.764c0,0,0.127,0.237,0.287,0.651c0.078,0.207,0.183,0.458,0.266,0.747
				c0.104,0.282,0.179,0.618,0.211,1.007c0.043,0.385,0.075,0.811,0.091,1.268c0.008,0.454-0.051,0.891-0.104,1.366
				c-0.056,0.47-0.117,0.961-0.266,1.428c-0.125,0.477-0.28,0.953-0.433,1.43c-0.402,0.912-0.799,1.831-1.353,2.591
				c-0.264,0.386-0.521,0.755-0.797,1.084c-0.29,0.322-0.575,0.615-0.845,0.877c-0.527,0.532-1.089,0.879-1.462,1.119
				c-0.382,0.237-0.621,0.344-0.621,0.344s0.036-0.273,0.144-0.702c0.094-0.438,0.296-0.995,0.473-1.692
				c0.1-0.34,0.217-0.698,0.351-1.066c0.126-0.374,0.239-0.775,0.388-1.169c0.148-0.395,0.304-0.799,0.441-1.216
				c0.14-0.417,0.315-0.824,0.478-1.236c0.148-0.416,0.293-0.833,0.466-1.235c0.18-0.402,0.311-0.804,0.462-1.192
				c0.16-0.387,0.313-0.761,0.461-1.116c0.125-0.345,0.261-0.678,0.398-0.993c0.146-0.309,0.288-0.616,0.373-0.91
				c0.091-0.286,0.201-0.535,0.285-0.74C302.259,125.998,302.393,125.764,302.393,125.764z"/>
		</g>
	</g>
	<g>
		<circle fill="#F5F5F5" stroke="#5FFFBD" stroke-width="4" stroke-miterlimit="10" cx="190.82" cy="216.62" r="30.997"/>
		<g>
			<path fill="#5FFFBD" d="M166.933,237.461c0,0,0.368-0.666,1.073-1.777c0.177-0.277,0.372-0.584,0.584-0.918
				c0.171-0.354,0.375-0.715,0.581-1.106c0.418-0.778,0.887-1.625,1.307-2.63c0.218-0.488,0.445-0.997,0.68-1.523
				c0.191-0.542,0.389-1.102,0.592-1.677c0.105-0.283,0.211-0.571,0.319-0.862c0.099-0.293,0.166-0.603,0.252-0.908
				c0.159-0.615,0.345-1.231,0.522-1.86c0.213-1.297,0.566-2.597,0.667-3.966c0.211-1.351,0.204-2.74,0.273-4.122
				c-0.07-1.382-0.065-2.77-0.276-4.121c-0.104-1.368-0.452-2.668-0.668-3.965c-0.177-0.629-0.365-1.245-0.523-1.859
				c-0.086-0.305-0.153-0.615-0.251-0.908c-0.108-0.291-0.214-0.578-0.32-0.861c-0.203-0.576-0.401-1.135-0.592-1.677
				c-0.235-0.526-0.461-1.036-0.679-1.524c-0.415-0.999-0.897-1.864-1.319-2.647c-0.208-0.395-0.415-0.757-0.585-1.111
				c-0.207-0.328-0.397-0.63-0.569-0.902c-0.69-1.097-1.067-1.773-1.067-1.773s0.617,0.422,1.666,1.25
				c0.262,0.209,0.552,0.441,0.868,0.693c0.292,0.275,0.586,0.594,0.914,0.927c0.326,0.338,0.674,0.697,1.04,1.076
				c0.377,0.375,0.662,0.849,1.022,1.305c0.346,0.469,0.707,0.958,1.081,1.463c0.313,0.545,0.638,1.109,0.971,1.688
				c0.344,0.579,0.66,1.193,0.918,1.85c0.284,0.647,0.548,1.32,0.829,2.003c0.4,1.411,0.917,2.864,1.106,4.408
				c0.328,1.524,0.345,3.109,0.437,4.687c-0.092,1.577-0.112,3.161-0.439,4.685c-0.193,1.543-0.705,2.997-1.108,4.407
				c-0.28,0.683-0.546,1.355-0.829,2.003c-0.259,0.656-0.573,1.271-0.919,1.85c-0.334,0.583-0.647,1.152-0.971,1.688
				c-0.373,0.506-0.733,0.994-1.08,1.463c-0.361,0.458-0.64,0.926-1.024,1.309c-0.37,0.384-0.72,0.748-1.05,1.09
				c-0.329,0.336-0.626,0.656-0.918,0.931c-0.31,0.247-0.595,0.473-0.853,0.677C167.558,237.028,166.933,237.461,166.933,237.461z"
				/>
		</g>
		<g>
			<path fill="#5FFFBD" d="M212.674,194.765c0,0-0.368,0.666-1.073,1.777c-0.177,0.277-0.372,0.584-0.584,0.918
				c-0.171,0.354-0.375,0.715-0.581,1.106c-0.418,0.777-0.887,1.625-1.307,2.629c-0.218,0.488-0.445,0.997-0.68,1.524
				c-0.191,0.542-0.389,1.101-0.592,1.677c-0.105,0.284-0.211,0.571-0.319,0.862c-0.099,0.293-0.167,0.603-0.252,0.908
				c-0.159,0.615-0.344,1.231-0.522,1.86c-0.213,1.297-0.566,2.597-0.666,3.966c-0.212,1.351-0.204,2.74-0.273,4.122
				c0.07,1.382,0.065,2.77,0.276,4.121c0.104,1.367,0.452,2.668,0.668,3.964c0.177,0.629,0.365,1.245,0.523,1.859
				c0.086,0.305,0.153,0.615,0.251,0.908c0.108,0.291,0.214,0.578,0.32,0.861c0.203,0.576,0.401,1.135,0.592,1.677
				c0.235,0.526,0.461,1.035,0.679,1.524c0.415,0.999,0.897,1.863,1.319,2.647c0.208,0.395,0.415,0.757,0.585,1.111
				c0.207,0.328,0.397,0.629,0.569,0.901c0.69,1.097,1.067,1.773,1.067,1.773s-0.617-0.422-1.666-1.25
				c-0.262-0.209-0.552-0.441-0.868-0.693c-0.292-0.275-0.586-0.594-0.914-0.927c-0.326-0.337-0.674-0.697-1.04-1.076
				c-0.377-0.376-0.661-0.849-1.021-1.305c-0.346-0.469-0.707-0.957-1.081-1.463c-0.313-0.545-0.638-1.109-0.971-1.688
				c-0.344-0.579-0.66-1.193-0.918-1.85c-0.284-0.647-0.548-1.32-0.829-2.003c-0.4-1.411-0.917-2.863-1.106-4.407
				c-0.328-1.524-0.345-3.109-0.437-4.686c0.092-1.577,0.112-3.161,0.439-4.685c0.193-1.543,0.705-2.997,1.108-4.407
				c0.279-0.683,0.546-1.355,0.829-2.003c0.258-0.656,0.573-1.271,0.918-1.849c0.334-0.583,0.647-1.152,0.971-1.688
				c0.373-0.505,0.733-0.994,1.08-1.463c0.362-0.457,0.64-0.926,1.024-1.309c0.37-0.384,0.72-0.748,1.05-1.09
				c0.329-0.336,0.626-0.656,0.918-0.931c0.31-0.247,0.595-0.473,0.853-0.677C212.048,195.198,212.674,194.765,212.674,194.765z"/>
		</g>
	</g>
	<circle fill="none" stroke="#5FD25F" stroke-width="10" stroke-miterlimit="10" cx="240.46" cy="240.879" r="231.92"/>
</g>
</svg>
