<?xml version="1.0" encoding="utf-8"?>
<!-- Generator: Adobe Illustrator 16.0.0, SVG Export Plug-In . SVG Version: 6.00 Build 0)  -->
<!DOCTYPE svg PUBLIC "-//W3C//DTD SVG 1.1//EN" "http://www.w3.org/Graphics/SVG/1.1/DTD/svg11.dtd">
<svg version="1.1" id="圖層_1" xmlns="http://www.w3.org/2000/svg" xmlns:xlink="http://www.w3.org/1999/xlink" x="0px" y="0px"
	 width="480px" height="480px" viewBox="0 0 480 480" enable-background="new 0 0 480 480" xml:space="preserve">
<g id="騎車步道">
	<circle fill="#00A4FF" cx="239.672" cy="240.879" r="231.92"/>
	<path fill="#5FD25F" d="M13.053,191.431c-3.461,15.935-5.301,32.475-5.301,49.448c0,128.084,103.834,231.92,231.92,231.92
		c128.084,0,231.92-103.836,231.92-231.92c0-16.971-1.841-33.513-5.301-49.448c-72.377-18.904-148.321-28.981-226.62-28.981
		C161.373,162.45,85.429,172.527,13.053,191.431z"/>
	<g>
		
			<linearGradient id="SVGID_1_" gradientUnits="userSpaceOnUse" x1="74.0991" y1="310.6582" x2="315.447" y2="69.3103" gradientTransform="matrix(1 0 0 -1 102.3398 460.04)">
			<stop  offset="0" style="stop-color:#00D48A"/>
			<stop  offset="1" style="stop-color:#1FA900"/>
		</linearGradient>
		<path fill="url(#SVGID_1_)" d="M159.821,165.999l241.331,241.328c11.293-10.959,21.479-23.052,30.362-36.103L222.908,162.618
			C201.688,163.009,180.655,164.153,159.821,165.999z"/>
		
			<linearGradient id="SVGID_2_" gradientUnits="userSpaceOnUse" x1="-97.8677" y1="260.0264" x2="179.6206" y2="-17.4619" gradientTransform="matrix(1 0 0 -1 102.3398 460.04)">
			<stop  offset="0" style="stop-color:#00D48A"/>
			<stop  offset="1" style="stop-color:#1FA900"/>
		</linearGradient>
		<path fill="url(#SVGID_2_)" d="M13.053,191.431c-2.404,11.069-4.005,22.437-4.772,34.032l246.815,246.814
			c12.877-0.848,25.467-2.732,37.686-5.596L16.626,190.528C15.437,190.833,14.24,191.121,13.053,191.431z"/>
		
			<linearGradient id="SVGID_3_" gradientUnits="userSpaceOnUse" x1="-26.8379" y1="294.498" x2="254.2302" y2="13.4301" gradientTransform="matrix(1 0 0 -1 102.3398 460.04)">
			<stop  offset="0" style="stop-color:#00D48A"/>
			<stop  offset="1" style="stop-color:#1FA900"/>
		</linearGradient>
		<path fill="url(#SVGID_3_)" d="M60.624,180.419l272.685,272.684c13.431-5.936,26.19-13.105,38.14-21.371L111.325,171.609
			C94.263,174.064,77.362,177.017,60.624,180.419z"/>
		
			<linearGradient id="SVGID_4_" gradientUnits="userSpaceOnUse" x1="322.1758" y1="290.4395" x2="379.1663" y2="233.4491" gradientTransform="matrix(1 0 0 -1 102.3398 460.04)">
			<stop  offset="0" style="stop-color:#00D48A"/>
			<stop  offset="1" style="stop-color:#1FA900"/>
		</linearGradient>
		<path fill="url(#SVGID_4_)" d="M466.292,191.431c-17.055-4.455-34.313-8.4-51.749-11.858l56.99,56.991
			C471.25,221.104,469.457,206.011,466.292,191.431z"/>
		
			<linearGradient id="SVGID_5_" gradientUnits="userSpaceOnUse" x1="-105.2661" y1="162.7305" x2="80.9018" y2="-23.4375" gradientTransform="matrix(1 0 0 -1 102.3398 460.04)">
			<stop  offset="0" style="stop-color:#00D48A"/>
			<stop  offset="1" style="stop-color:#1FA900"/>
		</linearGradient>
		<path fill="url(#SVGID_5_)" d="M197.715,469.005L11.547,282.836C28.807,377.283,103.268,451.745,197.715,469.005z"/>
		
			<linearGradient id="SVGID_6_" gradientUnits="userSpaceOnUse" x1="191.9448" y1="313.3848" x2="365.2592" y2="140.0704" gradientTransform="matrix(1 0 0 -1 102.3398 460.04)">
			<stop  offset="0" style="stop-color:#00D48A"/>
			<stop  offset="1" style="stop-color:#1FA900"/>
		</linearGradient>
		<path fill="url(#SVGID_6_)" d="M350.098,169.233c-23.864-2.942-48.021-4.941-72.43-5.962l173.314,173.315
			c7.209-15.893,12.67-32.747,16.155-50.311L350.098,169.233z"/>
	</g>
	<path fill="#F5F5F5" d="M146.013,82.99c0.245-0.047,0.492-0.103,0.738-0.167c6.217-1.615,13.901-8.231,20.256-0.267
		c4.533,5.684,0.374,11.793-4.73,14.83c-13.248,7.882-32.335,1.979-46.779,2.701c-4.463,0.223-19.732,0.626-19.33-5.547
		c0.383-5.693,7.984-3.767,11.645-4.275c6.979-0.969,11.274-7.6,17.956-9.343C132.651,79.126,139.107,84.313,146.013,82.99z"/>
	<path fill="#F5F5F5" d="M256.256,112.692c0.998-0.747,2.066-1.441,3.32-1.965c5.455-2.281,12.896-0.874,18.623,0.529
		c7.898,1.935,14.896,10.046,9.318,17.833c-7.351,10.264-18.593,5.678-28.304,3.833c-9.185-1.744-38.053,7.656-43.953-2.133
		c-4.542-7.534,16.302-13.897,20.729-14.411c3.87-0.448,7.263,1.553,10.847,1.287C251.158,117.344,253.43,114.805,256.256,112.692z"
		/>
	<path fill="#F5F5F5" d="M408.03,117.885c6.839-0.771,12.558-3.081,11.634-8.715c-0.789-4.808-6.199-6.765-10.066-8.567
		c-8.092-3.772-24.805-10.672-33.213-6.332c-5.649,2.918-8.065,6.085-14.856,7.19c-5.701,0.927-16.203,0.375-11.627,9.591
		c2.672,5.381,13.775,5.668,19.334,6.21c8.047,0.785,12.716-1.095,19.924,0.036C392.402,117.807,400.835,118.696,408.03,117.885z"/>
	<path fill="#F5F5F5" d="M73.02,151.255c-2.435,1.216-6.835,2.863-7.921,5.818c-2.025,5.505,0.903,3.456,5.971,4.228
		c11.765,1.792,20.607,2.104,31.721-2.127c8.632-3.286,13.627-2.529,22.181-1.719c6.421,0.608,12.579-0.481,15.308-7.086
		c3.912-9.473-5.705-12.174-13.186-12.653c-7.918-0.507-20.11-0.46-27.349,2.747C91.158,144.267,81.385,147.078,73.02,151.255z"/>
	<path fill="#BDFF9C" d="M300.058,380.896c-39.568,30.803-82.727,56.7-125.616,82.934c20.351,5.837,41.844,8.97,64.072,8.97
		c72.52,0,137.258-33.295,179.786-85.423c9.558-27.809,16.465-57.23,19.604-85.979c3.008-27.56-2.133-56.967-30.544-68.643
		c-27.968-11.493-58.991-12.876-88.73-9.57c-47.774,5.312-90.618,32.241-139.994,23.585c-15.637-2.741-36.722-10.358-26.269-29.962
		c13.151-24.662,35.593-37.773,56.756-53.883c-11.272,0.365-22.483,0.962-33.645,1.74c-15.889,10.621-31.659,21.05-47.341,32.128
		c-15.942,11.263-33.906,29.542-31.959,50.785c2.188,23.877,31,37.56,51.886,41.995c32.21,6.841,68.47,8.222,100.437-0.709
		c15.885-4.438,30.772-12.592,47.119-15.367c14.26-2.421,35.438,0.52,47.105,9.743c11.609,9.179,11.12,24.184,7.372,37.161
		C342.688,346.063,320.357,365.098,300.058,380.896z"/>
	<g>
		<circle fill="none" stroke="#505050" stroke-width="8" stroke-miterlimit="10" cx="114.012" cy="315.791" r="69.43"/>
		<line fill="none" stroke="#505050" stroke-width="8" stroke-miterlimit="10" x1="112" y1="246" x2="112" y2="384"/>
		
			<line fill="none" stroke="#505050" stroke-width="8" stroke-miterlimit="10" x1="162.099" y1="266.766" x2="63.579" y2="365.285"/>
		<line fill="none" stroke="#505050" stroke-width="8" stroke-miterlimit="10" x1="183" y1="317" x2="43" y2="317"/>
		
			<line fill="none" stroke="#505050" stroke-width="8" stroke-miterlimit="10" x1="162.098" y1="365.285" x2="63.579" y2="266.766"/>
		<circle fill="none" stroke="#505050" stroke-width="8" stroke-miterlimit="10" cx="367.337" cy="315.791" r="69.432"/>
		<line fill="none" stroke="#505050" stroke-width="8" stroke-miterlimit="10" x1="366" y1="246" x2="366" y2="384"/>
		
			<line fill="none" stroke="#505050" stroke-width="8" stroke-miterlimit="10" x1="415.422" y1="266.766" x2="316.902" y2="365.285"/>
		<line fill="none" stroke="#505050" stroke-width="8" stroke-miterlimit="10" x1="436" y1="317" x2="298" y2="317"/>
		
			<line fill="none" stroke="#505050" stroke-width="8" stroke-miterlimit="10" x1="415.422" y1="365.285" x2="316.902" y2="266.766"/>
		
			<line fill="none" stroke="#505050" stroke-width="8" stroke-miterlimit="10" x1="110.728" y1="318.137" x2="141.657" y2="251.637"/>
		<polyline fill="none" stroke="#505050" stroke-width="8" stroke-miterlimit="10" points="298,317 228.946,317 148.844,236.853 		
			"/>
		<polyline fill="none" stroke="#505050" stroke-width="8" stroke-miterlimit="10" points="149,237 285.24,237 317.039,267.254 		
			"/>
		
			<line fill="none" stroke="#C8C8C8" stroke-width="8" stroke-miterlimit="10" x1="228.946" y1="317.668" x2="274.686" y2="223.843"/>
		<circle fill="#505050" cx="228.946" cy="316.728" r="22.878"/>
		<path fill="#505050" d="M307,220.605c0,2.979-2.416,5.395-5.395,5.395h-55.211c-2.979,0-5.396-2.416-5.396-5.395v-1.21
			c0-2.979,2.416-5.395,5.396-5.395h55.211c2.979,0,5.395,2.416,5.395,5.395V220.605z"/>
		<polyline fill="none" stroke="#505050" stroke-width="8" stroke-miterlimit="10" points="140.23,254.699 170.774,192 210.65,192 
			222.63,203.014 211.841,213.803 		"/>
	</g>
	<path fill="none" stroke="#BDFF9C" stroke-miterlimit="10" d="M199.967,424.494c-2.83-0.126-2.228-15.235,1.137-16.204
		c-4.773,1.372-8.665,11.228-8.093,15.816"/>
	<path fill="none" stroke="#BDFF9C" stroke-miterlimit="10" d="M138.134,430.29c-3.97-8.53-0.972-17.089,2.678-25.151
		c0.434,9.2,1.304,16.838,5.052,25.538"/>
	<path fill="none" stroke="#BDFF9C" stroke-miterlimit="10" d="M215.039,402.852c1.828-8.947,5.063-19.527,13.578-24.603
		c-3.65,2.175-3.125,12.106-3.888,15.792c3.832-2.999,6.394-7.406,11.486-8.625c-4.502,1.385-4.393,11.441-3.014,14.73"/>
	<path fill="none" stroke="#BDFF9C" stroke-miterlimit="10" d="M197.841,369.036c-1.643-3.491,0.976-8.843,2.479-11.998
		c2.203-4.623,4.546-9.22,7.548-13.417c-2.669,5.145-3.428,10.645-3.012,16.411c-0.256-3.604,4.949-7.903,7.692-9.479
		c-0.63,3.236-2.753,6.229-3.295,9.424c-0.276,1.627-0.336,4.526-0.107,6.162"/>
	<path fill="none" stroke="#BDFF9C" stroke-miterlimit="10" d="M310.01,218.029c0.885-0.921,5.441-8.331,3.515-9.491
		c3.12,1.88,2.282,6.805,2.282,9.781"/>
	<path fill="none" stroke="#BDFF9C" stroke-miterlimit="10" d="M254.359,356.284c1.606-4.185,4.395-10.183,2.289-14.679
		c1.867,4.334,2.949,8.392,2.93,13.229"/>
	<path fill="none" stroke="#BDFF9C" stroke-miterlimit="10" d="M111.759,358.313c-0.296-7.517,3.278-9.609,6.55-15.883
		c-1.249,2.394-1.01,6.072-0.407,8.619c2.262-2.98,4.869-4.654,7.659-6.859c-2.892,2.285-3.761,10.91-2.789,14.123"/>
	<path fill="none" stroke="#BDFF9C" stroke-miterlimit="10" d="M318.415,188.756c5.409-1.871,9.864,7.644,14.429,5.823
		c1.992-0.794,2.435-4.286,4.709-4.604c2.201-0.307,4.59,2.468,6.955,2.771c3.273,0.419,3.215-2.072,6.15-2.859
		c3.188-0.854,5.774,2.666,8.983,3.234c3.214,0.569,4.959-1.663,7.947-2.061c5.308-0.708,11.31,3.138,16.619,3.781"/>
	<path fill="none" stroke="#BDFF9C" stroke-miterlimit="10" d="M378.122,211.943c-0.03,0.131,2.598,2.216,3.753,2.833
		c2.981,1.593,2.996,0.882,5.74,0.035c4.79-1.478,13.356,0.222,16.883,3.798"/>
	<path fill="none" stroke="#BDFF9C" stroke-miterlimit="10" d="M416.092,203.537c1.303,1.205,5.055,3.936,7.376,4.368
		c2.618,0.487,5.27-0.851,8,0.075c2.359,0.798,5.112,2.963,6.362,5.122"/>
	<path fill="none" stroke="#BDFF9C" stroke-miterlimit="10" d="M232.622,169.916c1.965,0.083,6.309,3.951,7.246,5.797"/>
	<path fill="none" stroke="#BDFF9C" stroke-miterlimit="10" d="M252.331,171.655c1.213,1.271,2.581,2.372,3.769,3.768"/>
	<path fill="none" stroke="#BDFF9C" stroke-miterlimit="10" d="M273.779,175.133c2.044,0.729,2.984,2.793,4.348,4.347"/>
	<path fill="none" stroke="#BDFF9C" stroke-miterlimit="10" d="M298.706,176.583c2.119,1.012,4.237,3.938,6.595,4.25
		c2.125,0.281,2.703-1.178,4.391-2.098c2.042-1.113,4.104-1.459,6.404-1.282"/>
	<path fill="none" stroke="#BDFF9C" stroke-miterlimit="10" d="M315.517,194.842c-1.679-0.112-0.689-1.161-1.951-1.768
		c-1.234-0.595-2.132-0.479-3.49-0.551c-2.57-0.137-4.763,1.042-7.224,0.816c-1.918-0.175-3.904-2.152-5.824-1.917
		c-1.78,0.219-1.188,0.798-2.643,1.671c-2.656,1.591-5.552,1.366-8.703,1.134c-6.013-0.444-12.592-1.997-18.567-0.255"/>
	<path fill="none" stroke="#BDFF9C" stroke-miterlimit="10" d="M283.924,210.494c-3.934,0.546-4.375-5.129-8.023-4.382
		c-0.705,0.145-1.832,1.423-2.515,1.78c-1.917,1.001-4.376,1.579-6.495,1.979c-7.271,1.37-15.307,0.026-22.675,0.043"/>
	<path fill="none" stroke="#BDFF9C" stroke-miterlimit="10" d="M132.337,177.742c-1.859-2.293-6.008,2.047-8.518,1.725
		c-1.656-0.212-3.121-1.559-5.027-1.741c-2.468-0.237-4.072,0.279-6.229,1.376c-6.589,3.352-12.894,6.337-19.935,8.785"/>
	<path fill="none" stroke="#BDFF9C" stroke-miterlimit="10" d="M83.064,201.798c2.932-3.539,5.742-3.418,10.074-3.754
		c6.263-0.486,13.532-3.512,18.91-6.68"/>
	<path fill="none" stroke="#BDFF9C" stroke-miterlimit="10" d="M80.166,187.307c-2.46,0.176-3.261-2.563-5.22-2.932
		c-3.313-0.624-8.38,4.385-11.591,5.25"/>
	<path fill="none" stroke="#BDFF9C" stroke-miterlimit="10" d="M69.442,199.479c0.324-0.236,0.543-0.54,0.659-0.912
		c-1.561-0.342-3.238-1.703-4.934-1.708c-1.44-0.005-2.273,1.079-3.509,1.687c-2.974,1.462-6.347,2.47-9.606,2.962"/>
	<path fill="none" stroke="#BDFF9C" stroke-miterlimit="10" d="M65.094,212.522c-3.286,0.862-6.315-0.189-9.402,1.346
		c-2.461,1.223-4.211,3.475-6.57,4.84c-2.921,1.691-6.798,2.582-10.113,3.089"/>
	<path fill="none" stroke="#BDFF9C" stroke-miterlimit="10" d="M50.022,190.205c0.438,2.06-1.603,2.822-2.608,4.348"/>
	<path fill="none" stroke="#BDFF9C" stroke-miterlimit="10" d="M40.167,194.262c-0.186,1.397-1.256,2.369-1.739,3.769"/>
	<path fill="none" stroke="#BDFF9C" stroke-miterlimit="10" d="M44.516,207.016c-2.298,0.876-5.456,7.434-6.667,9.564"/>
	<path fill="none" stroke="#BDFF9C" stroke-miterlimit="10" d="M34.371,207.885c-0.885,0.885-1.425,1.968-1.739,3.188"/>
	<path fill="none" stroke="#BDFF9C" stroke-miterlimit="10" d="M29.733,202.958c-2.197,0.638-2.54,3.921-3.768,5.796"/>
	<path fill="none" stroke="#BDFF9C" stroke-miterlimit="10" d="M85.383,217.16c-1.107,0.918-2.17,1.884-3.188,2.898"/>
	<path fill="none" stroke="#BDFF9C" stroke-miterlimit="10" d="M178.132,401.209c-3.859-1.35,1.241-15.919,2.333-18.771
		c-0.07,6.744-0.473,12.381,2.595,18.771"/>
	<path fill="#00A4FF" d="M76.269,404.682c30.65,0,30.65,14.285,61.297,14.285c30.65,0,30.65-14.285,61.296-14.285
		c30.649,0,30.649,14.285,61.3,14.285c30.648,0,30.648-14.27,61.3-14.27c30.648,0,30.648,14.303,61.299,14.303h4.177
		c-40.194,34-91.875,53.55-148.251,53.55c-64.398,0-122.667-26.257-164.69-68.637L76.269,404.682z"/>
	<circle fill="none" stroke="#5FD25F" stroke-width="10" stroke-miterlimit="10" cx="239.672" cy="240.879" r="231.92"/>
	<g>
		<path fill="#FFFFFF" d="M137.361,429.517c0,0,1.143-0.152,3.141-0.34c0.999-0.095,2.212-0.203,3.606-0.274
			c1.386-0.089,2.949-0.189,4.655-0.3c0.844-0.065,1.732-0.089,2.631-0.196c0.897-0.115,1.823-0.2,2.772-0.307
			c0.454-0.057,1.002-0.087,1.394-0.166c0.495-0.092,0.996-0.184,1.503-0.276c0.98-0.241,1.87-0.404,2.873-0.723
			c1.969-0.547,3.97-1.288,5.98-2.114c2.034-0.833,3.97-1.757,6.076-2.772c4.207-1.956,8.57-3.629,12.842-4.709
			c2.129-0.555,4.242-0.923,6.266-1.139c2.022-0.233,3.968-0.255,5.755-0.095c1.788,0.14,3.414,0.506,4.789,1.002
			c1.382,0.479,2.49,1.129,3.337,1.713c0.846,0.599,1.417,1.172,1.786,1.568c0.355,0.408,0.544,0.626,0.544,0.626
			s-0.241-0.155-0.692-0.448c-0.443-0.295-1.136-0.664-2.025-1.051c-0.903-0.365-2.025-0.705-3.336-0.927
			c-1.313-0.212-2.816-0.271-4.448-0.188c-1.634,0.098-3.396,0.369-5.244,0.748c-1.847,0.393-3.771,0.953-5.746,1.598
			c-1.974,0.646-3.99,1.408-6.024,2.235c-2.028,0.835-4.084,1.73-6.106,2.688c-1.043,0.482-2.086,0.965-3.125,1.445
			c-1.07,0.467-2.142,0.913-3.23,1.313c-2.166,0.814-4.36,1.495-6.55,1.942c-0.537,0.127-1.09,0.23-1.655,0.313
			c-0.55,0.084-1.127,0.191-1.638,0.229c-0.513,0.041-1.021,0.082-1.522,0.123c-0.605,0.052-1.054,0.019-1.577,0.032
			c-1.008,0.001-1.985,0.019-2.929,0.002c-0.942-0.021-1.837-0.125-2.703-0.181c-0.863-0.069-1.692-0.115-2.473-0.2
			c-0.776-0.093-1.513-0.182-2.205-0.265c-1.386-0.176-2.594-0.329-3.589-0.455C138.499,429.71,137.361,429.517,137.361,429.517z"/>
	</g>
	<g>
		<path fill="#FFFFFF" d="M221.221,430.289c0,0,0.999,0.031,2.729,0.164c0.866,0.057,1.916,0.16,3.118,0.345
			c1.208,0.161,2.571,0.354,4.021,0.626c1.451,0.257,3.023,0.534,4.687,0.828c0.828,0.161,1.669,0.291,2.531,0.429
			c0.862,0.116,1.737,0.329,2.626,0.407c0.887,0.108,1.789,0.218,2.702,0.329c0.911,0.097,1.83,0.101,2.755,0.174
			c0.463,0.024,0.926,0.065,1.392,0.077l1.394-0.043l1.397-0.031l0.698,0.197l0.176,0.209h0.044c-0.148,0-0.028-0.21-0.056-0.208
			l0.022-0.109l0.092-0.063l0.366-0.068c1.958-0.2,3.916-0.421,5.848-0.584c1.965-0.109,3.723-0.531,5.521-0.757
			c0.892-0.126,1.768-0.253,2.626-0.374c0.43-0.061,0.857-0.104,1.277-0.178c0.418-0.089,0.83-0.177,1.236-0.264
			c1.631-0.344,3.186-0.634,4.629-0.897c0.719-0.141,1.418-0.249,2.068-0.399c0.646-0.162,1.263-0.316,1.84-0.462
			c1.154-0.3,2.18-0.523,3.023-0.718c1.689-0.382,2.684-0.561,2.684-0.561s-0.854,0.499-2.398,1.304
			c-0.772,0.398-1.711,0.896-2.81,1.421c-0.548,0.269-1.132,0.554-1.747,0.854c-0.62,0.288-1.306,0.493-2.004,0.763
			c-1.404,0.515-2.934,1.069-4.566,1.621c-0.408,0.137-0.822,0.274-1.242,0.416c-0.426,0.122-0.866,0.217-1.308,0.329
			c-0.888,0.208-1.794,0.42-2.716,0.637c-0.927,0.206-1.869,0.415-2.822,0.627c-0.478,0.099-0.962,0.222-1.439,0.301
			c-0.477,0.062-0.955,0.121-1.436,0.182c-1.923,0.254-3.879,0.469-5.835,0.689l-0.366,0.037l-0.093,0.229L251.762,438h-0.049
			l-0.193-0.218l-0.774-0.102l-1.548-0.039l-1.541-0.021c-0.51-0.03-1.014-0.105-1.518-0.149c-1.005-0.104-2.012-0.18-2.979-0.345
			c-0.964-0.187-1.914-0.372-2.85-0.553c-0.94-0.171-1.82-0.446-2.699-0.674c-0.873-0.243-1.736-0.456-2.543-0.731
			c-1.633-0.512-3.162-1.034-4.551-1.53c-1.389-0.497-2.662-0.952-3.79-1.355c-1.124-0.403-2.108-0.785-2.935-1.053
			C222.149,430.659,221.221,430.289,221.221,430.289z"/>
	</g>
	<g>
		<path fill="#FFFFFF" d="M317.449,428.744c0,0,0.543-0.354,1.518-0.893c0.484-0.271,1.085-0.589,1.791-0.913
			c0.7-0.347,1.505-0.703,2.402-1.049c0.888-0.372,1.894-0.671,2.96-0.995c0.527-0.183,1.103-0.263,1.677-0.401
			c0.579-0.122,1.164-0.27,1.788-0.323c0.617-0.078,1.249-0.141,1.891-0.202c0.646-0.029,1.313-0.013,1.979-0.001
			c0.666-0.015,1.347,0.083,2.027,0.193l1.021,0.161l0.256,0.041l0.309,0.076l0.45,0.12l1.797,0.517
			c0.619,0.202,1.244,0.457,1.856,0.685c0.63,0.228,1.198,0.475,1.749,0.729c0.554,0.248,1.117,0.493,1.638,0.745
			c1.039,0.492,2.044,0.971,2.997,1.423c0.942,0.475,1.839,0.84,2.676,1.197c0.828,0.4,1.619,0.614,2.32,0.894
			c0.702,0.277,1.333,0.447,1.86,0.584c1.054,0.291,1.681,0.506,1.681,0.506s-0.617,0.136-1.741,0.288
			c-0.563,0.078-1.257,0.188-2.043,0.134c-0.783-0.03-1.713,0.021-2.666-0.162c-0.969-0.137-2.025-0.306-3.088-0.6
			c-1.09-0.262-2.178-0.602-3.304-0.966c-1.085-0.357-2.206-0.729-3.345-1.104c-0.545-0.176-1.094-0.353-1.646-0.528l-1.804-0.483
			l-0.449-0.129l-0.111-0.032l-0.058-0.017l-0.014-0.004c-0.074-0.02,0.085,0.021,0.063,0.017l-0.024-0.004l-0.205-0.034
			l-0.819-0.141c-0.545-0.09-1.081-0.232-1.646-0.239c-0.561-0.045-1.115-0.089-1.664-0.132c-0.562,0.005-1.115,0.009-1.664-0.005
			c-0.548-0.033-1.096,0.05-1.632,0.06c-0.537,0.034-1.064,0.03-1.582,0.093c-1.032,0.105-2.023,0.158-2.94,0.283
			c-1.865,0.197-3.42,0.362-4.508,0.478C318.096,428.723,317.449,428.744,317.449,428.744z"/>
	</g>
	<g>
		<path fill="#FFFFFF" d="M157.07,444.202c0,0,0.389-0.04,1.117-0.116c0.73-0.061,1.799-0.206,3.142-0.363
			c1.344-0.172,2.961-0.45,4.752-0.893c1.787-0.473,3.702-1.239,5.669-2.283c0.982-0.601,2.005-1.227,3.064-1.874
			c0.272-0.163,0.53-0.337,0.82-0.494c0.302-0.152,0.607-0.309,0.915-0.465c0.616-0.313,1.244-0.64,1.885-0.895
			c2.55-1.121,5.371-2.045,8.389-2.554c0.758-0.105,1.522-0.214,2.292-0.321c0.778-0.062,1.561-0.121,2.349-0.184l1.204-0.014
			c0.383,0.003,0.743-0.014,1.149,0.004c0.824,0.065,1.689,0.104,2.49,0.224c3.228,0.421,6.382,1.312,9.397,2.397
			c3.006,1.126,5.867,2.461,8.651,3.739c2.791,1.263,5.454,2.593,8.095,3.636l0.246,0.102l0.062,0.025l0.031,0.013
			c-0.017-0.006,0.082,0.029-0.03-0.01l0.128,0.045l0.513,0.18l1.02,0.356c0.675,0.241,1.343,0.479,2.004,0.716
			c1.291,0.36,2.542,0.751,3.795,1.077c1.279,0.28,2.523,0.553,3.727,0.816c1.22,0.217,2.399,0.427,3.531,0.628
			c2.285,0.299,4.388,0.598,6.269,0.767c1.877,0.212,3.525,0.302,4.884,0.438c2.724,0.207,4.28,0.324,4.28,0.324
			s-0.389,0.049-1.115,0.137c-0.729,0.073-1.797,0.224-3.161,0.335c-1.364,0.082-3.024,0.276-4.938,0.297
			c-0.956,0.02-1.976,0.074-3.052,0.067c-1.079-0.024-2.21-0.052-3.394-0.079c-1.185-0.086-2.418-0.175-3.696-0.267
			c-1.276-0.13-2.588-0.355-3.945-0.54c-1.359-0.246-2.764-0.568-4.202-0.866c-0.681-0.185-1.36-0.386-2.046-0.594l-1.035-0.311
			l-0.521-0.156l-0.13-0.039l-0.193-0.067l-0.264-0.095c-2.825-1.003-5.662-2.155-8.454-3.416c-2.8-1.238-5.609-2.487-8.447-3.51
			c-2.82-1.064-5.681-1.908-8.529-2.323c-0.712-0.121-1.375-0.141-2.062-0.231c-0.351-0.033-0.75-0.034-1.121-0.055l-1.054-0.038
			c-0.71,0.023-1.417,0.046-2.119,0.068c-0.701,0.066-1.397,0.133-2.088,0.198c-2.753,0.37-5.398,0.983-7.814,1.843
			c-2.389,0.827-4.513,1.966-6.781,3.018c-2.258,0.944-4.443,1.482-6.384,1.725c-0.971,0.102-1.878,0.188-2.713,0.203
			c-0.836-0.008-1.6,0.021-2.289-0.016c-1.378-0.042-2.448-0.144-3.177-0.212C157.459,444.236,157.07,444.202,157.07,444.202z"/>
	</g>
	<g>
		<path fill="#FFFFFF" d="M276.871,447.294c0,0,0.563-0.293,1.563-0.726c1.01-0.428,2.42-1.045,4.205-1.599
			c0.889-0.281,1.856-0.571,2.889-0.859c1.035-0.265,2.142-0.489,3.287-0.718c1.143-0.25,2.34-0.421,3.57-0.527
			c1.243-0.113,2.436-0.286,3.764-0.285l1.827-0.003c0.646,0.025,1.287,0.083,1.924,0.127c0.644,0.032,1.257,0.109,1.854,0.203
			c0.603,0.089,1.199,0.158,1.776,0.271c2.308,0.436,4.411,0.992,6.171,1.562c1.767,0.563,3.211,1.111,4.226,1.503
			c1.015,0.394,1.59,0.665,1.59,0.665s-0.628,0.073-1.721,0.12c-1.094,0.06-2.647,0.051-4.49-0.003
			c-0.913-0.043-1.901-0.091-2.947-0.14c-1.03-0.059-2.117-0.12-3.241-0.184c-1.104-0.029-2.277-0.116-3.396-0.122
			c-0.563-0.011-1.13-0.011-1.698-0.037l-1.828,0.036l-0.854,0.004l-0.887,0.058c-0.589,0.043-1.18,0.058-1.764,0.086
			c-0.584,0.03-1.164,0.047-1.739,0.058c-0.576,0.041-1.146,0.081-1.704,0.121c-2.262,0.122-4.37,0.234-6.18,0.333
			c-1.827,0.039-3.387,0.128-4.475,0.104C277.503,447.341,276.871,447.294,276.871,447.294z"/>
	</g>
</g>
</svg>
