<?xml version="1.0" encoding="utf-8"?>
<!-- Generator: Adobe Illustrator 16.0.0, SVG Export Plug-In . SVG Version: 6.00 Build 0)  -->
<!DOCTYPE svg PUBLIC "-//W3C//DTD SVG 1.1//EN" "http://www.w3.org/Graphics/SVG/1.1/DTD/svg11.dtd">
<svg version="1.1" id="圖層_1" xmlns="http://www.w3.org/2000/svg" xmlns:xlink="http://www.w3.org/1999/xlink" x="0px" y="0px"
	 width="480px" height="480px" viewBox="0 0 480 480" enable-background="new 0 0 480 480" xml:space="preserve">
<g id="河堤">
	<circle fill="#FFB300" cx="240.477" cy="240.879" r="231.92"/>
	<circle fill="#FF5700" cx="240.478" cy="162.45" r="35.267"/>
	<path fill="#3F7DFF" d="M13.858,191.431c-3.46,15.935-5.301,32.475-5.301,49.448c0,128.084,103.834,231.92,231.92,231.92
		c128.085,0,231.919-103.836,231.919-231.92c0-16.971-1.84-33.513-5.3-49.448c-72.376-18.904-148.319-28.981-226.62-28.981
		C162.179,162.45,86.234,172.527,13.858,191.431z"/>
	<path fill="#F5F5F5" d="M146.817,82.99c0.246-0.047,0.492-0.103,0.739-0.167c6.217-1.615,13.901-8.231,20.256-0.267
		c4.533,5.684,0.374,11.793-4.729,14.83c-13.248,7.882-32.335,1.979-46.78,2.701c-4.463,0.223-19.731,0.626-19.328-5.547
		c0.383-5.693,7.983-3.767,11.644-4.275c6.98-0.969,11.275-7.6,17.956-9.343C133.456,79.126,139.912,84.313,146.817,82.99z"/>
	<path fill="#F5F5F5" d="M257.061,91.823c1-0.746,2.068-1.44,3.321-1.964c5.455-2.28,12.897-0.873,18.622,0.529
		c7.898,1.935,14.896,10.046,9.32,17.832c-7.352,10.264-18.594,5.679-28.305,3.834c-9.183-1.745-38.053,7.656-43.953-2.133
		c-4.542-7.534,16.302-13.898,20.729-14.412c3.871-0.448,7.263,1.554,10.849,1.287C251.964,96.476,254.234,93.937,257.061,91.823z"
		/>
	<path fill="#F5F5F5" d="M408.836,117.885c6.839-0.771,12.559-3.081,11.633-8.715c-0.787-4.808-6.197-6.765-10.063-8.567
		c-8.093-3.772-24.807-10.672-33.213-6.332c-5.652,2.918-8.067,6.085-14.858,7.19c-5.701,0.927-16.203,0.375-11.628,9.591
		c2.673,5.381,13.777,5.668,19.335,6.21c8.047,0.785,12.716-1.095,19.925,0.036C393.207,117.807,401.641,118.696,408.836,117.885z"
		/>
	<path fill="#F5F5F5" d="M73.825,151.255c-2.436,1.216-6.835,2.863-7.921,5.818c-2.025,5.505,0.902,3.456,5.97,4.228
		c11.766,1.792,20.607,2.104,31.723-2.127c8.632-3.286,13.627-2.529,22.181-1.719c6.421,0.608,12.579-0.481,15.308-7.086
		c3.912-9.473-5.704-12.174-13.185-12.653c-7.919-0.507-20.11-0.46-27.35,2.747C91.964,144.267,82.191,147.078,73.825,151.255z"/>
	<g>
		<path fill="#FFFFFF" d="M93.338,383.915c0,0,0.506,0.174,1.455,0.499c0.955,0.302,2.321,0.859,4.059,1.594
			c1.711,0.748,3.79,1.657,6.174,2.699c1.201,0.477,2.455,1.055,3.813,1.529c0.675,0.248,1.366,0.502,2.075,0.762
			c0.704,0.271,1.448,0.439,2.192,0.672c0.748,0.214,1.505,0.473,2.293,0.579c0.758,0.137,1.53,0.274,2.315,0.417
			c0.862,0.057,1.738,0.113,2.628,0.172c0.445,0.031,0.893,0.063,1.345,0.094c0.45,0.027,0.868-0.025,1.308-0.033
			c0.867-0.037,1.747-0.071,2.636-0.107c0.892-0.048,1.825-0.214,2.749-0.316c1.856-0.185,3.749-0.593,5.671-0.934
			c3.846-0.818,7.773-1.896,11.819-3.031c4.054-1.115,8.173-2.249,12.291-3.382c4.117-1.103,8.282-2.174,12.403-3.151
			c2.076-0.459,4.122-0.944,6.19-1.277c1.031-0.176,2.046-0.385,3.07-0.53c1.024-0.142,2.042-0.282,3.051-0.421
			c1.004-0.16,2.02-0.227,3.018-0.318c1.001-0.08,1.986-0.199,2.973-0.22c1.974-0.017,3.896-0.144,5.776,0.002
			c0.938,0.044,1.862,0.088,2.773,0.131c0.906,0.111,1.799,0.222,2.677,0.33c1.759,0.175,3.422,0.585,5.021,0.917
			c0.802,0.16,1.582,0.332,2.325,0.579c0.748,0.228,1.478,0.447,2.189,0.663c1.434,0.393,2.718,0.984,3.946,1.464
			c0.61,0.247,1.202,0.485,1.772,0.716c0.565,0.239,1.084,0.533,1.594,0.786c1.011,0.519,1.939,0.995,2.777,1.427
			c1.643,0.916,2.861,1.762,3.721,2.276c0.845,0.539,1.296,0.826,1.296,0.826s-0.49-0.218-1.408-0.625
			c-0.918-0.403-2.241-1.039-3.953-1.761c-0.871-0.325-1.834-0.686-2.884-1.075c-0.526-0.187-1.06-0.415-1.633-0.601
			c-0.578-0.17-1.175-0.346-1.793-0.527c-1.238-0.348-2.527-0.803-3.949-1.045c-1.414-0.26-2.859-0.701-4.429-0.849
			c-1.558-0.2-3.167-0.475-4.861-0.51c-0.841-0.054-1.696-0.106-2.565-0.161c-0.872,0.008-1.756,0.016-2.653,0.021
			c-1.79-0.043-3.632,0.186-5.507,0.301c-1.873,0.23-3.791,0.408-5.729,0.738c-3.886,0.586-7.856,1.557-11.908,2.498
			c-4.047,1.006-8.141,2.113-12.265,3.256c-4.128,1.088-8.255,2.176-12.319,3.246c-4.054,1.119-8.167,2.016-12.173,2.758
			c-2.03,0.285-4,0.675-5.994,0.748c-0.995,0.057-1.953,0.174-2.943,0.175c-0.993-0.017-1.974-0.031-2.941-0.047
			c-0.477-0.019-0.973,0.004-1.423-0.05c-0.449-0.057-0.895-0.11-1.337-0.166c-0.885-0.112-1.756-0.225-2.612-0.334l-0.08-0.012
			c0.056,0.008-0.121-0.014-0.118-0.017l-0.041-0.011l-0.164-0.043l-0.327-0.084l-0.649-0.17c-0.429-0.113-0.855-0.226-1.276-0.336
			c-0.856-0.189-1.63-0.519-2.403-0.805c-3.114-1.102-5.718-2.543-8.036-3.767c-2.295-1.263-4.249-2.419-5.863-3.361
			c-1.623-0.899-2.873-1.678-3.786-2.103C93.815,384.158,93.338,383.915,93.338,383.915z"/>
	</g>
	<g>
		<path fill="#FFFFFF" d="M257.968,394.734c-0.106-0.318-0.176-0.676-0.075-1.027c0.049-0.176,0.147-0.335,0.271-0.475
			c0.132-0.133,0.281-0.236,0.443-0.325l0.041-0.022l0.076,0.023c1.354,0.433,2.678,0.915,4.019,1.322l2.046,0.496
			c0.68,0.166,1.354,0.346,2.049,0.428c1.385,0.197,2.743,0.49,4.139,0.519l2.072,0.13l2.076-0.033
			c2.766-0.008,5.508-0.438,8.215-0.938c2.698-0.6,5.374-1.29,7.984-2.238l1.959-0.695l1.938-0.773
			c1.299-0.484,2.569-1.068,3.85-1.62c2.549-1.134,5.063-2.371,7.563-3.649l3.763-1.922l1.879-0.976l0.233-0.122l0.307-0.152
			l0.479-0.228l0.96-0.455l1.93-0.903l2.102-0.813c1.404-0.581,2.8-0.969,4.206-1.396c1.404-0.426,2.836-0.691,4.253-1.045
			c1.425-0.269,2.853-0.548,4.279-0.771c2.854-0.422,5.708-0.799,8.55-1.02l1.064-0.093l0.532-0.046l0.268-0.021l0.336-0.019
			l2.123-0.088c0.688-0.052,1.463-0.009,2.21,0.009c0.745,0.032,1.515,0.018,2.237,0.094c2.925,0.203,5.794,0.687,8.613,1.274
			c2.809,0.619,5.594,1.284,8.324,2.062c2.739,0.758,5.458,1.524,8.186,2.219c2.722,0.744,5.467,1.309,8.238,1.789
			c2.775,0.467,5.584,0.656,8.43,0.682c-2.808,0.413-5.682,0.563-8.543,0.406c-2.856-0.155-5.712-0.506-8.524-0.979
			c-5.637-0.95-11.157-2.254-16.669-3.134c-2.757-0.419-5.51-0.715-8.243-0.839c-0.688-0.052-1.339-0.009-2.009-0.021
			c-0.67,0.006-1.313-0.021-2.038,0.057l-2.119,0.156l-0.133,0.011l-0.065,0.005l-0.033,0.003c-0.025,0.001,0.11-0.009,0.037-0.003
			l-0.263,0.031l-0.523,0.063l-1.049,0.125c-2.798,0.336-5.568,0.672-8.312,1.126c-1.369,0.231-2.722,0.513-4.076,0.781
			c-1.328,0.349-2.688,0.612-3.989,1.026c-1.299,0.414-2.648,0.748-3.867,1.25l-1.875,0.692l-1.927,0.878l-0.966,0.444l-0.482,0.222
			l-0.061,0.028l-0.03,0.014c-0.024,0.013,0.11-0.055,0.039-0.02l-0.119,0.061l-0.238,0.12l-1.902,0.963l-3.832,1.897
			c-2.585,1.218-5.197,2.399-7.863,3.483c-1.341,0.526-2.666,1.082-4.037,1.545l-2.045,0.713l-2.084,0.615
			c-2.771,0.84-5.627,1.42-8.492,1.891c-2.896,0.315-5.805,0.548-8.71,0.341c-0.727-0.046-1.449-0.077-2.172-0.146l-2.15-0.342
			c-1.438-0.17-2.828-0.605-4.228-0.945c-0.706-0.147-1.376-0.426-2.052-0.67l-2.02-0.828c-1.318-0.561-2.588-0.936-3.863-1.936
			h0.115c-0.296,0-0.57,0.375-0.695,0.672C257.895,393.967,257.904,394.4,257.968,394.734z"/>
	</g>
	<g>
		<path fill="#FFFFFF" d="M131.983,361.499c0,0,0.561-0.052,1.611-0.147c1.046-0.119,2.604-0.192,4.543-0.468
			c0.966-0.136,2.035-0.286,3.2-0.45c1.156-0.207,2.399-0.477,3.726-0.734c1.329-0.254,2.701-0.713,4.163-1.088
			c1.45-0.434,2.953-0.965,4.521-1.496c3.105-1.202,6.42-2.615,9.914-4.23c0.883-0.404,1.778-0.814,2.684-1.229
			c0.906-0.402,1.822-0.811,2.749-1.223c0.912-0.424,1.888-0.809,2.881-1.183c0.99-0.37,1.983-0.784,2.999-1.129
			c4.045-1.417,8.325-2.649,12.771-3.522c4.462-0.791,9.061-1.27,13.688-1.326c4.527,0.053,9.304,0.557,13.717,1.576
			c4.453,0.986,8.617,2.502,12.591,3.865c1.979,0.672,3.96,1.385,5.828,1.977c1.931,0.627,3.82,1.26,5.639,1.724
			c0.914,0.252,1.815,0.5,2.702,0.743c0.902,0.211,1.793,0.418,2.667,0.621c1.741,0.447,3.448,0.776,5.09,1.091
			c1.635,0.35,3.222,0.571,4.728,0.815c0.754,0.123,1.488,0.243,2.203,0.359c0.719,0.092,1.416,0.182,2.092,0.266
			c2.701,0.369,5.074,0.59,7.028,0.793c3.921,0.34,6.162,0.533,6.162,0.533s-0.563,0.03-1.616,0.088
			c-1.054,0.032-2.604,0.16-4.576,0.174c-1.972,0.014-4.373,0.078-7.125-0.063c-0.688-0.023-1.4-0.048-2.133-0.073
			c-0.73-0.051-1.482-0.104-2.256-0.157c-1.545-0.106-3.17-0.238-4.855-0.467c-1.69-0.197-3.453-0.408-5.264-0.734
			c-0.906-0.156-1.828-0.315-2.765-0.478c-0.934-0.205-1.881-0.414-2.842-0.625c-1.949-0.396-3.853-0.926-5.811-1.45
			c-0.502-0.135-1.006-0.271-1.513-0.406c-0.492-0.151-0.985-0.305-1.482-0.457c-0.991-0.307-1.992-0.614-3.001-0.926
			c-4.023-1.275-8.137-2.519-12.327-3.441c-4.221-0.918-8.427-1.322-12.887-1.35c-4.366,0.01-8.729,0.416-12.989,1.125
			c-4.24,0.817-8.397,1.783-12.34,3.055c-0.989,0.303-1.938,0.664-2.896,0.988c-0.952,0.332-1.902,0.646-2.852,1.028
			c-0.947,0.363-1.883,0.724-2.809,1.077c-0.916,0.363-1.82,0.723-2.713,1.077c-3.588,1.47-7.096,2.671-10.364,3.664
			c-1.661,0.427-3.237,0.885-4.768,1.188c-1.544,0.252-2.985,0.588-4.368,0.723c-1.383,0.137-2.666,0.313-3.862,0.382
			c-1.197,0.034-2.296,0.067-3.29,0.097c-0.991,0.053-1.867,0.006-2.632-0.027s-1.416-0.06-1.943-0.082
			C132.546,361.521,131.983,361.499,131.983,361.499z"/>
	</g>
	<g>
		<path fill="#FFFFFF" d="M293.521,352.998c0,0,0.516-0.044,1.48-0.127c0.482-0.041,1.063-0.188,1.738-0.307
			c0.671-0.164,1.445-0.364,2.293-0.633c1.702-0.527,3.685-1.412,5.919-2.503c2.231-1.104,4.685-2.495,7.435-3.95
			c1.38-0.726,2.82-1.488,4.388-2.194c1.551-0.716,3.251-1.376,5.111-1.796c1.728-0.405,3.5-0.82,5.313-1.246
			c1.854-0.357,3.806-0.588,5.765-0.889c1.978-0.338,3.938-0.422,5.948-0.635c1.002-0.087,2.012-0.193,3.024-0.268
			c1.015-0.047,2.031-0.092,3.055-0.139c4.021-0.272,8.413-0.24,12.717,0.625c4.227,0.846,8.209,2.25,12.041,3.539
			c1.916,0.65,3.805,1.262,5.665,1.86c0.959,0.323,1.911,0.644,2.856,0.961c0.941,0.343,1.897,0.735,2.832,1.097
			c3.658,1.489,6.981,3.153,10.208,4.438c1.612,0.634,3.189,1.215,4.738,1.646c0.364,0.111,0.727,0.224,1.084,0.334
			c0.402,0.082,0.8,0.164,1.194,0.246c0.779,0.137,1.585,0.377,2.299,0.42c0.73,0.08,1.445,0.158,2.146,0.234
			c0.712,0.055,1.428,0.052,2.115,0.094c1.379,0.098,2.712,0.012,3.956,0.026c2.516-0.074,4.706-0.14,6.513-0.192
			c1.813-0.039,3.239-0.003,4.211,0.055c0.969,0.047,1.484,0.072,1.484,0.072s-0.515,0.055-1.479,0.157
			c-0.48,0.052-1.074,0.099-1.77,0.185c-0.693,0.096-1.492,0.203-2.385,0.324c-1.786,0.254-3.95,0.604-6.461,0.926
			c-2.537,0.27-5.355,0.623-8.65,0.395c-0.837,0-1.57-0.167-2.386-0.245c-0.4-0.05-0.804-0.101-1.21-0.151
			c-0.436-0.094-0.875-0.188-1.317-0.283c-1.698-0.338-3.39-0.879-5.112-1.438c-3.438-1.147-6.911-2.618-10.453-3.956
			c-0.881-0.305-1.739-0.629-2.654-0.927c-0.926-0.276-1.856-0.556-2.796-0.836c-0.973-0.278-1.95-0.56-2.934-0.84
			c-0.967-0.31-1.937-0.621-2.91-0.933c-3.873-1.262-7.719-2.547-11.597-3.283c-3.789-0.808-7.711-0.924-11.791-0.692
			c-2.017,0.06-4.012,0.12-5.972,0.256c-1.952,0.14-3.932,0.159-5.781,0.415c-1.877,0.209-3.722,0.415-5.526,0.616
			c-1.834,0.321-3.628,0.638-5.375,0.944c-1.62,0.259-3.181,0.787-4.706,1.349c-1.525,0.548-2.992,1.183-4.404,1.789
			c-2.815,1.245-5.438,2.396-7.822,3.288c-2.379,0.902-4.521,1.541-6.328,1.871c-1.798,0.355-3.261,0.402-4.227,0.39
			C294.037,353.029,293.521,352.998,293.521,352.998z"/>
	</g>
	<g>
		<path fill="#FFFFFF" d="M97.976,352.998c0,0-0.211,0.001-0.606,0.002c-0.394,0.008-0.967-0.014-1.727-0.145
			c-0.746-0.129-1.642-0.342-2.633-0.707c-0.981-0.364-2.072-0.834-3.188-1.401c-2.258-1.082-4.723-2.353-7.391-2.708
			c-0.672-0.063-1.347-0.039-2.04-0.039h-0.259h-0.064c-0.023,0,0.146,0,0.065,0h-0.019l-0.038-0.055l-0.15-0.014l-0.602,0.041
			c-0.403,0.033-0.807,0.059-1.213,0.092c-0.724,0.137-1.409,0.222-2.164,0.385c-0.753,0.175-1.51,0.316-2.266,0.556
			c-1.518,0.382-3.032,0.927-4.545,1.425c-1.533,0.529-3.041,1.049-4.5,1.553c-1.486,0.496-2.949,0.944-4.366,1.309
			c-1.413,0.371-2.788,0.624-4.06,0.805c-0.642,0.073-1.25,0.159-1.833,0.211c-0.587,0.014-1.144,0.028-1.667,0.043
			c-1.04,0.034-1.954-0.104-2.687-0.145c-0.739-0.105-1.31-0.24-1.697-0.309c-0.385-0.082-0.59-0.127-0.59-0.127
			s0.845-0.154,2.264-0.36c0.708-0.175,1.561-0.32,2.517-0.579c0.475-0.133,0.979-0.275,1.512-0.426
			c0.524-0.172,1.075-0.354,1.649-0.543c2.28-0.815,4.861-1.933,7.678-3.188c1.412-0.624,2.884-1.277,4.432-1.884
			c1.55-0.608,3.154-1.194,4.841-1.646c0.83-0.246,1.702-0.408,2.558-0.59c0.857-0.184,1.813-0.25,2.698-0.363
			c0.407-0.016,0.813-0.029,1.216-0.045l0.604-0.014l0.151-0.004l0.159-0.004l0.085,0.005l0.341,0.022
			c0.453,0.037,0.904,0.041,1.347,0.113c0.44,0.08,0.878,0.161,1.312,0.241c1.722,0.403,3.246,1.134,4.542,1.911
			c1.303,0.781,2.393,1.628,3.381,2.383c0.99,0.746,1.867,1.426,2.676,1.99c0.815,0.534,1.55,0.99,2.181,1.309
			c0.316,0.146,0.603,0.284,0.855,0.412c0.261,0.111,0.493,0.189,0.676,0.262C97.78,352.921,97.976,352.998,97.976,352.998z"/>
	</g>
	<g>
		<path fill="#FFFFFF" d="M40.007,332.13c0,0,0.345-0.022,0.99-0.067c0.64-0.051,1.608-0.045,2.772-0.258
			c0.586-0.104,1.226-0.146,1.92-0.322c0.691-0.162,1.439-0.336,2.238-0.523c0.782-0.244,1.614-0.504,2.491-0.777
			c0.86-0.341,1.776-0.63,2.71-1.015c1.87-0.772,3.862-1.673,5.975-2.683c2.111-0.998,4.321-2.141,6.692-3.205
			c2.354-1.082,4.857-2.182,7.525-3.041c0.673-0.205,1.349-0.411,2.026-0.618c0.697-0.165,1.395-0.331,2.095-0.497
			c0.692-0.189,1.427-0.257,2.143-0.382l1.082-0.167l0.068-0.012l0.034-0.004c-0.104,0.006,0.179-0.016,0.162-0.014l0.128-0.006
			l0.257-0.014l0.514-0.024c0.695-0.019,1.349-0.063,2.078-0.047l2.346,0.218c0.784,0.071,1.471,0.296,2.207,0.439
			c0.736,0.139,1.418,0.383,2.103,0.613c2.752,0.896,5.156,2.233,7.43,3.323c0.574,0.291,1.136,0.542,1.696,0.804l0.835,0.385
			l0.412,0.201c-0.169-0.063-0.031-0.013-0.062-0.022l0.027,0.011l0.054,0.021l0.108,0.041l0.217,0.085
			c0.578,0.225,1.149,0.446,1.713,0.665c0.282,0.107,0.563,0.217,0.841,0.324c0.267,0.072,0.533,0.146,0.796,0.217
			c1.056,0.289,2.073,0.595,3.157,0.789c1.054,0.234,2.084,0.451,3.098,0.607c2.005,0.352,3.89,0.637,5.545,0.991
			c0.83,0.181,1.608,0.304,2.318,0.502c0.708,0.201,1.357,0.386,1.944,0.554c0.588,0.146,1.098,0.346,1.535,0.53
			c0.437,0.177,0.809,0.327,1.111,0.449c0.596,0.248,0.914,0.381,0.914,0.381s-0.341-0.056-0.982-0.161
			c-0.643-0.087-1.549-0.324-2.743-0.422c-0.592-0.057-1.249-0.119-1.963-0.188c-0.713-0.053-1.495-0.08-2.322-0.127
			c-1.659-0.094-3.538-0.09-5.62-0.229c-1.037-0.037-2.127-0.132-3.263-0.248c-1.123-0.07-2.331-0.334-3.574-0.566
			c-0.311-0.062-0.624-0.121-0.939-0.183c-0.287-0.084-0.576-0.168-0.867-0.253c-0.581-0.17-1.169-0.342-1.764-0.518l-0.224-0.063
			l-0.112-0.032l-0.056-0.018l-0.028-0.008l-0.117-0.042l-0.448-0.171l-0.897-0.36c-0.599-0.242-1.215-0.481-1.803-0.742
			c-2.402-1.042-4.776-2.084-7.166-2.854c-0.598-0.192-1.196-0.398-1.804-0.494c-0.6-0.102-1.226-0.301-1.805-0.332l-1.743-0.152
			c-0.639-0.01-1.357,0.057-2.032,0.076l-0.514,0.016l-0.257,0.01l-0.128,0.004c-0.039,0.002,0.222-0.018,0.097-0.008l-0.03,0.006
			l-0.06,0.008l-0.953,0.134c-0.634,0.103-1.272,0.14-1.903,0.306l-1.892,0.414c-0.626,0.18-1.25,0.358-1.872,0.537
			c-2.478,0.781-4.934,1.616-7.295,2.59c-2.36,0.955-4.677,1.873-6.91,2.711c-2.213,0.867-4.392,1.553-6.415,2.113
			c-1.014,0.276-2.006,0.492-2.939,0.702c-0.951,0.146-1.852,0.286-2.699,0.417c-0.855,0.076-1.656,0.133-2.393,0.172
			c-0.735,0.051-1.433-0.025-2.042-0.031c-1.232,0.01-2.149-0.229-2.793-0.304C40.348,332.186,40.007,332.13,40.007,332.13z"/>
	</g>
	<g>
		<path fill="#FFFFFF" d="M144.35,327.492c0,0,0.32,0.063,0.919,0.177c0.299,0.062,0.667,0.136,1.1,0.226
			c0.434,0.092,0.937,0.095,1.484,0.162c0.272,0.025,0.56,0.055,0.861,0.084c0.303,0.017,0.629-0.002,0.961-0.002
			c0.668-0.018,1.379,0.024,2.145-0.08c0.764-0.063,1.569-0.137,2.413-0.316c0.421-0.085,0.854-0.133,1.293-0.23
			c0.438-0.104,0.886-0.212,1.343-0.32c1.823-0.453,3.76-1.107,5.79-1.877c2.033-0.756,4.129-1.726,6.331-2.676
			c2.198-0.964,4.449-2.063,6.835-3.056c1.181-0.498,2.422-1.007,3.647-1.444c1.192-0.443,2.462-0.873,3.724-1.294
			c2.529-0.797,5.153-1.466,7.823-1.807c1.326-0.205,2.683-0.254,4.013-0.257c0.668,0.027,1.333,0.056,1.992,0.082l0.993,0.127
			c0.311,0.048,0.587,0.066,0.922,0.136c1.368,0.267,2.606,0.58,3.755,1.006c1.158,0.418,2.249,0.886,3.288,1.364
			c2.082,0.949,3.927,2.001,5.618,2.947c1.7,0.929,3.227,1.82,4.612,2.533c1.384,0.721,2.611,1.299,3.642,1.75
			c1.042,0.403,1.864,0.754,2.446,0.918c0.578,0.196,0.886,0.301,0.886,0.301s-0.325-0.025-0.933-0.074
			c-0.614-0.041-1.504-0.166-2.636-0.385c-1.119-0.252-2.487-0.576-3.999-1.1c-1.527-0.49-3.206-1.138-5.008-1.871
			c-1.807-0.723-3.738-1.52-5.765-2.26c-1.017-0.361-2.062-0.699-3.13-0.979c-0.534-0.152-1.075-0.242-1.614-0.383
			c-0.54-0.123-1.042-0.173-1.567-0.271c-2.3-0.322-4.582-0.086-6.963,0.254c-2.365,0.388-4.769,0.999-7.162,1.776
			c-1.194,0.387-2.376,0.772-3.602,1.216c-1.2,0.427-2.354,0.838-3.527,1.303c-2.367,0.923-4.696,1.832-6.95,2.711
			c-2.283,0.882-4.542,1.65-6.74,2.255c-1.084,0.329-2.18,0.565-3.222,0.813c-1.072,0.167-2.079,0.402-3.085,0.488
			c-0.996,0.117-1.948,0.226-2.87,0.217c-0.912,0.046-1.782-0.012-2.595-0.074c-0.811-0.025-1.566-0.167-2.256-0.297
			c-0.345-0.067-0.675-0.112-0.988-0.192c-0.312-0.092-0.608-0.18-0.89-0.263c-1.14-0.286-1.928-0.689-2.485-0.941
			C144.645,327.63,144.35,327.492,144.35,327.492z"/>
	</g>
	<g>
		<path fill="#FFFFFF" d="M254.104,334.448c-0.334,0.565-0.699,1.104-1.078,1.608l-0.152-0.537c1.08,0.162,2.152,0.314,3.205,0.511
			c1.07,0.132,2.135,0.247,3.184,0.409c1.059,0.108,2.12,0.154,3.164,0.271l3.148,0.141l3.132-0.017l3.112-0.179
			c1.033-0.117,2.066-0.21,3.096-0.342c1.023-0.172,2.054-0.301,3.072-0.502c1.015-0.226,2.041-0.392,3.051-0.655
			c1.004-0.276,2.029-0.478,3.027-0.798l1.504-0.451c0.509-0.135,1.01-0.292,1.504-0.475c0.984-0.367,2.015-0.631,2.99-1.041
			c0.986-0.383,1.998-0.722,2.982-1.129c0.986-0.406,1.989-0.787,2.975-1.22l2.984-1.269c0.989-0.444,1.988-0.883,3.021-1.285
			c-0.796,0.76-1.621,1.482-2.458,2.199c-0.841,0.713-1.74,1.339-2.614,2.016c-0.884,0.661-1.834,1.218-2.755,1.835
			c-0.914,0.628-1.912,1.108-2.875,1.666c-0.965,0.549-1.989,0.985-2.997,1.461c-0.999,0.496-2.065,0.843-3.105,1.253
			c-1.034,0.426-2.132,0.686-3.2,1.026c-1.068,0.342-2.186,0.519-3.277,0.78c-1.098,0.248-2.227,0.348-3.336,0.522
			c-1.117,0.144-2.248,0.167-3.369,0.253c-1.126,0.027-2.253-0.02-3.376-0.027c-1.121-0.099-2.24-0.192-3.353-0.319
			c-1.105-0.194-2.211-0.368-3.302-0.603c-1.084-0.27-2.159-0.566-3.222-0.879c-1.055-0.354-2.1-0.722-3.125-1.129
			c-1.018-0.438-2.016-0.914-3.004-1.385l-0.543-0.258l0.39-0.279l0.813-0.582C253.575,334.842,253.836,334.643,254.104,334.448z"/>
	</g>
	<g>
		<path fill="#FFFFFF" d="M271.107,275.707c0,0,0.064-0.066,0.19-0.197c0.134-0.123,0.3-0.336,0.573-0.56
			c0.539-0.468,1.371-1.111,2.513-1.783c2.265-1.37,5.712-2.938,9.695-4.856c0.994-0.482,2.006-1.013,3.012-1.59
			c1.024-0.586,1.915-1.188,2.987-1.972c2.063-1.472,4.152-3.163,6.65-4.702c2.494-1.535,5.279-2.925,8.575-3.529
			c0.726-0.114,1.452-0.229,2.183-0.346c0.371-0.051,0.715-0.131,1.11-0.158l1.208-0.063l2.429-0.111l2.35,0.114
			c1.575,0.044,3.093,0.37,4.627,0.581c1.512,0.284,3.003,0.626,4.467,0.986c2.913,0.759,5.694,1.729,8.336,2.681
			c2.659,0.933,5.157,1.94,7.543,2.828c2.39,0.875,4.638,1.69,6.737,2.358c1.044,0.377,2.069,0.58,3.033,0.877
			c0.963,0.305,1.892,0.487,2.768,0.672c1.747,0.427,3.299,0.576,4.584,0.771c1.285,0.158,2.308,0.146,3.007,0.204
			c0.703,0.043,1.078,0.066,1.078,0.066s-0.368,0.057-1.063,0.162c-0.35,0.051-0.779,0.112-1.286,0.186
			c-0.508,0.063-1.096,0.188-1.754,0.178c-1.315,0.021-2.941,0.155-4.779-0.049c-1.854-0.087-3.922-0.408-6.155-0.84
			c-2.23-0.44-4.62-1.024-7.101-1.748c-2.482-0.707-5.079-1.497-7.725-2.322c-2.649-0.849-5.396-1.557-8.163-2.275
			c-1.389-0.318-2.789-0.616-4.195-0.858c-1.409-0.168-2.823-0.45-4.234-0.468l-2.112-0.141l-2.029,0.062l-1.014,0.022
			c-0.344,0.014-0.728,0.094-1.087,0.137c-0.73,0.104-1.46,0.207-2.188,0.311l-0.271,0.038l-0.138,0.021l-0.034,0.004
			c0.038-0.006-0.131,0.022,0.075-0.015l-0.061,0.017l-0.481,0.127l-0.964,0.242c-0.651,0.117-1.259,0.414-1.888,0.608
			c-1.24,0.464-2.439,1.046-3.604,1.7c-2.312,1.313-4.587,2.82-6.803,4.162c-1.054,0.644-2.272,1.373-3.41,1.857
			c-1.147,0.504-2.259,0.938-3.325,1.32c-2.127,0.783-4.093,1.381-5.816,1.941c-1.721,0.568-3.219,1.056-4.426,1.521
			c-1.2,0.479-2.129,0.893-2.727,1.239c-0.309,0.163-0.518,0.34-0.672,0.435C271.186,275.654,271.107,275.707,271.107,275.707z"/>
	</g>
	<g>
		<path fill="#FFFFFF" d="M30.731,264.113c0,0,0.372-0.03,1.068-0.086c0.348-0.025,0.778-0.057,1.283-0.092
			c0.505-0.045,1.068-0.162,1.701-0.246c0.313-0.049,0.644-0.1,0.991-0.152c0.344-0.082,0.705-0.169,1.08-0.26
			c0.373-0.086,0.762-0.176,1.165-0.271c0.399-0.108,0.808-0.246,1.23-0.374c0.421-0.136,0.86-0.253,1.3-0.415
			c0.438-0.171,0.887-0.347,1.349-0.526c0.929-0.328,1.864-0.81,2.857-1.231c1.947-0.971,4.002-2.116,6.143-3.42
			c2.135-1.319,4.333-2.817,6.663-4.33c2.327-1.515,4.724-3.157,7.34-4.614l0.486-0.279l0.572-0.287l0.985-0.489
			c0.34-0.161,0.635-0.333,1.012-0.483l1.154-0.447l1.16-0.438l1.157-0.319l1.16-0.314c0.389-0.089,0.782-0.146,1.173-0.221
			c3.147-0.536,6.248-0.529,9.201-0.467c0.735,0.023,1.468,0.047,2.197,0.069l0.273,0.013l0.216,0.016l0.135,0.013l0.538,0.051
			l1.072,0.104c0.683,0.036,1.514,0.23,2.254,0.345c0.775,0.114,1.477,0.313,2.187,0.491c2.838,0.716,5.413,1.801,7.765,2.899
			c2.358,1.094,4.475,2.26,6.438,3.293c1.962,1.039,3.755,1.939,5.372,2.709c1.628,0.721,3.07,1.313,4.289,1.725
			c0.615,0.193,1.164,0.367,1.641,0.519c0.482,0.136,0.9,0.222,1.238,0.308c0.679,0.17,1.041,0.26,1.041,0.26
			s-0.373-0.012-1.071-0.031c-0.349-0.018-0.785-0.021-1.294-0.061c-0.507-0.064-1.09-0.139-1.742-0.221
			c-1.301-0.207-2.874-0.541-4.639-1.063c-1.751-0.542-3.723-1.209-5.791-2.056c-2.085-0.811-4.31-1.734-6.645-2.631
			c-2.343-0.877-4.827-1.666-7.404-2.22c-0.645-0.129-1.302-0.282-1.931-0.34l-0.955-0.123l-0.48-0.063l-0.535-0.023l-1.075-0.051
			l-0.54-0.025l-0.135-0.007l-0.068-0.124c-0.083-0.01,0.077-0.123,0.048-0.123h-0.034h-0.269c-0.717,0-1.438,0.1-2.161,0.088
			c-2.876-0.021-5.739,0.102-8.438,0.602c-0.338,0.059-0.681,0.131-1.015,0.201l-0.988,0.271l-0.988,0.26l-0.917,0.338l-0.92,0.328
			c-0.31,0.113-0.658,0.306-0.985,0.454l-0.994,0.475l-0.413,0.196l-0.468,0.261c-2.493,1.368-4.96,2.787-7.349,4.219
			c-2.385,1.434-4.764,2.754-7.066,3.942c-2.301,1.199-4.585,2.158-6.727,2.939c-2.168,0.728-4.191,1.288-6.034,1.544
			c-0.458,0.07-0.897,0.152-1.326,0.208c-0.431,0.032-0.847,0.063-1.247,0.094c-0.397,0.026-0.779,0.054-1.144,0.077
			c-0.368-0.005-0.719-0.012-1.053-0.016c-0.663-0.02-1.254-0.004-1.756-0.064c-0.502-0.063-0.93-0.116-1.276-0.159
			C31.101,264.163,30.731,264.113,30.731,264.113z"/>
	</g>
	<g>
		<path fill="#FFFFFF" d="M142.031,260.249c0,0,0.194,0.063,0.557,0.185c0.356,0.12,0.894,0.33,1.56,0.479
			c0.646,0.191,1.475,0.313,2.395,0.439c0.933,0.084,1.974,0.118,3.104,0.045c0.281-0.021,0.568-0.043,0.86-0.064
			c0.292-0.045,0.588-0.09,0.891-0.136c0.6-0.072,1.221-0.222,1.853-0.343c1.264-0.306,2.584-0.662,3.934-1.149
			c1.352-0.464,2.731-1.024,4.128-1.628c1.396-0.6,2.804-1.271,4.209-1.951c1.408-0.702,2.815-1.404,4.201-2.096
			c1.396-0.704,2.771-1.398,4.101-2.069c1.338-0.669,2.65-1.301,3.905-1.884c1.256-0.585,2.469-1.1,3.602-1.553
			c1.125-0.467,2.185-0.842,3.137-1.143c0.942-0.318,1.795-0.525,2.492-0.686c0.697-0.166,1.258-0.242,1.639-0.29
			c0.38-0.045,0.582-0.069,0.582-0.069s-0.178,0.102-0.511,0.288c-0.338,0.168-0.812,0.463-1.417,0.812
			c-0.602,0.356-1.316,0.813-2.134,1.332c-0.81,0.531-1.723,1.133-2.718,1.789c-1.976,1.336-4.29,2.897-6.842,4.498
			c-2.548,1.602-5.353,3.226-8.287,4.666c-1.483,0.692-2.971,1.387-4.504,1.945c-1.521,0.582-3.061,1.073-4.594,1.434
			c-1.521,0.391-3.052,0.6-4.501,0.724c-1.462,0.08-2.852,0.063-4.123-0.144c-1.271-0.148-2.406-0.494-3.371-0.851
			c-0.96-0.376-1.752-0.789-2.37-1.203c-0.642-0.362-1.029-0.759-1.332-0.994C142.186,260.382,142.031,260.249,142.031,260.249z"/>
	</g>
	<g>
		<path fill="#FFFFFF" d="M223.187,249.428c0,0,0.527-0.047,1.428-0.051c0.903-0.009,2.18,0.027,3.693,0.143
			c3.027,0.23,6.976,0.875,10.841,1.838c3.865,0.965,7.646,2.25,10.416,3.471c1.385,0.609,2.522,1.18,3.311,1.611
			c0.789,0.428,1.229,0.718,1.229,0.718s-0.526,0.048-1.429,0.053c-0.903,0.011-2.181-0.024-3.694-0.139
			c-3.026-0.229-6.976-0.875-10.838-1.845c-3.864-0.968-7.644-2.256-10.414-3.475c-1.384-0.609-2.523-1.178-3.311-1.609
			C223.626,249.716,223.187,249.428,223.187,249.428z"/>
	</g>
	<g>
		<path fill="#FFFFFF" d="M302.99,300.634c0-0.192,0.024-0.396-0.007-0.579c-0.015-0.181-0.055-0.371-0.142-0.503
			c-0.032-0.077-0.093-0.124-0.146-0.166c-0.045-0.053-0.133-0.052-0.187-0.084c-0.146-0.021-0.304-0.008-0.467,0.021l0.205-0.498
			c1.079,0.978,2.425,1.149,3.69,0.715c1.277-0.39,2.483-1.187,3.696-1.983c1.229-0.807,2.37-1.744,3.827-2.541
			c0.201-0.103,0.331-0.191,0.591-0.305l0.511-0.234c0.354-0.152,0.654-0.318,1.05-0.461c0.763-0.293,1.536-0.593,2.291-0.805
			c1.516-0.486,3.092-0.762,4.688-0.959c1.604-0.15,3.245-0.176,4.912,0.049l0.156,0.018l0.077,0.009l0.02,0.003l0.107,0.02
			l0.033,0.008l0.275,0.058l0.553,0.117c0.43,0.122,0.902,0.249,1.292,0.383c0.775,0.261,1.513,0.55,2.232,0.856
			c1.433,0.621,2.808,1.273,4.158,1.963c5.391,2.74,10.517,5.726,15.808,8.264c1.323,0.625,2.666,1.197,4.012,1.729
			c1.348,0.521,2.722,0.979,4.107,1.256c1.383,0.295,2.796,0.401,4.146,0.115c1.347-0.277,2.602-1.123,3.432-2.402
			c-0.144,0.345-0.288,0.699-0.451,1.053c-0.22,0.313-0.423,0.656-0.677,0.96c-0.543,0.575-1.202,1.079-1.946,1.407
			c-1.491,0.688-3.149,0.804-4.726,0.767c-1.594-0.052-3.127-0.364-4.641-0.709c-1.521-0.334-2.971-0.844-4.422-1.341
			c-1.441-0.518-2.868-1.061-4.261-1.667c-1.396-0.597-2.774-1.226-4.134-1.876c-2.728-1.291-5.392-2.666-8.037-3.987
			c-1.327-0.646-2.639-1.317-3.949-1.892c-0.655-0.281-1.304-0.559-1.939-0.796l-0.848-0.294l-0.541-0.131l-0.272-0.065
			l-0.033-0.009c-0.025-0.006,0.155,0.031,0.071,0.015l-0.016-0.002l-0.062-0.008l-0.123-0.017
			c-1.294-0.221-2.661-0.293-4.041-0.229c-1.381,0.063-2.775,0.233-4.151,0.522c-0.706,0.123-1.351,0.306-2.009,0.478
			c-0.322,0.073-0.7,0.229-1.048,0.34l-0.531,0.183c-0.09,0.021-0.286,0.117-0.426,0.17c-1.229,0.529-2.576,1.27-3.948,1.94
			c-1.378,0.675-2.853,1.323-4.521,1.525c-0.815,0.118-1.721,0.058-2.519-0.271c-0.832-0.282-1.43-0.931-1.922-1.538l-0.438-0.539
			l0.643,0.041c0.226,0.015,0.455,0.051,0.679,0.154c0.104,0.078,0.222,0.128,0.29,0.237c0.078,0.101,0.141,0.202,0.162,0.317
			c0.068,0.219,0.055,0.433,0.019,0.633C303.123,300.27,303.045,300.443,302.99,300.634z"/>
	</g>
	<g>
		<path fill="#FFFFFF" d="M344.146,236.869c0.026-0.011-0.151,0.447,0.229,1.095c0.356,0.648,1.22,1.349,2.42,2.043
			c1.208,0.694,2.781,1.36,4.615,2.019c0.919,0.324,1.909,0.636,2.96,0.916c0.525,0.135,1.063,0.279,1.609,0.399
			c0.527,0.115,1.146,0.241,1.591,0.265c1.204,0.047,2.538,0.219,3.733,0.106c1.211-0.007,2.525-0.151,3.863-0.293
			c2.686-0.37,5.508-1.026,8.521-1.621c3.025-0.628,6.203-1.118,9.306-1.647c3.146-0.525,6.417-1.078,9.766-1.384
			c3.35-0.27,6.821-0.165,10.162,0.405l1.183,0.208c0.403,0.084,0.828,0.197,1.239,0.296c0.825,0.216,1.659,0.418,2.42,0.69
			c1.564,0.481,3.057,1.073,4.518,1.659c2.903,1.209,5.555,2.654,8.013,4.082c2.464,1.42,4.678,2.929,6.7,4.336
			c4.029,2.838,7.188,5.435,9.388,7.263c2.194,1.834,3.41,2.93,3.41,2.93s-1.422-0.813-3.871-2.28
			c-2.452-1.459-5.938-3.569-10.152-5.97c-2.125-1.172-4.427-2.425-6.894-3.651c-2.476-1.209-5.121-2.383-7.891-3.434
			c-1.396-0.488-2.813-0.982-4.271-1.361c-0.729-0.228-1.441-0.359-2.16-0.52c-0.361-0.08-0.707-0.174-1.084-0.248l-1.184-0.189
			c-2.983-0.463-6.066-0.519-9.205-0.229c-3.142,0.242-6.306,0.726-9.487,1.211c-1.604,0.263-3.181,0.462-4.737,0.649
			c-1.563,0.203-3.035,0.393-4.544,0.644c-2.992,0.493-5.975,0.931-8.859,1.125c-1.454,0.04-2.854,0.126-4.276-0.008
			c-1.441-0.038-2.626-0.326-3.853-0.495c-0.768-0.131-1.31-0.316-1.907-0.505c-0.578-0.19-1.13-0.394-1.659-0.61
			c-1.059-0.433-2.038-0.883-2.942-1.338c-1.814-0.898-3.316-1.852-4.464-2.764c-1.151-0.9-1.91-1.848-2.172-2.609
			C343.905,237.272,344.181,236.858,344.146,236.869z"/>
	</g>
	<g>
		<path fill="#FFFFFF" d="M195.748,222.377c0,0-0.24-0.074-0.689-0.213c-0.447-0.138-1.104-0.373-1.935-0.613
			c-0.415-0.078-0.875-0.163-1.375-0.256c-0.243-0.048-0.496-0.098-0.758-0.149c-0.272-0.016-0.554-0.033-0.846-0.05
			c-1.151-0.128-2.449-0.027-3.824,0.124c-0.685,0.157-1.398,0.255-2.116,0.464c-0.709,0.264-1.457,0.432-2.188,0.75
			c-0.721,0.357-1.494,0.601-2.223,1.033c-0.368,0.204-0.739,0.411-1.114,0.619l-0.523,0.285l-0.583,0.379
			c-1.56,1.015-3.188,2.042-4.843,3.073c-1.614,1.073-3.272,2.128-4.929,3.188c-0.982,0.569-1.674,1.017-2.692,1.514
			c-0.481,0.237-0.963,0.489-1.446,0.701c-0.482,0.197-0.962,0.395-1.44,0.591c-1.928,0.735-3.882,1.305-5.793,1.656
			c-1.909,0.357-3.765,0.579-5.515,0.659c-1.751,0.106-3.397,0.07-4.908,0.021c-1.509-0.048-2.885-0.162-4.1-0.276
			c-1.215-0.104-2.271-0.241-3.139-0.351c-1.737-0.221-2.728-0.397-2.728-0.397s0.992-0.173,2.727-0.399
			c1.723-0.21,4.185-0.511,7.139-0.872c1.46-0.2,3.034-0.423,4.669-0.719c1.641-0.272,3.334-0.662,5.052-1.122
			c1.722-0.455,3.43-1.088,5.129-1.792l1.26-0.571l1.201-0.614c0.761-0.363,1.741-0.995,2.471-1.423
			c1.698-1.059,3.393-2.122,5.081-3.134c1.694-0.976,3.379-1.898,5.016-2.784c1.756-0.935,3.539-1.625,5.299-2.116
			c0.876-0.244,1.772-0.36,2.61-0.514c0.853-0.103,1.696-0.089,2.483-0.131c0.793,0.003,1.557,0.121,2.268,0.194
			c0.358,0.027,0.7,0.107,1.028,0.207c0.327,0.089,0.645,0.176,0.954,0.26c0.304,0.084,0.599,0.166,0.883,0.245
			c0.278,0.115,0.542,0.238,0.793,0.355c0.494,0.231,0.948,0.444,1.357,0.636c0.764,0.434,1.302,0.871,1.697,1.124
			C195.543,222.231,195.748,222.377,195.748,222.377z"/>
	</g>
	<g>
		
			<linearGradient id="SVGID_1_" gradientUnits="userSpaceOnUse" x1="137.4985" y1="219.2544" x2="137.4985" y2="312.6431" gradientTransform="matrix(1 0 0 -1 102.3398 460.04)">
			<stop  offset="0" style="stop-color:#0077FF;stop-opacity:0"/>
			<stop  offset="1" style="stop-color:#FF0000"/>
		</linearGradient>
		<path fill="url(#SVGID_1_)" d="M250.077,157.487c-0.08-0.003,1.065-10.077,0.987-10.09c-0.84,0.021-2.504,9.989-3.342,10.012
			c-0.842-0.023-2.504-9.991-3.344-10.012c-0.079,0.013,1.066,10.087,0.985,10.09c-77.301,2.303-156.231,4.708-228.31,23.236
			c-14.972,15.705,6.987,25.434,22.942,40.138c10.245,9.441,16.424,16.098,27.506,7.654c8.443-6.433-13.164-19.292-7.15-28.04
			c4.134-6.014,9.901,2.081,15.55,6.702c4.621,3.781-1.229,1.643,4.52,3.259c20.438,5.749,23.661,17.904,43.111,9.394
			c8.51-3.723-11.845-19.359-5.8-26.412c5.181-6.044,11.987-2.094,15.123,5.224c7.317,17.074-1.698,17.004,8.733,32.375
			c7.079,10.431,10.878,11.749,22.752,7.518c4.231-1.507-7.568-16.928-3.33-18.411c12.525-4.383,17.17,13.339,29.764,9.159
			c4.034-1.339-7.311-16.437-3.331-17.929c9.943-3.729,15.997,14.651,25.352,9.626c5.26-2.825-10.153-16.435-5.532-20.216
			c5.648-4.621,8.999,2.66,14.398,7.569c4.909,4.463-0.179,2.055,5.692,5.145c11.155,5.871,11.008,10.973,23.513,9.385
			c1.588-0.202-3.041-12.825-1.463-13.092c9.341-1.579,14.668,14.344,22.552,9.091c5.252-3.499-10.806-16.237-6.136-20.482
			c5.137-4.669,8.709,3.174,14.08,7.569c4.396,3.597,0.529,0.397,5.531,3.085c8.898,4.779,6.616,5.026,16.073,8.572
			c3.786,1.42-0.507-2.614,3.331-1.34c11.979,3.976,10.104,5.586,22.017,9.756c4.031,1.411-0.693-2.319,3.329-0.886
			c11.295,4.024,19.707,17.439,26.44,7.518c9.921-14.621-15.693-23.875-8.733-40.116c2.982-6.96,11.017-0.526,15.944,5.224
			c5.749,6.708-2.294,6.293,5.8,9.835c18.501,8.094,20.298,14.861,39.737,9.394c5.468-1.538-8.915-16.446-4.521-20.042
			c5.372-4.396,8.996,0.982,12.93,6.702c5.72,8.32-0.881,7.265,7.149,13.384c10.541,8.031,17.118,16.635,26.863,7.654
			c15.176-13.986,22.378-23.677,8.146-38.622C391.458,168.462,323.519,159.694,250.077,157.487z"/>
	</g>
	<path fill="#FFD400" d="M281.52,162.64c0.006-0.277,0.022-0.551,0.022-0.829c0-22.679-18.386-41.064-41.064-41.064
		s-41.063,18.385-41.063,41.064c0,0.277,0.016,0.552,0.021,0.829c13.619-0.529,27.295-0.829,41.043-0.829
		C254.227,161.812,267.902,162.111,281.52,162.64z"/>
	<path fill="#FF9200" d="M221.652,163.5C151.338,164.985,83,173.768,18,190.584V179.48L34.597,135H59v19h13v-11h37v17h13v-33h23
		v8.158l23,0.267v7.428l19-0.472V153h13v-12h21v10h17v-5h11v-5h9.354H281v12h13v-10.619l17,0.472v-7.428l24-0.267V127h22v33h14v-17
		h37v11h12v-19h25.012L463,179.48v10.764c-67-16.711-133.841-26.219-204.148-27.6L221.652,163.5z"/>
	<circle fill="none" stroke="#5FD25F" stroke-width="10" stroke-miterlimit="10" cx="240.477" cy="240.879" r="231.92"/>
	<path fill="#5FD25F" d="M241.637,363.725c-62.126,0-122.115,9.141-178.707,26.137c42.54,51.37,106.801,84.099,178.707,84.099
		c71.906,0,136.167-32.729,178.706-84.097C363.754,372.864,303.764,363.725,241.637,363.725z"/>
	<g>
		<g>
			<path fill="#323232" d="M21.305,310.584c0,0,1.586-0.742,4.56-2.133c2.993-1.352,7.306-3.489,12.981-5.829
				c2.83-1.185,5.937-2.581,9.375-3.942c3.446-1.351,7.173-2.811,11.155-4.369c4.024-1.453,8.307-3,12.822-4.633
				c4.553-1.52,9.353-3.09,14.377-4.687c10.086-3.056,21.063-6.272,32.852-8.972c11.751-2.856,24.273-5.355,37.308-7.453
				c3.264-0.496,6.555-0.994,9.87-1.498c3.316-0.498,6.674-0.861,10.043-1.303c6.735-0.936,13.596-1.479,20.5-2.125
				c13.832-1.037,27.916-1.672,42.01-1.771l1.371-0.014l1.312,0.021l2.623,0.042l5.244,0.084l5.241,0.087l5.281,0.218
				c3.517,0.162,7.037,0.254,10.523,0.473c3.484,0.232,6.958,0.466,10.418,0.695c3.463,0.199,6.896,0.603,10.319,0.893
				c3.421,0.335,6.824,0.654,10.192,1.109c3.372,0.42,6.725,0.838,10.052,1.252c3.314,0.496,6.606,0.99,9.873,1.479
				c1.63,0.254,3.26,0.472,4.87,0.751c1.612,0.284,3.217,0.566,4.813,0.848c3.192,0.567,6.359,1.092,9.472,1.729
				c6.215,1.321,12.315,2.496,18.188,3.948c11.802,2.642,22.793,5.813,32.889,8.837c5.04,1.543,9.835,3.135,14.399,4.618
				c4.521,1.612,8.81,3.144,12.84,4.58c3.998,1.523,7.734,2.959,11.175,4.317c3.449,1.337,6.553,2.729,9.388,3.899
				c5.68,2.317,10.018,4.436,13.013,5.775c2.979,1.381,4.567,2.115,4.567,2.115s-1.648-0.588-4.743-1.689
				c-3.091-1.104-7.598-2.785-13.404-4.715c-2.905-0.962-6.083-2.123-9.607-3.207c-3.511-1.11-7.308-2.313-11.365-3.596
				c-4.082-1.189-8.427-2.456-13.007-3.791c-4.615-1.206-9.428-2.604-14.495-3.887c-2.538-0.624-5.129-1.262-7.77-1.909
				c-1.319-0.323-2.651-0.649-3.996-0.979c-1.352-0.297-2.716-0.596-4.092-0.896c-2.746-0.616-5.54-1.243-8.376-1.88
				c-2.842-0.611-5.742-1.16-8.673-1.757c-5.852-1.242-11.925-2.2-18.103-3.301c-1.543-0.289-3.111-0.479-4.678-0.725
				c-1.566-0.243-3.141-0.488-4.725-0.732c-1.581-0.246-3.171-0.494-4.768-0.74c-1.598-0.245-3.211-0.428-4.826-0.646
				c-12.906-1.868-26.343-2.936-39.978-4c-3.414-0.204-6.843-0.409-10.279-0.616c-3.437-0.194-6.872-0.259-10.319-0.396
				l-5.175-0.181l-5.237-0.053l-5.244-0.049l-2.625-0.023l-1.312-0.012l-1.252,0.014c-13.897,0.006-27.79,0.539-41.44,1.47
				c-13.633,1.116-27.053,2.317-39.961,4.181c-12.897,1.885-25.357,3.866-37.068,6.314c-11.734,2.338-22.736,5.006-32.876,7.559
				c-5.044,1.379-9.879,2.699-14.477,3.956c-4.574,1.354-8.913,2.64-12.991,3.847c-4.051,1.305-7.842,2.522-11.348,3.65
				c-3.515,1.11-6.687,2.275-9.586,3.251c-5.795,1.951-10.304,3.665-13.389,4.78C22.952,309.989,21.305,310.584,21.305,310.584z"/>
		</g>
		<g>
			<polygon fill="#323232" points="244.384,266 240.384,432.949 236.384,266 			"/>
		</g>
		<g>
			<polygon fill="#323232" points="198.01,266 194.01,432.949 190.01,266 			"/>
		</g>
		<g>
			<polygon fill="#323232" points="156.272,275 152.272,441.947 148.272,275 			"/>
		</g>
		<g>
			<polygon fill="#323232" points="119.173,282 115.173,438.88 111.173,282 			"/>
		</g>
		<g>
			<polygon fill="#323232" points="90.188,287 86.188,418.239 82.188,287 			"/>
		</g>
		<g>
			<polygon fill="#323232" points="69.32,294 65.32,392.566 61.32,294 			"/>
		</g>
		<g>
			<polygon fill="#323232" points="290.758,266 286.758,432.949 282.758,266 			"/>
		</g>
		<g>
			<polygon fill="#323232" points="332.496,275 328.496,441.947 324.496,275 			"/>
		</g>
		<g>
			<polygon fill="#323232" points="369.595,282 365.595,438.88 361.595,282 			"/>
		</g>
		<g>
			<polygon fill="#323232" points="398.579,287 394.579,418.239 390.579,287 			"/>
		</g>
		<g>
			<polygon fill="#323232" points="419.447,294 415.447,392.566 411.447,294 			"/>
		</g>
		<g>
			<path fill="#323232" d="M133.143,447.753c0,0,0.813-0.229,2.337-0.659c1.528-0.408,3.761-1.053,6.62-1.78
				c1.431-0.362,3.003-0.803,4.736-1.212c1.732-0.418,3.617-0.813,5.629-1.265c2.015-0.445,4.158-0.919,6.418-1.418
				c2.265-0.458,4.659-0.862,7.152-1.327c2.497-0.438,5.091-0.965,7.793-1.385c2.705-0.403,5.502-0.821,8.377-1.25
				c2.874-0.459,5.843-0.778,8.877-1.131c3.034-0.351,6.135-0.712,9.294-1.006c6.324-0.524,12.864-1.107,19.527-1.349
				c6.658-0.402,13.435-0.406,20.208-0.528c6.837,0.117,13.446,0.101,20.183,0.502c6.696,0.233,13.229,0.805,19.556,1.329
				c3.159,0.279,6.262,0.646,9.295,0.992c3.033,0.356,6.004,0.664,8.879,1.119c2.876,0.429,5.673,0.843,8.379,1.245
				c2.703,0.41,5.297,0.941,7.794,1.377c2.494,0.462,4.887,0.873,7.152,1.319c2.259,0.498,4.398,0.971,6.411,1.414
				c2.01,0.451,3.895,0.843,5.626,1.261c1.734,0.405,3.313,0.848,4.746,1.209c2.864,0.729,5.1,1.372,6.626,1.779
				c1.523,0.43,2.336,0.658,2.336,0.658s-0.842-0.071-2.421-0.206c-1.575-0.156-3.892-0.341-6.817-0.664
				c-2.925-0.344-6.494-0.617-10.57-1.014c-2.037-0.191-4.205-0.396-6.49-0.612c-2.286-0.188-4.689-0.386-7.199-0.591
				c-5.007-0.464-10.446-0.771-16.185-1.185c-2.867-0.228-5.817-0.377-8.833-0.53c-3.018-0.132-6.088-0.388-9.223-0.496
				c-3.131-0.125-6.313-0.251-9.535-0.38c-1.611-0.081-3.229-0.13-4.854-0.146c-1.623-0.041-3.255-0.082-4.894-0.123
				c-6.494-0.218-13.345-0.189-19.958-0.263c-6.679,0.076-13.36,0.055-19.933,0.274c-3.286,0.111-6.552,0.108-9.771,0.28
				c-3.222,0.128-6.406,0.256-9.537,0.381c-3.132,0.128-6.205,0.369-9.221,0.507c-3.016,0.148-5.965,0.316-8.833,0.54
				c-5.738,0.413-11.178,0.73-16.185,1.201c-2.508,0.208-4.912,0.408-7.197,0.598c-2.282,0.22-4.447,0.427-6.481,0.62
				c-4.069,0.397-7.643,0.678-10.574,1.027c-2.932,0.329-5.249,0.515-6.822,0.674C133.984,447.68,133.143,447.753,133.143,447.753z"
				/>
		</g>
	</g>
</g>
</svg>
