<?xml version="1.0" encoding="utf-8"?>
<!-- Generator: Adobe Illustrator 16.0.0, SVG Export Plug-In . SVG Version: 6.00 Build 0)  -->
<!DOCTYPE svg PUBLIC "-//W3C//DTD SVG 1.1//EN" "http://www.w3.org/Graphics/SVG/1.1/DTD/svg11.dtd">
<svg version="1.1" id="圖層_1" xmlns="http://www.w3.org/2000/svg" xmlns:xlink="http://www.w3.org/1999/xlink" x="0px" y="0px"
	 width="480px" height="480px" viewBox="0 0 480 480" enable-background="new 0 0 480 480" xml:space="preserve">
<g id="翠綠賞區">
	<circle fill="#00A4FF" cx="239.547" cy="240.879" r="231.92"/>
	<path fill="#5FD25F" d="M12.927,191.431c-3.461,15.935-5.3,32.475-5.3,49.448c0,128.084,103.833,231.92,231.92,231.92
		c128.085,0,231.92-103.836,231.92-231.92c0-16.971-1.842-33.513-5.301-49.448c-72.377-18.904-148.32-28.981-226.619-28.981
		C161.247,162.45,85.302,172.527,12.927,191.431z"/>
	<g>
		
			<linearGradient id="SVGID_1_" gradientUnits="userSpaceOnUse" x1="73.9717" y1="310.6582" x2="315.3195" y2="69.3103" gradientTransform="matrix(1 0 0 -1 102.3398 460.04)">
			<stop  offset="0" style="stop-color:#00D48A"/>
			<stop  offset="1" style="stop-color:#1FA900"/>
		</linearGradient>
		<path fill="url(#SVGID_1_)" d="M159.695,165.999l241.33,241.328c11.294-10.959,21.478-23.052,30.363-36.103L222.781,162.618
			C201.563,163.009,180.529,164.153,159.695,165.999z"/>
		
			<linearGradient id="SVGID_2_" gradientUnits="userSpaceOnUse" x1="-97.9946" y1="260.0264" x2="179.4937" y2="-17.4619" gradientTransform="matrix(1 0 0 -1 102.3398 460.04)">
			<stop  offset="0" style="stop-color:#00D48A"/>
			<stop  offset="1" style="stop-color:#1FA900"/>
		</linearGradient>
		<path fill="url(#SVGID_2_)" d="M12.927,191.431c-2.403,11.069-4.006,22.437-4.771,34.032l246.813,246.814
			c12.877-0.848,25.469-2.732,37.686-5.596L16.5,190.528C15.311,190.833,14.114,191.121,12.927,191.431z"/>
		
			<linearGradient id="SVGID_3_" gradientUnits="userSpaceOnUse" x1="-26.9639" y1="294.499" x2="254.1048" y2="13.4303" gradientTransform="matrix(1 0 0 -1 102.3398 460.04)">
			<stop  offset="0" style="stop-color:#00D48A"/>
			<stop  offset="1" style="stop-color:#1FA900"/>
		</linearGradient>
		<path fill="url(#SVGID_3_)" d="M60.498,180.419l272.684,272.684c13.433-5.936,26.191-13.105,38.141-21.371L111.2,171.609
			C94.137,174.064,77.236,177.017,60.498,180.419z"/>
		
			<linearGradient id="SVGID_4_" gradientUnits="userSpaceOnUse" x1="322.0488" y1="290.4404" x2="379.0406" y2="233.4486" gradientTransform="matrix(1 0 0 -1 102.3398 460.04)">
			<stop  offset="0" style="stop-color:#00D48A"/>
			<stop  offset="1" style="stop-color:#1FA900"/>
		</linearGradient>
		<path fill="url(#SVGID_4_)" d="M466.166,191.431c-17.055-4.455-34.314-8.4-51.75-11.858l56.992,56.991
			C471.123,221.104,469.332,206.011,466.166,191.431z"/>
		
			<linearGradient id="SVGID_5_" gradientUnits="userSpaceOnUse" x1="-105.3901" y1="162.7314" x2="80.7779" y2="-23.4365" gradientTransform="matrix(1 0 0 -1 102.3398 460.04)">
			<stop  offset="0" style="stop-color:#00D48A"/>
			<stop  offset="1" style="stop-color:#1FA900"/>
		</linearGradient>
		<path fill="url(#SVGID_5_)" d="M197.59,469.005L11.422,282.836C28.682,377.283,103.143,451.745,197.59,469.005z"/>
		
			<linearGradient id="SVGID_6_" gradientUnits="userSpaceOnUse" x1="191.8174" y1="313.3848" x2="365.1324" y2="140.0697" gradientTransform="matrix(1 0 0 -1 102.3398 460.04)">
			<stop  offset="0" style="stop-color:#00D48A"/>
			<stop  offset="1" style="stop-color:#1FA900"/>
		</linearGradient>
		<path fill="url(#SVGID_6_)" d="M349.971,169.233c-23.863-2.942-48.021-4.941-72.43-5.962l173.315,173.315
			c7.21-15.893,12.671-32.747,16.155-50.311L349.971,169.233z"/>
	</g>
	<path fill="#F5F5F5" d="M145.886,82.99c0.247-0.047,0.493-0.103,0.739-0.167c6.217-1.615,13.901-8.231,20.256-0.267
		c4.533,5.684,0.374,11.793-4.73,14.83c-13.246,7.882-32.334,1.979-46.779,2.701c-4.464,0.223-19.732,0.626-19.329-5.547
		c0.383-5.693,7.984-3.767,11.646-4.275c6.979-0.969,11.275-7.6,17.955-9.343C132.524,79.126,138.98,84.313,145.886,82.99z"/>
	<path fill="#F5F5F5" d="M256.129,112.692c0.999-0.747,2.068-1.441,3.321-1.965c5.454-2.281,12.897-0.874,18.622,0.529
		c7.898,1.935,14.896,10.046,9.32,17.833c-7.351,10.264-18.594,5.678-28.305,3.833c-9.183-1.744-38.053,7.656-43.953-2.133
		c-4.541-7.534,16.302-13.897,20.729-14.411c3.87-0.448,7.262,1.553,10.847,1.287C251.032,117.344,253.303,114.805,256.129,112.692z
		"/>
	<path fill="#F5F5F5" d="M407.904,117.885c6.839-0.771,12.558-3.081,11.633-8.715c-0.787-4.808-6.198-6.765-10.064-8.567
		c-8.093-3.772-24.806-10.672-33.213-6.332c-5.651,2.918-8.066,6.085-14.857,7.19c-5.701,0.927-16.203,0.375-11.627,9.591
		c2.672,5.381,13.775,5.668,19.334,6.21c8.047,0.785,12.716-1.095,19.925,0.036C392.275,117.807,400.709,118.696,407.904,117.885z"
		/>
	<path fill="#F5F5F5" d="M72.894,151.255c-2.436,1.216-6.834,2.863-7.921,5.818c-2.024,5.505,0.903,3.456,5.971,4.228
		c11.766,1.792,20.607,2.104,31.722-2.127c8.632-3.286,13.628-2.529,22.181-1.719c6.421,0.608,12.579-0.481,15.308-7.086
		c3.912-9.473-5.704-12.174-13.185-12.653c-7.919-0.507-20.11-0.46-27.349,2.747C91.032,144.267,81.26,147.078,72.894,151.255z"/>
	<path fill="none" stroke="#BDFF9C" stroke-miterlimit="10" d="M138.008,430.29c-3.969-8.53-0.971-17.089,2.679-25.151
		c0.433,9.2,1.304,16.838,5.051,25.538"/>
	<path fill="none" stroke="#BDFF9C" stroke-miterlimit="10" d="M111.632,358.313c-0.294-7.517,3.279-9.609,6.55-15.883
		c-1.248,2.394-1.009,6.072-0.405,8.619c2.262-2.98,4.869-4.654,7.658-6.859c-2.892,2.285-3.761,10.91-2.788,14.123"/>
	<path fill="#399D32" d="M242.932,398.021c-19.869,0-37.585,9.178-49.167,23.516c-5.229-15.209-18.977-26.452-35.551-28.018
		c-1.75-39.428-34.257-70.856-74.115-70.856c-20.771,0-39.536,8.545-53.005,22.297C69.234,420.775,147.729,472.8,238.388,472.8
		c23.549,0,46.273-3.521,67.689-10.048c0.012-0.516,0.039-1.027,0.039-1.547C306.116,426.31,277.826,398.021,242.932,398.021z"/>
	<circle fill="none" stroke="#5FD25F" stroke-width="10" stroke-miterlimit="10" cx="239.547" cy="240.879" r="231.92"/>
	<path fill="#52C432" d="M105.304,359.746c-2.323-4.283-15.835-15.664-15.702-3.848c6.209,0.889,6.353,8.102,10.832,11.254
		C106.015,371.084,107.795,364.346,105.304,359.746z"/>
	<path fill="#52C432" d="M128.489,371.348c2.535-3.121-0.122-12.523-4.941-12.149c-6.189,0.479-2.526,8.676-0.038,11.065
		C125.295,371.98,127.34,372.758,128.489,371.348z"/>
	<path fill="#52C432" d="M132.865,360.762c-0.491,0.014-0.95,0.092-1.368,0.241c0.07-0.024,4.987,16.427,11.517,13.026
		C149.864,370.464,138.98,360.604,132.865,360.762z"/>
	<path fill="#008B5F" d="M122.836,411.255c3.54,3.224,4.629,8.752-1.656,8.808c-6.411,0.058-30.021-22.773-23.004-26.176
		c4.005-1.943,11.557,3.575,13.178,6.848c1.437,2.894,0.428,3.466,3.471,5.607C117.424,408.174,120.422,409.059,122.836,411.255z"/>
	<path fill="#008B5F" d="M70.17,371.152c1.673,0.889,7.15,1.977,7.229-1c0.064-2.402-3.317-1.836-4.543-2.707
		c-1.991-1.416-1.422-2.326-2.447-4.332c-2.078-4.072-5.839-4.475-5.244,0.703C65.441,366.207,68.027,370.016,70.17,371.152z"/>
	<path fill="#008B5F" d="M285.247,431.836c-1.315,4.199,0.536,7.83-5.286,7.902c0.201,14.712,21.283,7.436,13.68-5.18
		c-1.768-2.93-6.764-8.543-10.406-5.458c-0.209,0.429,0.029,0.627,0.469,0.803"/>
	<path fill="#52C432" d="M271.798,421.365c-1.233,5.017-6.397,6.103-10.735,2.239c-3.916-3.484-8.693-6.618-12.006-10.688
		c-1.149-1.42,6.25-1.957,6.867-1.998c6.524-0.425,16.241-0.485,16.146,8.164C272.063,419.916,271.967,420.677,271.798,421.365z"/>
	<path fill="#008B5F" d="M139.573,417.13c-1.249-2.748-9.194-15.29-13.653-10.694c-1.575,1.625,0.318,1.451,0.999,3.082
		c1.677,4.006,3.028,9.434,5.581,12.959c1.375,1.897,2.981,5.354,4.729,6.65c2.048,1.521,4.867,1.401,7.677,1.01
		c0.952-2.848,0.156-4.605-1.583-6.734c-0.65-0.797-1.685-0.909-2.318-1.905C139.898,419.764,140.294,418.718,139.573,417.13z"/>
	<path fill="#008B5F" d="M158.284,427.202c-1.083,0.421-2.043,0.803-2.671,0.982c-3.745,1.08-11.441,4.385-12.944,8.25
		c3.938,0.157,7.071,0.429,10.499,1.699c3.877,1.438,8.41,2.7,12.241,4.736c4.599,2.444,5.845,5.489,8.826,9.167
		c2.385,2.938,14.545,5.742,11.853-1.186c-1.217-3.132-3.738-5.34-6.357-7.136c-6.019-4.132-11.431-3.104-12.056-11.148
		c-0.2-2.577,0.259-6.003-2.659-6.979C163.688,425.146,160.684,426.27,158.284,427.202z"/>
	<path fill="#008B5F" d="M110.172,381.965c3.826,1.258,16.944,10.35,13.725,15.521c-2.961,4.752-10.544-4.143-13.435-5.65
		c-3.535-1.84-6.843-2.307-10.797-2.511c-7.385-0.38-17.667,3.207-23.793-0.368c-2.31-1.348-6.979-7.119-4.268-9.581
		c2.079-1.886,9.188,0.474,11.998,0.201C93.012,378.664,101.225,379.023,110.172,381.965z"/>
	<path fill="#52C432" d="M183.233,421.12c2.417,3.09,6.074,7.014,10.104,7.924c4.68,1.058,7.248-2.773,11.613-3.002
		c4.557-0.24,6.342,4.012,2.938,7.239c-2.681,2.545-8.79,3.119-12.212,3.191c-10.737,0.23-16.199-6.92-22.03-15.063
		c-2.459-3.434-10.089-8.004-9.123-12.846C166.809,397.141,181.843,419.343,183.233,421.12z"/>
	<g>
		<path fill="#323232" d="M350.559,205.762c0,0-0.182-0.76-0.418-2.092c-0.241-1.333-0.584-3.212-0.845-5.521
			c-0.11-1.16-0.261-2.416-0.272-3.772c-0.033-0.676-0.033-1.372,0.006-2.091c0.038-0.718,0.031-1.453,0.146-2.2
			c0.097-0.748,0.179-1.512,0.323-2.278c0.167-0.762,0.343-1.536,0.535-2.312l0.035-0.146l0.07-0.214l0.089-0.268l0.18-0.537
			l0.368-1.075c0.257-0.718,0.475-1.426,0.831-2.178c0.669-1.479,1.328-2.971,2.118-4.28c0.729-1.37,1.56-2.631,2.368-3.843
			c0.79-1.23,1.657-2.323,2.444-3.394c0.799-1.057,1.604-2.009,2.339-2.898c1.46-1.774,2.766-3.188,3.667-4.188
			c0.91-0.996,1.473-1.543,1.473-1.543s-0.266,0.732-0.805,1.976c-0.53,1.25-1.355,2.995-2.424,5.03
			c-0.521,1.02-1.106,2.118-1.726,3.264c-0.597,1.153-1.298,2.338-1.932,3.586c-0.33,0.618-0.665,1.246-1.005,1.882
			c-0.342,0.634-0.633,1.293-0.969,1.939c-0.688,1.307-1.244,2.61-1.822,3.913c-0.319,0.618-0.564,1.365-0.83,2.072
			c-0.257,0.681-0.513,1.359-0.767,2.032c-0.189,0.675-0.395,1.341-0.602,2c-0.179,0.667-0.3,1.344-0.469,2
			c-0.183,0.653-0.229,1.33-0.366,1.976c-0.133,0.646-0.204,1.293-0.286,1.927c-0.182,1.258-0.299,2.481-0.436,3.606
			c-0.093,1.136-0.225,2.175-0.331,3.111c-0.098,0.934-0.217,1.748-0.319,2.415C350.724,204.999,350.559,205.762,350.559,205.762z"
			/>
	</g>
	<circle fill="#399D32" cx="372.2" cy="152.045" r="22.028"/>
	<path fill="#52C432" d="M368.824,146.21c4.426,0.711,9.159,3.625,11.222-2.755c1.14-3.527-0.96-7.212-4.144-8.818
		c-4.177-2.106-8.447-0.023-11.491,3.057c-0.768,0.776-6.505,9.904-4.143,10.425C363.494,148.832,365.2,145.627,368.824,146.21z"/>
	<path fill="#008B5F" d="M383.793,155.523c-0.936,5.748-10.927,7.249-15.62,5.833c-2.28-0.688-4.185-4.276-6.881-3.407
		c-4.19,1.352-1.214,5.333,0.82,6.839c6.122,4.533,17.93,4.7,23.892-0.057c2.193-1.75,5.701-6.608,4.783-9.614
		c-1.597-5.221-9.521-1.268-8.539,3.498"/>
	<g>
		<path fill="#323232" d="M74.631,190.69c0,0,0.237,1.314,0.57,3.619c0.082,0.576,0.173,1.214,0.272,1.909
			c0.083,0.7,0.305,1.417,0.466,2.199c0.177,0.774,0.366,1.597,0.565,2.465c0.094,0.432,0.19,0.875,0.289,1.328
			c0.1,0.453,0.274,0.907,0.412,1.375c0.293,0.931,0.599,1.9,0.915,2.903c0.152,0.501,0.306,1.011,0.462,1.528
			c0.201,0.504,0.405,1.016,0.612,1.534c0.831,2.065,1.682,4.24,2.677,6.542c0.473,1.16,0.993,2.283,1.522,3.41
			c0.512,1.137,1.066,2.275,1.641,3.418c0.283,0.573,0.566,1.148,0.851,1.725l0.92,1.695l0.92,1.702l0.994,1.657
			c0.632,1.126,1.347,2.194,2.056,3.259c0.682,1.086,1.464,2.088,2.201,3.114c0.361,0.52,0.757,1.007,1.159,1.484
			c0.392,0.488,0.781,0.973,1.167,1.456c0.786,0.956,1.641,1.828,2.44,2.729c0.838,0.862,1.718,1.653,2.526,2.491
			c0.869,0.772,1.72,1.529,2.547,2.267c1.734,1.384,3.386,2.697,5,3.806c0.782,0.59,1.585,1.075,2.335,1.564
			c0.752,0.484,1.451,0.979,2.141,1.384c1.391,0.788,2.572,1.562,3.588,2.115c2.032,1.108,3.188,1.791,3.188,1.791
			s-1.281-0.355-3.513-1.064c-1.114-0.358-2.435-0.882-3.959-1.479c-0.761-0.3-1.542-0.687-2.384-1.058
			c-0.839-0.379-1.714-0.795-2.594-1.295c-0.882-0.496-1.833-0.964-2.765-1.541c-0.925-0.586-1.88-1.199-2.85-1.852
			c-0.94-0.697-1.905-1.414-2.892-2.146c-0.944-0.787-1.894-1.615-2.843-2.476c-0.9-0.909-1.862-1.795-2.753-2.769
			c-0.866-0.991-1.81-1.949-2.607-3.032c-0.81-1.072-1.688-2.114-2.414-3.263c-0.762-1.125-1.533-2.252-2.206-3.433l-1.033-1.759
			l-0.95-1.793l-0.931-1.793c-0.28-0.608-0.56-1.215-0.838-1.819c-0.277-0.604-0.553-1.206-0.828-1.805
			c-0.246-0.614-0.492-1.225-0.735-1.832c-0.493-1.216-0.97-2.413-1.374-3.577c-0.89-2.294-1.557-4.676-2.236-6.906
			c-0.167-0.557-0.331-1.105-0.492-1.646c-0.11-0.556-0.218-1.104-0.325-1.642c-0.199-1.075-0.392-2.114-0.577-3.112
			c-0.083-0.5-0.202-0.978-0.249-1.464c-0.04-0.487-0.079-0.963-0.117-1.427c-0.064-0.923-0.125-1.799-0.183-2.623
			c-0.033-0.818-0.161-1.584-0.101-2.284c0.032-0.701,0.062-1.344,0.088-1.926C74.521,192.021,74.631,190.69,74.631,190.69z"/>
	</g>
	<circle fill="#399D32" cx="74.243" cy="182.188" r="28.597"/>
	<path fill="#52C432" d="M69.861,174.613c5.746,0.924,11.89,4.707,14.568-3.576c1.479-4.58-1.245-9.364-5.38-11.448
		c-5.42-2.735-10.967-0.03-14.918,3.968c-0.997,1.008-8.445,12.857-5.377,13.535C62.941,178.017,65.156,173.857,69.861,174.613z"/>
	<path fill="#008B5F" d="M89.294,186.704c-1.215,7.461-14.187,9.41-20.279,7.572c-2.96-0.893-5.433-5.552-8.932-4.423
		c-5.442,1.756-1.576,6.923,1.064,8.879c7.949,5.884,23.277,6.103,31.019-0.074c2.846-2.271,7.401-8.579,6.207-12.481
		c-2.073-6.778-12.361-1.646-11.085,4.541"/>
	<g>
		<path fill="#45D42A" d="M157.729,195.685c-6.75,20.977-13.989,41.199-15.227,63.346c-1.193,21.382,6.978,38.859,19.694,55.865
			c47.459,63.469,141.762,54.315,208.806,33.139c-12.521-14.818-37.795-16.354-42.568-37.555
			c-8.417-37.381-14.145-76.748-30.648-112.064c-6.99-14.958-15.953-30.437-29.35-40.403c-9.237-6.871-17.82-14.538-27.564-20.428
			c-10.249-6.197-21.555-10.083-32.975-13.502c-5.052-1.513-10.29-3.697-15.358-4.896c-13.634-3.228-26.285-6.292-40.331-5.747
			c0.989-0.039,6.64,5.555,7.554,6.606c2.258,2.592,3.819,6.258,5.016,9.441c2.609,6.938,3.322,14.435,3.014,21.799
			C167.153,166.524,162.364,181.281,157.729,195.685z"/>
		<g>
			<path fill="#2A7F00" d="M156.282,195.286c-8.68,26.899-19.982,56.264-13.356,84.854c5.25,22.658,21.616,43.58,39.722,57.633
				c34.505,26.781,81.113,30.506,123.059,25.894c22.302-2.452,44.306-7.468,65.693-14.187c1.119-0.352,1.412-1.649,0.661-2.506
				c-6.379-7.271-15.176-11.392-23.471-16.035c-4.238-2.375-8.299-5.004-11.801-8.393c-4.567-4.419-6.343-9.884-7.681-15.921
				c-6.457-29.147-11.445-58.669-21.162-86.981c-4.495-13.097-10.135-25.897-17.165-37.836
				c-7.087-12.034-16.153-20.764-27.052-29.278c-11.149-8.709-22.023-17.354-35.208-22.837c-13.751-5.72-28.44-10.332-42.94-13.677
				c-10.994-2.537-22.06-4.387-33.376-4.077c-1.7,0.047-2.033,2.456-0.399,2.946c3.417,1.026,7.566,6.852,9.203,9.719
				c3.939,6.898,5.18,15.182,5.344,22.991C166.698,163.915,161.216,179.953,156.282,195.286c-0.594,1.847,2.303,2.631,2.893,0.798
				c5.621-17.467,11.371-35.434,9.905-54.022c-0.593-7.52-2.91-15.285-7.099-21.601c-1.925-2.903-5.966-7.443-9.376-8.467
				c-0.133,0.982-0.266,1.964-0.399,2.946c15.607-0.428,31.972,2.808,46.759,7.73c14.63,4.871,29.443,8.98,42.678,17.154
				c6.539,4.039,12.521,8.952,18.541,13.706c5.787,4.57,11.68,8.828,16.719,14.256c9.606,10.354,16.156,23.485,21.805,36.301
				c12.262,27.827,18.011,58.063,24.173,87.672c2.299,11.045,3.191,23.367,11.013,32.103c6.276,7.012,15.577,10.809,23.565,15.422
				c4.633,2.675,8.942,5.775,12.483,9.812c0.221-0.836,0.44-1.671,0.661-2.507c-42.269,13.275-88.573,20.868-132.544,12.201
				c-21.788-4.295-42.546-13.432-59.331-28.118c-19.431-17.003-34.814-41.944-34.837-68.297
				c-0.019-22.719,8.403-44.967,15.284-66.291C159.771,194.237,156.874,193.453,156.282,195.286z"/>
		</g>
	</g>
	<g>
		<path fill="#2A7F00" d="M218.004,174.07c0,0,0.251-0.411,0.74-1.065c0.262-0.316,0.524-0.74,0.818-1.181
			c0.302-0.437,0.618-0.934,0.949-1.504c0.356-0.539,0.688-1.155,1.041-1.793c0.372-0.622,0.678-1.335,1.047-2.023
			c0.318-0.726,0.682-1.444,0.988-2.215c0.338-0.751,0.62-1.547,0.934-2.327c0.278-0.798,0.582-1.585,0.835-2.386
			c0.262-0.802,0.519-1.59,0.768-2.354c0.473-1.572,0.915-3.039,1.293-4.295c0.402-1.278,0.724-2.371,0.98-3.142
			c0.243-0.772,0.43-1.222,0.43-1.222s0.163,0.449,0.366,1.249c0.105,0.4,0.216,0.889,0.295,1.452
			c0.101,0.564,0.191,1.204,0.235,1.904c0.064,0.702,0.07,1.461,0.059,2.268c-0.012,0.807-0.089,1.655-0.189,2.532
			c-0.132,0.872-0.261,1.78-0.507,2.681c-0.193,0.913-0.525,1.81-0.819,2.714c-0.376,0.88-0.712,1.774-1.185,2.599
			c-0.417,0.847-0.949,1.624-1.453,2.368c-0.554,0.718-1.08,1.414-1.676,1.996c-0.581,0.594-1.151,1.125-1.739,1.552
			c-0.292,0.215-0.551,0.432-0.832,0.611c-0.289,0.17-0.562,0.331-0.819,0.482c-0.501,0.315-0.955,0.522-1.336,0.661
			C218.466,173.935,218.004,174.07,218.004,174.07z"/>
	</g>
	<g>
		<path fill="#2A7F00" d="M229.598,203.827c-0.015-0.008-0.086,0.208-0.375,0.53c-0.292,0.328-0.793,0.759-1.539,1.104
			c-1.479,0.72-3.78,1.221-6.495,1.382c-2.721,0.207-5.884,0.095-9.196-0.152c-0.816-0.06-1.645-0.12-2.484-0.181l-0.304-0.018
			l-0.151-0.009l-0.076-0.004l-0.21-0.024l-0.64-0.077c-0.427-0.057-0.856-0.113-1.288-0.17c-0.871-0.129-1.838-0.34-2.756-0.534
			c-0.891-0.252-1.795-0.474-2.676-0.763c-1.751-0.601-3.483-1.264-5.089-2.079c-1.632-0.771-3.149-1.66-4.597-2.532
			c-2.875-1.775-5.388-3.587-7.522-5.159c-2.141-1.565-3.925-2.869-5.174-3.781c-1.267-0.895-1.983-1.447-1.983-1.447
			s0.864,0.235,2.353,0.742c0.73,0.277,1.64,0.583,2.637,1.02c1.009,0.417,2.139,0.906,3.34,1.491
			c1.207,0.572,2.508,1.201,3.856,1.893c1.341,0.681,2.755,1.399,4.218,2.142c1.458,0.714,2.959,1.445,4.497,2.107
			c1.534,0.683,3.111,1.274,4.706,1.802c0.793,0.273,1.605,0.48,2.402,0.721c0.804,0.165,1.536,0.395,2.38,0.549
			c0.428,0.075,0.854,0.15,1.279,0.226l0.633,0.119l0.04,0.007l0.02,0.004c-0.255-0.03-0.059-0.007-0.11-0.013l0.084,0.01
			l0.168,0.021l0.333,0.042c0.875,0.116,1.71,0.243,2.528,0.382c3.264,0.539,6.258,1.057,8.837,1.379
			c2.576,0.304,4.727,0.396,6.196,0.151c0.728-0.125,1.293-0.321,1.634-0.523C229.429,203.991,229.593,203.814,229.598,203.827z"/>
	</g>
	<g>
		<path fill="#2A7F00" d="M238.486,226.628c0,0,0.04-0.221,0.114-0.636c0.05-0.418,0.252-1,0.576-1.778
			c0.189-0.357,0.399-0.753,0.627-1.183c0.24-0.426,0.556-0.84,0.869-1.313c0.331-0.452,0.705-0.91,1.094-1.41
			c0.405-0.471,0.852-0.957,1.319-1.455c0.947-0.98,2-2.022,3.171-3.033c1.164-1.026,2.424-2.053,3.735-3.084
			c1.3-1.01,2.643-2.053,4.008-3.113c0.338-0.26,0.663-0.523,0.976-0.788c0.137-0.116,0.363-0.299,0.428-0.361l0.49-0.443
			c0.664-0.592,1.312-1.184,1.914-1.769c1.254-1.153,2.455-2.387,3.596-3.602c1.127-1.233,2.178-2.48,3.115-3.744
			c0.918-1.273,1.764-2.539,2.438-3.814c0.173-0.318,0.344-0.631,0.512-0.94c0.148-0.319,0.297-0.633,0.44-0.941
			c0.317-0.609,0.545-1.231,0.788-1.824c0.262-0.588,0.406-1.185,0.613-1.739c0.213-0.553,0.346-1.097,0.49-1.606
			c0.305-1.018,0.479-1.934,0.668-2.688c0.307-1.532,0.48-2.407,0.48-2.407s0.033,0.222,0.098,0.638
			c0.046,0.417,0.166,1.033,0.216,1.821c0.025,0.787,0.134,1.757,0.052,2.865c-0.021,1.114-0.143,2.376-0.406,3.737
			c-0.26,1.36-0.615,2.844-1.213,4.335c-0.557,1.51-1.325,3.03-2.226,4.532c-0.917,1.491-1.975,2.958-3.153,4.34
			c-1.177,1.39-2.443,2.701-3.779,3.96c-0.68,0.638-1.348,1.232-2.008,1.805l-0.496,0.436c-0.271,0.229-0.395,0.308-0.598,0.469
			c-0.369,0.29-0.736,0.562-1.1,0.819c-1.454,1.052-2.896,1.991-4.281,2.895c-2.775,1.803-5.333,3.457-7.461,4.963
			c-1.045,0.771-1.99,1.49-2.795,2.172c-0.388,0.354-0.75,0.686-1.085,0.993c-0.316,0.328-0.607,0.629-0.87,0.901
			c-0.436,0.572-0.856,1.04-1.028,1.431C238.601,226.435,238.486,226.628,238.486,226.628z"/>
	</g>
	<g>
		<path fill="#2A7F00" d="M242.738,264.501c0,0-1.063-0.032-2.903-0.168c-0.46-0.035-0.97-0.073-1.524-0.115
			c-0.553,0.021-1.141,0.017-1.768,0.025c-0.622,0.006-1.283,0.012-1.981,0.018c-0.69-0.004-1.435,0.108-2.196,0.161
			c-0.764,0.073-1.558,0.123-2.373,0.223c-0.812,0.152-1.651,0.276-2.51,0.422c-0.429,0.07-0.863,0.144-1.303,0.217
			c-0.433,0.111-0.872,0.227-1.315,0.342c-0.881,0.246-1.795,0.419-2.703,0.688c-0.902,0.291-1.819,0.588-2.748,0.89
			c-0.938,0.261-1.836,0.702-2.772,1.039c-0.932,0.353-1.865,0.722-2.779,1.163c-0.918,0.426-1.852,0.824-2.765,1.273
			c-1.814,0.934-3.637,1.846-5.381,2.868c-1.774,0.96-3.45,2.05-5.121,3.022c-1.614,1.07-3.246,2.003-4.721,3.013
			c-1.495,0.985-2.909,1.918-4.213,2.778c-2.61,1.734-4.806,3.183-6.36,4.178c-1.549,1.002-2.467,1.539-2.467,1.539
			s0.692-0.805,1.958-2.151c0.632-0.675,1.405-1.489,2.327-2.386c0.908-0.912,1.942-1.934,3.125-2.986
			c0.586-0.535,1.197-1.092,1.829-1.668c0.655-0.551,1.332-1.121,2.028-1.705c1.379-1.188,2.925-2.344,4.51-3.553
			c1.647-1.129,3.306-2.363,5.133-3.423c1.77-1.144,3.69-2.117,5.594-3.117c1.97-0.877,3.908-1.831,5.948-2.477
			c1.987-0.771,4.049-1.243,6.02-1.731c0.997-0.201,1.994-0.342,2.961-0.482c0.484-0.067,0.963-0.137,1.436-0.203
			c0.479-0.026,0.951-0.053,1.417-0.079c0.932-0.044,1.835-0.104,2.708-0.128c0.876,0.027,1.722,0.104,2.528,0.15
			c0.809,0.076,1.575,0.057,2.31,0.207c0.729,0.137,1.42,0.269,2.07,0.392c0.645,0.126,1.246,0.229,1.793,0.354
			c0.529,0.171,1.016,0.328,1.455,0.47C241.744,264.129,242.738,264.501,242.738,264.501z"/>
	</g>
	<g>
		<path fill="#2A7F00" d="M256.65,295.417c0,0,0.83-0.449,2.307-1.158c1.477-0.719,3.59-1.694,6.117-2.845
			c1.257-0.579,2.617-1.207,4.059-1.87c1.438-0.655,2.928-1.385,4.471-2.122c0.762-0.382,1.535-0.771,2.32-1.165
			c0.789-0.383,1.544-0.84,2.336-1.247c0.791-0.408,1.57-0.851,2.334-1.316c0.766-0.463,1.562-0.892,2.309-1.383
			c0.748-0.492,1.496-0.981,2.24-1.472c0.744-0.489,1.43-1.045,2.144-1.558l1.055-0.778c0.331-0.28,0.66-0.56,0.986-0.835
			c0.646-0.563,1.325-1.081,1.93-1.652c1.181-1.173,2.398-2.25,3.367-3.44c0.503-0.579,1.038-1.114,1.479-1.688
			c0.441-0.578,0.869-1.138,1.279-1.675c0.865-1.055,1.466-2.147,2.101-3.071c0.3-0.47,0.602-0.904,0.849-1.322
			c0.233-0.426,0.447-0.816,0.641-1.172c0.781-1.42,1.28-2.235,1.28-2.235s-0.163,0.917-0.54,2.53
			c-0.097,0.403-0.202,0.853-0.318,1.34c-0.119,0.488-0.343,0.979-0.532,1.525c-0.418,1.075-0.794,2.357-1.517,3.6
			c-0.332,0.641-0.679,1.308-1.036,1.998c-0.365,0.689-0.86,1.324-1.31,2.022c-0.885,1.414-2.05,2.72-3.234,4.099
			c-0.597,0.688-1.295,1.287-1.957,1.944c-0.338,0.323-0.678,0.648-1.019,0.976c-0.366,0.295-0.735,0.591-1.104,0.888
			c-0.75,0.579-1.467,1.226-2.266,1.755c-0.794,0.534-1.591,1.071-2.388,1.607c-0.81,0.518-1.654,0.963-2.478,1.445
			c-0.817,0.492-1.67,0.905-2.514,1.312c-1.672,0.854-3.373,1.549-5.02,2.212c-1.654,0.631-3.268,1.203-4.811,1.681
			c-1.544,0.478-3.013,0.896-4.378,1.229c-1.354,0.366-2.614,0.644-3.733,0.874c-1.113,0.248-2.095,0.425-2.899,0.566
			C257.587,295.298,256.65,295.417,256.65,295.417z"/>
	</g>
	<g>
		<path fill="#2A7F00" d="M172.209,120.353c0,0,0.814,0.807,2.342,2.318c1.52,1.52,3.788,3.71,6.591,6.581
			c2.828,2.846,6.218,6.348,10.07,10.407c1.888,2.066,3.942,4.226,6.027,6.578c1.027,1.191,2.081,2.413,3.159,3.663
			c0.538,0.627,1.082,1.261,1.632,1.902c0.542,0.648,1.063,1.327,1.604,2c1.076,1.353,2.175,2.733,3.294,4.141
			c1.138,1.394,2.156,2.924,3.27,4.421c1.077,1.524,2.253,3.019,3.277,4.656c1.043,1.624,2.102,3.272,3.176,4.944l0.808,1.259
			l0.203,0.316l0.209,0.371l0.363,0.653c0.485,0.872,0.973,1.75,1.464,2.633c0.491,0.883,0.985,1.771,1.482,2.665
			c0.5,0.89,0.911,1.874,1.375,2.815c0.877,1.912,1.88,3.821,2.662,5.804c0.795,1.98,1.598,3.979,2.408,5.995
			c3.004,8.144,5.57,16.717,7.903,25.452c1.167,4.39,2.346,8.714,3.477,13.215c1.121,4.39,2.099,8.98,2.981,13.497
			c1.728,9.035,3.201,18.049,5.436,26.672c0.279,1.077,0.559,2.152,0.838,3.227c0.301,1.063,0.657,2.105,0.98,3.154
			c0.326,1.051,0.65,2.099,0.975,3.143c0.324,0.945,0.762,2.053,1.135,3.066c1.574,3.973,3.517,7.746,5.838,11.211
			c4.633,6.93,10.696,12.48,17.074,16.869c6.389,4.388,12.938,7.918,19.036,10.978c6.126,3.021,11.902,5.453,17.149,7.262
			c5.245,1.819,9.967,2.952,13.894,3.666c3.929,0.724,7.066,0.972,9.205,1.146c2.146,0.08,3.291,0.123,3.291,0.123
			s-1.146,0.033-3.297,0.096c-2.146-0.051-5.323-0.032-9.318-0.594c-3.993-0.525-8.822-1.436-14.223-3.016
			c-2.7-0.783-5.546-1.718-8.508-2.807c-2.954-1.107-6.024-2.369-9.175-3.8c-6.293-2.872-13.021-6.191-19.729-10.578
			c-6.686-4.351-13.29-10.029-18.313-17.361c-2.52-3.635-4.659-7.637-6.402-11.858c-0.406-1.055-0.805-2.004-1.221-3.152
			c-0.354-1.074-0.705-2.15-1.061-3.23c-0.342-1.084-0.714-2.164-1.029-3.259c-0.293-1.1-0.586-2.202-0.879-3.306
			c-2.332-8.84-3.871-17.934-5.624-26.889c-0.854-4.483-1.758-8.866-2.872-13.33c-1.071-4.359-2.259-8.816-3.388-13.15
			c-2.306-8.7-4.626-17.216-7.474-25.236c-0.762-1.982-1.517-3.949-2.265-5.896c-0.352-0.989-0.795-1.912-1.207-2.849
			c-0.414-0.936-0.826-1.867-1.235-2.793c-0.426-0.924-0.779-1.856-1.258-2.761c-0.474-0.906-0.945-1.807-1.414-2.702
			c-0.469-0.895-0.935-1.785-1.397-2.669l-0.347-0.662l-0.148-0.283l-0.191-0.315l-0.762-1.255
			c-1.013-1.668-2.012-3.314-2.996-4.935c-0.476-0.821-1.007-1.599-1.537-2.369c-0.523-0.775-1.042-1.543-1.556-2.306
			c-1.045-1.513-1.994-3.057-3.07-4.473c-1.057-1.43-2.095-2.832-3.111-4.206c-0.512-0.685-1.003-1.374-1.517-2.035
			c-0.523-0.655-1.04-1.302-1.551-1.941c-1.02-1.283-2.016-2.536-2.987-3.758c-1.955-2.436-3.893-4.682-5.67-6.83
			c-3.638-4.227-6.848-7.886-9.532-10.865C175.252,123.782,172.209,120.353,172.209,120.353z"/>
	</g>
	<path fill="#00BD00" d="M287.212,353.967c12.916,1.251,27.995-0.35,40.561-3.514c-13.818,1.07-34.391-4.543-45.658-12.768
		c-9.052-6.604-18.375-13.994-26.735-21.525c-7.838-7.063-15.858-16.217-27.547-13.952c-13.589,2.632-23.89,5.534-37.382-0.53
		c-5.095-2.291-10.5-4.544-15.13-7.717c-3.119-2.138-8.155-10.146-11.54-4.627c-8.922,14.609,17.904,32.291,27.129,39.027
		c19.799,14.457,39.373,22.682,64.409,23.756C265.907,352.57,276.645,352.943,287.212,353.967z"/>
	<path fill="#92FF32" d="M247.51,156.246c1.68-9.445-11.214-14.351-17.98-17.055c-4.596-1.836-8.961-2.314-13.516-3.583
		c-5.651-1.574-9.832-5.81-15.137-8.097c-4.194-1.807-9.176-2.081-13.709-1.938c4.789,1.245,8.165,6.271,11.813,9.295
		c2.444,2.026,4.092,4.529,6.112,7.061c4.673,5.861,6.075,8.806,12.798,5.942c6.252-2.663,9.022-4.233,15.794-0.85
		C238.49,149.421,242.454,154.793,247.51,156.246z"/>
</g>
</svg>
