<?xml version="1.0" encoding="utf-8"?>
<!-- Generator: Adobe Illustrator 16.0.0, SVG Export Plug-In . SVG Version: 6.00 Build 0)  -->
<!DOCTYPE svg PUBLIC "-//W3C//DTD SVG 1.1//EN" "http://www.w3.org/Graphics/SVG/1.1/DTD/svg11.dtd">
<svg version="1.1" id="圖層_1" xmlns="http://www.w3.org/2000/svg" xmlns:xlink="http://www.w3.org/1999/xlink" x="0px" y="0px"
	 width="480px" height="480px" viewBox="0 0 480 480" enable-background="new 0 0 480 480" xml:space="preserve">
<g id="文化街道">
	<circle fill="#00A4FF" cx="241.081" cy="240.879" r="231.92"/>
	<path fill="#6F9F7E" d="M361.561,309H240.986H120.413c0,0,53.983-216.222,120.573-216.222C307.578,92.778,361.561,309,361.561,309z
		"/>
	<path fill="#5FD25F" d="M272.29,306H151.716H31.143c0,0,53.981-216.222,120.573-216.222C218.307,89.778,272.29,306,272.29,306z"/>
	<path fill="#5FD25F" d="M461.266,271H340.691H220.118c0,0,53.983-216.221,120.573-216.221C407.283,54.779,461.266,271,461.266,271z
		"/>
	<path fill="#FFCEB1" d="M14.461,191.431c-3.46,15.935-5.301,32.475-5.301,49.448c0,128.084,103.834,231.92,231.92,231.92
		s231.921-103.836,231.921-231.92c0-16.971-1.841-33.513-5.301-49.448c-72.376-18.904-148.32-28.981-226.62-28.981
		C162.781,162.45,86.837,172.527,14.461,191.431z"/>
	<g>
		
			<linearGradient id="SVGID_1_" gradientUnits="userSpaceOnUse" x1="75.5078" y1="310.6582" x2="316.8543" y2="69.3117" gradientTransform="matrix(1 0 0 -1 102.3398 460.04)">
			<stop  offset="0" style="stop-color:#D4D1B1"/>
			<stop  offset="1" style="stop-color:#FFBDA4"/>
		</linearGradient>
		<path fill="url(#SVGID_1_)" d="M161.23,165.999l241.328,241.328c11.294-10.959,21.479-23.052,30.364-36.103L224.316,162.618
			C203.098,163.009,182.063,164.153,161.23,165.999z"/>
		
			<linearGradient id="SVGID_2_" gradientUnits="userSpaceOnUse" x1="-96.4609" y1="260.0254" x2="181.0287" y2="-17.4643" gradientTransform="matrix(1 0 0 -1 102.3398 460.04)">
			<stop  offset="0" style="stop-color:#D4D1B1"/>
			<stop  offset="1" style="stop-color:#FFBDA4"/>
		</linearGradient>
		<path fill="url(#SVGID_2_)" d="M14.461,191.431c-2.403,11.069-4.005,22.437-4.771,34.032l246.813,246.814
			c12.877-0.848,25.468-2.732,37.687-5.596L18.034,190.528C16.845,190.833,15.648,191.121,14.461,191.431z"/>
		
			<linearGradient id="SVGID_3_" gradientUnits="userSpaceOnUse" x1="-25.4302" y1="294.4971" x2="255.6379" y2="13.4291" gradientTransform="matrix(1 0 0 -1 102.3398 460.04)">
			<stop  offset="0" style="stop-color:#D4D1B1"/>
			<stop  offset="1" style="stop-color:#FFBDA4"/>
		</linearGradient>
		<path fill="url(#SVGID_3_)" d="M62.033,180.419l272.683,272.684c13.433-5.936,26.191-13.105,38.141-21.371L112.734,171.609
			C95.671,174.064,78.771,177.017,62.033,180.419z"/>
		
			<linearGradient id="SVGID_4_" gradientUnits="userSpaceOnUse" x1="323.584" y1="290.4385" x2="380.5745" y2="233.4481" gradientTransform="matrix(1 0 0 -1 102.3398 460.04)">
			<stop  offset="0" style="stop-color:#D4D1B1"/>
			<stop  offset="1" style="stop-color:#FFBDA4"/>
		</linearGradient>
		<path fill="url(#SVGID_4_)" d="M467.7,191.431c-17.054-4.455-34.313-8.4-51.749-11.858l56.991,56.991
			C472.658,221.104,470.865,206.011,467.7,191.431z"/>
		
			<linearGradient id="SVGID_5_" gradientUnits="userSpaceOnUse" x1="-103.8574" y1="162.7305" x2="82.3106" y2="-23.4375" gradientTransform="matrix(1 0 0 -1 102.3398 460.04)">
			<stop  offset="0" style="stop-color:#D4D1B1"/>
			<stop  offset="1" style="stop-color:#FFBDA4"/>
		</linearGradient>
		<path fill="url(#SVGID_5_)" d="M199.124,469.005L12.955,282.836C30.216,377.283,104.677,451.745,199.124,469.005z"/>
		
			<linearGradient id="SVGID_6_" gradientUnits="userSpaceOnUse" x1="193.3525" y1="313.3857" x2="366.6669" y2="140.0714" gradientTransform="matrix(1 0 0 -1 102.3398 460.04)">
			<stop  offset="0" style="stop-color:#D4D1B1"/>
			<stop  offset="1" style="stop-color:#FFBDA4"/>
		</linearGradient>
		<path fill="url(#SVGID_6_)" d="M351.506,169.233c-23.866-2.942-48.021-4.941-72.43-5.962L452.39,336.586
			c7.21-15.893,12.671-32.747,16.157-50.311L351.506,169.233z"/>
	</g>
	<path fill="#F5F5F5" d="M147.42,82.99c0.247-0.047,0.493-0.103,0.739-0.167c6.218-1.615,13.901-8.231,20.256-0.267
		c4.533,5.684,0.374,11.793-4.73,14.83c-13.246,7.882-32.333,1.979-46.778,2.701c-4.464,0.223-19.732,0.626-19.33-5.547
		c0.383-5.693,7.984-3.767,11.645-4.275c6.98-0.969,11.276-7.6,17.956-9.343C134.06,79.126,140.516,84.313,147.42,82.99z"/>
	<path fill="#F5F5F5" d="M257.664,112.692c0.999-0.747,2.066-1.441,3.32-1.965c5.455-2.281,12.896-0.874,18.623,0.529
		c7.897,1.935,14.896,10.046,9.318,17.833c-7.35,10.264-18.593,5.678-28.303,3.833c-9.184-1.744-38.054,7.656-43.954-2.133
		c-4.542-7.534,16.303-13.897,20.73-14.411c3.869-0.448,7.262,1.553,10.846,1.287C252.566,117.344,254.839,114.805,257.664,112.692z
		"/>
	<path fill="#F5F5F5" d="M409.439,117.885c6.838-0.771,12.557-3.081,11.632-8.715c-0.787-4.808-6.197-6.765-10.064-8.567
		c-8.093-3.772-24.806-10.672-33.213-6.332c-5.652,2.918-8.066,6.085-14.858,7.19c-5.7,0.927-16.202,0.375-11.627,9.591
		c2.672,5.381,13.776,5.668,19.335,6.21c8.046,0.785,12.717-1.095,19.925,0.036C393.811,117.807,402.244,118.696,409.439,117.885z"
		/>
	<path fill="#F5F5F5" d="M74.428,151.255c-2.436,1.216-6.834,2.863-7.921,5.818c-2.023,5.505,0.903,3.456,5.972,4.228
		c11.765,1.792,20.607,2.104,31.722-2.127c8.632-3.286,13.627-2.529,22.18-1.719c6.421,0.608,12.58-0.481,15.309-7.086
		c3.911-9.473-5.705-12.174-13.186-12.653c-7.919-0.507-20.11-0.46-27.349,2.747C92.566,144.267,82.794,147.078,74.428,151.255z"/>
	<g>
		<path fill="#F5F5F5" d="M466.178,201c-1.105-2-3.141-3-5.494-3h-19.132c-2.354,0-4.388,1-5.493,3H305.144
			c-1.104-2-3.139-3-5.493-3H280.52c-2.354,0-4.39,1-5.494,3H158.46c-1.106-2-3.14-3-5.492-3h-19.134c-2.354,0-4.388,1-5.493,3
			h-16.843c-26.355,0-48.015,19.135-53.424,43.848C57.222,248.742,56.773,253,56.773,257H474v-56H466.178z"/>
		<path fill="#505079" d="M118.322,208h-9.1c-19.79,0-36.222,15-40.283,33h49.383c5.927,0,10.678-4.726,10.678-10.651v-10.428
			C129,213.996,124.249,208,118.322,208z"/>
		<path fill="#505079" d="M150,249.636c0,0.313-0.277,0.364-0.588,0.364h-3.508c-0.311,0-0.904-0.052-0.904-0.364v-5.823
			c0-0.313,0.594-0.813,0.904-0.813h3.508c0.311,0,0.588,0.5,0.588,0.813V249.636z"/>
		<path fill="#505079" d="M229,248.949c0,0.052-0.584,0.051-1.074,0.051h-4.021c-0.49,0-0.904,0.001-0.904-0.051v-5.61
			c0-0.052,0.414-0.339,0.904-0.339h4.021c0.49,0,1.074,0.287,1.074,0.339V248.949z"/>
		<path fill="#505079" d="M293,248.484c0,0.313,0.02,0.516-0.292,0.516h-3.653c-0.312,0-1.055-0.202-1.055-0.516v-5.246
			c0-0.313,0.743-0.238,1.055-0.238h3.653c0.312,0,0.292-0.074,0.292,0.238V248.484z"/>
		<path fill="#505079" d="M389,248.484c0,0.313-0.317,0.516-0.627,0.516h-3.654c-0.312,0,0.281-0.202,0.281-0.516v-5.246
			c0-0.313-0.593-0.238-0.281-0.238h3.654c0.31,0,0.627-0.074,0.627,0.238V248.484z"/>
		<line fill="none" stroke="#505079" stroke-miterlimit="10" x1="129" y1="227.5" x2="470" y2="227.5"/>
		<path fill="#505079" d="M217.24,241c-5.926,0-11.24-4.726-11.24-10.651v-10.428c0-5.926,5.557-11.921,11.482-11.921h18.293
			c5.927,0,10.225,5.996,10.225,11.921v10.428c0,5.925-3.949,10.651-9.874,10.651H217.24z"/>
		<path fill="#505079" d="M281.016,241c-5.925,0-9.016-4.726-9.016-10.651v-10.428c0-5.926,3.332-11.921,9.258-11.921h18.293
			c5.927,0,11.449,5.996,11.449,11.921v10.428c0,5.925-5.174,10.651-11.101,10.651H281.016z"/>
		<path fill="#505079" d="M376.68,241c-5.926,0-9.68-4.726-9.68-10.651v-10.428c0-5.926,3.995-11.921,9.922-11.921h18.293
			c5.925,0,10.785,5.996,10.785,11.921v10.428c0,5.925-4.512,10.651-10.438,10.651H376.68z"/>
		<path fill="#505079" d="M440.455,241c-5.926,0-10.455-4.726-10.455-10.651v-10.428c0-5.926,4.771-11.921,10.696-11.921h18.294
			c5.926,0,11.01,5.996,11.01,11.921v10.428c0,5.925-4.734,10.651-10.661,10.651H440.455z"/>
		<g>
			<g>
				<path fill="#F5F5F5" d="M217.676,220.751c-4.917,4.916-9.833,9.832-14.749,14.749c-1.369,1.369,0.752,3.49,2.121,2.121
					c4.917-4.916,9.833-9.832,14.749-14.749C221.166,221.503,219.045,219.382,217.676,220.751L217.676,220.751z"/>
			</g>
		</g>
		<g>
			<g>
				<path fill="#F5F5F5" d="M255.941,203.213c-8.77,8.769-17.54,17.539-26.31,26.308c-1.369,1.369,0.752,3.49,2.121,2.121
					c8.771-8.769,17.54-17.539,26.31-26.308C259.434,203.965,257.313,201.844,255.941,203.213L255.941,203.213z"/>
			</g>
		</g>
		<g>
			<g>
				<path fill="#F5F5F5" d="M286.234,219.158c-8.77,8.769-17.539,17.538-26.309,26.307c-1.369,1.369,0.752,3.49,2.121,2.121
					c8.77-8.769,17.539-17.538,26.309-26.307C289.727,219.91,287.604,217.789,286.234,219.158L286.234,219.158z"/>
			</g>
		</g>
		<g>
			<g>
				<path fill="#F5F5F5" d="M316.529,204.808c-6.422,6.422-12.846,12.844-19.268,19.267c-1.369,1.369,0.752,3.49,2.121,2.121
					c6.422-6.422,12.845-12.844,19.268-19.267C320.02,205.56,317.898,203.438,316.529,204.808L316.529,204.808z"/>
			</g>
		</g>
		<g>
			<g>
				<path fill="#F5F5F5" d="M397.842,203.213c-5.313,5.314-10.629,10.629-15.942,15.944c-1.369,1.369,0.752,3.49,2.12,2.121
					c5.314-5.314,10.63-10.629,15.943-15.944C401.332,203.965,399.211,201.844,397.842,203.213L397.842,203.213z"/>
			</g>
		</g>
		<g>
			<g>
				<path fill="#F5F5F5" d="M401.031,220.751c-8.771,8.769-17.539,17.539-26.31,26.308c-1.368,1.369,0.752,3.49,2.121,2.121
					c8.771-8.769,17.539-17.539,26.31-26.308C404.521,221.503,402.4,219.382,401.031,220.751L401.031,220.751z"/>
			</g>
		</g>
		<g>
			<g>
				<path fill="#F5F5F5" d="M444.079,225.535c-8.771,8.769-17.539,17.539-26.31,26.308c-1.368,1.369,0.753,3.49,2.121,2.121
					c8.771-8.771,17.539-17.539,26.31-26.308C447.569,226.287,445.448,224.166,444.079,225.535L444.079,225.535z"/>
			</g>
		</g>
		<g>
			<g>
				<path fill="#F5F5F5" d="M466.402,220.751c-8.771,8.769-17.54,17.539-26.311,26.308c-1.369,1.369,0.752,3.49,2.121,2.121
					c8.771-8.769,17.54-17.539,26.311-26.308C469.893,221.503,467.771,219.382,466.402,220.751L466.402,220.751z"/>
			</g>
		</g>
		<g>
			<g>
				<path fill="#F5F5F5" d="M120.419,204.808c-8.77,8.77-17.54,17.539-26.31,26.309c-1.369,1.369,0.752,3.49,2.121,2.121
					c8.77-8.771,17.54-17.539,26.31-26.309C123.909,205.56,121.788,203.438,120.419,204.808L120.419,204.808z"/>
			</g>
		</g>
		<g>
			<g>
				<path fill="#F5F5F5" d="M120.419,222.347c-8.77,8.769-17.54,17.538-26.31,26.308c-1.369,1.368,0.752,3.489,2.121,2.12
					c8.77-8.77,17.54-17.537,26.31-26.308C123.909,223.099,121.788,220.978,120.419,222.347L120.419,222.347z"/>
			</g>
		</g>
		<path fill="#F5F5F5" stroke="#505079" stroke-miterlimit="10" d="M185.5,247.723c0,1.533-1.243,2.777-2.777,2.777h-14.445
			c-1.534,0-2.777-1.244-2.777-2.777v-24.444c0-1.534,1.243-2.778,2.777-2.778h14.445c1.534,0,2.777,1.244,2.777,2.778V247.723z"/>
		<path fill="#F5F5F5" stroke="#505079" stroke-miterlimit="10" d="M352.5,247.723c0,1.533-1.243,2.777-2.777,2.777h-14.444
			c-1.534,0-2.777-1.244-2.777-2.777v-24.444c0-1.534,1.243-2.778,2.777-2.778h14.444c1.534,0,2.777,1.244,2.777,2.778V247.723z"/>
		<path fill="#FFC200" d="M56.989,251H474v-5H57.887C57.466,248,57.172,250,56.989,251z"/>
	</g>
	<g>
		<path fill="#AE7F00" d="M9.693,256.578c0,0,1.812-0.047,5.208-0.135c3.396-0.077,8.378-0.244,14.719-0.351
			c6.34-0.122,14.039-0.271,22.87-0.44c8.831-0.176,18.794-0.373,29.664-0.504c10.869-0.133,22.644-0.277,35.098-0.431
			c12.454-0.106,25.588-0.22,39.174-0.336c13.586-0.065,27.625-0.206,41.891-0.216c14.266-0.029,28.758-0.059,43.25-0.087
			c14.492,0.028,28.984,0.057,43.25,0.084c14.267,0.001,28.306,0.147,41.892,0.213c13.587,0.116,26.72,0.229,39.174,0.335
			c12.454,0.152,24.229,0.297,35.1,0.432c10.868,0.131,20.831,0.326,29.662,0.504c8.831,0.172,16.53,0.321,22.87,0.444
			c6.342,0.106,11.322,0.272,14.72,0.351c3.396,0.09,5.208,0.137,5.208,0.137s-1.813,0.047-5.208,0.136
			c-3.396,0.078-8.378,0.244-14.72,0.351c-6.34,0.123-14.039,0.273-22.87,0.444c-8.831,0.179-18.794,0.374-29.662,0.505
			c-10.869,0.135-22.646,0.278-35.1,0.432c-12.454,0.105-25.587,0.219-39.174,0.334c-13.586,0.064-27.625,0.213-41.892,0.214
			c-14.266,0.026-28.758,0.056-43.25,0.084c-14.491-0.028-28.983-0.058-43.25-0.087c-14.266-0.01-28.305-0.15-41.891-0.217
			c-13.586-0.115-26.72-0.229-39.174-0.336c-12.454-0.151-24.229-0.297-35.098-0.431c-10.869-0.13-20.833-0.328-29.664-0.503
			c-8.831-0.171-16.53-0.318-22.87-0.441c-6.34-0.104-11.322-0.271-14.719-0.35C11.505,256.625,9.693,256.578,9.693,256.578z"/>
	</g>
	<g>
		<path fill="#DB3600" d="M97,422.643c11,9.801,22,18.209,34,25.008V291H97V422.643z"/>
		<path fill="#DB3600" d="M386,422.643c-11,9.801-24,18.209-35,25.008V291h35V422.643z"/>
		<rect x="57" y="276" fill="#DB3600" width="371" height="24"/>
		<rect x="57" y="359" fill="#DB3600" width="371" height="24"/>
		<rect x="57" y="300" fill="#9A3600" width="371" height="23"/>
		<rect x="57" y="300" fill="#323232" width="40" height="23"/>
		<rect x="386" y="300" fill="#323232" width="42" height="23"/>
	</g>
	<circle fill="none" stroke="#5FD25F" stroke-width="10" stroke-miterlimit="10" cx="241.081" cy="240.879" r="231.92"/>
</g>
</svg>
