<?xml version="1.0" encoding="utf-8"?>
<!-- Generator: Adobe Illustrator 16.0.0, SVG Export Plug-In . SVG Version: 6.00 Build 0)  -->
<!DOCTYPE svg PUBLIC "-//W3C//DTD SVG 1.1//EN" "http://www.w3.org/Graphics/SVG/1.1/DTD/svg11.dtd">
<svg version="1.1" id="運動飲料" xmlns="http://www.w3.org/2000/svg" xmlns:xlink="http://www.w3.org/1999/xlink" x="0px"
	 y="0px" width="480px" height="480px" viewBox="0 0 480 480" enable-background="new 0 0 480 480" xml:space="preserve">
<g>
	<path fill="#FFFFFF" stroke="#458DD7" stroke-width="3" stroke-miterlimit="10" d="M334.885,371.276
		c3.121,7.463-26.46,32.342-67.411,55.985l-5.185,2.809c-40.95,23.645-77.576,37.166-82.463,30.726L20.289,184.365
		c-14.923-25.849-5.512-59.171,19.845-73.811l-12.73-22.047l59.934-34.604l12.773,22.125c27.663-15.972,60.256-6.901,75.182,18.949
		L334.885,371.276z"/>
	<path fill="#77BFFF" stroke="#458DD7" stroke-width="3" stroke-miterlimit="10" d="M335.146,371.33
		c3.855,6.678-28.392,32.512-70.737,56.965c-42.349,24.447-81.003,39.546-84.86,32.865L27.673,198.101
		c27.207-15.708,36.19,2.08,61.746-12.678c25.563-14.757,16.47-32.481,42.032-47.237c25.56-14.76,35.407,2.529,61.763-12.688
		L335.146,371.33z"/>
	<path fill="#458DD7" d="M93.792,50.444c3.904,6.762-9.069,21.563-28.591,32.833c-19.524,11.271-38.964,15.185-42.867,8.421
		l-7.65-13.246C10.78,71.69,23.89,56.812,43.412,45.54c19.522-11.27,38.826-15.106,42.731-8.343L93.792,50.444z"/>
	<path fill="#458DD7" d="M327.655,367.825c3.938,6.819-25.729,31.317-66.448,54.83c-40.721,23.509-76.922,37.037-80.861,30.219
		c-3.937-6.82,25.881-31.409,66.601-54.919C287.668,374.447,323.72,361.003,327.655,367.825z"/>
	
		<ellipse transform="matrix(0.866 -0.5 0.5 0.866 -21.5445 32.4493)" fill="#FFFFFF" stroke="#458DD7" stroke-width="3" stroke-miterlimit="10" cx="49.781" cy="56.429" rx="35.692" ry="10.449"/>
	<g>
		<g>
			<path fill="#FFFFFF" d="M56.736,216.572c3.945,6.832,7.891,13.663,11.836,20.495c1.934,3.349,7.119,0.329,5.181-3.028
				c-3.945-6.832-7.891-13.663-11.836-20.495C59.983,210.195,54.797,213.215,56.736,216.572L56.736,216.572z"/>
		</g>
	</g>
	<g>
		<g>
			<path fill="#FFFFFF" d="M82.685,254.998c24.703,42.788,49.406,85.576,74.11,128.364c8.513,14.745,17.026,29.49,25.539,44.235
				c1.933,3.35,7.119,0.329,5.181-3.027c-24.703-42.788-49.406-85.576-74.11-128.364c-8.513-14.745-17.026-29.49-25.539-44.235
				C85.933,248.621,80.747,251.642,82.685,254.998L82.685,254.998z"/>
		</g>
	</g>
</g>
<g>
	<linearGradient id="SVGID_1_" gradientUnits="userSpaceOnUse" x1="186.9478" y1="256.3232" x2="470.7129" y2="256.3232">
		<stop  offset="0" style="stop-color:#458DCD"/>
		<stop  offset="1" style="stop-color:#77BFFF"/>
	</linearGradient>
	<polygon fill="url(#SVGID_1_)" points="292.236,36 446.317,36 351.301,208 470.713,208 195.936,476.646 267.84,267 186.948,267 	
		"/>
	<polygon fill="#FFE000" stroke="#458DD7" stroke-width="3" stroke-miterlimit="10" points="292.605,16.5 446.687,16.5 
		351.67,188.5 471.082,188.5 196.305,457.146 268.209,247.5 187.317,247.5 	"/>
	<path fill="#77BFFF" stroke="#458DD7" stroke-width="3" stroke-miterlimit="10" d="M186.96,247.5h81.249l-71.904,209.646
		L471.082,188.5H351.227l26.798-49.11c-21.906,0-21.906-20.879-43.81-20.879c-21.905,0-21.905,20.554-43.812,20.554
		c-21.9,0-21.9-20.744-43.802-20.744L186.96,247.5z"/>
	<g>
		<g>
			<path fill="#FFFFFF" d="M421.007,22.643c-40.945,0-81.892,0-122.837,0c-0.972,0-2.167,0.552-2.591,1.486
				c-19.744,43.572-39.488,87.144-59.233,130.716c-0.514,1.134-1.028,2.269-1.542,3.403c-1.584,3.495,3.586,6.548,5.181,3.028
				c19.745-43.572,39.489-87.144,59.234-130.716c0.514-1.134,1.027-2.269,1.542-3.403c-0.864,0.495-1.728,0.991-2.591,1.486
				c40.945,0,81.892,0,122.837,0C424.876,28.643,424.876,22.643,421.007,22.643L421.007,22.643z"/>
		</g>
	</g>
	<g>
		<g>
			<path fill="#FFFFFF" d="M453.106,192.773c-37.664,0-75.328,0-112.992,0c-3.869,0-3.869,6,0,6c37.664,0,75.328,0,112.992,0
				C456.976,198.773,456.976,192.773,453.106,192.773L453.106,192.773z"/>
		</g>
	</g>
</g>
</svg>
