<?xml version="1.0" encoding="utf-8"?>
<!-- Generator: Adobe Illustrator 16.0.0, SVG Export Plug-In . SVG Version: 6.00 Build 0)  -->
<!DOCTYPE svg PUBLIC "-//W3C//DTD SVG 1.1//EN" "http://www.w3.org/Graphics/SVG/1.1/DTD/svg11.dtd">
<svg version="1.1" id="藥膏" xmlns="http://www.w3.org/2000/svg" xmlns:xlink="http://www.w3.org/1999/xlink" x="0px" y="0px"
	 width="480px" height="480px" viewBox="0 0 480 480" enable-background="new 0 0 480 480" xml:space="preserve">
<g>
	<linearGradient id="SVGID_1_" gradientUnits="userSpaceOnUse" x1="78.9355" y1="235.0205" x2="412.0523" y2="235.0205">
		<stop  offset="0" style="stop-color:#CAFFFF"/>
		<stop  offset="1" style="stop-color:#C8C8C8;stop-opacity:0"/>
	</linearGradient>
	<path fill="url(#SVGID_1_)" d="M368.369,46.621c-23.936,23.935-47.871,47.87-71.806,71.805
		c-46.709,46.708-93.417,93.418-140.127,140.127c-31.839,31.84-63.68,63.681-95.52,95.521c-1.274,1.273-2.548,2.548-3.823,3.823
		c-17.851,17.85-17.851,47.673,0,65.523c17.851,17.852,47.675,17.852,65.525,0c23.935-23.935,47.87-47.869,71.805-71.805
		c46.708-46.709,93.418-93.418,140.126-140.127c31.84-31.84,63.681-63.68,95.521-95.52c1.273-1.274,2.548-2.548,3.822-3.823
		c17.852-17.851,17.852-47.674,0-65.525C416.043,28.77,386.22,28.77,368.369,46.621L368.369,46.621z"/>
</g>
<g>
	<linearGradient id="SVGID_2_" gradientUnits="userSpaceOnUse" x1="34.604" y1="153.9375" x2="247.8845" y2="153.9375">
		<stop  offset="0" style="stop-color:#C8C8C8;stop-opacity:0"/>
		<stop  offset="1" style="stop-color:#CAFFFF"/>
	</linearGradient>
	<path fill="url(#SVGID_2_)" d="M218.762,32.736c-31.908,31.908-63.816,63.817-95.725,95.725
		c-34.215,34.215-68.43,68.43-102.645,102.645c-0.116,0.117-0.232,0.233-0.349,0.349c-11.9,11.9-11.9,31.783,0,43.683
		c11.9,11.901,31.783,11.901,43.684,0c31.908-31.908,63.816-63.816,95.725-95.724c34.214-34.215,68.429-68.43,102.644-102.645
		c0.117-0.117,0.233-0.233,0.35-0.349c11.9-11.9,11.9-31.783,0-43.684S230.662,20.836,218.762,32.736L218.762,32.736z"/>
</g>
<g>
	<linearGradient id="SVGID_3_" gradientUnits="userSpaceOnUse" x1="255.9746" y1="342.874" x2="447.6322" y2="342.874">
		<stop  offset="0" style="stop-color:#C8C8C8;stop-opacity:0"/>
		<stop  offset="1" style="stop-color:#CAFFFF"/>
	</linearGradient>
	<path fill="url(#SVGID_3_)" d="M418.51,232.484c-33.748,33.75-67.497,67.498-101.245,101.246
		c-25.284,25.283-50.567,50.566-75.851,75.851c-11.901,11.9-11.901,31.783,0,43.684c11.9,11.9,31.782,11.9,43.683,0
		c33.749-33.749,67.497-67.497,101.245-101.246c25.284-25.283,50.567-50.566,75.851-75.851c11.901-11.899,11.901-31.782,0-43.683
		C450.293,220.584,430.41,220.584,418.51,232.484L418.51,232.484z"/>
</g>
<path fill="#FFFFFF" stroke="#969696" stroke-width="3" stroke-miterlimit="10" d="M117.369,87.64
	c0.919,0.944,0.899,2.455-0.045,3.374l-45.348,44.146c-0.943,0.919-2.455,0.898-3.374-0.047l-21.803-22.397
	c-0.919-0.944-0.899-2.456,0.044-3.374l45.348-44.144c0.944-0.918,2.454-0.898,3.375,0.046L117.369,87.64z"/>
<rect x="183.952" y="91.13" transform="matrix(0.9659 -0.2588 0.2588 0.9659 -22.5886 58.4247)" fill="#FFFFFF" stroke="#969696" stroke-width="3" stroke-miterlimit="10" width="53.297" height="47.745"/>
<path fill="#FFFFFF" stroke="#969696" stroke-width="3" stroke-miterlimit="10" d="M370.203,402.281
	C360.395,365.68,252.17,115.935,252.17,115.935c-1.725-6.434-80.258,14.608-78.534,21.043c0,0,31.108,270.251,40.916,306.851
	C217.473,454.735,373.124,413.188,370.203,402.281z"/>
<g>
	<g>
		<path fill="#969696" d="M208.919,420.776c1.715,5.135,13.63,2.584,17.19,2.155c13.361-1.609,26.582-4.573,39.668-7.653
			c28.574-6.727,57.864-14.206,84.883-25.876c3.208-1.386,13.71-4.922,12.674-9.991c-0.387-1.896-3.278-1.091-2.893,0.797
			c0.125,0.611-3.93,3.014-5.086,3.642c-4.429,2.405-9.166,4.256-13.866,6.049c-13.779,5.256-27.951,9.522-42.131,13.548
			c-15.554,4.415-31.242,8.396-47.048,11.799c-11.351,2.444-23.07,5.078-34.723,5.379c-1.207,0.031-5.578-0.054-5.776-0.645
			C211.202,418.154,208.304,418.937,208.919,420.776L208.919,420.776z"/>
	</g>
</g>
<g>
	<g>
		<path fill="#969696" d="M52.188,105.097c7.913,8.129,15.826,16.258,23.739,24.387c1.351,1.388,3.471-0.735,2.121-2.121
			c-7.913-8.129-15.826-16.258-23.739-24.387C52.958,101.587,50.838,103.71,52.188,105.097L52.188,105.097z"/>
	</g>
</g>
<g>
	<g>
		<path fill="#969696" d="M58.881,98.582c7.913,8.128,15.826,16.257,23.739,24.385c1.351,1.388,3.471-0.735,2.121-2.121
			c-7.913-8.128-15.826-16.257-23.739-24.385C59.651,95.073,57.532,97.196,58.881,98.582L58.881,98.582z"/>
	</g>
</g>
<g>
	<g>
		<path fill="#969696" d="M65.576,92.065c7.913,8.129,15.825,16.258,23.738,24.387c1.351,1.388,3.471-0.735,2.121-2.121
			c-7.913-8.129-15.825-16.258-23.738-24.387C66.346,88.556,64.226,90.679,65.576,92.065L65.576,92.065z"/>
	</g>
</g>
<g>
	<g>
		<path fill="#969696" d="M72.269,85.55c7.913,8.128,15.826,16.257,23.739,24.385c1.351,1.388,3.471-0.735,2.121-2.121
			c-7.913-8.128-15.826-16.257-23.739-24.385C73.039,82.041,70.919,84.164,72.269,85.55L72.269,85.55z"/>
	</g>
</g>
<g>
	<g>
		<path fill="#969696" d="M78.962,79.033c7.913,8.129,15.826,16.259,23.739,24.388c1.351,1.388,3.471-0.735,2.121-2.121
			C96.91,93.17,88.997,85.041,81.083,76.912C79.732,75.523,77.613,77.646,78.962,79.033L78.962,79.033z"/>
	</g>
</g>
<g>
	<g>
		<path fill="#969696" d="M85.656,72.518c7.913,8.129,15.826,16.258,23.739,24.387c1.351,1.388,3.471-0.735,2.121-2.121
			c-7.913-8.129-15.826-16.258-23.739-24.387C86.426,69.009,84.306,71.132,85.656,72.518L85.656,72.518z"/>
	</g>
</g>
<g>
	<path fill="#969696" d="M210.365,420.378c2.847,10.618,154.37-29.947,151.522-40.568l8.379,22.708
		c2.922,10.908-152.698,52.572-155.62,41.666L210.365,420.378z"/>
</g>
<path fill="#CAFFFF" stroke="#969696" stroke-width="3" stroke-miterlimit="10" d="M194.891,312.906l126.833-33.985
	c-13.854-33.072-28.687-68.181-41.016-97.064l-98.828,26.48C185.645,239.515,190.353,277.338,194.891,312.906z"/>
<g>
	<g>
		<path fill="#969696" d="M176.208,94.733c0.013-11.582,0.069-23.636,5.158-34.305c5.931-12.433,19.104-19.121,31.677-22.965
			c13.444-4.11,27.959-5.01,41.943-5.189c13.304-0.171,26.4,1.956,38.774,6.884c12.938,5.153,25.188,13.162,33.633,24.33
			c7.397,9.784,12.037,21.43,16.465,32.763c4.211,10.778,8.053,22.067,14.346,31.854c6.875,10.69,17.593,18.602,27.734,25.969
			c22.382,16.259,48.671,28.462,64.647,52c12.244,18.039,16.914,45.702,5.348,65.25c-14.644,24.748-49.543,16.26-70.122,5.282
			c-24.047-12.829-43.463-34.27-58.794-56.429c-23.069-33.342-38.031-71.084-49.919-109.597c-2.977-9.646-6.273-19.18-10.473-28.368
			c-3.432-7.508-7.111-15.691-15.229-18.881c-5.355-2.104-13.665-1.631-18.257,2.095c-5.104,4.142-5.893,10.761-5.876,16.95
			c0.005,1.935,3.005,1.935,3,0c-0.014-5.085,0.385-10.464,4.23-14.207c4.634-4.509,13.975-3.511,19.022-0.488
			c5.621,3.366,8.654,11.966,11.246,17.636c3.354,7.338,5.937,15.025,8.391,22.702c8.123,25.404,16.541,50.195,28.341,74.192
			c11.618,23.628,25.809,46.321,43.794,65.645c17.687,19.003,39.658,35.928,65.586,41.229c19.874,4.063,42.006-1.416,50.357-21.563
			c7.991-19.277,4.025-42.652-6.307-60.204c-13.466-22.874-38.119-36.086-59.509-50.329c-11.515-7.666-23.168-15.998-31.983-26.773
			c-8.08-9.876-12.119-23.038-16.682-34.765c-7.134-18.339-15.323-36.788-32.065-48.287c-18.404-12.64-39.171-18.157-61.37-17.872
			c-21.13,0.271-46.169,2.458-63.343,16.149c-15.438,12.306-16.743,30.899-16.764,49.289
			C173.205,96.668,176.205,96.668,176.208,94.733L176.208,94.733z"/>
	</g>
</g>
<path fill="#CAFFFF" stroke="#969696" stroke-width="3" stroke-miterlimit="10" d="M174.708,94.733
	c0-20.749,0.889-38.772,20.08-50.84c16.151-10.156,36.507-12.259,55.134-12.999c25.715-1.021,45.267,4.131,66.875,19.565
	c22.812,17.63,27.509,48.891,40.19,72.691c6.165,11.569,16.774,20.02,27.114,27.729c21.021,15.67,45.944,27.301,62.901,47.861
	c6.267,7.599,11.091,16.282,13.941,25.727c7.207,26.771,2.059,58.688-28.83,63.837c-28.829,4.118-58.688-14.415-78.252-33.978
	c-33.978-31.919-58.688-83.4-73.104-126.645c-5.847-18.709-10.91-38.56-21.146-55.518c-3.828-6.343-9.127-8.682-16.53-8.369
	c-11.553,0.489-14.48,8.042-14.32,18.583"/>
<ellipse transform="matrix(0.9659 -0.2588 0.2588 0.9659 -16.1517 55.5508)" fill="#969696" stroke="#FFFFFF" stroke-width="2" stroke-miterlimit="10" cx="202.898" cy="89.117" rx="29.795" ry="8.276"/>
<g>
	<g>
		<path fill="#FFFFFF" d="M212.289,44.498c-16.375,0.705-27.695,18.634-27.241,33.761c0.058,1.93,3.058,1.936,3,0
			c-0.402-13.398,9.499-30.127,24.241-30.761C214.216,47.415,214.224,44.415,212.289,44.498L212.289,44.498z"/>
	</g>
</g>
<path fill="#FFFFFF" d="M389.476,175.921c6.671,4.417,13.927,8.123,20.733,12.023c6.961,3.99,13.726,8.342,19.514,13.946
	c10.416,10.086,20.486,23.44,22.289,38.375c0.493,4.085,0.067,7.522-4.378,9.012c-4.648,1.558-7.393-1.234-9.581-4.831
	c-3.968-6.522-4.941-13.89-9.767-19.992c-2.566-3.247-5.29-6.237-8.126-9.254c-8.811-9.373-19.783-13.728-30.26-20.696
	c-7.941-5.282-16.496-11.391-23.015-18.337c-4.527-4.825-22.139-20.687-15.193-28.344c2.792-3.078,8.181,1.501,10.455,3.193
	c6.065,4.513,10.72,10.488,16.007,15.822C381.553,170.268,385.405,173.227,389.476,175.921z"/>
<g>
	<g>
		<g>
			<path fill="#969696" d="M82.041,212.067c13.729,0,27.457,0,41.185,0c1.935,0,1.935-3,0-3c-13.729,0-27.457,0-41.185,0
				C80.106,209.067,80.106,212.067,82.041,212.067L82.041,212.067z"/>
		</g>
	</g>
	<g>
		<g>
			<path fill="#969696" d="M87.012,197.066c9.707,9.708,19.415,19.415,29.122,29.122c1.369,1.369,3.49-0.752,2.121-2.121
				c-9.707-9.708-19.415-19.415-29.122-29.122C87.764,193.576,85.643,195.697,87.012,197.066L87.012,197.066z"/>
		</g>
	</g>
	<g>
		<g>
			<path fill="#969696" d="M116.133,194.945c-9.708,9.707-19.415,19.415-29.122,29.122c-1.369,1.369,0.752,3.49,2.121,2.121
				c9.708-9.707,19.415-19.415,29.122-29.122C119.623,195.697,117.502,193.576,116.133,194.945L116.133,194.945z"/>
		</g>
	</g>
	<g>
		<g>
			<path fill="#969696" d="M100.619,190.489c0,13.729,0,27.457,0,41.186c0,1.935,3,1.935,3,0c0-13.729,0-27.457,0-41.186
				C103.619,188.554,100.619,188.554,100.619,190.489L100.619,190.489z"/>
		</g>
	</g>
</g>
<g>
	<g>
		<g>
			<path fill="#969696" d="M104.031,361.526c9.364,0,18.729,0,28.093,0c1.935,0,1.935-3,0-3c-9.364,0-18.729,0-28.093,0
				C102.097,358.526,102.097,361.526,104.031,361.526L104.031,361.526z"/>
		</g>
	</g>
	<g>
		<g>
			<path fill="#969696" d="M107.084,351.154c6.622,6.622,13.244,13.243,19.867,19.865c1.369,1.369,3.49-0.752,2.121-2.121
				c-6.622-6.622-13.244-13.243-19.867-19.865C107.836,347.664,105.715,349.785,107.084,351.154L107.084,351.154z"/>
		</g>
	</g>
	<g>
		<g>
			<path fill="#969696" d="M126.949,349.033c-6.622,6.622-13.243,13.243-19.865,19.865c-1.369,1.369,0.752,3.49,2.121,2.121
				c6.622-6.622,13.243-13.243,19.865-19.865C130.439,349.785,128.318,347.664,126.949,349.033L126.949,349.033z"/>
		</g>
	</g>
	<g>
		<g>
			<path fill="#969696" d="M116.227,346.331c0,9.364,0,18.729,0,28.094c0,1.935,3,1.935,3,0c0-9.364,0-18.729,0-28.094
				C119.227,344.396,116.227,344.396,116.227,346.331L116.227,346.331z"/>
		</g>
	</g>
</g>
<g>
	<g>
		<g>
			<path fill="#969696" d="M361.438,309.016c9.364,0,18.729,0,28.093,0c1.935,0,1.935-3,0-3c-9.364,0-18.729,0-28.093,0
				C359.504,306.016,359.504,309.016,361.438,309.016L361.438,309.016z"/>
		</g>
	</g>
	<g>
		<g>
			<path fill="#969696" d="M364.491,298.643c6.622,6.622,13.244,13.244,19.866,19.866c1.369,1.369,3.49-0.752,2.121-2.121
				c-6.622-6.622-13.244-13.244-19.866-19.866C365.243,295.152,363.122,297.273,364.491,298.643L364.491,298.643z"/>
		</g>
	</g>
	<g>
		<g>
			<path fill="#969696" d="M384.355,296.521c-6.621,6.622-13.243,13.244-19.864,19.866c-1.369,1.369,0.752,3.49,2.121,2.121
				c6.621-6.622,13.243-13.244,19.864-19.866C387.846,297.273,385.725,295.152,384.355,296.521L384.355,296.521z"/>
		</g>
	</g>
	<g>
		<g>
			<path fill="#969696" d="M373.634,293.819c0,9.364,0,18.729,0,28.094c0,1.935,3,1.935,3,0c0-9.364,0-18.729,0-28.094
				C376.634,291.885,373.634,291.885,373.634,293.819L373.634,293.819z"/>
		</g>
	</g>
</g>
<g>
	<g>
		<g>
			<path fill="#969696" d="M175.438,386.324c7.063,0,14.126,0,21.189,0c1.935,0,1.935-3,0-3c-7.063,0-14.126,0-21.189,0
				C173.504,383.324,173.504,386.324,175.438,386.324L175.438,386.324z"/>
		</g>
	</g>
	<g>
		<g>
			<path fill="#969696" d="M177.481,378.392c4.995,4.995,9.989,9.989,14.984,14.984c1.369,1.369,3.49-0.752,2.121-2.121
				c-4.995-4.995-9.989-9.989-14.984-14.984C178.233,374.901,176.112,377.022,177.481,378.392L177.481,378.392z"/>
		</g>
	</g>
	<g>
		<g>
			<path fill="#969696" d="M192.464,376.271c-4.995,4.995-9.989,9.989-14.983,14.984c-1.369,1.369,0.752,3.49,2.121,2.121
				c4.995-4.995,9.989-9.989,14.983-14.984C195.954,377.022,193.833,374.901,192.464,376.271L192.464,376.271z"/>
		</g>
	</g>
	<g>
		<g>
			<path fill="#969696" d="M184.269,374.494c0,7.063,0,14.126,0,21.189c0,1.935,3,1.935,3,0c0-7.063,0-14.126,0-21.189
				C187.269,372.56,184.269,372.56,184.269,374.494L184.269,374.494z"/>
		</g>
	</g>
</g>
<g>
	<g>
		<g>
			<path fill="#969696" d="M370.038,104.206c7.063,0,14.126,0,21.189,0c1.935,0,1.935-3,0-3c-7.063,0-14.126,0-21.189,0
				C368.104,101.206,368.104,104.206,370.038,104.206L370.038,104.206z"/>
		</g>
	</g>
	<g>
		<g>
			<path fill="#969696" d="M372.08,96.274c4.995,4.995,9.989,9.989,14.984,14.984c1.369,1.369,3.49-0.752,2.121-2.121
				c-4.995-4.995-9.989-9.989-14.984-14.984C372.832,92.784,370.711,94.905,372.08,96.274L372.08,96.274z"/>
		</g>
	</g>
	<g>
		<g>
			<path fill="#969696" d="M387.063,94.153c-4.994,4.995-9.989,9.989-14.983,14.984c-1.369,1.369,0.752,3.49,2.121,2.121
				c4.994-4.995,9.989-9.989,14.983-14.984C390.554,94.905,388.433,92.784,387.063,94.153L387.063,94.153z"/>
		</g>
	</g>
	<g>
		<g>
			<path fill="#969696" d="M378.868,92.375c0,7.063,0,14.126,0,21.19c0,1.935,3,1.935,3,0c0-7.063,0-14.126,0-21.19
				C381.868,90.441,378.868,90.441,378.868,92.375L378.868,92.375z"/>
		</g>
	</g>
</g>
<g>
	<g>
		<g>
			<path fill="#969696" d="M132.194,134.065c7.063,0,14.126,0,21.19,0c1.935,0,1.935-3,0-3c-7.063,0-14.126,0-21.19,0
				C130.259,131.065,130.259,134.065,132.194,134.065L132.194,134.065z"/>
		</g>
	</g>
	<g>
		<g>
			<path fill="#969696" d="M134.236,126.133c4.995,4.995,9.989,9.989,14.984,14.984c1.369,1.369,3.49-0.752,2.121-2.121
				c-4.995-4.995-9.989-9.989-14.984-14.984C134.988,122.643,132.867,124.764,134.236,126.133L134.236,126.133z"/>
		</g>
	</g>
	<g>
		<g>
			<path fill="#969696" d="M149.219,124.012c-4.995,4.995-9.989,9.989-14.983,14.984c-1.369,1.369,0.752,3.49,2.121,2.121
				c4.995-4.995,9.989-9.989,14.983-14.984C152.709,124.764,150.588,122.643,149.219,124.012L149.219,124.012z"/>
		</g>
	</g>
	<g>
		<g>
			<path fill="#969696" d="M141.024,122.235c0,7.063,0,14.126,0,21.19c0,1.935,3,1.935,3,0c0-7.063,0-14.126,0-21.19
				C144.024,120.3,141.024,120.3,141.024,122.235L141.024,122.235z"/>
		</g>
	</g>
</g>
</svg>
