<?xml version="1.0" encoding="utf-8"?>
<!-- Generator: Adobe Illustrator 16.0.0, SVG Export Plug-In . SVG Version: 6.00 Build 0)  -->
<!DOCTYPE svg PUBLIC "-//W3C//DTD SVG 1.1//EN" "http://www.w3.org/Graphics/SVG/1.1/DTD/svg11.dtd">
<svg version="1.1" id="小毛巾" xmlns="http://www.w3.org/2000/svg" xmlns:xlink="http://www.w3.org/1999/xlink" x="0px" y="0px"
	 width="480px" height="480px" viewBox="0 0 480 480" enable-background="new 0 0 480 480" xml:space="preserve">
<g>
	<path fill="#FFF4A9" d="M415,297v173.5c-15,0-15.829-13.569-31.772-13.569c-15.942,0-15.717,13.569-31.661,13.569
		c-15.945,0-15.836-13.569-31.781-13.569C303.838,456.931,304,470.5,288,470.5V54.731C288,30.285,307.963,11,332.41,11h67.889
		c26.313,0,47.596,21.048,47.596,47.363l-0.123,224.2c-15.945,0-15.967,13.518-31.913,13.518c-15.945,0-15.987-13.579-31.934-13.579
		c-15.942,0-15.977,13.596-31.921,13.596c-15.941,0-16.004-13.499-32.004-13.499V55"/>
</g>
<path fill="#FFFFFF" d="M320,244.825c16,0,16.113,10.814,32.199,10.814s16.049-10.814,32.132-10.814
	c16.088,0,15.816,10.814,31.902,10.814c16.087,0,16.767-10.814,31.767-10.814v-33.523c-15,0-15.663,10.813-31.75,10.813
	s-15.74-10.813-31.828-10.813c-16.084,0-16.107,10.813-32.193,10.813c-16.085,0-16.229-10.813-32.229-10.813V244.825z"/>
<g>
	<linearGradient id="SVGID_1_" gradientUnits="userSpaceOnUse" x1="352.0703" y1="55" x2="352.0703" y2="470.5005">
		<stop  offset="0" style="stop-color:#FFF4A9"/>
		<stop  offset="1" style="stop-color:#CDC277"/>
	</linearGradient>
	<path fill="url(#SVGID_1_)" d="M415,297v173.5c-15,0-15.829-13.569-31.772-13.569c-15.942,0-15.717,13.569-31.661,13.569
		c-15.945,0-15.836-13.569-31.781-13.569C303.838,456.931,304,470.5,288,470.5V55h32v227.599c16,0,16.063,13.483,32.004,13.483
		c15.944,0,16.089-13.611,32.031-13.611c15.946,0,16.16,13.71,32.105,13.71"/>
</g>
<g>
	<g>
		<path fill="#CDC277" d="M413.047,296.676c0,49.926,0,99.852,0,149.777c0,8.016,0,16.031,0,24.047c0.5-0.5,1-1,1.5-1.5
			c-7.129-0.204-11.356-4.033-16.634-8.231c-4.42-3.516-9.279-5.187-14.912-5.338c-13.031-0.35-18.834,13.228-31.548,13.569
			c-7.228,0.194-11.912-3.986-17.153-8.231c-4.353-3.525-9.149-5.188-14.737-5.338c-13.092-0.352-19.107,13.226-31.894,13.569
			c0.5,0.5,1,1,1.5,1.5c0-33.585,0-67.17,0-100.755c0-64.249,0-128.499,0-192.749c0-40.156,0-80.312,0-120.468
			c0-13.615,5.239-25.772,15.696-34.665C317.032,11.518,331.744,12,346.574,12c15.204,0,30.408,0,45.612,0
			c4.094,0,8.21-0.115,12.296,0.181c12.089,0.875,23.203,7.169,31.073,16.198c14.185,16.274,10.833,40.199,10.822,60.224
			c-0.017,30.383-0.033,60.766-0.05,91.149c-0.02,34.229-0.038,68.458-0.057,102.687c0.5-0.5,1-1,1.5-1.5
			c-5.595,0.15-10.385,1.813-14.745,5.342c-5.445,4.408-9.794,8.04-17.168,8.238c-7.237,0.194-11.923-3.977-17.181-8.218
			c-4.366-3.521-9.158-5.18-14.753-5.33c-13.146-0.353-19.292,13.266-32.142,13.611c-7.236,0.195-11.93-3.976-17.221-8.176
			c-4.451-3.534-9.34-5.159-15.004-5.308c0.5,0.5,1,1,1.5,1.5c0-47.573,0-95.147,0-142.72c0-28.426,0-56.851,0-85.277
			c0-1.935-3-1.935-3,0c0,47.573,0,95.147,0,142.72c0,28.426,0,56.851,0,85.277c0,0.834,0.683,1.479,1.5,1.5
			c7.457,0.195,11.919,3.743,17.468,8.176c4.381,3.501,9.161,5.158,14.757,5.308c13.146,0.351,19.292-13.266,32.142-13.611
			c7.237-0.195,11.923,3.977,17.181,8.218c4.366,3.521,9.158,5.18,14.753,5.33c13.097,0.352,19.119-13.236,31.913-13.58
			c0.817-0.022,1.5-0.666,1.5-1.5c0.026-47.75,0.053-95.499,0.078-143.249c0.014-24.519,0.027-49.039,0.041-73.558
			c0.004-8.202-0.107-16.042-2.821-23.983C439.931,22.227,420.651,9,400.279,9c-22.616,0-45.233,0-67.85,0
			c-20.918,0-39.303,14.388-44.825,34.436c-1.489,5.408-1.436,10.912-1.436,16.444c0,44.333,0,88.667,0,133
			c0,63.772,0,127.545,0,191.317c0,28.768,0,57.535,0,86.303c0,0.801,0.683,1.521,1.5,1.5c5.677-0.152,10.271-1.886,14.738-5.338
			c5.57-4.305,9.688-8.031,17.155-8.231c7.228-0.194,11.912,3.986,17.153,8.231c4.353,3.525,9.149,5.188,14.737,5.338
			c13.031,0.35,18.835-13.228,31.548-13.569c7.257-0.195,12.094,3.952,17.37,8.231c4.209,3.413,8.75,5.183,14.176,5.338
			c0.817,0.023,1.5-0.7,1.5-1.5c0-49.926,0-99.852,0-149.777c0-8.016,0-16.031,0-24.047
			C416.047,294.741,413.047,294.741,413.047,296.676L413.047,296.676z"/>
	</g>
</g>
<g>
	<path fill="#77D6FF" d="M286,297v173.5c-15,0-15.673-13.569-31.615-13.569c-15.943,0-15.639,13.569-31.583,13.569
		c-15.945,0-15.955-13.569-31.9-13.569C174.955,456.931,175,470.5,159,470.5V54.731C159,30.285,179.277,11,203.725,11h67.888
		c26.313,0,47.597,21.048,47.597,47.363l-0.124,224.2c-15.945,0-15.966,13.518-31.913,13.518c-15.945,0-15.987-13.579-31.934-13.579
		c-15.941,0-16.134,13.596-32.077,13.596c-15.942,0-16.161-13.499-32.161-13.499V55"/>
</g>
<path fill="#FFFFFF" d="M191,244.825c16,0,16.271,10.814,32.355,10.814c16.086,0,16.129-10.814,32.212-10.814
	c16.087,0,16.196,10.814,32.284,10.814c16.087,0,16.148-10.814,32.148-10.814v-33.523c-16,0-16.008,10.813-32.094,10.813
	c-16.088,0-15.912-10.813-32-10.813c-16.082,0-16.35,10.813-32.436,10.813c-16.085,0-16.471-10.813-32.471-10.813V244.825z"/>
<g>
	<linearGradient id="SVGID_2_" gradientUnits="userSpaceOnUse" x1="223.1284" y1="55" x2="223.1284" y2="470.5005">
		<stop  offset="0" style="stop-color:#77D6FF"/>
		<stop  offset="1" style="stop-color:#4AA4C7"/>
	</linearGradient>
	<path fill="url(#SVGID_2_)" d="M286,297v173.5c-15,0-15.673-13.569-31.615-13.569c-15.943,0-15.639,13.569-31.583,13.569
		c-15.945,0-15.955-13.569-31.9-13.569C174.955,456.931,175,470.5,159,470.5V55h32v227.599c16,0,16.219,13.483,32.161,13.483
		c15.943,0,16.167-13.611,32.108-13.611c15.947,0,16.042,13.71,31.987,13.71"/>
</g>
<g>
	<g>
		<path fill="#4AA4C7" d="M284.361,296.676c0,49.926,0,99.852,0,149.777c0,8.016,0,16.031,0,24.047c0.5-0.5,1-1,1.5-1.5
			c-7.129-0.204-11.357-4.033-16.635-8.231c-4.419-3.516-9.278-5.187-14.911-5.338c-13.031-0.35-18.835,13.228-31.549,13.569
			c-7.228,0.194-11.913-3.986-17.153-8.231c-4.353-3.525-9.149-5.188-14.737-5.338c-13.091-0.352-19.106,13.226-31.892,13.569
			c0.5,0.5,1,1,1.5,1.5c0-33.585,0-67.17,0-100.755c0-64.249,0-128.499,0-192.749c0-40.156,0-80.312,0-120.468
			c0-13.615,5.239-25.772,15.696-34.665C188.347,11.518,203.058,12,217.888,12c15.204,0,30.408,0,45.612,0
			c4.094,0,8.21-0.115,12.296,0.181c12.089,0.875,23.203,7.169,31.073,16.198c14.186,16.274,10.834,40.198,10.823,60.224
			c-0.017,30.383-0.034,60.766-0.051,91.149c-0.019,34.229-0.038,68.458-0.057,102.687c0.5-0.5,1-1,1.5-1.5
			c-5.595,0.15-10.385,1.813-14.745,5.342c-5.445,4.408-9.794,8.04-17.168,8.238c-7.237,0.194-11.923-3.977-17.181-8.218
			c-4.366-3.521-9.158-5.18-14.753-5.33c-13.146-0.353-19.292,13.266-32.141,13.611c-7.236,0.195-11.929-3.976-17.221-8.176
			c-4.451-3.534-9.34-5.159-15.004-5.308c0.5,0.5,1,1,1.5,1.5c0-47.573,0-95.147,0-142.72c0-28.426,0-56.851,0-85.277
			c0-1.935-3-1.935-3,0c0,47.573,0,95.147,0,142.72c0,28.426,0,56.851,0,85.277c0,0.834,0.683,1.479,1.5,1.5
			c7.457,0.195,11.919,3.743,17.467,8.176c4.381,3.501,9.161,5.158,14.757,5.308c13.146,0.351,19.292-13.266,32.141-13.611
			c7.237-0.195,11.924,3.977,17.181,8.218c4.366,3.521,9.158,5.18,14.753,5.33c13.097,0.352,19.119-13.236,31.913-13.58
			c0.817-0.022,1.5-0.666,1.5-1.5c0.026-47.75,0.053-95.499,0.079-143.249c0.014-24.519,0.027-49.039,0.041-73.558
			c0.004-8.202-0.107-16.042-2.821-23.983C311.245,22.227,291.965,9,271.593,9c-22.616,0-45.232,0-67.849,0
			c-20.918,0-39.302,14.388-44.825,34.436c-1.49,5.408-1.436,10.912-1.436,16.444c0,44.333,0,88.667,0,133
			c0,63.772,0,127.545,0,191.317c0,28.768,0,57.535,0,86.303c0,0.801,0.682,1.521,1.5,1.5c5.677-0.152,10.27-1.886,14.738-5.338
			c5.57-4.304,9.688-8.031,17.154-8.231c7.228-0.194,11.913,3.986,17.153,8.231c4.353,3.525,9.149,5.188,14.737,5.338
			c13.032,0.35,18.835-13.228,31.549-13.569c7.257-0.195,12.094,3.952,17.37,8.231c4.208,3.413,8.75,5.183,14.176,5.338
			c0.817,0.023,1.5-0.7,1.5-1.5c0-49.926,0-99.852,0-149.777c0-8.016,0-16.031,0-24.047
			C287.361,294.741,284.361,294.741,284.361,296.676L284.361,296.676z"/>
	</g>
</g>
<g>
	<path fill="#83FFDD" d="M159,297v173.5c-15,0-15.434-13.569-31.377-13.569S112.103,470.5,96.159,470.5
		c-15.945,0-16.133-13.569-32.079-13.569S48,470.5,32,470.5V54.731C32,30.285,52.753,11,77.201,11h67.888
		c26.313,0,47.596,21.048,47.596,47.363l-0.124,224.2c-15.945,0-15.966,13.518-31.913,13.518c-15.945,0-15.987-13.579-31.934-13.579
		c-15.942,0-16.372,13.596-32.316,13.596C80.457,296.098,81,282.599,64,282.599V55"/>
</g>
<path fill="#FFFFFF" d="M65,244.825c16,0,16.01,10.814,32.094,10.814c16.086,0,15.997-10.814,32.081-10.814
	c16.087,0,15.393,10.814,31.48,10.814c16.086,0,16.345-10.814,31.345-10.814v-33.523c-15,0-15.269,10.813-31.355,10.813
	c-16.087,0-15.542-10.813-31.63-10.813c-16.083,0-15.904,10.813-31.989,10.813S81,211.302,65,211.302V244.825z"/>
<g>
	<linearGradient id="SVGID_3_" gradientUnits="userSpaceOnUse" x1="96.2183" y1="55" x2="96.2182" y2="470.5005">
		<stop  offset="0" style="stop-color:#82FFDD"/>
		<stop  offset="1" style="stop-color:#54B3A1"/>
	</linearGradient>
	<path fill="url(#SVGID_3_)" d="M159,297v173.5c-15,0-15.434-13.569-31.377-13.569S112.103,470.5,96.159,470.5
		c-15.945,0-16.133-13.569-32.079-13.569S48,470.5,32,470.5V55h32v227.599c17,0,16.457,13.483,32.399,13.483
		c15.944,0,16.286-13.611,32.229-13.611c15.946,0,15.863,13.71,31.809,13.71"/>
</g>
<g>
	<g>
		<path fill="#54B3A1" d="M157.837,296.676c0,49.926,0,99.852,0,149.777c0,8.016,0,16.031,0,24.047c0.5-0.5,1-1,1.5-1.5
			c-7.129-0.204-11.357-4.033-16.634-8.231c-4.419-3.516-9.279-5.187-14.912-5.338c-13.031-0.35-18.834,13.228-31.548,13.569
			c-7.228,0.194-11.913-3.986-17.153-8.231c-4.353-3.525-9.149-5.188-14.738-5.338C51.261,455.079,45.246,468.656,32.46,469
			c0.5,0.5,1,1,1.5,1.5c0-33.585,0-67.17,0-100.755c0-64.249,0-128.499,0-192.749c0-40.156,0-80.312,0-120.468
			c0-13.615,5.239-25.772,15.696-34.665C61.823,11.518,76.534,12,91.364,12c15.204,0,30.408,0,45.612,0
			c4.094,0,8.21-0.115,12.295,0.181c12.09,0.875,23.204,7.169,31.074,16.198c14.185,16.274,10.833,40.198,10.823,60.224
			c-0.017,30.383-0.034,60.766-0.05,91.149c-0.019,34.229-0.038,68.458-0.057,102.687c0.5-0.5,1-1,1.5-1.5
			c-5.595,0.15-10.385,1.813-14.745,5.342c-5.445,4.408-9.794,8.04-17.168,8.238c-7.237,0.194-11.922-3.977-17.18-8.218
			c-4.366-3.521-9.159-5.18-14.753-5.33c-13.146-0.353-19.292,13.266-32.141,13.611c-7.236,0.195-11.929-3.976-17.22-8.176
			c-4.451-3.534-9.34-5.159-15.004-5.308c0.5,0.5,1,1,1.5,1.5c0-47.573,0-95.147,0-142.72c0-28.426,0-56.851,0-85.277
			c0-1.935-3-1.935-3,0c0,47.573,0,95.147,0,142.72c0,28.426,0,56.851,0,85.277c0,0.834,0.683,1.479,1.5,1.5
			c7.457,0.195,11.919,3.743,17.467,8.176c4.381,3.501,9.161,5.158,14.757,5.308c13.146,0.351,19.292-13.266,32.141-13.611
			c7.237-0.195,11.923,3.977,17.181,8.218c4.366,3.521,9.158,5.18,14.752,5.33c13.097,0.352,19.119-13.236,31.913-13.58
			c0.817-0.022,1.5-0.666,1.5-1.5c0.026-47.75,0.053-95.499,0.079-143.249c0.013-24.519,0.027-49.039,0.041-73.558
			c0.004-8.202-0.108-16.042-2.822-23.983C184.721,22.227,165.441,9,145.069,9C122.453,9,99.836,9,77.22,9
			C56.302,9,37.918,23.388,32.396,43.436c-1.49,5.408-1.436,10.912-1.436,16.444c0,44.333,0,88.667,0,133
			c0,63.772,0,127.545,0,191.317c0,28.768,0,57.535,0,86.303c0,0.801,0.682,1.521,1.5,1.5c5.677-0.152,10.27-1.886,14.738-5.338
			c5.569-4.304,9.688-8.031,17.154-8.231c7.228-0.194,11.913,3.986,17.154,8.231c4.353,3.525,9.149,5.188,14.737,5.338
			c13.032,0.35,18.835-13.228,31.548-13.569c7.257-0.195,12.094,3.952,17.37,8.231c4.208,3.413,8.75,5.183,14.176,5.338
			c0.818,0.023,1.5-0.7,1.5-1.5c0-49.926,0-99.852,0-149.777c0-8.016,0-16.031,0-24.047
			C160.837,294.741,157.837,294.741,157.837,296.676L157.837,296.676z"/>
	</g>
</g>
</svg>
