<?xml version="1.0" encoding="utf-8"?>
<!-- Generator: Adobe Illustrator 16.0.0, SVG Export Plug-In . SVG Version: 6.00 Build 0)  -->
<!DOCTYPE svg PUBLIC "-//W3C//DTD SVG 1.1//EN" "http://www.w3.org/Graphics/SVG/1.1/DTD/svg11.dtd">
<svg version="1.1" id="圖層_1" xmlns="http://www.w3.org/2000/svg" xmlns:xlink="http://www.w3.org/1999/xlink" x="0px" y="0px"
	 width="480px" height="480px" viewBox="0 0 480 480" enable-background="new 0 0 480 480" xml:space="preserve">
<g id="小餅乾">
	<g>
		<path fill="#C4FEA9" stroke="#45CC77" stroke-width="3" stroke-miterlimit="10" d="M285.927,331.609
			c-1.192,2.295-4.021,3.186-6.313,1.992L143.75,262.875c-2.292-1.195-3.184-4.021-1.99-6.313L268.279,13.52
			c1.191-2.293,4.019-3.184,6.313-1.99l135.863,70.727c2.292,1.194,3.184,4.021,1.989,6.313L285.927,331.609z"/>
		<circle fill="#45CC77" cx="276.982" cy="40.387" r="4.681"/>
		<circle fill="#45CC77" cx="303.759" cy="54.326" r="4.68"/>
		<circle fill="#45CC77" cx="330.536" cy="68.264" r="4.68"/>
		<circle fill="#45CC77" cx="357.313" cy="82.204" r="4.68"/>
		<circle fill="#45CC77" cx="384.089" cy="96.144" r="4.681"/>
		<circle fill="#45CC77" cx="256.667" cy="79.41" r="4.68"/>
		<circle fill="#45CC77" cx="283.443" cy="93.35" r="4.681"/>
		<circle fill="#45CC77" cx="310.221" cy="107.289" r="4.68"/>
		<circle fill="#45CC77" cx="336.997" cy="121.229" r="4.68"/>
		<circle fill="#45CC77" cx="363.775" cy="135.167" r="4.681"/>
		<circle fill="#45CC77" cx="279.893" cy="67.229" r="4.681"/>
		<circle fill="#45CC77" cx="306.67" cy="81.169" r="4.68"/>
		<circle fill="#45CC77" cx="333.448" cy="95.107" r="4.68"/>
		<circle fill="#45CC77" cx="360.223" cy="109.047" r="4.681"/>
	</g>
	<g>
		<path fill="#C4FEA9" stroke="#45CC77" stroke-width="3" stroke-miterlimit="10" d="M285.927,404.322
			c-1.192,2.293-4.021,3.184-6.313,1.99L143.75,335.586c-2.292-1.193-3.184-4.02-1.99-6.313l126.52-243.042
			c1.191-2.293,4.019-3.184,6.313-1.99l135.863,70.727c2.292,1.193,3.184,4.021,1.989,6.313L285.927,404.322z"/>
		<circle fill="#45CC77" cx="276.982" cy="113.098" r="4.681"/>
		<circle fill="#45CC77" cx="303.759" cy="127.038" r="4.68"/>
		<circle fill="#45CC77" cx="330.536" cy="140.976" r="4.68"/>
		<circle fill="#45CC77" cx="357.313" cy="154.916" r="4.68"/>
		<circle fill="#45CC77" cx="384.089" cy="168.855" r="4.681"/>
		<circle fill="#45CC77" cx="256.667" cy="152.122" r="4.68"/>
		<circle fill="#45CC77" cx="283.443" cy="166.062" r="4.681"/>
		<circle fill="#45CC77" cx="310.221" cy="180" r="4.68"/>
		<circle fill="#45CC77" cx="336.997" cy="193.94" r="4.68"/>
		<circle fill="#45CC77" cx="363.775" cy="207.879" r="4.681"/>
		<circle fill="#45CC77" cx="279.893" cy="139.941" r="4.681"/>
		<circle fill="#45CC77" cx="306.67" cy="153.881" r="4.68"/>
		<circle fill="#45CC77" cx="333.448" cy="167.819" r="4.68"/>
		<circle fill="#45CC77" cx="360.223" cy="181.759" r="4.681"/>
	</g>
	<g>
		<path fill="#C4FEA9" stroke="#45CC77" stroke-width="3" stroke-miterlimit="10" d="M285.927,468.479
			c-1.192,2.293-4.021,3.185-6.313,1.989L143.75,399.743c-2.292-1.194-3.184-4.021-1.99-6.312l126.521-243.044
			c1.191-2.293,4.019-3.184,6.313-1.99l135.863,70.727c2.292,1.193,3.184,4.021,1.989,6.313L285.927,468.479z"/>
		<circle fill="#45CC77" cx="276.982" cy="177.256" r="4.681"/>
		<circle fill="#45CC77" cx="303.759" cy="191.195" r="4.68"/>
		<circle fill="#45CC77" cx="330.536" cy="205.133" r="4.68"/>
		<circle fill="#45CC77" cx="357.313" cy="219.073" r="4.68"/>
		<circle fill="#45CC77" cx="384.089" cy="233.013" r="4.681"/>
		<circle fill="#45CC77" cx="256.667" cy="216.28" r="4.68"/>
		<circle fill="#45CC77" cx="283.443" cy="230.219" r="4.681"/>
		<circle fill="#45CC77" cx="310.221" cy="244.158" r="4.68"/>
		<circle fill="#45CC77" cx="336.997" cy="258.098" r="4.68"/>
		<circle fill="#45CC77" cx="363.775" cy="272.037" r="4.681"/>
		<circle fill="#45CC77" cx="279.893" cy="204.099" r="4.681"/>
		<circle fill="#45CC77" cx="306.67" cy="218.038" r="4.68"/>
		<circle fill="#45CC77" cx="333.448" cy="231.977" r="4.68"/>
		<circle fill="#45CC77" cx="360.223" cy="245.917" r="4.681"/>
	</g>
	<g>
		
			<linearGradient id="SVGID_1_" gradientUnits="userSpaceOnUse" x1="-35.1616" y1="214.2412" x2="235.4932" y2="214.2412" gradientTransform="matrix(1 0 0 -1 102.3398 460.04)">
			<stop  offset="0" style="stop-color:#45CC77"/>
			<stop  offset="1" style="stop-color:#77FEA9"/>
		</linearGradient>
		<polygon fill="url(#SVGID_1_)" points="167.602,36 314.564,36 223.938,199 337.833,199 75.75,455.598 144.333,256 67.178,256 		
			"/>
		<polygon fill="#FFE000" stroke="#45CC77" stroke-width="3" stroke-miterlimit="10" points="167.954,16.5 314.917,16.5 
			224.29,180.5 338.186,180.5 76.104,437.098 144.685,237.5 67.53,237.5 		"/>
		<path fill="#77FEA9" stroke="#45CC77" stroke-width="3" stroke-miterlimit="10" d="M67.19,237.5h77.495L76.104,437.098
			L338.186,180.5H223.867l25.56-46.648c-20.894,0-20.894-19.818-41.786-19.818c-20.893,0-20.893,19.653-41.787,19.653
			c-20.889,0-20.889-19.592-41.778-19.592L67.19,237.5z"/>
		<g>
			<g>
				<path fill="#FFFFFF" d="M290.423,22.553c-39.054,0-78.107,0-117.161,0c-0.972,0-2.167,0.552-2.59,1.486
					c-19.171,42.305-38.342,84.61-57.513,126.915c-0.152,0.335-0.304,0.671-0.456,1.007c-1.584,3.495,3.586,6.548,5.181,3.028
					c19.171-42.305,38.342-84.61,57.513-126.915c0.152-0.335,0.304-0.671,0.456-1.007c-0.863,0.495-1.727,0.991-2.59,1.486
					c39.054,0,78.107,0,117.161,0C294.292,28.553,294.292,22.553,290.423,22.553L290.423,22.553z"/>
			</g>
		</g>
		<g>
			<g>
				<path fill="#FFFFFF" d="M321.04,184.824c-35.924,0-71.849,0-107.771,0c-3.869,0-3.869,6,0,6c35.924,0,71.848,0,107.771,0
					C324.909,190.824,324.909,184.824,321.04,184.824L321.04,184.824z"/>
			</g>
		</g>
	</g>
</g>
</svg>
