<?xml version="1.0" encoding="utf-8"?>
<!-- Generator: Adobe Illustrator 16.0.0, SVG Export Plug-In . SVG Version: 6.00 Build 0)  -->
<!DOCTYPE svg PUBLIC "-//W3C//DTD SVG 1.1//EN" "http://www.w3.org/Graphics/SVG/1.1/DTD/svg11.dtd">
<svg version="1.1" xmlns="http://www.w3.org/2000/svg" xmlns:xlink="http://www.w3.org/1999/xlink" x="0px" y="0px" width="480px"
	 height="480px" viewBox="0 0 480 480" enable-background="new 0 0 480 480" xml:space="preserve">
<g id="敬老組" display="none">
	<g display="inline">
		<path fill="#C2CAAE" d="M401.937,195.315c-12.559,0-25.835,2.093-39.312,5.942c1.548-45.506-28.832-76.398-84.267-76.398
			c-80.636,0-183.745,65.369-230.3,146.004C1.503,351.5,29.132,416.867,109.768,416.867c33.296,0,70.422-11.151,105.818-29.917
			c9.095,18.553,29.158,29.917,58.435,29.917c61.181,0,139.413-49.596,174.733-110.775
			C484.078,244.912,463.115,195.315,401.937,195.315z"/>
		<path fill="#F5F5F5" stroke="#CDAA9B" stroke-width="6" stroke-miterlimit="10" d="M390.937,172.814
			c-12.559,0-25.835,2.092-39.312,5.942c1.548-45.507-28.832-76.398-84.267-76.398c-80.636,0-183.745,65.368-230.3,146.004
			S18.132,394.366,98.768,394.366c33.296,0,70.422-11.152,105.818-29.917c9.095,18.553,29.157,29.917,58.435,29.917
			c61.181,0,139.413-49.596,174.733-110.776C473.078,222.41,452.115,172.814,390.937,172.814z"/>
		<g>
			<g>
				<path fill="#F5F5F5" d="M238.183,326.226c0-45.232,36.669-143.823,81.9-143.823s81.901,98.591,81.901,143.823"/>
				<g>
					<path fill="#CDAA9B" d="M241.183,326.226c0.088-17.873,4.472-35.72,9.801-52.677c6.188-19.687,14.605-38.912,25.979-56.173
						c8.8-13.354,20.979-27.742,37.323-31.386c15.651-3.49,29.618,7.751,39.292,18.675c15.218,17.182,25.245,39.22,32.851,60.652
						c6.867,19.346,12.454,40.248,12.556,60.909c0.02,3.868,6.02,3.87,6,0c-0.087-17.584-4.192-35.191-9.285-51.928
						c-5.939-19.519-14.042-38.638-24.781-56.012c-8.682-14.044-20.063-28.479-35.479-35.429
						c-13.738-6.194-28.116-3.135-40.04,5.461c-20.827,15.015-33.543,40.53-43.004,63.673
						c-9.473,23.171-17.087,49.001-17.212,74.234C235.164,330.096,241.163,330.094,241.183,326.226L241.183,326.226z"/>
				</g>
			</g>
			<circle fill="#FFDCCD" stroke="#CDAA9B" stroke-width="6" stroke-miterlimit="10" cx="321.184" cy="147.687" r="93.972"/>
			<ellipse fill="#CDAA9B" cx="285.963" cy="145.46" rx="16.281" ry="20.681"/>
			<g>
				<g>
					<path fill="#969696" d="M272.027,122.121c7.682-7.2,18.931-7.2,26.612,0c2.819,2.643,7.07-1.591,4.242-4.242
						c-10.099-9.467-24.998-9.467-35.097,0C264.957,120.53,269.208,124.764,272.027,122.121L272.027,122.121z"/>
				</g>
			</g>
			<ellipse fill="#CDAA9B" cx="351.963" cy="145.46" rx="16.281" ry="20.681"/>
			<g>
				<g>
					<path fill="#969696" d="M338.027,122.121c7.682-7.2,18.931-7.2,26.612,0c2.819,2.643,7.07-1.591,4.242-4.242
						c-10.099-9.467-24.998-9.467-35.097,0C330.957,120.53,335.208,124.764,338.027,122.121L338.027,122.121z"/>
				</g>
			</g>
			<g>
				<g>
					<path fill="#CDAA9B" d="M297.202,203.893c7.632,1.517,15.503,2.981,23.298,3.107c7.721,0.125,15.751-1.606,23.298-3.107
						c3.793-0.754,2.183-6.537-1.596-5.786c-7.124,1.417-14.425,2.775-21.702,2.893c-7.216,0.117-14.648-1.49-21.702-2.893
						C295.02,197.356,293.409,203.139,297.202,203.893L297.202,203.893z"/>
				</g>
			</g>
			<ellipse fill="#CDAA9B" cx="263.28" cy="191.283" rx="12.68" ry="9.1"/>
			<ellipse fill="#CDAA9B" cx="380.304" cy="191.283" rx="12.68" ry="9.1"/>
			<g>
				<g>
					<path fill="#969696" d="M292.702,184.107c-3.482,0.779-6.315,3.613-7.095,7.096c-0.357,1.594,0.463,3.241,2.095,3.69
						c1.519,0.417,3.334-0.5,3.69-2.096c0.386-1.722,1.183-2.519,2.905-2.904c1.596-0.357,2.513-2.173,2.095-3.69
						C295.943,184.57,294.297,183.75,292.702,184.107L292.702,184.107z"/>
				</g>
			</g>
			<g>
				<g>
					<path fill="#969696" d="M347.702,189.893c1.723,0.385,2.52,1.182,2.905,2.904c0.356,1.596,2.172,2.513,3.69,2.096
						c1.632-0.449,2.452-2.096,2.095-3.69c-0.779-3.483-3.612-6.316-7.095-7.096c-1.595-0.356-3.241,0.463-3.69,2.096
						C345.189,187.72,346.106,189.536,347.702,189.893L347.702,189.893z"/>
				</g>
			</g>
			<g>
				<g>
					<path fill="#969696" d="M288.879,88.621c7.371,7.229,21.432,10.657,31.489,9.673c11.148-1.091,20.559-8.039,24.524-18.497
						c1.375-3.624-4.427-5.176-5.785-1.595c-3.405,8.977-12.064,13.784-21.345,14.29c-7.514,0.409-19.213-2.79-24.642-8.113
						C290.357,81.669,286.112,85.909,288.879,88.621L288.879,88.621z"/>
				</g>
			</g>
			<g>
				<g>
					<path fill="#969696" d="M341.379,96.621c9.861,8.666,28.459,11.75,34.712-2.607c1.528-3.51-3.64-6.568-5.182-3.028
						c-4.585,10.528-18.072,7.733-25.288,1.393C342.728,89.836,338.467,94.063,341.379,96.621L341.379,96.621z"/>
				</g>
			</g>
			<g>
				<g>
					<path fill="#969696" d="M285.202,94.607c-7.807,2.962-16.208,6.657-21.611-2.121c-2.024-3.288-7.216-0.276-5.182,3.028
						c7.013,11.39,17.626,8.961,28.389,4.879C290.379,99.035,288.827,93.232,285.202,94.607L285.202,94.607z"/>
				</g>
			</g>
			<g>
				<line fill="#F5F5F5" x1="321" y1="242" x2="321" y2="326"/>
				<g>
					<path fill="#CDAA9B" d="M318,242c0,28,0,56,0,84c0,3.869,6,3.869,6,0c0-28,0-56,0-84C324,238.131,318,238.131,318,242L318,242z
						"/>
				</g>
			</g>
			<circle fill="#CDAA9B" cx="301" cy="258" r="6.5"/>
			<circle fill="#CDAA9B" cx="340" cy="285" r="6.5"/>
			<circle fill="#CDAA9B" cx="301" cy="312" r="6.5"/>
		</g>
		<g>
			<g>
				<path fill="#F5F5F5" d="M49.049,361.854c0-45.233,36.668-143.823,81.9-143.823s81.9,98.59,81.9,143.823"/>
				<g>
					<path fill="#CDAA9B" d="M52.049,361.854c0.088-17.873,4.472-35.72,9.801-52.677c6.188-19.688,14.604-38.912,25.979-56.174
						c8.799-13.354,20.979-27.741,37.323-31.385c15.652-3.49,29.619,7.751,39.293,18.674c15.217,17.183,25.244,39.221,32.85,60.651
						c6.866,19.347,12.453,40.249,12.555,60.91c0.019,3.868,6.019,3.87,6,0c-0.087-17.584-4.192-35.191-9.285-51.929
						c-5.939-19.518-14.042-38.637-24.781-56.011c-8.682-14.044-20.063-28.479-35.48-35.429c-13.737-6.194-28.116-3.135-40.04,5.461
						c-20.827,15.015-33.542,40.53-43.003,63.673c-9.473,23.171-17.087,49.001-17.211,74.234
						C46.03,365.724,52.03,365.722,52.049,361.854L52.049,361.854z"/>
				</g>
			</g>
			<circle fill="#FFDCCD" stroke="#CDAA9B" stroke-width="6" stroke-miterlimit="10" cx="132.05" cy="183.314" r="93.971"/>
			<g>
				<g>
					<path fill="#969696" d="M107.879,220.121c2.999,3.333,5.998,6.667,8.997,10c1.052,1.17,3.189,1.17,4.242,0
						c3-3.333,6-6.667,9-10c-1.414,0-2.828,0-4.242,0c2.999,3.333,5.998,6.667,8.997,10c1.053,1.17,3.189,1.17,4.242,0
						c3.001-3.333,6.002-6.667,9.003-10c-1.414,0-2.828,0-4.242,0c3.001,3.333,6.002,6.667,9.003,10
						c2.594,2.881,6.823-1.376,4.242-4.242c-3.001-3.333-6.002-6.667-9.003-10c-1.053-1.17-3.189-1.17-4.242,0
						c-3.001,3.333-6.002,6.667-9.003,10c1.414,0,2.828,0,4.242,0c-2.999-3.333-5.998-6.667-8.997-10
						c-1.052-1.17-3.189-1.17-4.242,0c-3,3.333-6,6.667-9,10c1.414,0,2.828,0,4.242,0c-2.999-3.333-5.998-6.667-8.997-10
						C109.528,212.997,105.299,217.254,107.879,220.121L107.879,220.121z"/>
				</g>
			</g>
			<ellipse fill="#CDAA9B" cx="102" cy="182" rx="16.221" ry="21.283"/>
			<g>
				<g>
					<path fill="#969696" d="M119.853,152.379c-10.274-9.632-25.432-9.631-35.706,0c-2.829,2.651,1.423,6.885,4.242,4.242
						c7.857-7.365,19.365-7.365,27.222,0C118.43,159.264,122.681,155.03,119.853,152.379L119.853,152.379z"/>
				</g>
			</g>
			<ellipse fill="#CDAA9B" cx="160" cy="182" rx="16.221" ry="21.283"/>
			<g>
				<g>
					<path fill="#969696" d="M177.853,152.379c-10.274-9.632-25.432-9.631-35.706,0c-2.829,2.651,1.423,6.885,4.242,4.242
						c7.857-7.365,19.365-7.365,27.222,0C176.43,159.264,180.681,155.03,177.853,152.379L177.853,152.379z"/>
				</g>
			</g>
			<g>
				<line fill="#F5F5F5" x1="133" y1="277" x2="133" y2="361"/>
				<g>
					<path fill="#CDAA9B" d="M130,277c0,28,0,56,0,84c0,3.869,6,3.869,6,0c0-28,0-56,0-84C136,273.131,130,273.131,130,277L130,277z
						"/>
				</g>
			</g>
			<circle fill="#CDAA9B" cx="113" cy="293" r="6.5"/>
			<circle fill="#CDAA9B" cx="152" cy="320" r="6.5"/>
			<circle fill="#CDAA9B" cx="113" cy="347" r="6.5"/>
		</g>
		<g>
			<g>
				<path fill="#CDAA9B" d="M113,245c13,0,26,0,39,0c3.869,0,3.869-6,0-6c-13,0-26,0-39,0C109.131,239,109.131,245,113,245L113,245z
					"/>
			</g>
		</g>
	</g>
</g>
<g id="熟齡組" display="none">
	<g display="inline">
		<path fill="#9AFFBE" d="M401.937,195.315c-12.559,0-25.835,2.093-39.312,5.942c1.548-45.506-28.832-76.398-84.267-76.398
			c-80.636,0-183.745,65.369-230.3,146.004C1.503,351.5,29.132,416.867,109.768,416.867c33.296,0,70.422-11.151,105.818-29.917
			c9.095,18.553,29.158,29.917,58.435,29.917c61.181,0,139.413-49.596,174.733-110.775
			C484.078,244.912,463.115,195.315,401.937,195.315z"/>
		<path fill="#F5F5F5" stroke="#CDAA9B" stroke-width="6" stroke-miterlimit="10" d="M390.937,172.814
			c-12.559,0-25.835,2.092-39.312,5.942c1.548-45.507-28.832-76.398-84.267-76.398c-80.636,0-183.745,65.368-230.3,146.004
			S18.132,394.366,98.768,394.366c33.296,0,70.422-11.152,105.818-29.917c9.095,18.553,29.157,29.917,58.435,29.917
			c61.181,0,139.413-49.596,174.733-110.776C473.078,222.41,452.115,172.814,390.937,172.814z"/>
		<g>
			<g>
				<path fill="#F5F5F5" d="M49.049,361.854c0-45.233,36.668-143.823,81.9-143.823s81.9,98.59,81.9,143.823"/>
				<g>
					<path fill="#CDAA9B" d="M52.049,361.854c0.088-17.873,4.472-35.72,9.801-52.677c6.188-19.688,14.604-38.912,25.979-56.174
						c8.799-13.354,20.979-27.741,37.323-31.385c15.652-3.49,29.619,7.751,39.293,18.674c15.217,17.183,25.244,39.221,32.85,60.651
						c6.866,19.347,12.453,40.249,12.555,60.91c0.019,3.868,6.019,3.87,6,0c-0.087-17.584-4.192-35.191-9.285-51.929
						c-5.939-19.518-14.042-38.637-24.781-56.011c-8.682-14.044-20.063-28.479-35.48-35.429c-13.737-6.194-28.116-3.135-40.04,5.461
						c-20.827,15.015-33.542,40.53-43.003,63.673c-9.473,23.171-17.087,49.001-17.211,74.234
						C46.03,365.724,52.03,365.722,52.049,361.854L52.049,361.854z"/>
				</g>
			</g>
			<circle fill="#FFDCCD" stroke="#CDAA9B" stroke-width="6" stroke-miterlimit="10" cx="132.05" cy="183.314" r="93.971"/>
			<g>
				<g>
					<path fill="#CDAA9B" d="M109.203,244.893c7.631,1.518,15.502,2.981,23.297,3.107c7.721,0.125,15.751-1.606,23.297-3.107
						c3.793-0.754,2.184-6.537-1.595-5.786c-7.125,1.417-14.425,2.776-21.703,2.893c-7.216,0.116-14.648-1.49-21.703-2.893
						C107.019,238.356,105.409,244.139,109.203,244.893L109.203,244.893z"/>
				</g>
			</g>
			<g>
				<path fill="#F5F5F5" d="M122,189.632c0,2.414-1.647,4.368-4.091,4.368H85.171c-2.443,0-4.171-1.954-4.171-4.368v-32.344
					c0-2.414,1.728-4.288,4.171-4.288h32.738c2.443,0,4.091,1.874,4.091,4.288V189.632z"/>
				<g>
					<path fill="#CDAA9B" d="M119.44,188.834c-0.412,3.03-3.601,2.168-5.588,2.168c-3.451,0-6.901,0-10.353,0
						c-6.059,0-12.117,0-18.176,0c-3.022,0-1.577-14.301-1.577-16.06c0-5.872,0-11.744,0-17.615c0-2.809,15.235-1.411,16.812-1.411
						c5.771,0,11.541,0,17.312,0c2.849,0,1.463,15.36,1.463,17.048c0,5.556,0,11.111,0,16.667c0,3.869,6,3.869,6,0
						c0-5.556,0-11.111,0-16.667c0-5.37,0.618-11.141-0.107-16.474c-0.982-7.222-8.125-6.574-13.58-6.574
						c-7.473,0-14.946,0-22.419,0c-5.19,0-11.481,0.683-11.481,7.528c0,6.161,0,12.321,0,18.481c0,4.725-1.361,11.867,0.568,16.381
						c2.534,5.934,9.517,4.695,14.768,4.695c6.691,0,13.383,0,20.075,0c5.143,0,11.175-0.002,12.069-6.574
						C125.741,186.647,119.96,185.015,119.44,188.834z"/>
				</g>
			</g>
			<g>
				<path fill="#F5F5F5" d="M184,189.632c0,2.414-1.647,4.368-4.091,4.368h-32.738c-2.443,0-4.171-1.954-4.171-4.368v-32.344
					c0-2.414,1.728-4.288,4.171-4.288h32.738c2.443,0,4.091,1.874,4.091,4.288V189.632z"/>
				<g>
					<path fill="#CDAA9B" d="M181.44,188.834c-0.412,3.03-3.601,2.168-5.588,2.168c-3.451,0-6.901,0-10.353,0
						c-6.059,0-12.117,0-18.176,0c-3.022,0-1.577-14.301-1.577-16.06c0-5.872,0-11.744,0-17.615c0-2.809,15.235-1.411,16.812-1.411
						c5.771,0,11.541,0,17.312,0c2.849,0,1.463,15.36,1.463,17.048c0,5.556,0,11.111,0,16.667c0,3.869,6,3.869,6,0
						c0-5.556,0-11.111,0-16.667c0-5.37,0.618-11.141-0.107-16.474c-0.982-7.222-8.125-6.574-13.58-6.574
						c-7.473,0-14.946,0-22.419,0c-5.19,0-11.481,0.683-11.481,7.528c0,6.161,0,12.321,0,18.481c0,4.725-1.361,11.867,0.568,16.381
						c2.534,5.934,9.517,4.695,14.768,4.695c6.691,0,13.383,0,20.075,0c5.143,0,11.175-0.002,12.069-6.574
						C187.741,186.647,181.96,185.015,181.44,188.834z"/>
				</g>
			</g>
			<g>
				<g>
					<path fill="#CDAA9B" d="M124,171c5.667,0,11.333,0,17,0c3.869,0,3.869-6,0-6c-5.667,0-11.333,0-17,0
						C120.131,165,120.131,171,124,171L124,171z"/>
				</g>
			</g>
			<g>
				<g>
					<path fill="#CDAA9B" d="M93.536,132.56c13.553,4.052,28.601,2.484,42.437,1.065c8.555-0.877,17.116-1.684,25.694-2.292
						c6.833-0.485,18.791-2.343,20.774,6.797c0.821,3.781,6.604,2.177,5.786-1.595c-3.711-17.1-29.37-11.086-41.227-9.994
						c-16.768,1.545-35.35,5.171-51.869,0.232C91.415,125.663,89.838,131.454,93.536,132.56L93.536,132.56z"/>
				</g>
			</g>
			<g>
				<g>
					<path fill="#CDAA9B" d="M107.879,220.121c2.999,3.333,5.998,6.667,8.997,10c1.052,1.17,3.189,1.17,4.242,0
						c3-3.333,6-6.667,9-10c-1.414,0-2.828,0-4.242,0c2.999,3.333,5.998,6.667,8.997,10c1.053,1.17,3.189,1.17,4.242,0
						c3.001-3.333,6.002-6.667,9.003-10c-1.414,0-2.828,0-4.242,0c3.001,3.333,6.002,6.667,9.003,10
						c2.594,2.881,6.823-1.376,4.242-4.242c-3.001-3.333-6.002-6.667-9.003-10c-1.053-1.17-3.189-1.17-4.242,0
						c-3.001,3.333-6.002,6.667-9.003,10c1.414,0,2.828,0,4.242,0c-2.999-3.333-5.998-6.667-8.997-10
						c-1.052-1.17-3.189-1.17-4.242,0c-3,3.333-6,6.667-9,10c1.414,0,2.828,0,4.242,0c-2.999-3.333-5.998-6.667-8.997-10
						C109.528,212.997,105.299,217.254,107.879,220.121L107.879,220.121z"/>
				</g>
			</g>
			<path fill="#CDAA9B" d="M143.021,286.465c1.953,1.952,1.952,5.118,0,7.07l-8.485,8.485c-1.953,1.953-5.118,1.953-7.071,0
				l-8.485-8.485c-1.953-1.952-1.952-5.118,0-7.07l8.485-8.485c1.953-1.953,5.119-1.953,7.071,0L143.021,286.465z"/>
			<polygon fill="#CDAA9B" points="131,360.617 118.221,347.838 131,291.383 143.779,347.838 			"/>
		</g>
		<g>
			<g>
				<path fill="#F5F5F5" d="M238.183,326.226c0-45.232,36.669-143.823,81.9-143.823s81.901,98.591,81.901,143.823"/>
				<g>
					<path fill="#CDAA9B" d="M241.183,326.226c0.088-17.873,4.472-35.72,9.801-52.677c6.188-19.687,14.605-38.912,25.979-56.173
						c8.8-13.354,20.979-27.742,37.323-31.386c15.651-3.49,29.618,7.751,39.292,18.675c15.218,17.182,25.245,39.22,32.851,60.652
						c6.867,19.346,12.454,40.248,12.556,60.909c0.02,3.868,6.02,3.87,6,0c-0.087-17.584-4.192-35.191-9.285-51.928
						c-5.939-19.519-14.042-38.638-24.781-56.012c-8.682-14.044-20.063-28.479-35.479-35.429
						c-13.738-6.194-28.116-3.135-40.04,5.461c-20.827,15.015-33.543,40.53-43.004,63.673
						c-9.473,23.171-17.087,49.001-17.212,74.234C235.164,330.096,241.163,330.094,241.183,326.226L241.183,326.226z"/>
				</g>
			</g>
			<circle fill="#FFDCCD" stroke="#CDAA9B" stroke-width="6" stroke-miterlimit="10" cx="321.184" cy="147.687" r="93.972"/>
			<ellipse fill="#CDAA9B" cx="285.963" cy="145.46" rx="16.281" ry="20.681"/>
			<g>
				<g>
					<path fill="#CDAA9B" d="M272.027,122.121c7.682-7.2,18.931-7.2,26.612,0c2.819,2.643,7.07-1.591,4.242-4.242
						c-10.099-9.467-24.998-9.467-35.097,0C264.957,120.53,269.208,124.764,272.027,122.121L272.027,122.121z"/>
				</g>
			</g>
			<g>
				<g>
					<path fill="#CDAA9B" d="M293.641,167.879c-4.865,4.487-11.75,4.487-16.615,0c-2.839-2.618-7.092,1.614-4.242,4.242
						c7.316,6.749,17.783,6.749,25.1,0C300.732,169.493,296.479,165.261,293.641,167.879L293.641,167.879z"/>
				</g>
			</g>
			<ellipse fill="#CDAA9B" cx="351.963" cy="145.46" rx="16.281" ry="20.681"/>
			<g>
				<g>
					<path fill="#CDAA9B" d="M338.027,122.121c7.682-7.2,18.931-7.2,26.612,0c2.819,2.643,7.07-1.591,4.242-4.242
						c-10.099-9.467-24.998-9.467-35.097,0C330.957,120.53,335.208,124.764,338.027,122.121L338.027,122.121z"/>
				</g>
			</g>
			<g>
				<g>
					<path fill="#CDAA9B" d="M360.709,167.879c-5.49,5.063-13.262,5.063-18.752,0c-2.839-2.618-7.092,1.614-4.242,4.242
						c7.94,7.324,19.296,7.324,27.236,0C367.801,169.493,363.548,165.261,360.709,167.879L360.709,167.879z"/>
				</g>
			</g>
			<g>
				<g>
					<path fill="#CDAA9B" d="M297.202,203.893c7.632,1.517,15.503,2.981,23.298,3.107c7.721,0.125,15.751-1.606,23.298-3.107
						c3.793-0.754,2.183-6.537-1.596-5.786c-7.124,1.417-14.425,2.775-21.702,2.893c-7.216,0.117-14.648-1.49-21.702-2.893
						C295.02,197.356,293.409,203.139,297.202,203.893L297.202,203.893z"/>
				</g>
			</g>
			<g>
				<polyline fill="#CDAA9B" points="297.367,239.64 321,285.5 344.633,239.64 				"/>
			</g>
			<g>
				<g>
					<path fill="#CDAA9B" d="M318,285.5c0,12.833,0,25.667,0,38.5c0,3.869,6,3.869,6,0c0-12.833,0-25.667,0-38.5
						C324,281.631,318,281.631,318,285.5L318,285.5z"/>
				</g>
			</g>
			<g>
				<g>
					<path fill="#CDAA9B" d="M283.909,83.514c4.809,10.062,17.732,12.122,27.702,12.357c10.867,0.256,24.448-1.583,33.402-8.281
						c3.06-2.288,0.074-7.501-3.027-5.181c-7.429,5.557-17.959,7.04-26.966,7.426c-8.607,0.37-21.65-0.395-25.93-9.35
						C287.423,76.996,282.25,80.042,283.909,83.514L283.909,83.514z"/>
				</g>
			</g>
			<g>
				<g>
					<path fill="#CDAA9B" d="M337.107,73.797c3.612,15.134,24.146,24.548,37.906,17.293c3.424-1.805,0.392-6.983-3.027-5.181
						c-10.438,5.502-26.414-2.481-29.094-13.707C341.995,68.44,336.209,70.036,337.107,73.797L337.107,73.797z"/>
				</g>
			</g>
			<g>
				<g>
					<path fill="#CDAA9B" d="M286.909,88.986c-4.477,8.824-18.348,9.146-26.611,6.621c-3.711-1.133-5.284,4.659-1.596,5.786
						c10.806,3.302,27.657,1.917,33.389-9.379C293.837,88.572,288.66,85.535,286.909,88.986L286.909,88.986z"/>
				</g>
			</g>
			<g>
				<g>
					<path fill="#CDAA9B" d="M286.909,234.663c-3,4.062-6,8.124-9,12.185c-0.772,1.046-0.433,2.79,0.47,3.636
						c13.194,12.38,26.389,24.759,39.584,37.138c2.818,2.645,7.069-1.59,4.242-4.242c-13.194-12.38-26.389-24.759-39.584-37.138
						c0.156,1.212,0.313,2.424,0.47,3.636c3-4.063,6-8.124,9-12.186C294.393,234.574,289.182,231.587,286.909,234.663
						L286.909,234.663z"/>
				</g>
			</g>
			<g>
				<g>
					<path fill="#CDAA9B" d="M348.493,237.691c3,4.062,6,8.124,9,12.186c0.157-1.212,0.313-2.424,0.47-3.636
						c-13.195,12.379-26.39,24.758-39.584,37.138c-2.827,2.652,1.424,6.887,4.242,4.242c13.195-12.379,26.39-24.758,39.584-37.138
						c0.902-0.846,1.242-2.59,0.47-3.636c-3-4.062-6-8.123-9-12.185C351.402,231.587,346.191,234.574,348.493,237.691
						L348.493,237.691z"/>
				</g>
			</g>
			<ellipse fill="#CDAA9B" cx="263.28" cy="191.283" rx="12.68" ry="9.1"/>
			<ellipse fill="#CDAA9B" cx="380.304" cy="191.283" rx="12.68" ry="9.1"/>
		</g>
	</g>
</g>
<g id="鮮肉組">
	<g>
		<path fill="#9ACCFF" d="M401.937,195.315c-12.559,0-25.835,2.093-39.312,5.943c1.548-45.506-28.832-76.398-84.267-76.398
			c-80.636,0-183.745,65.368-230.3,146.003C1.503,351.5,29.132,416.867,109.768,416.867c33.296,0,70.422-11.151,105.818-29.917
			c9.095,18.553,29.158,29.917,58.435,29.917c61.181,0,139.413-49.596,174.733-110.775
			C484.078,244.912,463.115,195.315,401.937,195.315z"/>
		<path fill="#F5F5F5" stroke="#CDAA9B" stroke-width="6" stroke-miterlimit="10" d="M390.937,172.814
			c-12.559,0-25.835,2.093-39.312,5.943c1.548-45.507-28.832-76.398-84.267-76.398c-80.636,0-183.745,65.368-230.3,146.004
			S18.132,394.366,98.768,394.366c33.296,0,70.422-11.152,105.818-29.917c9.095,18.553,29.157,29.917,58.435,29.917
			c61.181,0,139.413-49.596,174.733-110.776C473.078,222.411,452.115,172.814,390.937,172.814z"/>
		<g>
			<g>
				<path fill="#F5F5F5" d="M49.049,361.854c0-45.233,36.668-143.823,81.9-143.823s81.9,98.59,81.9,143.823"/>
				<g>
					<path fill="#CDAA9B" d="M52.049,361.854c0.088-17.873,4.472-35.72,9.801-52.677c6.188-19.688,14.604-38.912,25.979-56.174
						c8.799-13.354,20.979-27.741,37.323-31.385c15.652-3.49,29.619,7.751,39.293,18.674c15.217,17.183,25.244,39.221,32.85,60.651
						c6.866,19.347,12.453,40.249,12.555,60.91c0.019,3.868,6.019,3.87,6,0c-0.087-17.584-4.192-35.191-9.285-51.929
						c-5.939-19.518-14.042-38.637-24.781-56.011c-8.682-14.044-20.063-28.479-35.48-35.429c-13.737-6.194-28.116-3.135-40.04,5.461
						c-20.827,15.015-33.542,40.53-43.003,63.673c-9.473,23.171-17.087,49.001-17.211,74.234
						C46.03,365.724,52.03,365.722,52.049,361.854L52.049,361.854z"/>
				</g>
			</g>
			<g>
				<circle fill="#CDAA9B" cx="132.05" cy="275.285" r="26.283"/>
			</g>
			<g>
				<g>
					<path fill="#CDAA9B" d="M162.892,275.285c-0.345,17.07-13.771,30.496-30.841,30.842c-17.071,0.346-30.506-14.291-30.841-30.842
						c-0.345-17.07,14.29-30.507,30.841-30.842C149.121,244.098,162.557,258.734,162.892,275.285c0.078,3.864,6.078,3.871,6,0
						c-0.412-20.364-16.477-36.43-36.841-36.842c-20.364-0.412-36.442,17.099-36.841,36.842
						c-0.412,20.363,17.098,36.442,36.841,36.842c20.364,0.412,36.442-17.099,36.841-36.842
						C168.97,271.414,162.97,271.421,162.892,275.285z"/>
				</g>
			</g>
			<circle fill="#FFDCCD" stroke="#CDAA9B" stroke-width="6" stroke-miterlimit="10" cx="132.05" cy="183.314" r="93.971"/>
			<path fill="#CDAA9B" d="M78.553,161.889C77.564,165.256,77,168.981,77,172.915c0,14.843,7.835,26.875,17.5,26.875
				s17.5-12.032,17.5-26.875c0-0.958-0.035-1.904-0.099-2.837L78.553,161.889z"/>
			<g>
				<g>
					<path fill="#CDAA9B" d="M112.797,162.107c-10.167-3.5-20.333-7-30.5-10.5c-3.668-1.263-5.23,4.534-1.595,5.786
						c10.167,3.5,20.333,7,30.5,10.5C114.871,169.156,116.433,163.359,112.797,162.107L112.797,162.107z"/>
				</g>
			</g>
			<path fill="#CDAA9B" d="M180.447,161.889c0.989,3.367,1.553,7.092,1.553,11.026c0,14.843-7.835,26.875-17.5,26.875
				S147,187.758,147,172.915c0-0.958,0.035-1.904,0.099-2.837L180.447,161.889z"/>
			<g>
				<g>
					<path fill="#CDAA9B" d="M147.797,164.893c10.167-3.5,20.333-7,30.5-10.5c3.636-1.252,2.074-7.049-1.595-5.786
						c-10.167,3.5-20.333,7-30.5,10.5C142.567,160.359,144.129,166.156,147.797,164.893L147.797,164.893z"/>
				</g>
			</g>
			<g>
				<g>
					<path fill="#CDAA9B" d="M92.878,124.455c17.285,17.79,40.21,25.706,64.252,17.438c3.636-1.25,2.074-7.048-1.595-5.786
						c-22.109,7.603-42.532,0.452-58.415-15.895C94.421,117.433,90.182,121.68,92.878,124.455L92.878,124.455z"/>
				</g>
			</g>
			<g>
				<g>
					<path fill="#CDAA9B" d="M152.076,121.181c4.514,7.228,12.982,12.368,20.429,16.036c7.704,3.795,17.629,6.839,25.675,2.374
						c3.383-1.877,0.357-7.06-3.028-5.181c-6.72,3.729-15.678-0.309-21.814-3.481c-5.743-2.97-12.57-7.153-16.082-12.776
						C155.212,114.879,150.02,117.889,152.076,121.181L152.076,121.181z"/>
				</g>
			</g>
		</g>
		<g>
			<g>
				<path fill="#F5F5F5" d="M238.183,326.226c0-45.232,36.669-143.823,81.9-143.823s81.901,98.59,81.901,143.823"/>
				<g>
					<path fill="#CDAA9B" d="M241.183,326.226c0.088-17.873,4.472-35.72,9.801-52.677c6.188-19.687,14.605-38.911,25.979-56.173
						c8.8-13.354,20.979-27.742,37.323-31.386c15.651-3.49,29.618,7.751,39.292,18.674c15.218,17.182,25.245,39.221,32.851,60.652
						c6.867,19.347,12.454,40.248,12.556,60.909c0.02,3.868,6.02,3.87,6,0c-0.087-17.584-4.192-35.191-9.285-51.928
						c-5.939-19.519-14.042-38.638-24.781-56.011c-8.682-14.044-20.063-28.479-35.479-35.429
						c-13.738-6.194-28.116-3.135-40.04,5.461c-20.827,15.015-33.543,40.53-43.004,63.672
						c-9.473,23.171-17.087,49.001-17.212,74.234C235.164,330.096,241.163,330.094,241.183,326.226L241.183,326.226z"/>
				</g>
			</g>
			<circle fill="#CDAA9B" cx="321.185" cy="241.658" r="28.099"/>
			<g>
				<g>
					<path fill="#CDAA9B" d="M354.264,241.658c-0.345,18.29-14.789,32.733-33.079,33.078c-18.291,0.345-32.744-15.307-33.079-33.078
						c-0.345-18.291,15.308-32.744,33.079-33.079C339.476,208.235,353.929,223.887,354.264,241.658c0.072,3.864,6.073,3.871,6,0
						c-0.406-21.578-17.501-38.672-39.079-39.079s-38.685,18.112-39.079,39.079c-0.406,21.578,18.112,38.684,39.079,39.078
						c21.578,0.406,38.685-18.111,39.079-39.078C360.337,237.787,354.336,237.794,354.264,241.658z"/>
				</g>
			</g>
			<circle fill="#FFDCCD" stroke="#CDAA9B" stroke-width="6" stroke-miterlimit="10" cx="321.184" cy="147.687" r="93.972"/>
			<ellipse fill="#CDAA9B" cx="286.666" cy="141.82" rx="15.166" ry="18.833"/>
			<g>
				<g>
					<path fill="#CDAA9B" d="M302.785,112.573c-9.318-8.687-22.92-8.686-32.238,0c-2.836,2.643,1.416,6.876,4.242,4.242
						c6.892-6.422,16.862-6.423,23.754,0C301.369,119.449,305.621,115.216,302.785,112.573L302.785,112.573z"/>
				</g>
			</g>
			<g>
				<g>
					<path fill="#CDAA9B" d="M368.121,118.739c-9.513-8.868-23.397-8.867-32.91,0c-2.836,2.643,1.416,6.876,4.242,4.242
						c7.086-6.604,17.34-6.605,24.426,0C366.705,125.616,370.957,121.382,368.121,118.739L368.121,118.739z"/>
				</g>
			</g>
			<g>
				<g>
					<path fill="#CDAA9B" d="M365.62,139.605c-8.288-7.646-20.141-7.644-28.429,0c-2.851,2.628,1.403,6.86,4.242,4.242
						c5.839-5.384,14.105-5.385,19.944,0C364.216,146.466,368.47,142.234,365.62,139.605L365.62,139.605z"/>
				</g>
			</g>
			<g>
				<g>
					<path fill="#CDAA9B" d="M342.301,144.311c2.232-1.048,4.616-1.596,7.078-1.646c2.651-0.053,4.02,1.98,5.278,4.011
						c2.034,3.28,7.227,0.27,5.182-3.028c-2.085-3.362-4.617-6.215-8.707-6.821c-4.057-0.601-8.213,0.592-11.858,2.304
						C335.772,140.774,338.821,145.946,342.301,144.311L342.301,144.311z"/>
				</g>
			</g>
			<g>
				<g>
					<path fill="#CDAA9B" d="M305.667,201.334c16.855,1.428,31.833-3.51,46.181-12.076c3.318-1.98,0.303-7.169-3.027-5.181
						c-13.524,8.074-27.271,12.602-43.153,11.257C301.81,195.007,301.841,201.01,305.667,201.334L305.667,201.334z"/>
				</g>
			</g>
			<g>
				<g>
					<path fill="#CDAA9B" d="M338.798,205.894c2.601-0.42,5.035-1.475,7.384-2.636c1.465-0.724,1.858-2.769,1.076-4.104
						c-0.869-1.483-2.639-1.801-4.105-1.076c-1.904,0.941-3.843,1.69-5.95,2.03c-1.616,0.261-2.492,2.245-2.095,3.69
						C335.575,205.501,337.185,206.154,338.798,205.894L338.798,205.894z"/>
				</g>
			</g>
			<g>
				<g>
					<path fill="#CDAA9B" d="M303.409,71.514c9.034,13.272,19.47,27.207,35.861,31.253c15.081,3.723,33.665,4.471,47.243-4.177
						c3.253-2.071,0.246-7.266-3.027-5.181c-12.352,7.867-28.935,6.718-42.621,3.572c-14.759-3.393-24.236-16.686-32.274-28.496
						C306.428,65.308,301.226,68.306,303.409,71.514L303.409,71.514z"/>
				</g>
			</g>
			<g>
				<g>
					<path fill="#CDAA9B" d="M304.879,87.379c-10.996,8.981-26.198,7.148-39.081,4.228c-3.769-0.854-5.368,4.931-1.596,5.786
						c15.304,3.468,32.039,4.749,44.919-5.772C312.12,89.172,307.848,84.953,304.879,87.379L304.879,87.379z"/>
				</g>
			</g>
			<ellipse fill="#CDAA9B" cx="266.28" cy="183.284" rx="12.68" ry="9.099"/>
			<ellipse fill="#CDAA9B" cx="383.304" cy="183.284" rx="12.68" ry="9.099"/>
		</g>
	</g>
</g>
<g id="幼童組" display="none">
	<g display="inline">
		<path fill="#FAFFB5" d="M401.937,195.315c-12.559,0-25.835,2.093-39.312,5.943c1.548-45.506-28.832-76.398-84.267-76.398
			c-80.636,0-183.745,65.368-230.3,146.003C1.503,351.5,29.132,416.867,109.768,416.867c33.296,0,70.422-11.151,105.818-29.917
			c9.095,18.553,29.158,29.917,58.435,29.917c61.181,0,139.413-49.596,174.733-110.775
			C484.078,244.912,463.115,195.315,401.937,195.315z"/>
		<path fill="#F5F5F5" stroke="#CDAA9B" stroke-width="6" stroke-miterlimit="10" d="M390.937,172.814
			c-12.559,0-25.835,2.093-39.312,5.943c1.548-45.507-28.832-76.398-84.267-76.398c-80.636,0-183.745,65.368-230.3,146.004
			S18.132,394.366,98.768,394.366c33.296,0,70.422-11.152,105.818-29.917c9.095,18.553,29.157,29.917,58.435,29.917
			c61.181,0,139.413-49.596,174.733-110.776C473.078,222.411,452.115,172.814,390.937,172.814z"/>
		<g>
			<g>
				<path fill="#F5F5F5" d="M49.049,361.854c0-45.233,36.668-143.823,81.9-143.823s81.9,98.59,81.9,143.823"/>
				<g>
					<path fill="#CDAA9B" d="M52.049,361.854c0.088-17.873,4.472-35.72,9.801-52.677c6.188-19.688,14.604-38.912,25.979-56.174
						c8.799-13.354,20.979-27.741,37.323-31.385c15.652-3.49,29.619,7.751,39.293,18.674c15.217,17.183,25.244,39.221,32.85,60.651
						c6.866,19.347,12.453,40.249,12.555,60.91c0.019,3.868,6.019,3.87,6,0c-0.087-17.584-4.192-35.191-9.285-51.929
						c-5.939-19.518-14.042-38.637-24.781-56.011c-8.682-14.044-20.063-28.479-35.48-35.429c-13.737-6.194-28.116-3.135-40.04,5.461
						c-20.827,15.015-33.542,40.53-43.003,63.673c-9.473,23.171-17.087,49.001-17.211,74.234
						C46.03,365.724,52.03,365.722,52.049,361.854L52.049,361.854z"/>
				</g>
			</g>
			<circle fill="#FFDCCD" stroke="#CDAA9B" stroke-width="6" stroke-miterlimit="10" cx="132.05" cy="183.314" r="93.971"/>
			<g>
				<g>
					<path fill="#CDAA9B" d="M72.83,129.162c7.583,6.77,16.575,10.911,26.407,13.28c10.964,2.643,20.94,4.414,32.091,1.893
						c21.108-4.772,44.222-19.907,63.291-1.661c2.794,2.674,7.042-1.563,4.242-4.242c-16.112-15.417-36.306-10.819-55.332-4.163
						c-5.119,1.791-10.248,3.479-15.542,4.675c-6.527,1.476-12.452,0.898-18.904-0.553c-11.763-2.645-22.741-5.197-32.01-13.472
						C74.196,122.352,69.938,126.58,72.83,129.162L72.83,129.162z"/>
				</g>
			</g>
			<g>
				<g>
					<path fill="#CDAA9B" d="M172.574,212.527c-0.347,22.412-18.108,40.179-40.523,40.524
						c-22.417,0.346-40.186-18.633-40.524-40.524c-1,1-2,2-3,3c29.016,0,58.032,0,87.047,0c3.869,0,3.869-6,0-6
						c-29.016,0-58.032,0-87.047,0c-1.616,0-3.025,1.365-3,3c0.397,25.693,20.828,46.128,46.524,46.524
						c25.699,0.396,46.135-21.429,46.523-46.524C178.634,208.656,172.633,208.662,172.574,212.527z"/>
				</g>
			</g>
			<path fill="#F5F5F5" stroke="#CDAA9B" stroke-width="6" stroke-miterlimit="10" d="M144,229.5c0,2.963-2.627,5.5-5.434,5.5
				h-17.238c-2.807,0-5.328-2.537-5.328-5.5v-11.599c0-2.963,2.521-4.901,5.328-4.901h17.238c2.807,0,5.434,1.938,5.434,4.901V229.5
				z"/>
			<ellipse fill="#CDAA9B" cx="96.828" cy="174.003" rx="13.575" ry="17.245"/>
			<ellipse fill="#CDAA9B" cx="163.97" cy="174.003" rx="13.576" ry="17.245"/>
			<g>
				<g>
					<path fill="#CDAA9B" d="M79.508,194.836c10.178,9.542,25.195,9.542,35.374,0c2.828-2.651-1.423-6.885-4.242-4.242
						c-7.761,7.275-19.128,7.275-26.889,0C80.932,187.951,76.68,192.186,79.508,194.836L79.508,194.836z"/>
				</g>
			</g>
			<g>
				<g>
					<path fill="#CDAA9B" d="M146.65,194.836c10.179,9.542,25.195,9.542,35.374,0c2.828-2.651-1.423-6.885-4.242-4.242
						c-7.761,7.275-19.128,7.275-26.89,0C148.073,187.951,143.822,192.186,146.65,194.836L146.65,194.836z"/>
				</g>
			</g>
			<g>
				<g>
					<path fill="#CDAA9B" d="M189.328,278.373c-32.4,31.859-84.67,31.861-117.07,0c-2.76-2.714-7.004,1.526-4.242,4.242
						c34.723,34.146,90.831,34.145,125.554,0C196.332,279.899,192.087,275.659,189.328,278.373L189.328,278.373z"/>
				</g>
			</g>
			<g>
				<circle fill="#CDAA9B" cx="148.561" cy="317.827" r="6.604"/>
			</g>
			<g>
				<circle fill="#CDAA9B" cx="116.641" cy="335.438" r="6.604"/>
			</g>
			<g>
				<circle fill="#CDAA9B" cx="148.561" cy="353.049" r="6.604"/>
			</g>
			<g>
				<g>
					<path fill="#CDAA9B" d="M113.641,306.087c0,19.078,0,38.157,0,57.235c0,3.869,6,3.869,6,0c0-19.078,0-38.157,0-57.235
						C119.641,302.218,113.641,302.218,113.641,306.087L113.641,306.087z"/>
				</g>
			</g>
			<g>
				<g>
					<path fill="#CDAA9B" d="M145.561,306.087c0,19.078,0,38.157,0,57.235c0,3.869,6,3.869,6,0c0-19.078,0-38.157,0-57.235
						C151.561,302.218,145.561,302.218,145.561,306.087L145.561,306.087z"/>
				</g>
			</g>
		</g>
		<g>
			<g>
				<path fill="#F5F5F5" d="M238.183,326.226c0-45.232,36.669-143.823,81.9-143.823s81.901,98.59,81.901,143.823"/>
				<g>
					<path fill="#CDAA9B" d="M241.183,326.226c0.088-17.873,4.472-35.72,9.801-52.677c6.188-19.687,14.605-38.911,25.979-56.173
						c8.8-13.354,20.979-27.742,37.323-31.386c15.651-3.49,29.618,7.751,39.292,18.674c15.218,17.182,25.245,39.221,32.851,60.652
						c6.867,19.347,12.454,40.248,12.556,60.909c0.02,3.868,6.02,3.87,6,0c-0.087-17.584-4.192-35.191-9.285-51.928
						c-5.939-19.519-14.042-38.638-24.781-56.011c-8.682-14.044-20.063-28.479-35.479-35.429
						c-13.738-6.194-28.116-3.135-40.04,5.461c-20.827,15.015-33.543,40.53-43.004,63.672
						c-9.473,23.171-17.087,49.001-17.212,74.234C235.164,330.096,241.163,330.094,241.183,326.226L241.183,326.226z"/>
				</g>
			</g>
			<circle fill="#FFDCCD" stroke="#CDAA9B" stroke-width="6" stroke-miterlimit="10" cx="321.184" cy="147.687" r="93.972"/>
			<ellipse fill="#CDAA9B" cx="285.963" cy="145.46" rx="13.575" ry="17.244"/>
			<path fill="#CDAA9B" d="M366.681,145.46c0,9.523-6.079,17.244-13.577,17.244c-7.495,0-13.575-7.721-13.575-17.244
				c0-9.523,6.08-17.244,13.575-17.244C360.602,128.216,366.681,135.937,366.681,145.46z"/>
			<g>
				<g>
					<path fill="#CDAA9B" d="M378.462,242.746c-32.4,31.861-84.67,31.859-117.07,0c-2.76-2.714-7.005,1.526-4.242,4.242
						c34.723,34.145,90.832,34.146,125.555,0C385.467,244.272,381.222,240.032,378.462,242.746L378.462,242.746z"/>
				</g>
			</g>
			<g>
				<circle fill="#CDAA9B" cx="337.696" cy="282.199" r="6.604"/>
			</g>
			<g>
				<circle fill="#CDAA9B" cx="305.774" cy="299.811" r="6.604"/>
			</g>
			<g>
				<circle fill="#CDAA9B" cx="337.696" cy="317.421" r="6.604"/>
			</g>
			<g>
				<g>
					<path fill="#CDAA9B" d="M302.774,270.46c0,19.078,0,38.157,0,57.235c0,3.869,6,3.869,6,0c0-19.078,0-38.157,0-57.235
						C308.774,266.591,302.774,266.591,302.774,270.46L302.774,270.46z"/>
				</g>
			</g>
			<g>
				<g>
					<path fill="#CDAA9B" d="M334.695,270.46c0,19.078,0,38.157,0,57.235c0,3.869,6,3.869,6,0c0-19.078,0-38.157,0-57.235
						C340.695,266.591,334.695,266.591,334.695,270.46L334.695,270.46z"/>
				</g>
			</g>
			<g>
				<g>
					<path fill="#CDAA9B" d="M259.706,113.442c16.136,0,32.272,0,48.409,0c2.349,0,4.698,0,7.047,0c2.364,0,3.475-2.458,4.654-4.154
						c4.622-6.645,9.244-13.289,13.866-19.933c-1.828-0.239-3.656-0.478-5.483-0.717c1.28,7.534,2.562,15.067,3.843,22.601
						c0.221,1.298,1.66,2.203,2.893,2.203c18.104,0,36.21,0,54.314,0c3.869,0,3.869-6,0-6c-18.104,0-36.21,0-54.314,0
						c0.964,0.734,1.929,1.468,2.893,2.203c-1.28-7.534-2.562-15.067-3.843-22.601c-0.477-2.804-4.162-2.615-5.483-0.717
						c-5.24,7.534-10.48,15.067-15.722,22.601c0.864-0.495,1.728-0.991,2.591-1.486c-18.555,0-37.109,0-55.664,0
						C255.837,107.442,255.837,113.442,259.706,113.442L259.706,113.442z"/>
				</g>
			</g>
			<g>
				<g>
					<path fill="#CDAA9B" d="M296.387,194.973c14.449,10.292,33.637,10.291,48.086,0c3.122-2.224,0.13-7.431-3.029-5.181
						c-12.87,9.167-29.157,9.168-42.027,0C296.257,187.542,293.265,192.749,296.387,194.973L296.387,194.973z"/>
				</g>
			</g>
			<g>
				<g>
					<path fill="#CDAA9B" d="M313.943,214.069c3.902,2.685,9.07,2.683,12.973,0c3.166-2.176,0.17-7.379-3.027-5.181
						c-2.28,1.567-4.638,1.568-6.918,0C313.773,206.689,310.777,211.892,313.943,214.069L313.943,214.069z"/>
				</g>
			</g>
			<ellipse fill="#CDAA9B" cx="263.28" cy="183.284" rx="12.68" ry="9.099"/>
			<ellipse fill="#CDAA9B" cx="380.304" cy="183.284" rx="12.68" ry="9.099"/>
		</g>
	</g>
</g>
</svg>
