<?xml version="1.0" encoding="utf-8"?>
<!-- Generator: Adobe Illustrator 16.0.0, SVG Export Plug-In . SVG Version: 6.00 Build 0)  -->
<!DOCTYPE svg PUBLIC "-//W3C//DTD SVG 1.1//EN" "http://www.w3.org/Graphics/SVG/1.1/DTD/svg11.dtd">
<svg version="1.1" id="圖層_1" xmlns="http://www.w3.org/2000/svg" xmlns:xlink="http://www.w3.org/1999/xlink" x="0px" y="0px"
	 width="80px" height="80px" viewBox="-15 -30 80 80" enable-background="new -15 -30 80 80" xml:space="preserve">
<g>
	<path fill="#F5F5F5" d="M24.947,47.504C4.546,47.48-13.051,30.759-12.487,8.842c0.496-19.326,16.515-36.907,38.737-36.328
		c19.24,0.507,36.886,16.5,36.232,38.815C61.919,30.744,45.952,47.422,24.947,47.504z M27,33.564
		c0.025-0.485,0.066-0.931,0.066-1.377c0.003-7.303,0.012-14.612-0.012-21.916c-0.006-0.802,0.195-1.129,1.063-1.095
		c1.816,0.06,3.631-0.004,5.452,0.03c0.678,0.015,0.913-0.22,0.876-0.899c-0.045-0.844-0.011-1.695-0.011-2.543
		c0-1.538,0-3.077,0-4.761c-1.739,0-3.369,0-4.994,0c-2.463,0-2.463,0-2.374-2.494c0.076-2.151,1.438-3.469,3.589-3.472
		c1.229-0.003,2.463,0,3.713,0c0-2.774,0-5.395,0-8.068c-0.353-0.016-0.647-0.041-0.945-0.041c-2.545-0.002-5.093-0.006-7.64,0
		c-3.96,0.01-7.486,2.566-8.81,6.289c-0.628,1.77-0.502,3.582-0.511,5.391c-0.011,2.395,0,2.395-2.359,2.395
		c-1.414,0-2.833,0-4.348,0c0,2.655-0.018,5.163,0.036,7.669c0,0.18,0.471,0.491,0.732,0.498c1.636,0.045,3.278,0.073,4.911,0.003
		c0.869-0.035,1.055,0.28,1.05,1.091c-0.033,7.371-0.018,14.735-0.018,22.101c0,0.385,0,0.77,0,1.203
		C20.032,33.564,23.474,33.564,27,33.564z"/>
</g>
</svg>
