<?xml version="1.0" encoding="utf-8"?>
<!-- Generator: Adobe Illustrator 16.0.0, SVG Export Plug-In . SVG Version: 6.00 Build 0)  -->
<!DOCTYPE svg PUBLIC "-//W3C//DTD SVG 1.1//EN" "http://www.w3.org/Graphics/SVG/1.1/DTD/svg11.dtd">
<svg version="1.1" id="圖層_1" xmlns="http://www.w3.org/2000/svg" xmlns:xlink="http://www.w3.org/1999/xlink" x="0px" y="0px"
	 width="150px" height="150px" viewBox="0 0 150 150" enable-background="new 0 0 150 150" xml:space="preserve">
<g id="線搞">
	<g>
		<path fill="none" stroke="#C8C8C8" stroke-width="0.5" stroke-miterlimit="10" d="M78.453,71.71
			c-0.963,0.15-1.506,0.48-2.156,1.146c-0.7,0.716-0.752-0.278-1.463-0.533c-0.971-0.349-1.846-0.595-2.754-1.125
			c-1.18-0.737-2.139-1.633-3.037-2.683c-0.688-0.802-0.973-2.016-2.208-2.177c-1.382-0.181-2.853,0.344-4.118,0.845
			c-1.291,0.512-2.558,1.202-3.692,2.041c-1.189,0.879-2.391,1.682-3.471,2.712c-1.188,1.136-2.411,2.267-3.31,3.655
			c-0.939,1.449,0.381,3.521,1.109,4.884c0.681,1.271,4.714,7.06,4.716,7.064c0.522,0.74,2.572,0.444,3.344,0.512
			c0.407,0.036,0.851,0.063,1.111,0.428c0.454,0.636,0.08,1.474-0.195,2.101c-0.329,0.75-0.663,1.354-0.506,2.203
			c0,0,3.729,5.801,4.495,5.803c2.906,0.009,5.813,0.017,8.72,0.021c4.763,0.01,9.6,0.248,14.356-0.031
			c3.203-0.189,5.309-2.719,7.635-4.625c1.053-0.861,1.408-2.192,0.64-3.391c-0.619-0.963-1.713-0.881-2.744-0.854
			c-3.445,0.086-7.15,0.436-10.424-0.885c-1.415-0.57-3.273-1.669-3.894-3.123c-0.816-1.929-0.939-4.574-1.022-6.643
			C79.501,77,79.959,74.93,79.79,72.867C79.724,72.065,79.273,71.58,78.453,71.71z"/>
		<path fill="none" stroke="#C8C8C8" stroke-width="0.5" stroke-miterlimit="10" d="M53.472,74.143
			c1.177,0.274,2.215,1.503,2.813,2.501c0.884,1.479,1.447,3.076,2.148,4.634c0.409,0.908,0.801,1.824,1.189,2.742
			c0.529,1.251,1.413,2.229,2.53,2.984c0.424,0.285,0.854,0.559,1.201,0.938c0.498,0.552,0.299,1.273,0.183,1.925
			c-0.322,1.789,0.633,3.17,1.653,4.564c0.529,0.722,1.084,1.653,1.931,2.022c0.89,0.389,21.479,0.129,22.208,0.146
			c1.713,0.078,2.882-0.078,4.438-0.855c0.562-0.302,1.133-0.58,1.685-0.896c0.604-0.347,1.159-0.755,1.743-1.129"/>
		<path fill="none" stroke="#C8C8C8" stroke-width="0.5" stroke-miterlimit="10" d="M55.082,72.53
			c0.277,0.489,0.713,0.698,1.105,1.084c1.396,1.367,2.594,2.932,3.606,4.6c1.261,2.077,2.318,4.269,3.313,6.483
			c0.367,0.816,0.904,1.559,1.197,2.402c0.49,1.401,1.211,2.655,1.87,3.973c0.552,1.106,1.048,2.581,2.093,3.325
			c0.705,0.503,21.481,0.987,23,0.992c0.813,0.003,5.719-1.583,6.133-1.983"/>
		<path fill="none" stroke="#C8C8C8" stroke-width="0.5" stroke-miterlimit="10" d="M62.923,84.267
			c0.85-1.419,1.654-3.359,1.87-5.003c0.174-1.32,0.279-2.451-0.252-3.704c-0.469-1.107-1.182-2.141-1.618-3.235
			c-0.696-1.738-0.643-3.251-0.26-5.037"/>
		<path fill="none" stroke="#C8C8C8" stroke-width="0.5" stroke-miterlimit="10" d="M84.956,89.055
			c0.05,0.103,0.125,0.264,0.073,0.378c-0.092,0.206-0.365,0.235-0.563,0.246c-0.311,0.017-0.616,0.094-0.929,0.094
			c-0.987,0-1.923-0.052-2.908-0.26c-1.842-0.398-3.42-1.499-4.296-3.185c-0.698-1.341-0.665-2.896-0.646-4.365
			c0.021-1.479,0.065-8.03,0.062-8.81"/>
		<path fill="none" stroke="#C8C8C8" stroke-width="0.5" stroke-miterlimit="10" d="M68.012,94.234
			c2.668-2.671,6.655-3.107,10.229-2.803c2.338,0.207,4.726,0.52,7.063,0.936c2.7,0.467,5.192,0.883,7.997,0.777
			c1.039-0.051,4.467-0.361,4.727-1.453"/>
		<path fill="none" stroke="#C8C8C8" stroke-width="0.5" stroke-miterlimit="10" d="M63.129,66.949
			c0.328,0.006,0.689-0.189,0.953-0.367c0.382-0.262,0.779-0.504,1.14-0.793c0.469-0.376,0.889-0.974,1.078-1.542
			c0.32-0.967-0.904-1.68-1.742-1.609c-1.209,0.102-1.041,1.577-1.152,2.456c-0.049,0.397-0.041,0.802-0.127,1.195
			c-0.041,0.183-0.094,0.38-0.189,0.542c-0.102,0.167-0.272,0.245-0.373,0.402"/>
		<path fill="none" stroke="#C8C8C8" stroke-width="0.5" stroke-miterlimit="10" d="M63.986,66.688
			c0.779-0.598,0.104-1.844,0.39-2.623c0.208-0.546,0.805-0.648,1.298-0.546c0.157,0.027,0.779,0.262,0.648,0.392"/>
		<path fill="none" stroke="#C8C8C8" stroke-width="0.5" stroke-miterlimit="10" d="M65.545,66.325
			c0.679-0.41,0.999-1.349,0.921-2.109c-0.033-0.311-0.144-0.586-0.351-0.823"/>
		<path fill="none" stroke="#C8C8C8" stroke-width="0.5" stroke-miterlimit="10" d="M75.767,73.092l12.196-14.154
			c0,0-2.326-0.59-3.491-1.024c-2.354-0.881-4.627-1.896-6.78-3.213c-1.369-0.838-2.75-1.888-3.396-3.408l-0.008-0.003
			c-0.266,0.689-0.516,1.396-0.77,2.128c-0.767,2.229-1.276,4.578-2.348,6.691c-1.109,2.193-2.183,4.432-3.334,6.616"/>
		<path fill="none" stroke="#C8C8C8" stroke-width="0.5" stroke-miterlimit="10" d="M73.048,55.083
			c0.253,0.404,0.667,0.843,1.018,1.167c1.267,1.173,2.654,2.209,4.174,3.042c1.658,0.908,3.378,1.481,5.173,2
			c0.752,0.218,1.315,0.387,2.099,0.387"/>
		<path fill="none" stroke="#C8C8C8" stroke-width="0.5" stroke-miterlimit="10" d="M71.958,58.473
			c0.137,0.2,0.155,0.443,0.27,0.649c0.547,1.013,1.621,1.924,2.542,2.588c0.897,0.648,1.909,1.11,2.901,1.591
			c1.592,0.766,3.314,1.367,5.089,1.492"/>
		<path fill="none" stroke="#C8C8C8" stroke-width="0.5" stroke-miterlimit="10" d="M70.517,61.432
			c0.366,1.811,2.412,3.196,3.832,4.152c0.938,0.631,1.944,1.148,3,1.551c0.943,0.358,1.78,0.776,2.813,0.828"/>
		<path fill="none" stroke="#C8C8C8" stroke-width="0.5" stroke-miterlimit="10" d="M69.271,63.964
			c0.176,1.016,0.856,1.865,1.576,2.564c1.361,1.324,2.932,2.402,4.687,3.144c0.793,0.333,1.614,0.702,2.5,0.679"/>
	</g>
</g>
<g id="尺標" display="none">
</g>
</svg>
