<?xml version="1.0" encoding="utf-8"?>
<!-- Generator: Adobe Illustrator 16.0.0, SVG Export Plug-In . SVG Version: 6.00 Build 0)  -->
<!DOCTYPE svg PUBLIC "-//W3C//DTD SVG 1.1//EN" "http://www.w3.org/Graphics/SVG/1.1/DTD/svg11.dtd">
<svg version="1.1" id="圖層_1" xmlns="http://www.w3.org/2000/svg" xmlns:xlink="http://www.w3.org/1999/xlink" x="0px" y="0px"
	 width="150px" height="150px" viewBox="0 0 150 150" enable-background="new 0 0 150 150" xml:space="preserve">
<g id="線搞">
	<g>
		<path fill="none" stroke="#C8C8C8" stroke-width="0.5" stroke-miterlimit="10" d="M70.21,72.867
			c-0.169,2.063,0.289,4.133,0.205,6.189c-0.083,2.068-0.206,4.714-1.022,6.643c-0.62,1.454-2.479,2.553-3.894,3.123
			c-3.273,1.32-6.979,0.971-10.424,0.885c-1.031-0.027-2.125-0.109-2.744,0.854c-0.769,1.198-0.413,2.529,0.64,3.391
			c2.326,1.906,4.432,4.436,7.635,4.625c4.757,0.279,9.594,0.041,14.356,0.031c2.906-0.005,5.813-0.013,8.72-0.021
			c0.767-0.002,4.495-5.803,4.495-5.803c0.157-0.849-0.177-1.453-0.506-2.203c-0.275-0.627-0.649-1.465-0.195-2.101
			c0.261-0.364,0.704-0.392,1.111-0.428c0.771-0.067,2.821,0.229,3.344-0.512c0.002-0.005,4.035-5.793,4.716-7.064
			c0.729-1.363,2.049-3.435,1.109-4.884c-0.898-1.389-2.121-2.52-3.31-3.655c-1.08-1.03-2.281-1.833-3.471-2.712
			c-1.135-0.839-2.401-1.529-3.692-2.041c-1.266-0.501-2.736-1.025-4.118-0.845c-1.235,0.161-1.521,1.375-2.208,2.177
			c-0.898,1.05-1.857,1.945-3.037,2.683c-0.908,0.53-1.783,0.776-2.754,1.125c-0.711,0.255-0.763,1.249-1.463,0.533
			c-0.65-0.666-1.193-0.996-2.156-1.146C70.727,71.58,70.276,72.065,70.21,72.867z"/>
		<path fill="none" stroke="#C8C8C8" stroke-width="0.5" stroke-miterlimit="10" d="M52.807,93.718
			c0.584,0.374,1.14,0.782,1.743,1.129c0.552,0.316,1.123,0.595,1.685,0.896c1.556,0.777,2.725,0.934,4.438,0.855
			c0.729-0.017,21.318,0.243,22.208-0.146c0.847-0.369,1.401-1.301,1.931-2.022c1.021-1.395,1.976-2.775,1.653-4.564
			c-0.116-0.651-0.315-1.373,0.183-1.925c0.347-0.379,0.777-0.652,1.201-0.938c1.117-0.755,2.001-1.733,2.53-2.984
			c0.389-0.918,0.78-1.834,1.189-2.742c0.701-1.558,1.265-3.154,2.148-4.634c0.598-0.998,1.636-2.227,2.813-2.501"/>
		<path fill="none" stroke="#C8C8C8" stroke-width="0.5" stroke-miterlimit="10" d="M52.601,93.406
			c0.414,0.4,5.32,1.986,6.133,1.983c1.519-0.005,22.295-0.489,23-0.992c1.045-0.744,1.541-2.219,2.093-3.325
			c0.659-1.317,1.38-2.571,1.87-3.973c0.293-0.844,0.83-1.586,1.197-2.402c0.994-2.215,2.052-4.406,3.313-6.483
			c1.013-1.668,2.21-3.232,3.606-4.6c0.393-0.386,0.828-0.595,1.105-1.084"/>
		<path fill="none" stroke="#C8C8C8" stroke-width="0.5" stroke-miterlimit="10" d="M87.337,67.287
			c0.383,1.786,0.437,3.299-0.26,5.037c-0.437,1.095-1.149,2.128-1.618,3.235c-0.531,1.253-0.426,2.384-0.252,3.704
			c0.216,1.644,1.021,3.584,1.87,5.003"/>
		<path fill="none" stroke="#C8C8C8" stroke-width="0.5" stroke-miterlimit="10" d="M74.251,73.153
			c-0.004,0.779,0.041,7.331,0.062,8.81c0.019,1.469,0.052,3.024-0.646,4.365c-0.876,1.686-2.454,2.786-4.296,3.185
			c-0.985,0.208-1.921,0.26-2.908,0.26c-0.313,0-0.618-0.077-0.929-0.094c-0.197-0.011-0.471-0.04-0.563-0.246
			c-0.052-0.114,0.023-0.275,0.073-0.378"/>
		<path fill="none" stroke="#C8C8C8" stroke-width="0.5" stroke-miterlimit="10" d="M51.974,91.691
			c0.26,1.092,3.688,1.402,4.727,1.453c2.805,0.105,5.297-0.311,7.997-0.777c2.337-0.416,4.725-0.729,7.063-0.936
			c3.573-0.305,7.561,0.132,10.229,2.803"/>
		<path fill="none" stroke="#C8C8C8" stroke-width="0.5" stroke-miterlimit="10" d="M87.284,67.233
			c-0.101-0.157-0.271-0.235-0.373-0.402c-0.096-0.162-0.148-0.359-0.189-0.542c-0.086-0.394-0.078-0.798-0.127-1.195
			c-0.111-0.879,0.057-2.354-1.152-2.456c-0.838-0.07-2.063,0.643-1.742,1.609c0.189,0.568,0.609,1.166,1.078,1.542
			c0.36,0.289,0.758,0.531,1.14,0.793c0.264,0.178,0.625,0.373,0.953,0.367"/>
		<path fill="none" stroke="#C8C8C8" stroke-width="0.5" stroke-miterlimit="10" d="M83.678,63.911
			c-0.131-0.13,0.491-0.364,0.648-0.392c0.493-0.103,1.09,0,1.298,0.546c0.285,0.779-0.39,2.025,0.39,2.623"/>
		<path fill="none" stroke="#C8C8C8" stroke-width="0.5" stroke-miterlimit="10" d="M83.885,63.393
			c-0.207,0.237-0.317,0.513-0.351,0.823c-0.078,0.761,0.242,1.699,0.921,2.109"/>
		<path fill="none" stroke="#C8C8C8" stroke-width="0.5" stroke-miterlimit="10" d="M82.163,66.725
			c-1.151-2.185-2.225-4.423-3.334-6.616c-1.071-2.113-1.581-4.463-2.348-6.691c-0.254-0.731-0.504-1.438-0.77-2.128l-0.008,0.003
			c-0.646,1.521-2.026,2.57-3.396,3.408c-2.153,1.317-4.427,2.332-6.78,3.213c-1.165,0.435-3.491,1.024-3.491,1.024l12.196,14.154"
			/>
		<path fill="none" stroke="#C8C8C8" stroke-width="0.5" stroke-miterlimit="10" d="M64.489,61.679c0.783,0,1.347-0.169,2.099-0.387
			c1.795-0.519,3.515-1.092,5.173-2c1.52-0.833,2.907-1.869,4.174-3.042c0.351-0.324,0.765-0.763,1.018-1.167"/>
		<path fill="none" stroke="#C8C8C8" stroke-width="0.5" stroke-miterlimit="10" d="M67.24,64.793
			c1.774-0.125,3.497-0.727,5.089-1.492c0.992-0.48,2.004-0.942,2.901-1.591c0.921-0.664,1.995-1.575,2.542-2.588
			c0.114-0.206,0.133-0.449,0.27-0.649"/>
		<path fill="none" stroke="#C8C8C8" stroke-width="0.5" stroke-miterlimit="10" d="M69.838,67.963
			c1.033-0.052,1.87-0.47,2.813-0.828c1.056-0.402,2.063-0.92,3-1.551c1.42-0.956,3.466-2.342,3.832-4.152"/>
		<path fill="none" stroke="#C8C8C8" stroke-width="0.5" stroke-miterlimit="10" d="M71.967,70.351
			c0.886,0.023,1.707-0.346,2.5-0.679c1.755-0.741,3.325-1.819,4.687-3.144c0.72-0.699,1.4-1.549,1.576-2.564"/>
	</g>
</g>
<g id="尺標" display="none">
</g>
</svg>
